<svg width="385" height="196" viewBox="0 0 385 196" fill="none" xmlns="http://www.w3.org/2000/svg">
<ellipse cx="99.9889" cy="12.7754" rx="5.56816" ry="7.59295" transform="rotate(-50.7528 99.9889 12.7754)" fill="#FFEDCC"/>
<ellipse cx="327.748" cy="10.5831" rx="5.56816" ry="7.59295" transform="rotate(-146.469 327.748 10.5831)" fill="#D2D9FF"/>
<path d="M25.8365 70.7173C20.1831 68.45 15.1807 64.8151 11.2778 60.1387C10.9601 59.7729 10.6543 59.3792 10.3195 59.028C8.25476 56.7997 6.80856 54.0703 6.12433 51.1105C5.68722 49.5536 5.62484 47.9153 5.94232 46.3297C6.25979 44.744 6.94809 43.2561 7.95093 41.9875C10.6625 38.4752 14.3556 37.3922 18.534 37.472C21.049 37.5753 23.5421 37.9835 25.9587 38.6877C26.2809 38.8045 26.6144 38.8871 26.9539 38.9341C27.9816 38.9744 29.1304 39.429 29.9863 38.6045C31.1124 37.7509 31.882 36.5101 32.1463 35.122C32.5129 31.9782 32.982 28.8778 33.4138 25.7617C33.5933 24.3061 33.9619 22.8801 34.5103 21.5199C35.0353 20.0983 35.9933 18.8774 37.2491 18.0292C38.5049 17.1811 39.9953 16.7484 41.5101 16.7923C43.9782 16.6843 46.4166 17.3648 48.472 18.7354C52.1598 21.2237 55.1806 24.5792 57.2691 28.5073C58.9741 31.4223 60.1584 34.612 60.769 37.9334C61.4585 41.805 61.4056 45.7724 60.613 49.6242C60.0996 52.3744 59.2713 55.0563 58.1444 57.6169C55.8014 62.3855 52.7319 66.5597 48.1613 69.5029C44.0814 72.1578 39.2333 73.3778 34.3827 72.97C31.4129 72.7924 28.508 72.0267 25.8365 70.7173Z" fill="#FFE4E2"/>
<path d="M89.5216 135.929C89.9347 138.932 89.7987 141.984 89.1203 144.938C88.748 147.042 88.2306 149.118 87.572 151.151C86.6872 153.714 85.5382 156.177 84.1437 158.501C83.404 159.725 82.5548 160.879 81.7134 162.012C80.6706 163.356 79.4987 164.596 78.2143 165.712C76.1588 167.555 73.8762 169.128 71.422 170.392C71.0901 170.578 70.7431 170.736 70.3847 170.864C69.2129 171.248 68.0702 171.716 66.9652 172.264C65.3934 173.064 63.674 173.533 61.9135 173.642C59.7783 173.841 57.6257 173.556 55.6166 172.806C54.8221 172.473 54.1364 171.925 53.6371 171.223C53.1604 170.507 52.8824 169.677 52.8314 168.819C52.7804 167.96 52.9583 167.103 53.3468 166.336C54.0363 164.762 55.0804 163.37 56.3974 162.267C58.541 160.371 60.8505 158.672 63.298 157.189C65.2988 155.947 67.4159 155.018 69.4111 153.818C69.9927 153.496 70.5145 153.076 70.9535 152.576C71.0264 152.496 71.0787 152.399 71.1059 152.295C71.1331 152.19 71.1343 152.08 71.1095 151.974C71.0847 151.869 71.0346 151.771 70.9635 151.689C70.8925 151.607 70.8025 151.544 70.7015 151.504C70.2731 151.291 69.7942 151.2 69.3173 151.241C68.121 151.333 66.951 151.64 65.8631 152.146C64.5127 152.734 63.1635 153.333 61.8636 154.008C60.4429 154.774 58.9557 155.41 57.4202 155.909C55.9766 156.419 54.4212 156.525 52.9215 156.217C52.0371 156.025 51.2324 155.567 50.6157 154.905C50.1642 154.442 49.8646 153.852 49.7571 153.214C49.6496 152.577 49.7392 151.921 50.014 151.336C50.5081 150.099 51.2495 148.976 52.1928 148.037C54.7163 145.569 57.5657 143.459 60.6615 141.765C62.2265 140.959 63.7167 140.016 65.1146 138.946C65.47 138.702 65.7808 138.398 66.0332 138.049C66.0726 137.989 66.0979 137.921 66.1074 137.85C66.1169 137.779 66.1102 137.707 66.088 137.639C66.0657 137.571 66.0284 137.509 65.9788 137.457C65.9292 137.406 65.8686 137.366 65.8015 137.341C64.8591 136.993 63.8365 136.923 62.8555 137.14C60.6086 137.727 58.393 138.412 56.1258 138.909C54.0978 139.446 51.9773 139.537 49.911 139.174C48.4622 138.85 47.1493 138.085 46.1525 136.985C45.7232 136.532 45.401 135.989 45.2096 135.395C45.0182 134.801 44.9625 134.172 45.0466 133.553C45.145 132.511 45.4398 131.496 45.9153 130.563C46.9165 128.726 48.2108 127.064 49.7471 125.644C50.939 124.487 52.2163 123.422 53.5683 122.457C55.7233 120.974 58.0682 119.787 60.5399 118.93C62.287 118.323 64.0973 117.916 65.9361 117.717C68.3008 117.452 70.694 117.631 72.9931 118.244C75.4319 118.834 77.7869 119.729 80.0029 120.906C81.7137 121.847 83.2823 123.027 84.6618 124.41C85.6583 125.426 86.4779 126.602 87.0869 127.888C88.4678 130.362 89.2983 133.105 89.5216 135.929Z" fill="#D2D9FF"/>
<path d="M362.825 107.103C360.446 106.09 358.067 105.017 355.738 103.944C354.837 103.55 353.867 103.34 352.884 103.326C352.725 103.306 352.564 103.326 352.416 103.385C352.267 103.444 352.136 103.54 352.035 103.663C351.934 103.787 351.866 103.934 351.837 104.091C351.808 104.248 351.82 104.41 351.871 104.562C352.024 105.467 352.455 106.303 353.106 106.951C354.04 107.888 355.112 108.677 356.285 109.289C357.743 109.968 359.191 110.687 360.699 111.314C362.95 112.281 365.132 113.401 367.229 114.665C367.646 114.922 368.033 115.224 368.383 115.566C368.933 115.982 369.365 116.533 369.637 117.166C369.91 117.798 370.013 118.491 369.938 119.176C369.862 119.86 369.61 120.514 369.206 121.072C368.803 121.63 368.261 122.074 367.634 122.359C366.224 123.149 364.666 123.639 363.058 123.797C359.489 124.085 355.898 123.742 352.448 122.785C351.015 122.474 349.625 121.991 348.308 121.347C347.012 120.649 345.665 120.031 344.43 119.241C341.71 117.629 339.347 115.479 337.485 112.924C335.167 109.641 333.541 105.921 332.707 101.99C332.37 100.088 332.627 98.1285 333.442 96.3772C334.257 94.6259 335.59 93.1677 337.262 92.2003C341.276 90.0183 345.692 88.675 350.241 88.2519C355.33 87.7574 360.465 88.134 365.427 89.3655C366.653 89.6462 367.861 90.0046 369.041 90.4387C371.066 91.2081 373.162 91.8054 375.116 92.7368C378.761 94.4312 381.827 97.1596 383.934 100.583C384.699 101.689 385.151 102.982 385.24 104.325C385.329 105.667 385.052 107.008 384.44 108.206C383.989 109.198 383.283 110.053 382.393 110.682C381.504 111.312 380.463 111.694 379.378 111.79C377.279 111.96 375.167 111.772 373.131 111.233C369.497 110.373 366.227 108.571 362.825 107.103Z" fill="#FFEDCC"/>
<path d="M93.9527 71.7648C95.1685 74.0466 96.3462 76.3758 97.4845 78.6731C97.9386 79.5454 98.5621 80.3183 99.3186 80.9465C99.4291 81.0619 99.5671 81.1473 99.7196 81.1946C99.8722 81.2419 100.034 81.2497 100.191 81.2171C100.347 81.1846 100.492 81.1128 100.613 81.0085C100.734 80.9042 100.827 80.7709 100.882 80.621C101.332 79.8204 101.521 78.899 101.421 77.986C101.283 76.67 100.944 75.383 100.416 74.1697C99.7071 72.7264 99.0317 71.2579 98.2519 69.8221C97.1074 67.6566 96.1125 65.4152 95.2742 63.1137C95.1106 62.6523 94.9991 62.174 94.9418 61.6878C94.7752 61.0194 94.785 60.3191 94.9702 59.6556C95.1554 58.9921 95.5097 58.3881 95.9985 57.9026C96.4872 57.4172 97.0936 57.0669 97.7583 56.8861C98.4231 56.7054 99.1233 56.7003 99.7906 56.8714C101.384 57.1418 102.904 57.7393 104.255 58.6261C107.213 60.643 109.793 63.1649 111.876 66.0764C112.796 67.2182 113.575 68.4669 114.196 69.7954C114.766 71.1527 115.426 72.4789 115.891 73.869C116.996 76.8319 117.485 79.9885 117.329 83.1466C117.072 87.157 116.001 91.0731 114.182 94.6566C113.25 96.3483 111.82 97.7122 110.086 98.5634C108.352 99.4145 106.398 99.7118 104.489 99.4149C99.9952 98.5924 95.7151 96.865 91.909 94.3376C87.6384 91.5272 83.8781 88.0092 80.7898 83.935C80.0117 82.9465 79.2973 81.9095 78.6509 80.8303C77.5582 78.96 76.3024 77.1792 75.3666 75.2274C73.5939 71.6199 72.9207 67.5709 73.4309 63.5839C73.5297 62.2422 73.9903 60.9524 74.7639 59.8517C75.5375 58.751 76.595 57.8806 77.8239 57.3332C78.7978 56.8444 79.884 56.6229 80.9716 56.6913C82.0591 56.7597 83.109 57.1156 84.0139 57.7226C85.7539 58.9082 87.2796 60.3812 88.5256 62.0784C90.8138 65.0304 92.2272 68.4863 93.9527 71.7648Z" fill="#E6F6E7"/>
<path d="M305.39 143.928C305.542 143.89 305.684 143.817 305.803 143.715C305.923 143.613 306.017 143.485 306.078 143.341C307.062 141.671 308.242 140.125 309.591 138.734C310.49 137.829 311.513 137.055 312.628 136.436C313.397 135.955 314.266 135.656 315.168 135.563C316.07 135.47 316.981 135.585 317.832 135.9C318.551 136.168 319.153 136.68 319.533 137.347C320.269 138.569 320.651 139.971 320.636 141.397C320.636 142.116 320.636 142.824 320.636 143.543C320.655 144.574 320.501 145.6 320.181 146.58C319.733 148.53 318.977 150.396 317.943 152.108C317.924 152.149 317.915 152.194 317.915 152.24C317.915 152.285 317.924 152.33 317.943 152.371C317.976 152.433 318.031 152.48 318.097 152.502C318.162 152.525 318.234 152.521 318.298 152.493L321.456 151.652C323.64 151.181 325.883 151.041 328.108 151.237C328.862 151.319 329.606 151.482 330.325 151.723C330.856 151.859 331.353 152.105 331.783 152.446C332.212 152.786 332.565 153.214 332.819 153.7C333.072 154.186 333.219 154.721 333.252 155.268C333.285 155.815 333.202 156.363 333.008 156.876C332.571 158.332 331.786 159.66 330.72 160.744C329.445 162.025 327.976 163.098 326.367 163.923C323.955 165.15 321.474 166.236 318.936 167.172C317.65 167.679 316.415 168.286 315.149 168.823C312.568 169.916 309.966 170.938 307.323 171.86C307.141 171.92 306.969 171.991 306.787 172.042C306.529 172.104 306.296 172.241 306.116 172.436C305.936 172.63 305.817 172.874 305.775 173.135C305.42 174.664 305.035 176.173 304.641 177.691C304.408 178.612 304.124 179.513 303.881 180.435C303.81 180.688 303.679 180.971 303.962 181.265C304.55 180.809 305.147 180.364 305.734 179.888C307.386 178.53 309.178 177.353 311.079 176.375C312.91 175.469 314.871 174.854 316.891 174.553C317.872 174.395 318.863 174.307 319.857 174.289C320.198 174.291 320.537 174.253 320.869 174.178C321.467 173.996 322.105 173.996 322.702 174.178C323.304 174.327 323.928 174.364 324.544 174.289C325.568 174.317 326.585 174.449 327.581 174.684C327.863 174.738 328.138 174.823 328.402 174.937C328.624 174.991 328.831 175.096 329.007 175.243C329.182 175.39 329.321 175.576 329.413 175.785C329.505 175.995 329.548 176.223 329.537 176.452C329.527 176.68 329.464 176.904 329.353 177.104C329.269 177.325 329.153 177.533 329.009 177.722C327.785 179.346 326.363 180.812 324.777 182.085C321.123 184.669 316.961 186.446 312.568 187.299C311.777 187.455 310.974 187.537 310.168 187.542C309.318 187.542 308.457 187.542 307.597 187.542C305.986 187.511 304.379 187.369 302.788 187.117C302.17 187.117 302.069 187.117 301.887 187.704C301.502 188.969 301.148 190.255 300.692 191.5C300.375 192.607 299.75 193.6 298.89 194.365C298.506 194.679 298.212 194.608 298.04 194.122C297.796 193.396 297.778 192.612 297.989 191.875C298.384 190.356 298.779 188.838 299.224 187.349C300.5 183.077 301.735 178.795 302.818 174.472C302.97 173.874 303.112 173.277 303.233 172.68C303.355 172.082 303.233 171.769 302.646 171.566C302.059 171.364 301.391 171.151 300.753 170.969C297.255 170.048 293.887 168.687 290.73 166.919C288.219 165.457 286.013 163.525 284.231 161.23C282.986 159.672 281.885 158.005 280.941 156.249C280.289 155.04 279.792 153.754 279.462 152.422C278.999 150.755 279.161 148.976 279.918 147.421C280.262 146.711 280.792 146.109 281.452 145.677C282.112 145.246 282.876 145.002 283.664 144.971C286.054 144.869 288.415 145.529 290.406 146.854C290.619 146.965 290.811 147.107 291.024 147.198C291.08 147.216 291.139 147.221 291.197 147.211C291.254 147.201 291.309 147.177 291.355 147.141C291.401 147.105 291.437 147.058 291.461 147.004C291.485 146.95 291.494 146.892 291.49 146.833C291.222 145 291.161 143.143 291.307 141.296C291.322 139.683 291.516 138.077 291.884 136.507C292.167 135.297 292.78 134.189 293.656 133.308C293.936 133.017 294.27 132.785 294.641 132.625C295.011 132.465 295.409 132.381 295.813 132.376C296.621 132.348 297.427 132.481 298.183 132.767C298.939 133.054 299.631 133.489 300.216 134.047C301.381 135.107 302.354 136.361 303.092 137.752C303.686 138.888 304.213 140.058 304.671 141.255C305.025 142.106 304.954 143.047 305.39 143.928Z" fill="#FFE4E2"/>
<path d="M312.361 58.8466C314.343 65.6526 313.788 72.4086 311.919 79.1465C311.54 80.504 310.971 81.8009 310.228 82.9989C309.416 84.4066 308.22 85.5539 306.78 86.3067C305.34 87.0595 303.716 87.3866 302.096 87.2496C300.125 87.2009 298.187 86.7247 296.417 85.854C294.648 84.9832 293.088 83.7387 291.846 82.2063C290.304 80.3745 289.021 78.3394 288.033 76.1581C285.671 70.8457 282.965 65.6977 280.187 60.5901C278.749 57.9363 277.529 55.1704 276.538 52.3196C275.291 48.62 275.193 44.6292 276.258 40.8729C276.708 39.1037 277.399 37.4049 278.313 35.8243C279.131 34.3406 280.323 33.0964 281.77 32.2148C283.217 31.3333 284.87 30.845 286.564 30.7983C287.755 30.6993 288.954 30.7766 290.123 31.0278C295.01 31.9506 299.414 34.5704 302.558 38.4245C304.376 40.7567 305.948 43.2707 307.249 45.9263C309.391 50.0465 311.104 54.376 312.361 58.8466ZM303.384 61.6876C302.976 60.1877 302.474 58.7152 301.88 57.2789C300.476 54.065 298.868 50.9439 297.067 47.9347C296.203 46.4077 295.243 44.9376 294.192 43.5332C293.552 42.6043 292.706 41.835 291.721 41.2844C290.737 40.7338 289.638 40.4167 288.512 40.3576C287.557 40.2775 286.604 40.5319 285.816 41.077C285.028 41.6222 284.454 42.4243 284.193 43.3461C283.897 44.2189 283.785 45.1436 283.865 46.0617C284.056 48.6609 284.781 51.1927 285.994 53.4992C288.417 57.9366 290.535 62.5281 292.519 67.1657C293.553 69.7037 294.894 72.1059 296.51 74.3188C297.236 75.3557 298.181 76.2208 299.277 76.8531C299.726 77.1551 300.241 77.3456 300.778 77.4088C301.316 77.4719 301.861 77.4059 302.368 77.2162C302.875 77.0265 303.329 76.7186 303.693 76.3181C304.057 75.9175 304.32 75.4359 304.46 74.9132C304.861 73.7866 305.043 72.5937 304.995 71.3989C304.874 68.103 304.332 64.8361 303.381 61.6778L303.384 61.6876Z" fill="#E6F6E7"/>
<ellipse cx="186.139" cy="187.314" rx="73.2134" ry="8.68634" fill="#D2D9FF"/>
<path d="M227.5 70.2815C241.36 76.2527 254.389 70.2815 257.304 46.1192" stroke="black" stroke-width="1.5"/>
<path d="M217.161 153.189C217.161 153.189 232.052 158.773 230.191 169.321C228.329 179.868 214.655 184.048 214.655 184.048L226.468 187.314" stroke="black" stroke-width="1.5"/>
<path d="M132.076 116.024C132.036 135.138 154.607 173.113 195.45 169.324C236.293 165.535 248.78 134.742 249.346 111.409C249.95 86.4935 230.119 73.178 228.03 54.0112C227.142 45.8581 226.583 37.0588 222.699 28.6679C217.645 16.0221 203.943 7.47124 188.424 7.57559C168.925 7.7067 156.053 18.3143 151.417 29.865C147.553 39.4906 148.257 46.0942 147.59 55.34C145.771 80.5637 132.147 81.9581 132.076 116.024Z" stroke="black" stroke-width="1.5"/>
<path d="M137.3 113.584C137.268 130.992 157.896 165.581 195.208 162.139C232.52 158.697 243.038 130.655 243.55 109.405C244.097 86.7141 226.86 74.5832 224.948 57.127C224.135 49.7016 223.622 41.6877 220.072 34.045C215.453 22.5271 202.933 14.7368 188.755 14.8286C170.942 14.944 159.185 24.602 154.951 35.1206C151.423 43.8861 152.068 49.9003 151.461 58.3207C149.804 81.2922 137.358 82.5593 137.3 113.584Z" fill="#296107"/>
<path d="M144.518 115.139C144.728 132.008 164.429 165.141 199.155 161.115C233.881 157.089 244.112 130.605 244.305 109.107C244.521 84.9624 227.447 75.6919 225.425 58.813C224.564 51.6332 223.928 43.2471 220.514 35.9074C216.05 24.8325 204.323 18.1463 191.111 18.4976C174.511 18.9391 163.687 28.5149 159.887 38.7853C156.72 47.3439 157.404 53.1595 156.954 61.3297C155.726 83.6187 144.144 85.0768 144.518 115.139Z" fill="#C2ECA8"/>
<path d="M144.521 115.139C144.731 132.008 164.432 165.141 199.158 161.115C181.7 158.758 154.777 151.961 149.707 115.139C146.845 94.3468 162.132 79.8436 161.225 61.3296C160.798 52.6267 160.798 42.3058 166.343 33.3479C170.78 26.1816 180.847 19.6978 191.114 18.4976C174.514 18.9391 163.69 28.5149 159.89 38.7852C156.723 47.3439 157.407 53.1595 156.957 61.3296C155.729 83.6187 144.147 85.0768 144.521 115.139Z" fill="#A6D489"/>
<path d="M198.137 144.736C207.193 144.665 225.224 135.605 221.26 115.269C217.297 94.9317 203.418 90.5941 197.325 90.7339C189.71 90.9087 174.865 102.147 174.64 119.146C174.396 137.593 189.081 144.806 198.137 144.736Z" fill="#75452F"/>
<path d="M199.9 138.949C207.012 138.893 221.172 131.779 218.059 115.808C214.946 99.8373 204.047 96.4309 199.263 96.5407C193.282 96.678 181.625 105.504 181.448 118.853C181.256 133.339 192.788 139.004 199.9 138.949Z" fill="#8B5338"/>
<path d="M202.75 129.947C206.069 129.531 212.333 124.681 210.094 115.679C207.854 106.677 202.595 105.31 200.366 105.632C197.579 106.034 192.568 111.731 193.142 119.406C193.765 127.734 199.431 130.363 202.75 129.947Z" fill="#A75E3D"/>
<path d="M172.857 147.8C172.857 147.8 173.627 165.202 164.148 171.548C154.67 177.894 137.493 163.401 137.493 163.401L131.969 171.649" stroke="black" stroke-width="1.5"/>
<path d="M125.953 101.691C115.405 68.1865 141.464 63.8433 162.01 75.6828" stroke="black" stroke-width="1.5"/>
<path d="M188.752 58.9164C188.859 59.8733 188.428 61.8596 185.845 62.1495C183.261 62.4394 182.424 60.8107 182.329 59.9601" stroke="black" stroke-width="1.5"/>
<path d="M211.803 57.0565C211.91 58.0134 211.479 59.9997 208.895 60.2897C206.312 60.5796 205.475 58.9509 205.379 58.1003" stroke="black" stroke-width="1.5"/>
<path d="M196.824 4.30779C194.917 3.50187 189.625 2.7972 183.717 6.42582C176.332 10.9616 175.712 16.8515 178.05 21.3481C180.389 25.8448 186.041 27.4582 191.034 25.2387C196.028 23.0192 197.922 20.5842 196.599 18.4304C195.276 16.2765 191.184 15.8236 185.527 19.7221C179.87 23.6207 178.022 30.1403 178.727 32.7983C179.694 36.4422 181.79 37.5558 183.122 38.5742" stroke="black" stroke-width="1.5"/>
<path d="M197.028 63.9241C201.454 62.3568 201.342 64.7252 198.266 66.7949C203.255 67.8468 198.98 71.0764 196.954 70.3231" stroke="black" stroke-width="1.5" stroke-linejoin="bevel"/>
</svg>
