<svg width="319" height="243" viewBox="0 0 319 243" fill="none" xmlns="http://www.w3.org/2000/svg">
<ellipse cx="62.8624" cy="134.623" rx="4.65587" ry="6.34891" transform="rotate(-50.7528 62.8624 134.623)" fill="#E6F6E7"/>
<path d="M7.31179 90.9494C9.01843 86.1507 11.8892 81.8505 15.6667 78.4343C15.9618 78.1567 16.2806 77.8881 16.5629 77.5967C18.3561 75.7976 20.5885 74.4987 23.0386 73.8287C24.3249 73.4118 25.6916 73.3053 27.027 73.5179C28.3623 73.7305 29.6284 74.2561 30.7216 75.0518C33.7462 77.2007 34.7737 80.2504 34.8458 83.7441C34.843 85.8487 34.5847 87.9453 34.0766 89.9877C33.9897 90.2608 33.9318 90.5422 33.9038 90.8274C33.9042 91.6874 33.5626 92.6623 34.2799 93.35C35.0304 94.2626 36.0927 94.8644 37.2612 95.0391C39.9 95.2409 42.506 95.5299 45.1239 95.7871C46.346 95.8888 47.5496 96.1494 48.7043 96.5624C49.9094 96.9539 50.9613 97.7137 51.7117 98.7348C52.462 99.7559 52.873 100.987 52.8867 102.254C53.0589 104.312 52.5712 106.372 51.4944 108.135C49.5379 111.299 46.8347 113.934 43.6222 115.809C41.2433 117.331 38.6176 118.426 35.8629 119.047C32.651 119.751 29.3345 119.839 26.09 119.305C23.7752 118.967 21.507 118.364 19.3302 117.508C15.2682 115.708 11.6787 113.282 9.06792 109.561C6.71418 106.241 5.5339 102.231 5.71352 98.1646C5.76326 95.6774 6.30652 93.2249 7.31179 90.9494Z" fill="#FFE4E2"/>
<path d="M78.5352 182.214C78.8806 184.725 78.7669 187.277 78.1997 189.747C77.8883 191.507 77.4557 193.242 76.905 194.942C76.1652 197.085 75.2045 199.144 74.0384 201.088C73.4199 202.111 72.7098 203.076 72.0063 204.023C71.1344 205.148 70.1544 206.184 69.0805 207.118C67.3618 208.658 65.4531 209.973 63.401 211.03C63.1235 211.186 62.8334 211.318 62.5337 211.425C61.5539 211.746 60.5984 212.138 59.6745 212.596C58.3601 213.265 56.9225 213.657 55.4504 213.748C53.6651 213.915 51.8651 213.676 50.1852 213.049C49.5209 212.771 48.9476 212.313 48.5301 211.726C48.1315 211.127 47.899 210.433 47.8563 209.715C47.8137 208.997 47.9624 208.281 48.2873 207.639C48.8639 206.323 49.7369 205.159 50.8381 204.237C52.6305 202.652 54.5616 201.231 56.6081 199.991C58.2811 198.952 60.0513 198.176 61.7196 197.172C62.2059 196.903 62.6422 196.551 63.0093 196.134C63.0703 196.067 63.114 195.986 63.1367 195.898C63.1594 195.81 63.1605 195.718 63.1398 195.63C63.119 195.542 63.0771 195.46 63.0177 195.392C62.9583 195.323 62.8831 195.27 62.7986 195.237C62.4404 195.059 62.0399 194.983 61.6412 195.017C60.6409 195.094 59.6626 195.351 58.7529 195.774C57.6238 196.266 56.4957 196.766 55.4087 197.331C54.2208 197.972 52.9772 198.504 51.6933 198.92C50.4863 199.347 49.1856 199.436 47.9317 199.178C47.1922 199.018 46.5194 198.635 46.0037 198.081C45.6261 197.694 45.3757 197.201 45.2858 196.667C45.1959 196.134 45.2708 195.586 45.5005 195.096C45.9137 194.062 46.5336 193.124 47.3224 192.338C49.4324 190.275 51.815 188.51 54.4036 187.094C55.7122 186.42 56.9582 185.631 58.127 184.736C58.4242 184.532 58.6841 184.279 58.8952 183.986C58.9281 183.936 58.9493 183.88 58.9572 183.82C58.9651 183.761 58.9596 183.701 58.941 183.644C58.9223 183.587 58.8911 183.535 58.8497 183.492C58.8082 183.449 58.7575 183.416 58.7015 183.395C57.9134 183.104 57.0584 183.045 56.2381 183.226C54.3593 183.717 52.5067 184.29 50.611 184.706C48.9153 185.155 47.1422 185.231 45.4144 184.927C44.203 184.656 43.1052 184.017 42.2718 183.097C41.9128 182.718 41.6434 182.264 41.4833 181.767C41.3233 181.271 41.2767 180.745 41.3471 180.228C41.4293 179.356 41.6758 178.508 42.0734 177.728C42.9106 176.191 43.9928 174.802 45.2774 173.614C46.274 172.647 47.3421 171.756 48.4725 170.95C50.2744 169.709 52.2352 168.717 54.3019 168C55.7628 167.492 57.2764 167.152 58.8139 166.986C60.7912 166.765 62.7923 166.914 64.7147 167.427C66.7539 167.92 68.7231 168.668 70.576 169.652C72.0066 170.44 73.3182 171.426 74.4716 172.582C75.3048 173.432 75.9902 174.415 76.4994 175.491C77.654 177.559 78.3485 179.852 78.5352 182.214Z" fill="#D2D9FF"/>
<path d="M80.7157 33.0756C78.4582 32.1156 76.2007 31.098 73.9912 30.0803C73.1362 29.707 72.2152 29.5079 71.2822 29.4947C71.1319 29.4754 70.9792 29.4945 70.8383 29.5504C70.6974 29.6063 70.5731 29.6971 70.4771 29.8142C70.381 29.9314 70.3163 30.071 70.2891 30.22C70.2619 30.369 70.2731 30.5225 70.3216 30.666C70.4663 31.5248 70.8761 32.317 71.4936 32.9316C72.3798 33.8204 73.3971 34.5683 74.51 35.1493C75.8933 35.7925 77.267 36.4741 78.6984 37.0693C80.8339 37.986 82.9041 39.0477 84.8945 40.247C85.2903 40.4901 85.6576 40.7767 85.9896 41.1014C86.511 41.4955 86.921 42.0181 87.1795 42.618C87.4381 43.218 87.5364 43.8747 87.4647 44.524C87.393 45.1733 87.1539 45.7929 86.7708 46.3221C86.3876 46.8513 85.8735 47.2721 85.2788 47.5432C83.9411 48.2923 82.4627 48.7564 80.9367 48.9064C77.5505 49.1793 74.1426 48.8543 70.8692 47.9464C69.5094 47.6516 68.1902 47.1939 66.9401 46.5831C65.7105 45.9207 64.4329 45.3351 63.2609 44.5863C60.68 43.0573 58.4378 41.019 56.6709 38.5957C54.4714 35.4828 52.9287 31.9552 52.1367 28.2275C51.8173 26.4238 52.0608 24.5656 52.8341 22.9049C53.6074 21.2443 54.8731 19.8615 56.4596 18.9441C60.2684 16.875 64.4584 15.6012 68.775 15.2C73.6033 14.7311 78.4763 15.0882 83.1846 16.256C84.3482 16.5222 85.4937 16.8621 86.6141 17.2736C88.5353 18.0033 90.5239 18.5697 92.3779 19.4529C95.8365 21.0596 98.7462 23.6469 100.745 26.8931C101.472 27.9421 101.9 29.1683 101.984 30.4412C102.069 31.7142 101.807 32.9862 101.225 34.122C100.797 35.0627 100.127 35.873 99.2834 36.47C98.4395 37.0671 97.4522 37.4296 96.4222 37.5205C94.4308 37.6816 92.4265 37.5031 90.495 36.9925C87.0463 36.1765 83.9435 34.4676 80.7157 33.0756Z" fill="#FFEDCC"/>
<path d="M301.442 91.2141C303.85 92.4182 305.947 94.1619 307.571 96.3094C308.502 97.549 309.259 98.9106 309.819 100.356C311.227 103.641 311.574 107.284 310.811 110.776C310.28 114.051 309.183 117.208 307.568 120.106C305.67 123.445 303.141 126.383 300.122 128.757C298.582 129.945 296.891 130.924 295.094 131.667C293.175 132.471 291.032 132.565 289.049 131.934C286.758 131.233 285.087 129.702 283.449 128.114C281.324 125.956 279.477 123.541 277.951 120.925C275.456 116.738 273.343 112.334 271.636 107.768C270.93 105.954 270.089 104.197 269.559 102.318C269.272 101.211 269.12 100.073 269.107 98.9295C269.092 98.0131 269.277 97.1045 269.648 96.2667C270.019 95.4288 270.569 94.6819 271.258 94.0778C272.405 92.9386 273.826 92.1142 275.384 91.684C275.551 91.6439 275.715 91.5953 275.877 91.5384C279.225 90.3448 282.712 89.586 286.252 89.2806C289.096 88.8907 291.974 88.822 294.833 89.0759C297.165 89.3014 299.42 90.0309 301.442 91.2141Z" fill="#E6F6E7"/>
<path d="M274.896 180.662C275.024 180.63 275.142 180.57 275.242 180.484C275.342 180.399 275.421 180.292 275.472 180.171C276.295 178.775 277.281 177.482 278.409 176.319C279.161 175.562 280.016 174.915 280.949 174.398C281.592 173.995 282.318 173.746 283.072 173.668C283.827 173.59 284.589 173.686 285.3 173.949C285.901 174.173 286.405 174.602 286.722 175.16C287.338 176.181 287.657 177.353 287.645 178.546C287.645 179.147 287.645 179.739 287.645 180.34C287.66 181.202 287.531 182.06 287.264 182.88C286.889 184.51 286.258 186.07 285.393 187.502C285.377 187.536 285.369 187.574 285.369 187.612C285.369 187.65 285.377 187.688 285.393 187.722C285.42 187.773 285.466 187.813 285.521 187.832C285.576 187.85 285.636 187.848 285.689 187.824L288.331 187.121C290.157 186.727 292.031 186.61 293.892 186.774C294.523 186.843 295.144 186.979 295.746 187.18C296.19 187.294 296.606 187.499 296.965 187.784C297.324 188.069 297.619 188.426 297.831 188.833C298.043 189.24 298.166 189.687 298.194 190.144C298.221 190.602 298.151 191.06 297.989 191.489C297.624 192.707 296.967 193.817 296.076 194.723C295.01 195.794 293.782 196.691 292.436 197.381C290.42 198.408 288.345 199.315 286.223 200.098C285.148 200.521 284.115 201.029 283.057 201.478C280.898 202.392 278.723 203.247 276.513 204.018C276.361 204.068 276.217 204.128 276.064 204.17C275.849 204.222 275.654 204.337 275.503 204.499C275.353 204.662 275.253 204.865 275.218 205.084C274.922 206.362 274.6 207.624 274.27 208.894C274.075 209.664 273.838 210.417 273.635 211.188C273.576 211.399 273.466 211.636 273.703 211.882C274.194 211.501 274.693 211.128 275.184 210.73C276.565 209.595 278.064 208.61 279.654 207.793C281.184 207.035 282.824 206.521 284.513 206.269C285.333 206.137 286.162 206.064 286.993 206.049C287.278 206.05 287.562 206.019 287.84 205.956C288.339 205.804 288.872 205.804 289.372 205.956C289.875 206.08 290.397 206.112 290.912 206.049C291.768 206.072 292.619 206.183 293.452 206.379C293.688 206.424 293.918 206.495 294.138 206.591C294.324 206.636 294.497 206.724 294.644 206.846C294.79 206.969 294.907 207.125 294.984 207.3C295.061 207.475 295.096 207.666 295.088 207.857C295.079 208.048 295.026 208.235 294.933 208.403C294.863 208.588 294.766 208.761 294.646 208.919C293.622 210.277 292.433 211.503 291.107 212.567C288.052 214.728 284.572 216.214 280.898 216.927C280.237 217.058 279.565 217.126 278.892 217.13C278.181 217.13 277.461 217.13 276.742 217.13C275.395 217.105 274.051 216.986 272.721 216.775C272.204 216.775 272.12 216.775 271.967 217.266C271.646 218.324 271.349 219.399 270.968 220.44C270.703 221.365 270.181 222.196 269.462 222.836C269.14 223.098 268.894 223.039 268.75 222.633C268.546 222.025 268.532 221.37 268.708 220.753C269.038 219.484 269.368 218.214 269.741 216.969C270.808 213.397 271.84 209.816 272.746 206.202C272.873 205.702 272.992 205.203 273.093 204.703C273.195 204.204 273.093 203.941 272.602 203.772C272.111 203.603 271.552 203.425 271.019 203.273C268.094 202.502 265.278 201.365 262.639 199.887C260.539 198.664 258.694 197.048 257.204 195.129C256.163 193.826 255.243 192.432 254.453 190.964C253.908 189.954 253.493 188.879 253.217 187.764C252.829 186.371 252.965 184.883 253.598 183.583C253.885 182.989 254.329 182.486 254.88 182.125C255.432 181.764 256.071 181.56 256.73 181.534C258.728 181.449 260.702 182.001 262.368 183.108C262.545 183.202 262.706 183.32 262.884 183.396C262.931 183.412 262.98 183.416 263.028 183.407C263.077 183.399 263.122 183.379 263.161 183.349C263.199 183.318 263.23 183.279 263.25 183.234C263.269 183.189 263.277 183.14 263.273 183.092C263.049 181.559 262.998 180.005 263.121 178.461C263.133 177.113 263.295 175.77 263.604 174.457C263.839 173.445 264.352 172.519 265.085 171.782C265.319 171.539 265.599 171.345 265.908 171.211C266.218 171.078 266.551 171.007 266.888 171.003C267.564 170.979 268.238 171.09 268.87 171.33C269.503 171.57 270.081 171.934 270.571 172.4C271.545 173.286 272.358 174.335 272.975 175.498C273.471 176.448 273.912 177.426 274.295 178.427C274.591 179.138 274.532 179.926 274.896 180.662Z" fill="#FFE4E2"/>
<path d="M281.556 22.4469C286.209 27.0165 288.803 32.6878 290.335 38.9357C290.642 40.1957 290.768 41.4927 290.712 42.7881C290.694 44.283 290.25 45.7419 289.433 46.9939C288.616 48.246 287.46 49.2395 286.099 49.8581C284.494 50.7062 282.725 51.1959 280.913 51.2934C279.101 51.391 277.29 51.094 275.604 50.423C273.542 49.647 271.596 48.5912 269.822 47.2854C265.537 44.0848 261.049 41.171 256.521 38.3225C254.174 36.8396 251.95 35.1691 249.872 33.3273C247.206 30.9197 245.332 27.7612 244.497 24.2676C244.062 22.6454 243.852 20.971 243.874 19.2917C243.863 17.7327 244.26 16.198 245.025 14.8394C245.789 13.4809 246.896 12.3456 248.234 11.546C249.145 10.9305 250.142 10.453 251.193 10.1287C255.53 8.67028 260.243 8.79096 264.5 10.4694C267.008 11.5229 269.401 12.8329 271.64 14.3787C275.213 16.7212 278.536 19.4248 281.556 22.4469ZM275.63 28.7658C274.628 27.7456 273.563 26.7899 272.44 25.9047C269.867 23.9574 267.172 22.1761 264.373 20.5718C262.993 19.7348 261.561 18.987 260.086 18.3329C259.154 17.8757 258.129 17.6387 257.091 17.64C256.053 17.6414 255.029 17.8811 254.098 18.3406C253.296 18.7059 252.646 19.3388 252.259 20.1308C251.872 20.9228 251.772 21.8247 251.977 22.682C252.132 23.5155 252.459 24.3078 252.936 25.0086C254.259 27.0084 255.98 28.714 257.991 30.0191C261.932 32.4898 265.698 35.2213 269.376 38.0504C271.348 39.6218 273.505 40.9464 275.798 41.9948C276.847 42.5003 277.994 42.7695 279.158 42.7836C279.655 42.8239 280.153 42.7452 280.613 42.5541C281.073 42.3629 281.48 42.0648 281.802 41.6845C282.123 41.3041 282.349 40.8526 282.461 40.3674C282.573 39.8822 282.567 39.3773 282.445 38.8947C282.26 37.8103 281.868 36.7714 281.293 35.834C279.713 33.2436 277.807 30.866 275.624 28.7591L275.63 28.7658Z" fill="#FFEDCC"/>
<ellipse cx="246.388" cy="72.8643" rx="4.65587" ry="6.34891" transform="rotate(-146.469 246.388 72.8643)" fill="#D2D9FF"/>
<ellipse cx="164" cy="234" rx="77" ry="9" fill="#D2D9FF"/>
<path d="M139.814 198.158L143.253 232.549H129.066" stroke="black" stroke-width="2"/>
<path d="M233.43 147.994C233.478 170.751 206.607 215.959 157.983 211.448C109.359 206.938 94.493 170.279 93.8196 142.5C93.1006 112.838 116.709 96.9862 119.196 74.1679C120.254 64.4616 120.919 53.986 125.543 43.9965C131.56 28.9416 147.872 18.7617 166.348 18.8859C189.562 19.042 204.885 31.6705 210.405 45.4217C215.005 56.881 214.166 64.7427 214.96 75.7499C217.126 105.779 233.346 107.439 233.43 147.994Z" stroke="black" stroke-width="2"/>
<path d="M226.957 145.535C226.996 166.236 202.467 207.367 158.097 203.274C113.727 199.181 101.219 165.835 100.61 140.566C99.9603 113.583 120.457 99.1574 122.731 78.3993C123.698 69.5694 124.308 60.0397 128.529 50.9515C134.023 37.2549 148.91 27.991 165.77 28.1003C186.953 28.2375 200.933 39.7223 205.968 52.2305C210.163 62.6539 209.396 69.8058 210.118 79.8188C212.088 107.135 226.889 108.642 226.957 145.535Z" fill="#296107"/>
<path d="M218.372 147.385C218.123 167.444 194.695 206.844 153.401 202.057C112.106 197.27 99.9397 165.776 99.7111 140.212C99.4543 111.5 119.757 100.476 122.162 80.4048C123.185 71.8669 123.942 61.8945 128.001 53.1666C133.31 39.9969 147.255 32.0459 162.966 32.4637C182.706 32.9887 195.577 44.3758 200.097 56.5888C203.863 66.7663 203.049 73.6819 203.584 83.3974C205.044 109.902 218.817 111.636 218.372 147.385Z" fill="#C2ECA8"/>
<path d="M218.372 147.384C218.123 167.444 194.695 206.844 153.401 202.057C174.161 199.254 206.177 191.171 212.205 147.384C215.609 122.659 197.43 105.413 198.509 83.397C199.016 73.0479 199.016 60.7748 192.422 50.1226C187.147 41.6008 175.176 33.8906 162.966 32.4633C182.706 32.9883 195.577 44.3754 200.096 56.5884C203.863 66.7658 203.049 73.6815 203.584 83.397C205.044 109.902 218.817 111.636 218.372 147.384Z" fill="#A6D489"/>
<path d="M154.605 182.579C143.836 182.495 122.394 171.722 127.107 147.539C131.821 123.355 148.325 118.197 155.569 118.363C164.625 118.571 182.278 131.935 182.546 152.15C182.836 174.085 165.374 182.664 154.605 182.579Z" fill="#75452F"/>
<path d="M152.509 175.698C144.052 175.632 127.214 167.172 130.915 148.18C134.616 129.189 147.577 125.138 153.267 125.269C160.378 125.432 174.241 135.927 174.451 151.802C174.68 169.028 160.966 175.764 152.509 175.698Z" fill="#8B5338"/>
<path d="M149.111 164.993C145.164 164.498 137.715 158.73 140.379 148.026C143.042 137.321 149.295 135.696 151.946 136.078C155.26 136.556 161.219 143.331 160.537 152.458C159.796 162.361 153.058 165.488 149.111 164.993Z" fill="#A75E3D"/>
<path d="M163.21 52.693C161.487 50.9302 158.402 45.373 159.851 37.2473C161.662 27.0901 167.918 23.839 173.919 24.4722C179.919 25.1055 184.168 30.6664 183.882 37.1655C183.597 43.6646 181.723 46.824 178.761 46.2957C175.798 45.7675 173.515 41.4304 175.372 33.4648C177.229 25.4991 183.648 20.6126 186.901 20.2369C191.359 19.7219 193.506 21.5602 195.214 22.5926" stroke="black" stroke-width="2"/>
<path d="M158.187 90.661C155.225 90.1328 152.763 90.1306 151.484 90.7758" stroke="black" stroke-width="2"/>
<circle cx="142.774" cy="77.4328" r="3.43911" transform="rotate(10.1098 142.774 77.4328)" fill="black"/>
<circle cx="169.012" cy="82.1115" r="3.43911" transform="rotate(10.1098 169.012 82.1115)" fill="black"/>
<path d="M206.319 107.881L226.523 129.806L206.319 146.571V154.739" stroke="black" stroke-width="2"/>
<path d="M190.972 183.542L193.982 232.549H208.168" stroke="black" stroke-width="2"/>
<path d="M115.13 110.542C135.958 119.035 141.551 108.786 149.217 102.723L158.217 101.5" stroke="black" stroke-width="2"/>
</svg>
