<svg width="309" height="218" viewBox="0 0 309 218" fill="none" xmlns="http://www.w3.org/2000/svg">
<ellipse cx="160.258" cy="192.594" rx="108.246" ry="25.3042" fill="#D2D9FF"/>
<path d="M203.61 174.664L242.015 176.775L241.328 163.072" stroke="black" stroke-width="2"/>
<path d="M87.3534 145.128C87.3075 167.137 113.296 210.862 160.324 206.499C207.352 202.136 221.729 166.681 222.381 139.814C223.076 111.126 200.243 95.7944 197.838 73.7252C196.815 64.3376 196.171 54.2058 191.699 44.5443C185.88 29.9836 170.103 20.1379 152.233 20.2581C129.782 20.409 114.961 32.6229 109.623 45.9227C105.174 57.0058 105.985 64.6094 105.217 75.2553C103.122 104.298 87.4352 105.904 87.3534 145.128Z" stroke="black" stroke-width="2"/>
<path d="M93.5086 142.48C93.4713 162.464 117.152 202.172 159.985 198.22C202.818 194.268 214.894 162.078 215.481 137.683C216.109 111.634 196.321 97.7082 194.126 77.6688C193.193 69.1446 192.604 59.9449 188.529 51.1713C183.226 37.9489 168.854 29.0058 152.578 29.1112C132.128 29.2437 118.632 40.3309 113.772 52.406C109.722 62.4686 110.462 69.3728 109.765 79.0392C107.863 105.41 93.5751 106.865 93.5086 142.48Z" fill="#296107"/>
<path d="M101.793 144.266C102.034 163.631 124.65 201.667 164.515 197.045C204.38 192.424 216.125 162.02 216.346 137.342C216.594 109.624 196.994 98.9816 194.672 79.6049C193.685 71.3627 192.954 61.7356 189.035 53.3098C183.91 40.5961 170.448 32.9204 155.281 33.3238C136.224 33.8306 123.799 44.8234 119.436 56.6135C115.8 66.4386 116.585 73.1148 116.069 82.494C114.66 108.081 101.364 109.755 101.793 144.266Z" fill="#C2ECA8"/>
<path d="M101.796 144.266C102.037 163.631 124.653 201.667 164.518 197.045C144.477 194.34 113.57 186.536 107.75 144.266C104.464 120.397 122.013 103.747 120.972 82.4937C120.482 72.503 120.482 60.6548 126.848 50.3714C131.941 42.1446 143.497 34.7014 155.284 33.3235C136.228 33.8303 123.802 44.8231 119.439 56.6132C115.803 66.4384 116.589 73.1146 116.072 82.4937C114.663 108.081 101.367 109.755 101.796 144.266Z" fill="#A6D489"/>
<path d="M171.206 175.372C181.569 174.539 201.463 162.67 195.236 139.713C189.01 116.757 172.759 112.943 165.795 113.608C157.09 114.441 141.026 128.54 142.179 148.023C143.431 169.164 160.843 176.204 171.206 175.372Z" fill="#75452F"/>
<path d="M172.741 168.599C180.88 167.945 196.502 158.624 191.613 140.596C186.723 122.568 173.961 119.573 168.492 120.096C161.656 120.749 149.041 131.822 149.946 147.122C150.929 163.724 164.603 169.253 172.741 168.599Z" fill="#8B5338"/>
<path d="M175.268 158.055C179.034 157.303 185.803 151.229 182.492 141.108C179.18 130.987 173.046 129.859 170.52 130.412C167.362 131.104 162.098 138.043 163.392 146.783C164.797 156.266 171.502 158.807 175.268 158.055Z" fill="#A75E3D"/>
<path d="M160.574 92.2595C161.305 91.2313 162.958 89.4699 165.301 89.2149C168.427 88.875 170.273 91.3086 170.71 92.4205" stroke="black" stroke-width="2" stroke-linejoin="bevel"/>
<path d="M163.371 62.6747C165.311 61.2888 169.191 56.5212 169.191 48.5383C169.191 38.5597 163.786 34.4019 157.965 33.9861C152.145 33.5703 147.155 38.1439 146.324 44.3805C145.492 50.6171 146.739 53.9434 149.65 53.9434C152.56 53.9434 155.471 50.2014 155.055 42.3017C154.639 34.4019 149.357 28.6593 146.324 27.7495C142.166 26.5022 139.81 27.8881 138.008 28.581" stroke="black" stroke-width="2"/>
<path d="M156.037 78.8325L149.008 81.6441" stroke="black" stroke-width="2"/>
<path d="M172.909 78.1299L179.938 80.9415" stroke="black" stroke-width="2"/>
<path d="M150.652 191.257L212.58 202.319L215.304 188.871" stroke="black" stroke-width="2"/>
<path d="M172.907 99.8106C182.747 138.47 205.214 130.277 202.038 103.581" stroke="black" stroke-width="2"/>
<path d="M112.474 106.426C122.298 149.014 151.82 125.818 158.848 99.8108" stroke="black" stroke-width="2"/>
<ellipse cx="31.6218" cy="7.48736" rx="4.57354" ry="6.23664" transform="rotate(-50.7528 31.6218 7.48736)" fill="#E6F6E7"/>
<ellipse cx="286.574" cy="23.3994" rx="4.57354" ry="6.23664" transform="rotate(-146.469 286.574 23.3994)" fill="#D2D9FF"/>
<ellipse cx="84.574" cy="97.6948" rx="4.57354" ry="6.23664" transform="rotate(-146.469 84.574 97.6948)" fill="#FFEDCC"/>
<path d="M34.6199 64.5397C36.7002 65.907 38.5148 67.6409 39.9751 69.6569C41.0754 71.0246 42.0799 72.4666 42.9813 73.9726C44.0879 75.9047 44.9904 77.9466 45.6745 80.0655C46.0314 81.1841 46.2862 82.3331 46.5321 83.4658C46.8004 84.8376 46.9337 86.2324 46.93 87.6302C46.9589 89.8975 46.6978 92.1591 46.1532 94.3602C46.089 94.6662 45.9992 94.9662 45.8846 95.257C45.4891 96.1895 45.1609 97.1492 44.9024 98.1286C44.5478 99.5333 43.9087 100.85 43.0246 101.998C41.994 103.426 40.6538 104.603 39.1042 105.441C38.4691 105.753 37.7596 105.88 37.0557 105.81C36.3551 105.718 35.6916 105.441 35.1329 105.009C34.5742 104.576 34.1403 104.003 33.8756 103.348C33.2752 102.071 32.9782 100.673 33.008 99.2621C32.9939 96.9117 33.1908 94.5647 33.5965 92.2494C33.9098 90.3408 34.4796 88.5294 34.8154 86.6466C34.9304 86.1127 34.9527 85.563 34.8811 85.0216C34.8709 84.9331 34.8393 84.8485 34.7891 84.775C34.7389 84.7015 34.6715 84.6413 34.5929 84.5996C34.5142 84.5579 34.4266 84.5359 34.3375 84.5357C34.2485 84.5354 34.1607 84.5568 34.0818 84.598C33.7183 84.7476 33.4031 84.9946 33.1709 85.3118C32.5813 86.1016 32.1385 86.9909 31.8635 87.9373C31.4978 89.0906 31.1388 90.2486 30.8535 91.4173C30.5599 92.7103 30.1497 93.974 29.628 95.193C29.1633 96.3616 28.3885 97.3812 27.3871 98.142C26.7905 98.5855 26.0726 98.8358 25.3296 98.8593C24.7992 98.8883 24.2725 98.7547 23.8199 98.4765C23.3673 98.1983 23.0103 97.7887 22.7966 97.3023C22.2989 96.3284 22.0053 95.2631 21.9338 94.1717C21.7716 91.2774 22.0064 88.3746 22.6316 85.544C22.979 84.1405 23.2009 82.7089 23.2947 81.2662C23.3358 80.9144 23.3161 80.5582 23.2364 80.2132C23.2207 80.1565 23.1924 80.1042 23.1536 80.06C23.1149 80.0158 23.0667 79.9809 23.0126 79.9579C22.9585 79.9349 22.8999 79.9245 22.8412 79.9272C22.7825 79.93 22.7251 79.946 22.6735 79.974C21.949 80.369 21.3531 80.9637 20.9568 81.6874C20.1053 83.3943 19.3315 85.1349 18.4138 86.8059C17.6501 88.3506 16.56 89.7111 15.2189 90.7931C14.2355 91.5141 13.053 91.9129 11.8338 91.9348C11.3217 91.9556 10.8114 91.8612 10.3406 91.6586C9.86984 91.4559 9.4505 91.1503 9.11352 90.7641C8.52191 90.1398 8.05375 89.4092 7.73374 88.6109C7.13842 86.9986 6.81015 85.3 6.76186 83.5821C6.69062 82.2197 6.72213 80.8539 6.85612 79.4963C7.10319 77.3617 7.63663 75.27 8.44209 73.2777C9.01088 71.8691 9.7376 70.5295 10.6083 69.2847C11.7228 67.6792 13.1269 66.2956 14.7485 65.2048C16.4317 64.0154 18.2575 63.0421 20.1832 62.3076C21.6904 61.7585 23.2679 61.426 24.8686 61.3199C26.0357 61.2529 27.2058 61.3813 28.3306 61.6999C30.607 62.1828 32.7523 63.1515 34.6199 64.5397Z" fill="#D2D9FF"/>
<path d="M286.107 147.258C286.232 147.227 286.348 147.168 286.446 147.084C286.544 147 286.622 146.895 286.672 146.776C287.48 145.405 288.449 144.135 289.558 142.992C290.296 142.249 291.136 141.613 292.052 141.105C292.684 140.71 293.397 140.464 294.138 140.388C294.879 140.311 295.628 140.406 296.326 140.664C296.917 140.884 297.412 141.305 297.723 141.853C298.328 142.856 298.642 144.008 298.63 145.179C298.63 145.77 298.63 146.352 298.63 146.942C298.645 147.789 298.518 148.632 298.256 149.437C297.887 151.038 297.267 152.571 296.418 153.977C296.402 154.011 296.394 154.048 296.394 154.085C296.394 154.123 296.402 154.16 296.418 154.193C296.445 154.244 296.49 154.282 296.544 154.301C296.598 154.32 296.657 154.317 296.709 154.293L299.303 153.603C301.097 153.216 302.939 153.101 304.767 153.262C305.386 153.329 305.997 153.463 306.588 153.661C307.024 153.773 307.432 153.975 307.785 154.255C308.138 154.534 308.428 154.885 308.636 155.285C308.844 155.684 308.965 156.123 308.992 156.573C309.019 157.022 308.95 157.472 308.791 157.894C308.433 159.09 307.788 160.18 306.912 161.07C305.865 162.123 304.658 163.004 303.336 163.681C301.356 164.69 299.318 165.581 297.233 166.351C296.177 166.766 295.162 167.265 294.123 167.706C292.002 168.604 289.865 169.444 287.695 170.201C287.545 170.251 287.404 170.309 287.254 170.35C287.043 170.402 286.851 170.514 286.703 170.674C286.555 170.834 286.457 171.034 286.423 171.249C286.132 172.504 285.816 173.743 285.491 174.991C285.3 175.747 285.067 176.487 284.868 177.244C284.809 177.452 284.701 177.685 284.934 177.926C285.417 177.552 285.907 177.186 286.389 176.795C287.746 175.68 289.218 174.712 290.78 173.91C292.283 173.165 293.894 172.66 295.553 172.413C296.359 172.283 297.173 172.211 297.99 172.197C298.269 172.198 298.548 172.167 298.821 172.105C299.312 171.955 299.836 171.955 300.326 172.105C300.821 172.227 301.334 172.258 301.84 172.197C302.68 172.219 303.516 172.328 304.334 172.521C304.566 172.565 304.792 172.635 305.008 172.729C305.191 172.773 305.361 172.859 305.505 172.98C305.649 173.1 305.763 173.253 305.839 173.425C305.915 173.597 305.95 173.785 305.941 173.972C305.932 174.16 305.881 174.344 305.79 174.508C305.72 174.69 305.625 174.861 305.507 175.015C304.501 176.35 303.334 177.554 302.031 178.599C299.029 180.722 295.611 182.182 292.002 182.882C291.353 183.01 290.693 183.077 290.032 183.082C289.333 183.082 288.626 183.082 287.919 183.082C286.596 183.056 285.277 182.94 283.97 182.732C283.462 182.732 283.379 182.732 283.23 183.215C282.914 184.254 282.622 185.31 282.248 186.333C281.988 187.242 281.475 188.058 280.768 188.686C280.452 188.944 280.211 188.886 280.07 188.487C279.869 187.89 279.855 187.246 280.028 186.641C280.352 185.393 280.677 184.146 281.043 182.924C282.09 179.414 283.105 175.897 283.995 172.346C284.119 171.856 284.236 171.365 284.335 170.874C284.435 170.384 284.335 170.126 283.853 169.96C283.371 169.793 282.822 169.619 282.298 169.469C279.425 168.712 276.658 167.595 274.066 166.143C272.003 164.941 270.191 163.355 268.727 161.469C267.705 160.19 266.801 158.821 266.025 157.378C265.49 156.386 265.082 155.33 264.811 154.235C264.43 152.866 264.563 151.405 265.185 150.127C265.467 149.545 265.903 149.05 266.445 148.695C266.987 148.341 267.615 148.14 268.262 148.115C270.225 148.032 272.164 148.573 273.8 149.661C273.974 149.753 274.132 149.869 274.307 149.944C274.353 149.959 274.401 149.963 274.449 149.955C274.496 149.947 274.541 149.927 274.579 149.897C274.617 149.868 274.647 149.829 274.666 149.785C274.685 149.741 274.693 149.693 274.689 149.645C274.469 148.139 274.419 146.613 274.54 145.096C274.552 143.772 274.711 142.453 275.014 141.163C275.245 140.169 275.749 139.259 276.469 138.535C276.699 138.297 276.974 138.106 277.278 137.975C277.582 137.843 277.909 137.774 278.24 137.77C278.904 137.747 279.566 137.856 280.187 138.091C280.808 138.327 281.376 138.684 281.857 139.142C282.814 140.013 283.613 141.043 284.219 142.186C284.707 143.119 285.14 144.08 285.516 145.063C285.807 145.761 285.749 146.535 286.107 147.258Z" fill="#FFE4E2"/>
<path d="M22.6237 177.136C17.9802 175.274 13.8714 172.289 10.6656 168.447C10.4047 168.147 10.1535 167.824 9.87846 167.535C8.18258 165.705 6.99471 163.463 6.4327 161.032C6.07367 159.753 6.02244 158.408 6.2832 157.105C6.54396 155.803 7.10932 154.581 7.93302 153.539C10.1602 150.654 13.1937 149.764 16.6257 149.83C18.6914 149.914 20.7392 150.25 22.7241 150.828C22.9887 150.924 23.2627 150.992 23.5415 151.031C24.3857 151.064 25.3293 151.437 26.0323 150.76C26.9572 150.059 27.5894 149.04 27.8065 147.899C28.1075 145.317 28.4928 142.771 28.8475 140.211C28.995 139.016 29.2977 137.844 29.7482 136.727C30.1794 135.559 30.9663 134.557 31.9978 133.86C33.0293 133.163 34.2534 132.808 35.4976 132.844C37.5248 132.755 39.5277 133.314 41.2159 134.44C44.245 136.484 46.7262 139.24 48.4417 142.466C49.8421 144.861 50.8148 147.481 51.3163 150.209C51.8827 153.389 51.8392 156.647 51.1882 159.811C50.7665 162.07 50.0862 164.273 49.1606 166.376C47.2361 170.293 44.7149 173.722 40.9607 176.139C37.6096 178.32 33.6275 179.322 29.6434 178.987C27.2041 178.841 24.818 178.212 22.6237 177.136Z" fill="#FFE4E2"/>
<path d="M80.4005 30.7384C81.3992 32.6127 82.3665 34.5258 83.3015 36.4128C83.6744 37.1292 84.1866 37.764 84.808 38.28C84.8987 38.3748 85.012 38.4449 85.1373 38.4838C85.2626 38.5227 85.3958 38.5291 85.5242 38.5023C85.6526 38.4756 85.7721 38.4166 85.8715 38.331C85.9709 38.2453 86.0468 38.1358 86.0922 38.0127C86.4619 37.3551 86.6167 36.5983 86.535 35.8483C86.4213 34.7674 86.1428 33.7103 85.7091 32.7138C85.127 31.5282 84.5723 30.3221 83.9318 29.1428C82.9917 27.3641 82.1746 25.5231 81.486 23.6327C81.3516 23.2537 81.26 22.8608 81.213 22.4614C81.0761 21.9124 81.0842 21.3373 81.2363 20.7923C81.3884 20.2473 81.6794 19.7512 82.0809 19.3524C82.4823 18.9537 82.9804 18.666 83.5264 18.5175C84.0724 18.369 84.6476 18.3649 85.1956 18.5054C86.5043 18.7275 87.7527 19.2182 88.8623 19.9466C91.2919 21.6033 93.411 23.6747 95.1224 26.0661C95.8781 27.004 96.5179 28.0296 97.0278 29.1208C97.4958 30.2357 98.038 31.325 98.4203 32.4668C99.3273 34.9004 99.7292 37.4932 99.6015 40.0872C99.39 43.3812 98.5106 46.5978 97.0166 49.5411C96.2507 50.9306 95.076 52.0509 93.6518 52.75C92.2275 53.4492 90.6227 53.6933 89.055 53.4494C85.3637 52.7739 81.8481 51.355 78.7219 49.2791C75.2142 46.9707 72.1256 44.0812 69.5889 40.7347C68.9498 39.9228 68.363 39.071 67.8321 38.1846C66.9346 36.6484 65.903 35.1857 65.1344 33.5825C63.6784 30.6194 63.1255 27.2937 63.5445 24.0189C63.6256 22.9168 64.004 21.8574 64.6394 20.9533C65.2748 20.0492 66.1434 19.3343 67.1528 18.8847C67.9528 18.4832 68.8449 18.3013 69.7382 18.3575C70.6315 18.4137 71.4938 18.706 72.2371 19.2046C73.6663 20.1784 74.9194 21.3882 75.9429 22.7823C77.8224 25.207 78.9832 28.0455 80.4005 30.7384Z" fill="#E6F6E7"/>
<path d="M243.645 17.886C246.068 19.0974 248.178 20.8517 249.811 23.0122C250.748 24.2594 251.509 25.6293 252.074 27.0835C253.49 30.3888 253.839 34.0539 253.071 37.567C252.538 40.8616 251.434 44.038 249.809 46.9534C247.899 50.3128 245.355 53.2689 242.317 55.657C240.768 56.8527 239.067 57.8372 237.259 58.5845C235.328 59.3935 233.172 59.4887 231.177 58.853C228.872 58.1477 227.191 56.6083 225.543 55.0105C223.405 52.8393 221.547 50.4097 220.012 47.7779C217.501 43.5648 215.375 39.1346 213.659 34.5408C212.948 32.7151 212.102 30.9479 211.568 29.0577C211.28 27.9437 211.127 26.7989 211.114 25.6483C211.099 24.7263 211.284 23.8122 211.658 22.9692C212.032 22.1263 212.585 21.3749 213.278 20.767C214.432 19.6209 215.861 18.7915 217.429 18.3587C217.597 18.3184 217.762 18.2695 217.925 18.2122C221.293 17.0114 224.801 16.248 228.363 15.9407C231.224 15.5484 234.12 15.4793 236.996 15.7347C239.342 15.9616 241.611 16.6956 243.645 17.886Z" fill="#E6F6E7"/>
<path d="M271.855 108.371C267.11 111.746 261.719 113.139 255.988 113.508C254.832 113.58 253.672 113.488 252.543 113.235C251.232 112.986 250.019 112.368 249.046 111.454C248.073 110.54 247.381 109.367 247.05 108.074C246.556 106.532 246.402 104.9 246.6 103.292C246.798 101.684 247.343 100.138 248.196 98.7614C249.201 97.0705 250.433 95.5258 251.859 94.1706C255.343 90.9047 258.606 87.4164 261.819 83.8823C263.489 82.0509 265.306 80.3578 267.25 78.8196C269.783 76.8533 272.853 75.7004 276.054 75.5127C277.548 75.3844 279.052 75.4623 280.525 75.7442C281.897 75.9787 283.184 76.5675 284.258 77.4522C285.333 78.337 286.158 79.487 286.651 80.7885C287.049 81.6858 287.313 82.637 287.434 83.6114C288.037 87.6518 287.193 91.7754 285.052 95.2543C283.733 97.2942 282.207 99.1923 280.498 100.918C277.88 103.692 274.984 106.19 271.855 108.371ZM267.228 102.174C268.282 101.453 269.288 100.666 270.242 99.8172C272.356 97.8605 274.344 95.771 276.192 93.5614C277.143 92.4796 278.025 91.338 278.831 90.1437C279.378 89.396 279.747 88.5326 279.908 87.6199C280.07 86.7073 280.019 85.7698 279.761 84.8797C279.565 84.1174 279.111 83.4468 278.475 82.9827C277.84 82.5187 277.063 82.29 276.277 82.3358C275.52 82.342 274.773 82.5051 274.082 82.8149C272.117 83.6646 270.349 84.9101 268.887 86.4738C266.098 89.5511 263.108 92.4334 260.046 95.224C258.356 96.7113 256.854 98.3994 255.574 100.251C254.966 101.094 254.549 102.06 254.355 103.081C254.242 103.511 254.233 103.962 254.329 104.396C254.425 104.83 254.623 105.235 254.907 105.577C255.191 105.919 255.553 106.188 255.962 106.362C256.371 106.537 256.815 106.611 257.259 106.579C258.241 106.585 259.215 106.404 260.129 106.045C262.653 105.061 265.041 103.759 267.235 102.169L267.228 102.174Z" fill="#FFEDCC"/>
</svg>
