<svg width="351" height="144" viewBox="0 0 351 144" fill="none" xmlns="http://www.w3.org/2000/svg">
<ellipse cx="178.225" cy="122.649" rx="107.46" ry="19.941" fill="#D2D9FF"/>
<ellipse cx="48.4046" cy="19.2166" rx="3.81345" ry="5.20016" transform="rotate(-50.7528 48.4046 19.2166)" fill="#E6F6E7"/>
<ellipse cx="304.397" cy="6.44152" rx="3.81345" ry="5.20016" transform="rotate(-146.469 304.397 6.44152)" fill="#D2D9FF"/>
<ellipse cx="7.02569" cy="32.7086" rx="3.81345" ry="5.20016" transform="rotate(-146.469 7.02569 32.7086)" fill="#FFEDCC"/>
<path d="M38.7041 47.6599C40.4387 48.7999 41.9517 50.2457 43.1694 51.9267C44.0868 53.067 44.9243 54.2693 45.676 55.5251C46.5986 57.1361 47.3512 58.8387 47.9215 60.6054C48.2191 61.5381 48.4316 62.4962 48.6367 63.4406C48.8603 64.5844 48.9715 65.7474 48.9684 66.9129C48.9925 68.8034 48.7748 70.6892 48.3207 72.5244C48.2672 72.7795 48.1922 73.0297 48.0967 73.2722C47.767 74.0498 47.4933 74.8499 47.2777 75.6665C46.9821 76.8378 46.4492 77.9359 45.712 78.8929C44.8527 80.0839 43.7352 81.0653 42.4432 81.7635C41.9137 82.0234 41.322 82.13 40.7351 82.0713C40.151 81.9944 39.5977 81.7639 39.1319 81.4032C38.666 81.0425 38.3042 80.5646 38.0835 80.0184C37.5829 78.9538 37.3353 77.7879 37.3601 76.6117C37.3483 74.6519 37.5126 72.6949 37.8508 70.7644C38.112 69.173 38.5871 67.6626 38.8672 66.0928C38.9631 65.6476 38.9816 65.1893 38.9219 64.7378C38.9134 64.6641 38.8871 64.5935 38.8452 64.5322C38.8033 64.4709 38.7472 64.4207 38.6816 64.3859C38.616 64.3512 38.5429 64.3329 38.4687 64.3327C38.3945 64.3324 38.3213 64.3503 38.2555 64.3847C37.9524 64.5094 37.6895 64.7154 37.4959 64.9798C37.0043 65.6383 36.6351 66.3798 36.4058 67.169C36.1009 68.1306 35.8016 69.0962 35.5637 70.0706C35.3188 71.1487 34.9768 72.2025 34.5418 73.2189C34.1544 74.1932 33.5083 75.0434 32.6734 75.6778C32.176 76.0475 31.5773 76.2562 30.9578 76.2758C30.5155 76.3 30.0764 76.1886 29.699 75.9567C29.3216 75.7247 29.0239 75.3831 28.8458 74.9776C28.4308 74.1655 28.1859 73.2773 28.1263 72.3673C27.9911 69.954 28.1869 67.5336 28.7082 65.1734C28.9978 64.0032 29.1829 62.8095 29.2611 61.6065C29.2954 61.3132 29.2789 61.0162 29.2124 60.7285C29.1993 60.6813 29.1758 60.6377 29.1435 60.6008C29.1112 60.564 29.0709 60.5349 29.0258 60.5157C28.9807 60.4965 28.9319 60.4878 28.8829 60.4901C28.834 60.4925 28.7862 60.5058 28.7431 60.5292C28.139 60.8584 27.6422 61.3543 27.3117 61.9578C26.6017 63.381 25.9566 64.8323 25.1914 66.2256C24.5546 67.5136 23.6456 68.6479 22.5274 69.5502C21.7075 70.1514 20.7215 70.4839 19.7049 70.5021C19.2779 70.5195 18.8525 70.4407 18.4599 70.2718C18.0673 70.1029 17.7177 69.848 17.4367 69.5259C16.9434 69.0054 16.5531 68.3963 16.2862 67.7306C15.7899 66.3863 15.5161 64.97 15.4759 63.5375C15.4165 62.4016 15.4428 61.2628 15.5545 60.1308C15.7605 58.3509 16.2053 56.6069 16.8769 54.9457C17.3511 53.7712 17.9571 52.6542 18.6831 51.6163C19.6124 50.2776 20.7831 49.124 22.1352 48.2144C23.5386 47.2227 25.061 46.4111 26.6667 45.7987C27.9234 45.3409 29.2388 45.0636 30.5734 44.9752C31.5466 44.9193 32.5222 45.0263 33.4601 45.292C35.3581 45.6946 37.1469 46.5024 38.7041 47.6599Z" fill="#D2D9FF"/>
<path d="M322.454 106.19C322.558 106.164 322.655 106.115 322.737 106.045C322.819 105.975 322.883 105.887 322.925 105.788C323.599 104.645 324.407 103.586 325.331 102.633C325.947 102.013 326.647 101.483 327.411 101.059C327.938 100.73 328.533 100.525 329.151 100.462C329.768 100.398 330.393 100.477 330.975 100.692C331.468 100.875 331.88 101.226 332.14 101.683C332.644 102.52 332.906 103.48 332.896 104.457C332.896 104.949 332.896 105.434 332.896 105.927C332.908 106.633 332.803 107.336 332.584 108.007C332.277 109.342 331.76 110.62 331.052 111.792C331.038 111.821 331.032 111.851 331.032 111.883C331.032 111.914 331.038 111.944 331.052 111.973C331.074 112.015 331.111 112.047 331.156 112.062C331.201 112.078 331.251 112.076 331.294 112.056L333.457 111.48C334.953 111.158 336.489 111.062 338.013 111.196C338.529 111.252 339.038 111.364 339.531 111.529C339.895 111.622 340.235 111.79 340.53 112.024C340.824 112.257 341.066 112.55 341.239 112.883C341.412 113.216 341.514 113.582 341.536 113.957C341.558 114.332 341.501 114.707 341.369 115.058C341.07 116.055 340.532 116.965 339.802 117.707C338.928 118.585 337.922 119.319 336.82 119.884C335.169 120.725 333.47 121.468 331.731 122.11C330.85 122.456 330.005 122.872 329.138 123.24C327.37 123.989 325.588 124.689 323.778 125.32C323.653 125.361 323.536 125.41 323.411 125.445C323.234 125.487 323.074 125.581 322.951 125.714C322.828 125.848 322.746 126.014 322.717 126.193C322.475 127.24 322.211 128.274 321.941 129.314C321.781 129.945 321.587 130.562 321.421 131.193C321.372 131.366 321.282 131.56 321.476 131.761C321.878 131.449 322.288 131.144 322.69 130.818C323.821 129.888 325.048 129.082 326.351 128.412C327.604 127.792 328.947 127.371 330.33 127.164C331.002 127.056 331.681 126.996 332.362 126.984C332.595 126.985 332.828 126.959 333.055 126.908C333.464 126.783 333.901 126.783 334.31 126.908C334.723 127.009 335.15 127.035 335.572 126.984C336.273 127.003 336.97 127.093 337.652 127.254C337.845 127.291 338.034 127.349 338.214 127.428C338.366 127.465 338.508 127.536 338.628 127.637C338.748 127.738 338.844 127.865 338.907 128.008C338.97 128.152 338.999 128.308 338.992 128.465C338.985 128.621 338.942 128.774 338.866 128.911C338.808 129.063 338.728 129.205 338.63 129.334C337.792 130.447 336.818 131.451 335.732 132.323C333.229 134.092 330.379 135.309 327.37 135.893C326.829 136.001 326.278 136.056 325.727 136.06C325.144 136.06 324.555 136.06 323.965 136.06C322.862 136.039 321.762 135.942 320.672 135.769C320.249 135.769 320.18 135.769 320.055 136.171C319.791 137.038 319.549 137.918 319.237 138.771C319.02 139.529 318.592 140.209 318.003 140.733C317.739 140.948 317.538 140.9 317.42 140.567C317.253 140.069 317.241 139.532 317.386 139.027C317.656 137.987 317.926 136.947 318.231 135.928C319.105 133.002 319.951 130.069 320.693 127.109C320.797 126.7 320.894 126.291 320.977 125.881C321.06 125.472 320.977 125.257 320.575 125.119C320.173 124.98 319.715 124.834 319.278 124.71C316.882 124.079 314.576 123.147 312.414 121.936C310.694 120.935 309.183 119.612 307.963 118.04C307.111 116.973 306.356 115.831 305.709 114.628C305.263 113.801 304.923 112.92 304.697 112.007C304.38 110.866 304.491 109.648 305.009 108.582C305.245 108.097 305.608 107.684 306.06 107.388C306.511 107.093 307.035 106.926 307.575 106.904C309.211 106.835 310.828 107.286 312.192 108.194C312.338 108.27 312.47 108.367 312.615 108.43C312.653 108.442 312.694 108.446 312.733 108.439C312.773 108.432 312.81 108.415 312.842 108.391C312.873 108.366 312.898 108.334 312.915 108.297C312.931 108.26 312.937 108.22 312.934 108.18C312.751 106.925 312.709 105.652 312.809 104.387C312.819 103.283 312.952 102.183 313.205 101.108C313.398 100.279 313.818 99.5204 314.418 98.9169C314.609 98.7178 314.839 98.5589 315.092 98.4494C315.346 98.3399 315.619 98.2819 315.895 98.279C316.448 98.2593 317 98.3503 317.518 98.5468C318.036 98.7432 318.51 99.0411 318.911 99.423C319.709 100.149 320.375 101.008 320.88 101.961C321.287 102.739 321.648 103.54 321.962 104.36C322.204 104.942 322.156 105.587 322.454 106.19Z" fill="#FFE4E2"/>
<path d="M35.2844 137.22C31.4126 135.667 27.9866 133.178 25.3136 129.975C25.0961 129.725 24.8867 129.455 24.6573 129.215C23.2433 127.688 22.2528 125.819 21.7842 123.792C21.4848 122.726 21.4421 121.604 21.6595 120.518C21.877 119.432 22.3484 118.413 23.0352 117.544C24.8922 115.139 27.4215 114.397 30.2832 114.451C32.0056 114.522 33.7131 114.802 35.3681 115.284C35.5887 115.364 35.8172 115.421 36.0497 115.453C36.7535 115.48 37.5403 115.792 38.1265 115.227C38.8977 114.643 39.4248 113.793 39.6058 112.842C39.8568 110.689 40.1781 108.566 40.4738 106.431C40.5968 105.435 40.8492 104.458 41.2248 103.526C41.5844 102.553 42.2405 101.717 43.1005 101.136C43.9606 100.555 44.9813 100.259 46.0187 100.289C47.709 100.215 49.379 100.681 50.7867 101.619C53.3124 103.324 55.3812 105.622 56.8116 108.312C57.9793 110.308 58.7904 112.493 59.2085 114.768C59.6807 117.419 59.6445 120.136 59.1017 122.774C58.7501 124.658 58.1828 126.494 57.411 128.248C55.8064 131.514 53.7042 134.373 50.5739 136.388C47.7798 138.207 44.4594 139.042 41.1374 138.763C39.1035 138.641 37.114 138.117 35.2844 137.22Z" fill="#FFE4E2"/>
<path d="M87.9543 19.7701C88.787 21.3329 89.5935 22.9281 90.3731 24.5014C90.6841 25.0988 91.1111 25.6281 91.6292 26.0584C91.7049 26.1374 91.7994 26.1959 91.9038 26.2283C92.0083 26.2607 92.1193 26.266 92.2264 26.2437C92.3335 26.2214 92.4332 26.1723 92.516 26.1008C92.5989 26.0294 92.6622 25.9381 92.7 25.8355C93.0082 25.2871 93.1373 24.6561 93.0692 24.0308C92.9744 23.1296 92.7422 22.2481 92.3806 21.4172C91.8953 20.4287 91.4327 19.423 90.8987 18.4397C90.1148 16.9566 89.4335 15.4215 88.8593 13.8453C88.7473 13.5293 88.6709 13.2017 88.6317 12.8687C88.5176 12.4109 88.5243 11.9314 88.6511 11.477C88.778 11.0226 89.0206 10.6089 89.3553 10.2764C89.6901 9.94392 90.1054 9.70404 90.5606 9.58024C91.0159 9.45644 91.4955 9.45296 91.9525 9.57014C93.0436 9.75535 94.0845 10.1645 95.0097 10.7719C97.0356 12.1532 98.8025 13.8804 100.229 15.8744C100.86 16.6563 101.393 17.5115 101.818 18.4213C102.208 19.351 102.661 20.2592 102.979 21.2113C103.736 23.2404 104.071 25.4023 103.964 27.5652C103.788 30.3118 103.055 32.9938 101.809 35.448C101.17 36.6065 100.191 37.5406 99.0032 38.1236C97.8157 38.7065 96.4776 38.9101 95.1704 38.7067C92.0926 38.1435 89.1613 36.9604 86.5546 35.2295C83.6298 33.3047 81.0545 30.8954 78.9395 28.1051C78.4065 27.4281 77.9173 26.7179 77.4746 25.9788C76.7263 24.6979 75.8661 23.4783 75.2253 22.1415C74.0112 19.6709 73.5502 16.8979 73.8995 14.1673C73.9672 13.2484 74.2827 12.3651 74.8125 11.6112C75.3423 10.8574 76.0666 10.2613 76.9082 9.88639C77.5752 9.55163 78.3191 9.39993 79.0639 9.44679C79.8087 9.49366 80.5278 9.7374 81.1475 10.1531C82.3392 10.9651 83.3841 11.9739 84.2375 13.1363C85.8046 15.158 86.7725 17.5248 87.9543 19.7701Z" fill="#E6F6E7"/>
<path d="M292.486 22.1116C294.506 23.1217 296.266 24.5844 297.628 26.3859C298.409 27.4258 299.044 28.568 299.514 29.7806C300.695 32.5366 300.986 35.5925 300.346 38.5218C299.901 41.2689 298.98 43.9174 297.626 46.3482C296.033 49.1494 293.912 51.6141 291.379 53.6053C290.087 54.6024 288.669 55.4232 287.161 56.0463C285.551 56.7209 283.753 56.8003 282.09 56.2702C280.168 55.6822 278.767 54.3986 277.392 53.0663C275.61 51.256 274.061 49.2301 272.78 47.0357C270.687 43.5228 268.915 39.8289 267.483 35.9985C266.891 34.4762 266.185 33.0027 265.74 31.4266C265.5 30.4978 265.372 29.5433 265.361 28.5838C265.349 27.8151 265.504 27.0529 265.815 26.3501C266.127 25.6472 266.588 25.0207 267.166 24.5139C268.128 23.5582 269.32 22.8666 270.627 22.5058C270.767 22.4721 270.905 22.4314 271.041 22.3836C273.849 21.3824 276.774 20.7458 279.744 20.4896C282.13 20.1625 284.544 20.1049 286.942 20.3179C288.898 20.507 290.79 21.1191 292.486 22.1116Z" fill="#E6F6E7"/>
<path d="M331.539 70.2064C327.583 73.0204 323.088 74.182 318.309 74.4894C317.346 74.5496 316.379 74.4731 315.437 74.2624C314.344 74.0541 313.332 73.5387 312.521 72.7766C311.71 72.0145 311.133 71.0372 310.857 69.959C310.445 68.6727 310.317 67.3122 310.482 65.9715C310.647 64.6308 311.101 63.3419 311.813 62.1938C312.651 60.7839 313.678 59.4959 314.867 58.366C317.772 55.6428 320.493 52.7343 323.171 49.7875C324.564 48.2605 326.079 46.8488 327.7 45.5662C329.812 43.9267 332.371 42.9654 335.041 42.8089C336.286 42.7019 337.541 42.7668 338.769 43.0019C339.913 43.1975 340.986 43.6884 341.882 44.4261C342.778 45.1638 343.465 46.1227 343.877 47.2079C344.209 47.9561 344.429 48.7492 344.529 49.5616C345.032 52.9305 344.329 56.3688 342.543 59.2695C341.444 60.9705 340.171 62.5531 338.746 63.9922C336.563 66.3051 334.148 68.3875 331.539 70.2064ZM327.682 65.0392C328.56 64.438 329.4 63.7817 330.195 63.0742C331.958 61.4427 333.615 59.7004 335.156 57.858C335.949 56.956 336.684 56.0042 337.356 55.0083C337.813 54.3849 338.12 53.665 338.255 52.904C338.389 52.143 338.347 51.3613 338.132 50.6191C337.969 49.9835 337.59 49.4244 337.06 49.0375C336.53 48.6505 335.882 48.4598 335.227 48.4981C334.596 48.5032 333.972 48.6392 333.397 48.8975C331.758 49.606 330.284 50.6445 329.065 51.9484C326.74 54.5142 324.247 56.9175 321.693 59.2443C320.284 60.4844 319.032 61.892 317.964 63.4358C317.457 64.1387 317.11 64.9442 316.948 65.7957C316.854 66.1542 316.846 66.53 316.926 66.8919C317.006 67.2538 317.172 67.5914 317.408 67.8766C317.645 68.1617 317.947 68.3863 318.288 68.5316C318.629 68.6769 318.999 68.7387 319.369 68.712C320.188 68.7176 321 68.5665 321.763 68.2669C323.867 67.4468 325.858 66.3608 327.687 65.0353L327.682 65.0392Z" fill="#FFEDCC"/>
<path d="M107.489 59.8358C71.4661 67.5026 78.9037 117.917 95.1207 127.494C115.904 129.878 173.114 134.141 200.884 131.797C228.654 129.453 257.316 126.987 269.091 121.311C270.399 91.2457 271.903 29.2951 212.707 24.4861C168.183 20.8691 149.76 54.2989 144.133 71.4098C140.582 65.7392 125.664 55.9678 107.489 59.8358Z" stroke="black" stroke-width="2"/>
<path d="M113.396 62.2675C96.0947 62.7273 87.767 79.3395 85.7659 87.588L108.791 124.584C128.148 126.816 173.33 130.726 199.197 128.517C225.064 126.308 254.185 124.145 265.155 118.812C266.383 90.589 267.804 32.4346 212.668 27.9391C171.198 24.5579 150.187 61.5947 144.94 77.6588C141.635 72.3368 130.698 61.8077 113.396 62.2675Z" fill="#296107"/>
<path d="M102.617 125.654C110.755 126.388 134.149 128.44 158.277 128.578C156.456 127.107 149.68 120.411 141.489 107.6C131.25 91.5862 121.634 69.904 100.049 72.0027C78.463 74.1014 83.3282 109.626 90.1662 117.138C95.6366 123.148 100.746 125.319 102.617 125.654Z" fill="#C2ECA8"/>
<path d="M115.603 102.794C115.772 103.651 116.688 105.252 119.003 104.796C121.317 104.341 121.596 102.703 121.446 101.941" stroke="black" stroke-width="2"/>
<path d="M95.1539 107.487C95.3227 108.344 96.2388 109.945 98.5535 109.489C100.868 109.033 101.147 107.395 100.997 106.633" stroke="black" stroke-width="2"/>
<path d="M106.039 114.812C106.725 113.784 107.858 113 110.107 112.552C112.357 112.104 113.099 112.738 114.084 113.21" stroke="black" stroke-width="2"/>
<path d="M105.166 89.8747C103.297 90.0602 98.5208 89.248 94.3767 84.5149C89.1966 78.5986 90.2429 73.3275 93.4783 70.0593C96.7136 66.791 102.046 66.9126 105.777 70.1786C109.507 73.4447 110.494 76.0643 108.769 77.5752C107.043 79.0861 103.375 78.3783 99.5207 73.4787C95.6662 68.5791 95.8172 62.432 97.1431 60.318C98.9607 57.4201 101.077 57.0187 102.505 56.4943" stroke="black" stroke-width="2"/>
</svg>
