<svg width="92" height="92" viewBox="0 0 92 92" fill="none" xmlns="http://www.w3.org/2000/svg">
<path d="M45.6259 5.67927V0.149902" stroke="#4E964E"/>
<path d="M51.9961 5.90509L52.5301 2.42725" stroke="#4E964E"/>
<path d="M58.0547 7.33109L59.1343 3.98193" stroke="#4E964E"/>
<path d="M63.916 9.71015L65.5013 6.53467" stroke="#4E964E"/>
<path d="M69.3164 12.8951L71.3672 10.1011" stroke="#4E964E"/>
<path d="M74.0918 17.0797L76.6222 14.5327" stroke="#4E964E"/>
<path d="M78.2695 21.8022L81.0096 19.71" stroke="#4E964E"/>
<path d="M81.6387 27.165L84.5316 25.6211" stroke="#4E964E"/>
<path d="M84.0508 32.9657L87.2941 31.8379" stroke="#4E964E"/>
<path d="M85.4668 39.0861L88.9767 38.5908" stroke="#4E964E"/>
<path d="M6.46966 39.5902L2.99654 39.1149" stroke="#4E964E"/>
<path d="M7.85517 33.3834L4.50069 32.3582" stroke="#4E964E"/>
<path d="M10.1724 27.4861L6.9821 25.9503" stroke="#4E964E"/>
<path d="M13.2671 22.2257L10.4486 20.2159" stroke="#4E964E"/>
<path d="M17.4703 17.2768L14.8894 14.7814" stroke="#4E964E"/>
<path d="M22.1288 12.9649L19.9971 10.2511" stroke="#4E964E"/>
<path d="M27.358 9.61954L25.7698 6.74269" stroke="#4E964E"/>
<path d="M33.3811 7.24204L32.2012 4.00621" stroke="#4E964E"/>
<path d="M39.5304 5.83266L38.9759 2.31827" stroke="#4E964E"/>
<path d="M85.9805 45.3629H91.501" stroke="#4E964E" stroke-width="1.5"/>
<path d="M0.5 45.4531H6.02054" stroke="#4E964E" stroke-width="1.5"/>
<path d="M85.6191 51.7471L89.0825 52.252" stroke="#4E964E"/>
<path d="M84.1309 57.7163L87.5964 58.958" stroke="#4E964E"/>
<path d="M81.7266 63.6465L85.0031 65.3207" stroke="#4E964E"/>
<path d="M78.4434 69.0229L81.2409 71.1004" stroke="#4E964E"/>
<path d="M74.4688 73.9614L76.8251 76.3128" stroke="#4E964E"/>
<path d="M69.6719 78.0342L71.782 80.8604" stroke="#4E964E"/>
<path d="M64.3105 81.3672L65.9777 84.49" stroke="#4E964E"/>
<path d="M58.5078 83.8613L59.6356 87.1434" stroke="#4E964E"/>
<path d="M52.3926 85.2476L52.974 88.7184" stroke="#4E964E"/>
<path d="M46.1424 85.6426V91.1499" stroke="#4E964E" stroke-width="1.5"/>
<path d="M40.1305 85.3774L39.5762 88.8345" stroke="#4E964E"/>
<path d="M34.0809 83.9692L32.998 87.3827" stroke="#4E964E"/>
<path d="M28.1772 81.6108L26.6172 84.7123" stroke="#4E964E"/>
<path d="M22.851 78.3535L20.7422 81.1594" stroke="#4E964E"/>
<path d="M17.9853 74.2686L15.5371 76.7978" stroke="#4E964E"/>
<path d="M13.8662 69.5093L11.1172 71.6688" stroke="#4E964E"/>
<path d="M10.5601 64.1704L7.52734 65.7608" stroke="#4E964E"/>
<path d="M8.09438 58.3218L4.86719 59.4739" stroke="#4E964E"/>
<path d="M6.51166 52.2588L3.05664 52.8118" stroke="#4E964E"/>
</svg>
