<svg width="173" height="216" viewBox="0 0 173 216" fill="none" xmlns="http://www.w3.org/2000/svg">
<path d="M41.1418 176.887L17.5667 185.888L27.854 214.178H13.709" stroke="black" stroke-width="3"/>
<path d="M142.138 130.831C142.176 151.495 117.69 192.554 73.3993 188.468C29.1082 184.382 15.5744 151.095 14.9667 125.87C14.3177 98.9354 35.8263 84.5355 38.096 63.8141C39.0615 54.9998 39.67 45.487 43.8838 36.4148C49.3676 22.7425 64.2287 13.495 81.0587 13.604C102.204 13.741 116.16 25.2055 121.185 37.6915C125.373 48.0966 124.607 55.2358 125.328 65.2311C127.295 92.4994 142.069 94.0034 142.138 130.831Z" fill="#296107"/>
<path d="M131.43 132.3C131.571 152.689 109.361 193.072 68.7838 188.812C28.2065 184.553 15.6427 151.643 14.9565 126.752C14.2237 100.174 33.8445 86.0779 35.8163 65.6456C36.655 56.9542 37.1633 47.5718 40.975 38.6428C45.9261 25.1817 59.4865 16.1344 74.8979 16.3285C94.261 16.5724 107.099 27.9553 111.765 40.3C115.653 50.5873 114.988 57.627 115.7 67.4923C117.641 94.4057 131.177 95.9656 131.43 132.3Z" fill="#C2ECA8"/>
<path d="M131.433 132.301C131.574 152.689 109.364 193.072 68.7868 188.813C90.0105 186.814 119.905 167.886 123.016 135.738C125.793 107.027 110.059 87.3018 109.299 70.5849C108.871 61.1549 108.871 53.4394 105.013 40.3002C100.536 25.0513 89.5818 21.2915 74.9009 16.3287C94.2639 16.5726 107.102 27.9554 111.768 40.3002C115.656 50.5875 114.991 57.6272 115.703 67.4924C117.644 94.4058 131.18 95.9658 131.433 132.301Z" fill="#A6D489"/>
<path d="M148.335 133.728C148.382 156.418 121.59 201.495 73.1071 196.998C24.6245 192.5 9.80199 155.948 9.13053 128.25C8.41356 98.6745 31.9535 82.8683 34.4329 60.1164C35.4875 50.4384 36.1512 39.9932 40.7614 30.0328C46.7607 15.0217 63.0256 4.87142 81.448 4.99529C104.594 5.15092 119.873 17.7427 125.377 31.4538C129.963 42.8798 129.127 50.7186 129.919 61.6939C132.078 91.6355 148.251 93.2906 148.335 133.728Z" stroke="black" stroke-width="3"/>
<path d="M64.7711 166.953C54.0212 166.868 32.6174 156.115 37.3224 131.974C42.0273 107.833 58.5023 102.684 65.7341 102.85C74.7738 103.058 92.3953 116.398 92.6627 136.577C92.9528 158.474 75.5209 167.037 64.7711 166.953Z" fill="#75452F"/>
<path d="M60.4342 161.869C51.3924 161.798 33.3896 152.753 37.3469 132.448C41.3043 112.143 55.1615 107.812 61.2442 107.952C68.8476 108.126 83.6691 119.347 83.894 136.32C84.138 154.737 69.476 161.939 60.4342 161.869Z" fill="#8B5338"/>
<path d="M55.7963 151.275C51.8138 151.184 43.831 146.345 45.4522 135.749C47.0735 125.153 53.1504 122.971 55.8301 123.08C59.1798 123.217 65.7745 129.174 65.9752 138.053C66.193 147.687 59.7789 151.366 55.7963 151.275Z" fill="#A75E3D"/>
<path d="M79.293 70.5849C79.293 69.4418 80.0645 67.1558 83.1507 67.1558C86.2369 67.1558 87.0085 69.1878 87.0085 70.2039" stroke="black" stroke-width="3"/>
<path d="M51.8633 69.7274C51.8633 68.5844 52.6348 66.2983 55.721 66.2983C58.8072 66.2983 59.5788 68.3304 59.5788 69.3464" stroke="black" stroke-width="3"/>
<path d="M62.5781 74.8711C63.7212 76.0141 66.0072 78.3002 69.0077 78.3002C72.0082 78.3002 74.2942 76.5856 75.4373 75.7284" stroke="black" stroke-width="3"/>
<path d="M71.1533 48.7242C69.153 47.2954 65.1523 42.3804 65.1523 34.1505C65.1523 23.8632 70.7246 19.5768 76.7256 19.1482C82.7265 18.7196 87.8702 23.4346 88.7274 29.8641C89.5847 36.2937 88.2988 39.7228 85.2983 39.7228C82.2979 39.7228 79.2974 35.8651 79.726 27.721C80.1547 19.5768 85.6007 13.6566 88.7274 12.7186C93.0138 11.4327 95.4428 12.8615 97.3002 13.5759" stroke="black" stroke-width="3"/>
<path d="M106.297 172.601L159.877 213.75H141.445" stroke="black" stroke-width="3"/>
<path d="M109.094 82.0526C139.7 77.5183 163.504 66.7496 171.439 59.9482" stroke="black" stroke-width="3" stroke-linejoin="bevel"/>
<path d="M29.1781 84.3198C-10.8782 99.7718 39.3648 103.094 67.7195 91.121" stroke="black" stroke-width="3" stroke-linejoin="bevel"/>
</svg>
