<svg width="106" height="151" viewBox="0 0 106 151" fill="none" xmlns="http://www.w3.org/2000/svg">
<path d="M67.6959 126.49L65.3342 150.107H75.0762" stroke="black" stroke-width="2.5"/>
<path d="M3.40845 92.0416C3.37587 107.669 21.8284 138.714 55.2193 135.617C88.6102 132.519 98.8187 107.345 99.2812 88.2688C99.7749 67.8996 83.5625 57.0137 81.855 41.344C81.1286 34.6785 80.6715 27.4848 77.4964 20.6248C73.3645 10.2864 62.1626 3.2957 49.4748 3.38101C33.5336 3.4882 23.0108 12.1604 19.2201 21.6035C16.0612 29.4728 16.6372 34.8715 16.092 42.4304C14.6046 63.0518 3.46652 64.1917 3.40845 92.0416Z" stroke="black" stroke-width="2.5"/>
<path d="M7.85377 90.3525C7.82724 104.568 24.672 132.814 55.1413 130.003C85.6106 127.192 94.2002 104.293 94.6183 86.9401C95.0647 68.4106 80.989 58.5044 79.4275 44.2495C78.7634 38.1859 78.3448 31.6417 75.446 25.4007C71.6734 15.995 61.45 9.63339 49.8721 9.70839C35.3255 9.80262 25.725 17.6894 22.2678 26.279C19.3868 33.4369 19.9136 38.3482 19.4176 45.2243C18.0645 63.9831 7.90104 65.0177 7.85377 90.3525Z" fill="#A6D489"/>
<path d="M11.6711 90.7986C11.8405 104.425 27.755 131.19 55.8068 127.938C83.8586 124.686 92.1232 103.292 92.2785 85.9262C92.453 66.4219 78.6613 58.9332 77.0275 45.2985C76.3325 39.4987 75.8182 32.7244 73.0607 26.7954C69.4545 17.8492 59.9817 12.448 49.3089 12.7318C35.8994 13.0885 27.1561 20.8238 24.086 29.1201C21.5276 36.0338 22.0802 40.7316 21.7167 47.3314C20.725 65.3365 11.3692 66.5143 11.6711 90.7986Z" fill="#C2ECA8"/>
<path d="M52.6318 115.792C60.027 115.734 74.7514 108.336 71.5147 91.7291C68.278 75.1219 56.9443 71.5798 51.9693 71.694C45.7506 71.8367 33.6282 81.014 33.4443 94.8959C33.2447 109.959 45.2366 115.85 52.6318 115.792Z" fill="#75452F"/>
<path d="M53.0711 111.067C58.8786 111.021 70.4418 105.212 67.9 92.1697C65.3582 79.1278 56.4577 76.3462 52.5508 76.4359C47.6672 76.5479 38.1474 83.755 38.0029 94.6565C37.8462 106.486 47.2636 111.112 53.0711 111.067Z" fill="#8B5338"/>
<path d="M53.4045 103.715C56.115 103.375 61.2303 99.4141 59.4014 92.0631C57.5724 84.7121 53.2781 83.5959 51.4576 83.8585C49.1819 84.1868 45.0898 88.8395 45.5587 95.1067C46.0675 101.907 50.694 104.055 53.4045 103.715Z" fill="#A75E3D"/>
<path d="M50.9745 27.4461C52.4158 26.5581 55.395 23.3682 55.7805 17.7133C56.2623 10.6446 52.6343 7.43833 48.5309 6.86272C44.4276 6.28711 40.6724 9.286 39.7822 13.6637C38.892 18.0415 39.615 20.458 41.6767 20.5985C43.7384 20.739 45.9808 18.2288 46.0677 12.6127C46.1546 6.99664 42.6899 2.67363 40.5853 1.88264C37.7003 0.798289 35.9644 1.66627 34.6546 2.07014" stroke="black" stroke-width="2.5"/>
<path d="M43 43C43 42.3333 42.5 41 40.5 41C38.5 41 38 42.1852 38 42.7778" stroke="black" stroke-width="2.5"/>
<path d="M62 42C62 41.3333 61.5 40 59.5 40C57.5 40 57 41.1852 57 41.7778" stroke="black" stroke-width="2.5"/>
<path d="M55 46C54.2 46.6667 52.6 48 50.5 48C48.4 48 46.8 47 46 46.5" stroke="black" stroke-width="2.5"/>
<path d="M32.5663 116.453L30.4998 150.107H20.7578" stroke="black" stroke-width="2.5"/>
<path d="M80.5 65C83.6667 69.8333 88.1 78.5 82.5 82.5C76.9 86.5 66 78.1667 61 72.5C60.8333 71.6667 60 69.9 58 69.5C56 69.1 54.8333 70 54.5 70.5" stroke="black" stroke-width="2.5" stroke-linejoin="bevel"/>
<path d="M21.0001 68.5C20.8334 73 19.4 87.1 25 95.5C30.6 103.9 35.1666 106.5 36 106.5C36 107 35.7 108.3 36.5 109.5C37.3 110.7 38.8333 111 39.5 111" stroke="black" stroke-width="2.5" stroke-linejoin="bevel"/>
</svg>
