<svg width="115" height="153" viewBox="0 0 115 153" fill="none" xmlns="http://www.w3.org/2000/svg">
<path d="M110.109 34.9193C99.4978 41.243 92.837 49.777 90.5715 58.8837" stroke="black" stroke-width="2.5"/>
<path d="M74.3081 128.038L71.9802 151.317H81.583" stroke="black" stroke-width="2.5"/>
<path d="M11.4335 93.4996C11.4014 108.904 29.5904 139.506 62.5043 136.452C95.4182 133.399 105.481 108.584 105.937 89.7807C106.424 69.7024 90.4427 58.972 88.7595 43.5261C88.0435 36.9559 87.593 29.8648 84.4632 23.1029C80.3903 12.9121 69.3484 6.02127 56.8418 6.10536C41.1284 6.21101 30.7559 14.7593 27.0193 24.0676C23.9055 31.8245 24.4733 37.1461 23.9359 44.597C22.4697 64.9238 11.4907 66.0475 11.4335 93.4996Z" stroke="black" stroke-width="2.5"/>
<path d="M15.6393 91.5331C15.6132 105.562 32.2363 133.436 62.3047 130.662C92.3731 127.888 100.85 105.29 101.262 88.1656C101.703 69.8799 87.8123 60.1041 86.2715 46.0367C85.616 40.0529 85.2029 33.5948 82.3423 27.4358C78.6194 18.1539 68.5304 11.876 57.1048 11.95C42.7496 12.043 33.2754 19.8261 29.8637 28.3026C27.0207 35.3664 27.5405 40.213 27.051 46.9987C25.7158 65.5106 15.686 66.5317 15.6393 91.5331Z" fill="#C69999"/>
<path d="M21.4585 92.7866C21.6275 106.38 37.5039 133.081 65.4885 129.837C93.4731 126.593 101.718 105.25 101.873 87.9258C102.047 68.4682 88.2884 60.9975 86.6584 47.3954C85.9651 41.6095 85.4521 34.8514 82.7011 28.9366C79.1036 20.0118 69.6535 14.6236 59.0062 14.9067C45.6288 15.2625 36.9064 22.9793 33.8437 31.2558C31.2914 38.1529 31.8426 42.8395 31.48 49.4235C30.4907 67.3854 21.1574 68.5604 21.4585 92.7866Z" fill="#F5EAEA"/>
<path d="M21.4571 92.7871C21.626 106.381 37.5025 133.082 65.4871 129.837C51.4181 127.938 29.7219 122.46 25.6366 92.7871C23.3298 76.0314 35.6493 64.3438 34.918 49.4241C34.5742 42.4107 34.5742 34.0935 39.043 26.8747C42.6181 21.0996 50.7306 15.8746 59.0047 14.9073C45.6274 15.2631 36.905 22.9799 33.8422 31.2564C31.29 38.1535 31.8412 42.8401 31.4786 49.4241C30.4893 67.386 21.1559 68.561 21.4571 92.7871Z" fill="#d9b3b2"/>
<path d="M64.6696 116.637C71.9675 116.58 86.4982 109.28 83.3041 92.8908C80.1099 76.502 68.9254 73.0065 64.0159 73.1192C57.8789 73.26 45.9161 82.3167 45.7345 96.0159C45.5376 110.881 57.3717 116.694 64.6696 116.637Z" fill="#75452F"/>
<path d="M66.0904 111.974C71.8215 111.929 83.2326 106.196 80.7242 93.3255C78.2158 80.4553 69.4325 77.7102 65.577 77.7987C60.7576 77.9093 51.3631 85.0216 51.2205 95.7797C51.0658 107.453 60.3593 112.019 66.0904 111.974Z" fill="#8B5338"/>
<path d="M68.3927 104.719C71.0675 104.384 76.1156 100.475 74.3107 93.2211C72.5058 85.9668 68.268 84.8653 66.4714 85.1244C64.2257 85.4484 60.1874 90.0398 60.6501 96.2247C61.1522 102.936 65.7179 105.055 68.3927 104.719Z" fill="#A75E3D"/>
<path d="M39.6798 118.144L37.6429 151.317H28.04" stroke="black" stroke-width="2.5"/>
<path d="M3.29317 36.0833C19.1657 44.185 25.2055 55.3684 26.4717 63.9359" stroke="black" stroke-width="2.5"/>
<path d="M57.2285 50.6331C57.2285 49.8571 56.7047 48.3052 54.6096 48.3052C52.5144 48.3052 51.9906 49.6847 51.9906 50.3745" stroke="black" stroke-width="2.5"/>
<path d="M75.8525 50.0511C75.8525 49.2751 75.3287 47.7231 73.2336 47.7231C71.1384 47.7231 70.6146 49.1027 70.6146 49.7924" stroke="black" stroke-width="2.5"/>
<path d="M68.5781 53.543C67.8021 54.319 66.2502 55.8709 64.2132 55.8709C62.1762 55.8709 60.6243 54.7069 59.8483 54.125" stroke="black" stroke-width="2.5"/>
<path d="M63.6114 3.47131C62.0742 2.82185 57.8095 2.25398 53.0487 5.17815C47.0978 8.83337 46.5981 13.5798 48.4824 17.2035C50.3666 20.8272 54.9218 22.1274 58.9457 20.3388C62.9696 18.5502 64.4964 16.5879 63.4303 14.8522C62.3642 13.1165 59.0665 12.7515 54.5076 15.8932C49.9487 19.0348 48.4591 24.2888 49.0274 26.4308C49.8066 29.3673 51.4961 30.2647 52.5694 31.0853" stroke="black" stroke-width="2.5"/>
</svg>
