<svg width="143" height="173" viewBox="0 0 143 173" fill="none" xmlns="http://www.w3.org/2000/svg">
<path d="M79.4389 145.831L76.8931 171.289H87.3945" stroke="black" stroke-width="2.5"/>
<path d="M19.4589 96.1167C16.1775 111.103 27.4784 144.747 60.2559 148.756C93.0334 152.765 107.413 130.598 111.826 112.392C116.537 92.9525 103.879 79.2662 105.495 63.8751C106.182 57.3281 107.238 50.3305 105.61 43.085C103.783 32.3021 94.4573 23.253 82.2296 20.6824C66.8666 17.4526 54.9364 23.5732 49.3246 31.8409C44.648 38.7306 44.0795 44.0308 41.9827 51.1691C36.2626 70.6432 25.3069 69.4084 19.4589 96.1167Z" fill="#C69999"/>
<path d="M25.3842 98.8057C22.4123 113.373 33.1872 145.59 63.8468 148.613C94.5065 151.635 108.267 130.738 112.451 112.26C117.149 91.5062 104.178 80.3314 105.59 65.4168C106.191 59.0726 107.21 51.7312 105.642 44.7721C103.867 34.3998 95.0174 26.4498 83.5729 24.2831C69.194 21.561 58.0827 27.7851 52.8901 35.9199C48.563 42.6989 48.0652 47.8354 46.1507 54.7876C40.9279 73.7542 30.6808 72.8454 25.3842 98.8057Z" fill="#F5EAEA"/>
<path d="M25.3858 98.8059C22.4138 113.373 33.1888 145.59 63.8484 148.613C49.2533 143.32 27.3368 132.435 29.8526 99.7752C31.2731 81.3333 47.1495 71.6998 49.828 55.5855C51.0871 48.0105 53.016 39.1219 59.466 32.4435C64.6259 27.1008 74.5076 23.3982 83.5745 24.2833C69.1956 21.5612 58.0843 27.7853 52.8917 35.9201C48.5645 42.6991 48.0668 47.8356 46.1523 54.7878C40.9295 73.7544 30.6824 72.8456 25.3858 98.8059Z" fill="#d9b3b2"/>
<path d="M14.5083 97.2426C10.9016 113.697 23.2433 150.62 59.1265 154.99C95.0098 159.36 111.519 135.174 116.367 115.185C121.543 93.8399 106.953 78.6661 108.736 61.7687C109.495 54.581 110.658 46.8983 108.881 38.946C106.892 27.1105 96.6895 17.1855 83.3042 14.3749C66.4867 10.8437 53.4191 17.5738 47.2671 26.655C42.1405 34.2226 41.5132 40.0415 39.2108 47.8797C32.9298 69.263 20.936 67.9177 14.5083 97.2426Z" stroke="black" stroke-width="2.5"/>
<path d="M66.3279 134.381C74.1404 136.012 91.3624 131.58 91.7496 113.324C92.1368 95.0689 80.9946 88.7394 75.7216 87.7212C69.1304 86.4485 54.2453 93.353 50.8743 107.951C47.2163 123.792 58.5154 132.749 66.3279 134.381Z" fill="#75452F"/>
<path d="M68.3687 130.846C74.903 132.211 89.3073 128.504 89.6311 113.235C89.955 97.9664 80.6357 92.6725 76.2255 91.8209C70.7127 90.7564 58.263 96.5313 55.4435 108.741C52.3841 121.99 61.8344 129.482 68.3687 130.846Z" fill="#8B5338"/>
<path d="M72.1623 123.02C75.3344 123.434 82.2744 120.533 82.3112 111.839C82.348 103.146 77.7975 100.653 75.6571 100.412C72.9815 100.112 67.0034 104.08 65.7352 111.174C64.359 118.87 68.9902 122.605 72.1623 123.02Z" fill="#A75E3D"/>
<path d="M85.3398 66.0898C84.2864 66.6648 82.1796 67.8146 80.0424 67.1865C77.9051 66.5585 76.6357 64.8587 76.001 64.0088" stroke="black" stroke-width="2.5"/>
<path d="M79.4093 40.0551C81.2021 40.3963 85.8923 40.0235 90.3104 35.8032C95.8331 30.5277 95.2767 25.3382 92.4295 21.8968C89.5822 18.4555 84.4133 18.112 80.522 20.9489C76.6308 23.7858 75.4493 26.2347 76.9879 27.8454C78.5266 29.4562 82.1363 29.0887 86.2886 24.6822C90.4409 20.2758 90.8263 14.3162 89.7265 12.1566C88.2187 9.19607 86.2061 8.62479 84.8701 7.99399" stroke="black" stroke-width="2.5"/>
<circle cx="2.5458" cy="2.5458" r="2.5458" transform="matrix(-0.959431 -0.281943 -0.281943 0.959431 94.3359 61.436)" fill="black"/>
<circle cx="2.5458" cy="2.5458" r="2.5458" transform="matrix(-0.959431 -0.281943 -0.281943 0.959431 75.4043 55.873)" fill="black"/>
<path d="M47.2964 135.012L49.524 171.289H60.0254" stroke="black" stroke-width="2.5"/>
<path d="M44.9411 73.7877C47.5225 93.1042 56.8588 103.401 65.2338 107.824" stroke="black" stroke-width="2.5"/>
<path d="M107.06 87.9193C100.872 99.9275 92.006 107.772 82.2186 110.859" stroke="black" stroke-width="2.5"/>
</svg>
