<svg width="237" height="259" viewBox="0 0 237 259" fill="none" xmlns="http://www.w3.org/2000/svg">
<path d="M66.4211 194.917C56.1648 201.921 52.3199 215.102 57.8316 225.207C68.8549 245.418 96.2209 243.159 115.326 243.08L122.078 255.823" stroke="black" stroke-width="3"/>
<path d="M197.35 155.655C197.405 182.123 166.152 234.704 109.598 229.458C53.0439 224.212 35.7536 181.574 34.9704 149.265C34.1341 114.766 61.593 96.3281 64.4852 69.7883C65.7154 58.499 66.4896 46.3149 71.8673 34.6962C78.8655 17.186 97.8382 5.34584 119.328 5.49033C146.327 5.67187 164.15 20.36 170.57 36.3538C175.92 49.682 174.945 58.8259 175.868 71.6283C178.387 106.555 197.252 108.486 197.35 155.655Z" stroke="black" stroke-width="3"/>
<path d="M190.122 152.277C190.167 176.381 161.604 224.276 109.939 219.509C58.2745 214.743 42.4875 175.915 41.7786 146.49C41.0217 115.071 66.1111 98.2737 68.7587 74.1026C69.8849 63.8208 70.5947 52.7243 75.51 42.1417C81.9068 26.1931 99.2421 15.4061 118.874 15.5333C143.54 15.693 159.819 29.0663 165.681 43.631C170.566 55.7683 169.673 64.0961 170.514 75.7554C172.808 107.563 190.042 109.318 190.122 152.277Z" fill="#C69999"/>
<path d="M185.948 150.402C185.99 173.188 158.99 218.463 110.151 213.957C61.3116 209.452 46.388 172.747 45.7178 144.932C45.0023 115.231 68.7195 99.3526 71.2223 76.5034C72.2869 66.784 72.9579 56.2943 77.6044 46.2905C83.6514 31.2142 100.039 21.0172 118.597 21.1374C141.914 21.2884 157.302 33.9302 162.844 47.6984C167.462 59.1719 166.617 67.0442 167.412 78.0659C169.581 108.134 185.872 109.793 185.948 150.402Z" fill="#F5EAEA"/>
<path d="M115.524 195.413C102.984 195.314 78.0171 182.77 83.5054 154.61C88.9937 126.451 108.211 120.444 116.647 120.638C127.192 120.88 147.747 136.442 148.059 159.98C148.397 185.522 128.063 195.511 115.524 195.413Z" fill="#75452F"/>
<path d="M115.447 187.462C105.578 187.385 85.9293 177.513 90.2485 155.351C94.5677 133.19 109.692 128.463 116.331 128.615C124.629 128.806 140.806 141.053 141.052 159.577C141.318 179.678 125.315 187.54 115.447 187.462Z" fill="#8B5338"/>
<path d="M115.313 173.629C110.092 173.588 99.697 168.365 101.982 156.641C104.267 144.917 112.268 142.416 115.78 142.497C120.171 142.597 128.729 149.076 128.858 158.876C128.999 169.511 120.533 173.669 115.313 173.629Z" fill="#A75E3D"/>
<path d="M161.814 203C171.314 211 173.814 224.5 167.314 234C154.314 253 127.314 248 108.314 246L100.314 258" stroke="black" stroke-width="3"/>
<path d="M128.814 77C128.814 78.3333 129.714 81 133.314 81C136.914 81 137.814 78.6296 137.814 77.4444" stroke="black" stroke-width="3"/>
<path d="M96.8145 76C96.8145 77.3333 97.7145 80 101.314 80C104.914 80 105.814 77.6296 105.814 76.4444" stroke="black" stroke-width="3"/>
<path d="M119.314 46.5001C116.981 44.8334 112.314 39.1001 112.314 29.5001C112.314 17.5001 118.814 12.5001 125.814 12.0001C132.814 11.5001 138.814 17.0001 139.814 24.5001C140.814 32 139.314 36.0001 135.814 36.0001C132.314 36.0001 128.814 31.5001 129.314 22.0001C129.814 12.5001 136.167 5.59426 139.814 4.50008C144.814 3.0001 147.648 4.66675 149.814 5.50008" stroke="black" stroke-width="3"/>
<path d="M121.814 89.0675C121.803 89.7732 121.401 90.4937 120.585 91.069C119.769 91.6435 118.6 92.0196 117.269 91.9997C115.939 91.9797 114.781 91.5687 113.984 90.97C113.185 90.3705 112.804 89.6382 112.815 88.9325C112.825 88.2268 113.228 87.5063 114.044 86.931C114.86 86.3565 116.029 85.9804 117.359 86.0003C118.69 86.0203 119.847 86.4313 120.645 87.03C121.444 87.6295 121.824 88.3618 121.814 89.0675Z" stroke="black" stroke-width="3"/>
<path d="M173.814 108.5C204.214 108.5 216.314 91.5 222.814 80C224.481 80.8333 228.414 81.2 230.814 80C233.214 78.8 234.648 76 235.314 74.5" stroke="black" stroke-width="3"/>
<path d="M63.3145 108.5C32.9145 108.5 20.8145 91.5 14.3145 80C12.6478 80.8333 8.71445 81.2 6.31445 80C3.91445 78.8 2.48112 76 1.81445 74.5" stroke="black" stroke-width="3"/>
</svg>
