<svg width="117" height="152" viewBox="0 0 117 152" fill="none" xmlns="http://www.w3.org/2000/svg">
<path d="M91.3306 56.6372C102.5 61.4492 113 56.6372 115.349 37.1657" stroke="black" stroke-width="2.5"/>
<path d="M82.999 123.449C82.999 123.449 94.9991 127.949 93.4991 136.449C91.9991 144.949 80.9793 148.317 80.9793 148.317L90.499 150.949" stroke="black" stroke-width="2.5"/>
<path d="M14.4325 93.4996C14.4004 108.904 32.5894 139.506 65.5033 136.452C98.4172 133.399 108.48 108.584 108.936 89.7807C109.423 69.7024 93.4417 58.972 91.7585 43.5261C91.0425 36.9559 90.592 29.8648 87.4622 23.1029C83.3894 12.9121 72.3475 6.02127 59.8408 6.10536C44.1274 6.21101 33.7549 14.7593 30.0183 24.0676C26.9046 31.8245 27.4724 37.1461 26.9349 44.597C25.4687 64.9238 14.4898 66.0475 14.4325 93.4996Z" stroke="black" stroke-width="2.5"/>
<path d="M18.6403 91.5331C18.6141 105.562 35.2373 133.436 65.3057 130.662C95.3741 127.888 103.851 105.29 104.263 88.1656C104.704 69.8799 90.8133 60.1041 89.2724 46.0367C88.617 40.0529 88.2039 33.5948 85.3432 27.4358C81.6203 18.1539 71.5314 11.876 60.1058 11.95C45.7506 12.043 36.2764 19.8261 32.8647 28.3026C30.0216 35.3664 30.5415 40.213 30.052 46.9987C28.7167 65.5106 18.687 66.5317 18.6403 91.5331Z" fill="#C69999"/>
<path d="M24.4575 92.7866C24.6265 106.38 40.503 133.081 68.4876 129.837C96.4722 126.593 104.717 105.25 104.872 87.9258C105.046 68.4682 91.2874 60.9975 89.6574 47.3954C88.9641 41.6095 88.4511 34.8514 85.7001 28.9366C82.1026 20.0118 72.6525 14.6236 62.0052 14.9067C48.6278 15.2625 39.9054 22.9793 36.8427 31.2558C34.2904 38.1529 34.8417 42.8395 34.479 49.4235C33.4897 67.3854 24.1564 68.5604 24.4575 92.7866Z" fill="#F5EAEA"/>
<path d="M24.4581 92.7867C24.627 106.38 40.5035 133.081 68.4881 129.837C54.4191 127.938 32.7229 122.46 28.6376 92.7867C26.3308 76.0309 38.6502 64.3433 37.919 49.4236C37.5752 42.4102 37.5752 34.093 42.044 26.8742C45.619 21.0991 53.7316 15.8741 62.0057 14.9068C48.6284 15.2626 39.906 22.9794 36.8432 31.2559C34.2909 38.153 34.8422 42.8396 34.4796 49.4236C33.4903 67.3855 24.1569 68.5605 24.4581 92.7867Z" fill="#d9b3b2"/>
<path d="M67.6706 116.637C74.9685 116.58 89.4992 109.28 86.305 92.8908C83.1109 76.502 71.9264 73.0065 67.0168 73.1192C60.8799 73.26 48.917 82.3167 48.7355 96.0159C48.5385 110.881 60.3727 116.694 67.6706 116.637Z" fill="#75452F"/>
<path d="M69.0914 111.974C74.8225 111.929 86.2336 106.196 83.7252 93.3255C81.2168 80.4553 72.4335 77.7102 68.578 77.7987C63.7586 77.9093 54.364 85.0216 54.2215 95.7797C54.0668 107.453 63.3603 112.019 69.0914 111.974Z" fill="#8B5338"/>
<path d="M71.3927 104.719C74.0675 104.384 79.1156 100.475 77.3107 93.2211C75.5058 85.9668 71.268 84.8653 69.4714 85.1244C67.2257 85.4484 63.1874 90.0398 63.6501 96.2247C64.1522 102.936 68.7179 105.055 71.3927 104.719Z" fill="#A75E3D"/>
<path d="M47.2955 119.107C47.2955 119.107 47.9163 133.13 40.2778 138.244C32.6394 143.358 18.7976 131.679 18.7976 131.679L14.3454 138.326" stroke="black" stroke-width="2.5"/>
<path d="M9.5 81.9492C1 54.9492 22 51.4492 38.557 60.9902" stroke="black" stroke-width="2.5"/>
<path d="M60.1076 47.4786C60.1941 48.2497 59.8467 49.8504 57.7646 50.084C55.6825 50.3177 55.0081 49.0052 54.9312 48.3197" stroke="black" stroke-width="2.5"/>
<path d="M78.6818 45.98C78.7683 46.7512 78.4209 48.3519 76.3388 48.5855C74.2567 48.8191 73.5823 47.5066 73.5054 46.8212" stroke="black" stroke-width="2.5"/>
<path d="M66.6114 3.47131C65.0742 2.82185 60.8095 2.25398 56.0487 5.17815C50.0978 8.83337 49.5981 13.5798 51.4824 17.2035C53.3666 20.8272 57.9218 22.1274 61.9457 20.3388C65.9696 18.5502 67.4964 16.5879 66.4303 14.8522C65.3642 13.1165 62.0665 12.7515 57.5076 15.8932C52.9487 19.0348 51.4591 24.2888 52.0274 26.4308C52.8066 29.3673 54.4961 30.2647 55.5694 31.0853" stroke="black" stroke-width="2.5"/>
<path d="M66.7724 51.5145C70.3393 50.2515 70.2489 52.1601 67.7703 53.828C71.791 54.6757 68.3454 57.2782 66.7129 56.6712" stroke="black" stroke-width="2.5" stroke-linejoin="bevel"/>
</svg>
