<svg width="231" height="251" viewBox="0 0 231 251" fill="none" xmlns="http://www.w3.org/2000/svg">
<path d="M59.3145 93.5H7.31445L1.31445 84.5" stroke="black" stroke-width="3"/>
<path d="M68.3145 206L40.8145 216.5L52.8145 249.5H36.3145" stroke="black" stroke-width="3"/>
<path d="M186.122 152.277C186.167 176.381 157.604 224.276 105.939 219.509C54.2746 214.743 38.4876 175.915 37.7787 146.49C37.0217 115.071 62.1111 98.2737 64.7587 74.1026C65.885 63.8208 66.5948 52.7242 71.51 42.1417C77.9069 26.1931 95.2421 15.4061 114.874 15.5333C139.54 15.693 155.819 29.0662 161.681 43.631C166.566 55.7683 165.673 64.0961 166.514 75.7554C168.808 107.563 186.042 109.318 186.122 152.277Z" fill="#296107"/>
<path d="M173.632 153.991C173.797 177.773 147.89 224.879 100.557 219.911C53.2241 214.943 38.5686 176.553 37.7681 147.519C36.9134 116.516 59.8007 100.073 62.1008 76.2387C63.0792 66.1003 63.672 55.1559 68.1184 44.7403C73.8938 29.0381 89.7118 18.4846 107.689 18.711C130.276 18.9956 145.251 32.2735 150.693 46.6735C155.229 58.6734 154.454 66.8851 155.284 78.3928C157.549 109.787 173.338 111.607 173.632 153.991Z" fill="#C2ECA8"/>
<path d="M173.632 153.991C173.798 177.773 147.89 224.879 100.557 219.911C125.314 217.58 160.186 195.5 163.814 158C167.054 124.51 148.7 101.5 147.814 82.0001C147.314 71.0001 147.314 62.0001 142.814 46.6734C137.591 28.8858 124.814 24.5001 107.689 18.711C130.276 18.9955 145.251 32.2735 150.693 46.6734C155.229 58.6734 154.454 66.8851 155.284 78.3927C157.549 109.787 173.338 111.606 173.632 153.991Z" fill="#A6D489"/>
<path d="M193.35 155.655C193.405 182.123 162.152 234.704 105.598 229.458C49.0439 224.212 31.7536 181.574 30.9704 149.265C30.1341 114.766 57.593 96.3281 60.4852 69.7883C61.7154 58.499 62.4896 46.3149 67.8673 34.6962C74.8655 17.186 93.8382 5.34584 115.328 5.49033C142.327 5.67187 160.15 20.36 166.57 36.3538C171.92 49.682 170.945 58.8259 171.868 71.6283C174.387 106.555 193.252 108.486 193.35 155.655Z" stroke="black" stroke-width="3"/>
<path d="M95.8764 194.412C83.3369 194.314 58.3697 181.77 63.8579 153.61C69.3462 125.45 88.564 119.444 96.9998 119.638C107.545 119.88 128.1 135.441 128.412 158.98C128.75 184.521 108.416 194.51 95.8764 194.412Z" fill="#75452F"/>
<path d="M90.8186 188.481C80.2715 188.399 59.2715 177.848 63.8877 154.162C68.5039 130.477 84.6681 125.425 91.7635 125.588C100.633 125.792 117.922 138.88 118.184 158.679C118.469 180.162 101.366 188.564 90.8186 188.481Z" fill="#8B5338"/>
<path d="M85.4061 176.124C80.7606 176.017 71.4487 170.373 73.3399 158.013C75.231 145.653 82.3197 143.107 85.4455 143.235C89.3528 143.394 97.0455 150.344 97.2796 160.7C97.5337 171.938 90.0517 176.23 85.4061 176.124Z" fill="#A75E3D"/>
<path d="M112.814 82C112.814 80.6667 113.714 78 117.314 78C120.914 78 121.814 80.3704 121.814 81.5556" stroke="black" stroke-width="3"/>
<path d="M80.8145 81C80.8145 79.6667 81.7145 77 85.3145 77C88.9145 77 89.8145 79.3704 89.8145 80.5556" stroke="black" stroke-width="3"/>
<path d="M93.3145 87C94.6478 88.3333 97.3145 91 100.814 91C104.314 91 106.981 89 108.314 88" stroke="black" stroke-width="3"/>
<path d="M103.314 56.5001C100.981 54.8334 96.3145 49.1001 96.3145 39.5001C96.3145 27.5001 102.814 22.5001 109.814 22.0001C116.814 21.5001 122.814 27.0001 123.814 34.5001C124.814 42 123.314 46.0001 119.814 46.0001C116.314 46.0001 112.814 41.5001 113.314 32.0001C113.814 22.5001 120.167 15.5943 123.814 14.5001C128.814 13.0001 131.648 14.6668 133.814 15.5001" stroke="black" stroke-width="3"/>
<path d="M144.314 201L206.814 249H185.314" stroke="black" stroke-width="3"/>
<path d="M163.314 93.5H223.814L229.814 84.5" stroke="black" stroke-width="3"/>
</svg>
