<svg width="246" height="188" viewBox="0 0 246 188" fill="none" xmlns="http://www.w3.org/2000/svg">
<ellipse cx="129" cy="172.289" rx="52" ry="15" fill="#5A73D8"/>
<path d="M155.81 162.951C156.895 162.951 158.111 163.179 158.48 164.285L162.977 176.64C163.346 177.745 162.749 178.941 161.643 179.31L155.692 179.5C154.257 179.5 153.391 179.272 153.022 178.167L148.98 165.591C148.611 164.486 149.208 163.29 150.314 162.921L155.81 162.951Z" fill="white"/>
<path d="M154.069 167.156L153.899 166.621L152.894 166.942L152.722 166.403L153.727 166.083L153.297 164.734L153.756 164.587L156.376 165.307L156.528 165.783L154.435 166.45L154.606 166.985L154.069 167.156ZM155.408 165.547L154.016 165.137L154.263 165.912L155.408 165.547Z" fill="#5A73D8"/>
<path d="M154.96 167.169C155.272 167.069 155.555 167.01 155.806 166.992C156.062 166.973 156.282 166.989 156.469 167.041C156.657 167.095 156.812 167.182 156.933 167.3C157.057 167.417 157.147 167.564 157.203 167.739C157.322 168.113 157.261 168.45 157.02 168.749C156.782 169.047 156.343 169.298 155.704 169.502C155.387 169.603 155.102 169.663 154.847 169.682C154.595 169.7 154.373 169.683 154.182 169.629C153.995 169.578 153.839 169.492 153.714 169.371C153.593 169.253 153.504 169.106 153.448 168.931C153.328 168.554 153.396 168.215 153.653 167.915C153.912 167.613 154.348 167.364 154.96 167.169ZM155.522 168.932C155.577 168.915 155.628 168.897 155.675 168.878C155.727 168.862 155.776 168.845 155.823 168.826L154.326 168.102C154.042 168.294 153.939 168.511 154.017 168.755C154.078 168.945 154.229 169.058 154.472 169.095C154.715 169.132 155.065 169.078 155.522 168.932ZM155.141 167.739C155.09 167.755 155.04 167.771 154.992 167.787C154.948 167.804 154.903 167.822 154.856 167.84L156.352 168.56C156.619 168.376 156.713 168.162 156.635 167.915C156.574 167.725 156.421 167.612 156.174 167.576C155.933 167.542 155.588 167.597 155.141 167.739Z" fill="#5A73D8"/>
<path d="M154.599 171.113C154.719 171.075 154.824 171.077 154.913 171.121C155.006 171.163 155.07 171.238 155.104 171.344C155.14 171.457 155.132 171.558 155.081 171.646C155.033 171.733 154.949 171.796 154.829 171.834C154.708 171.873 154.602 171.871 154.509 171.829C154.416 171.786 154.351 171.709 154.315 171.596C154.281 171.489 154.29 171.392 154.341 171.303C154.393 171.215 154.478 171.152 154.599 171.113Z" fill="#5A73D8"/>
<path d="M155.541 175.245L154.908 173.259L155.408 173.1C155.454 173.124 155.513 173.155 155.585 173.191C155.66 173.225 155.745 173.264 155.838 173.306C155.932 173.351 156.033 173.397 156.143 173.444C156.252 173.491 156.365 173.535 156.481 173.577C156.643 173.636 156.79 173.686 156.92 173.726C157.051 173.769 157.171 173.8 157.279 173.818C157.391 173.838 157.496 173.845 157.593 173.84C157.693 173.834 157.791 173.816 157.888 173.786C157.956 173.764 158.019 173.729 158.076 173.681C158.133 173.634 158.177 173.579 158.21 173.516C158.247 173.452 158.268 173.381 158.274 173.304C158.284 173.229 158.276 173.151 158.25 173.071C158.216 172.964 158.166 172.873 158.1 172.796C158.035 172.722 157.942 172.651 157.823 172.585L158.223 172.202C158.366 172.294 158.496 172.404 158.613 172.534C158.734 172.665 158.827 172.83 158.89 173.029C158.931 173.157 158.949 173.285 158.945 173.414C158.941 173.546 158.913 173.67 158.859 173.785C158.809 173.902 158.732 174.007 158.629 174.098C158.526 174.19 158.395 174.261 158.237 174.312C158.127 174.347 158.021 174.371 157.919 174.384C157.822 174.398 157.719 174.403 157.612 174.398C157.508 174.395 157.398 174.381 157.28 174.357C157.164 174.335 157.034 174.304 156.893 174.265C156.785 174.234 156.673 174.197 156.557 174.156C156.446 174.116 156.338 174.075 156.234 174.033C156.13 173.991 156.031 173.948 155.937 173.902C155.844 173.86 155.765 173.82 155.7 173.782L156.109 175.064L155.541 175.245Z" fill="#5A73D8"/>
<path d="M157.514 175.178C157.826 175.078 158.109 175.019 158.36 175.001C158.616 174.982 158.837 174.998 159.023 175.05C159.211 175.104 159.366 175.191 159.487 175.309C159.611 175.427 159.701 175.573 159.757 175.748C159.876 176.122 159.815 176.459 159.574 176.758C159.336 177.056 158.897 177.307 158.258 177.511C157.942 177.612 157.656 177.672 157.401 177.691C157.149 177.709 156.928 177.692 156.736 177.638C156.549 177.587 156.393 177.501 156.268 177.381C156.147 177.262 156.058 177.115 156.003 176.94C155.882 176.563 155.95 176.224 156.207 175.924C156.466 175.622 156.902 175.373 157.514 175.178ZM158.076 176.941C158.131 176.924 158.182 176.906 158.229 176.887C158.281 176.871 158.33 176.854 158.377 176.835L156.88 176.111C156.596 176.303 156.493 176.52 156.571 176.764C156.632 176.954 156.783 177.067 157.026 177.104C157.269 177.141 157.619 177.087 158.076 176.941ZM157.695 175.748C157.644 175.764 157.594 175.78 157.546 175.796C157.502 175.813 157.457 175.831 157.41 175.849L158.906 176.569C159.173 176.385 159.267 176.171 159.189 175.924C159.128 175.734 158.975 175.621 158.728 175.585C158.487 175.551 158.142 175.606 157.695 175.748Z" fill="#5A73D8"/>
<ellipse cx="6.49718" cy="68.0209" rx="3.84745" ry="5.24652" transform="rotate(-50.7528 6.49718 68.0209)" fill="#FFEDCC"/>
<ellipse cx="173.857" cy="13.7161" rx="3.84745" ry="5.24652" transform="rotate(-146.469 173.857 13.7161)" fill="#D2D9FF"/>
<path d="M38.2937 57.9749C34.3874 56.4082 30.9309 53.8966 28.2341 50.6653C28.0146 50.4125 27.8033 50.1405 27.5719 49.8979C26.1452 48.3582 25.1459 46.4722 24.6732 44.427C24.3711 43.3513 24.328 42.2193 24.5474 41.1236C24.7667 40.028 25.2423 38.9999 25.9353 38.1233C27.8089 35.6964 30.3608 34.9481 33.2479 35.0032C34.9857 35.0746 36.7084 35.3567 38.3781 35.8432C38.6008 35.9239 38.8313 35.981 39.0658 36.0135C39.7759 36.0413 40.5697 36.3555 41.1611 35.7858C41.9392 35.196 42.471 34.3386 42.6536 33.3795C42.9069 31.2072 43.231 29.0649 43.5294 26.9117C43.6535 25.906 43.9082 24.9207 44.2871 23.9808C44.6499 22.9985 45.3118 22.1549 46.1795 21.5688C47.0473 20.9827 48.0771 20.6838 49.1237 20.7141C50.8291 20.6395 52.514 21.1097 53.9342 22.0568C56.4824 23.7761 58.5697 26.0947 60.0128 28.8089C61.1909 30.8231 62.0092 33.0271 62.4311 35.3221C62.9075 37.9972 62.871 40.7386 62.3233 43.4001C61.9686 45.3004 61.3962 47.1535 60.6176 48.9228C58.9987 52.2178 56.8777 55.102 53.7195 57.1357C50.9005 58.9702 47.5505 59.8132 44.1989 59.5314C42.1469 59.4087 40.1396 58.8796 38.2937 57.9749Z" fill="#FFE4E2"/>
<path d="M40.7886 165.006C38.823 165.729 36.7425 166.088 34.6484 166.067C33.173 166.127 31.6953 166.084 30.2257 165.94C28.3655 165.722 26.533 165.31 24.7579 164.713C23.8228 164.394 22.9183 163.992 22.0293 163.591C20.9673 163.086 19.9575 162.478 19.0141 161.776C17.4664 160.661 16.0676 159.353 14.8517 157.883C14.6769 157.687 14.519 157.476 14.3796 157.253C13.9469 156.519 13.4622 155.817 12.9293 155.152C12.1568 154.209 11.586 153.118 11.2523 151.946C10.802 150.534 10.6767 149.039 10.8858 147.572C10.9928 146.987 11.2614 146.443 11.6613 146.002C12.0741 145.574 12.5931 145.264 13.1652 145.103C13.7373 144.941 14.342 144.935 14.9175 145.084C16.0813 145.316 17.1755 145.815 18.1145 146.541C19.7111 147.708 21.1996 149.016 22.5623 150.448C23.6962 151.615 24.6361 152.907 25.7412 154.076C26.0447 154.421 26.4053 154.711 26.8072 154.934C26.8722 154.971 26.9452 154.992 27.02 154.995C27.0949 154.998 27.1693 154.982 27.2369 154.95C27.3044 154.918 27.3631 154.869 27.4078 154.809C27.4526 154.749 27.482 154.679 27.4936 154.605C27.5743 154.285 27.565 153.948 27.4667 153.632C27.2277 152.838 26.8479 152.094 26.3455 151.434C25.7486 150.61 25.1451 149.788 24.4976 149.01C23.7701 148.164 23.1208 147.255 22.5575 146.292C21.9998 145.393 21.698 144.359 21.6846 143.301C21.6832 142.675 21.8732 142.065 22.2291 141.55C22.4749 141.177 22.8288 140.888 23.2434 140.721C23.658 140.554 24.1137 140.518 24.5495 140.617C25.4572 140.767 26.3245 141.102 27.0983 141.6C29.1366 142.938 30.9822 144.55 32.5835 146.389C33.3587 147.326 34.2158 148.192 35.1445 148.978C35.3618 149.182 35.6125 149.346 35.8858 149.465C35.9319 149.483 35.9815 149.49 36.0308 149.486C36.08 149.482 36.1278 149.467 36.1704 149.442C36.213 149.417 36.2494 149.382 36.2769 149.341C36.3044 149.3 36.3222 149.253 36.3291 149.204C36.4246 148.517 36.3206 147.816 36.0295 147.186C35.3013 145.756 34.5114 144.362 33.8407 142.905C33.1782 141.616 32.8037 140.198 32.743 138.749C32.7475 137.724 33.0695 136.724 33.6648 135.889C33.907 135.532 34.2262 135.234 34.5988 135.018C34.9714 134.801 35.388 134.67 35.8178 134.635C36.5359 134.548 37.2643 134.597 37.9642 134.78C39.3524 135.184 40.6653 135.812 41.8512 136.639C42.8081 137.272 43.716 137.977 44.567 138.747C45.8869 139.982 47.0344 141.39 47.9787 142.931C48.6466 144.021 49.1889 145.182 49.595 146.394C50.1229 147.951 50.356 149.593 50.2823 151.235C50.2443 152.969 49.9889 154.691 49.522 156.36C49.1391 157.654 48.5746 158.887 47.8453 160.023C47.3067 160.846 46.6343 161.573 45.8561 162.174C44.3904 163.472 42.6619 164.438 40.7886 165.006Z" fill="#D2D9FF"/>
<path d="M230.501 94.0148C228.857 93.3153 227.213 92.5738 225.604 91.8323C224.981 91.5602 224.311 91.4151 223.631 91.4056C223.522 91.3915 223.41 91.4054 223.308 91.4461C223.205 91.4869 223.115 91.553 223.045 91.6384C222.975 91.7237 222.928 91.8255 222.908 91.9341C222.888 92.0426 222.896 92.1544 222.932 92.259C223.037 92.8848 223.335 93.4621 223.785 93.9099C224.43 94.5575 225.171 95.1025 225.982 95.5258C226.989 95.9945 227.989 96.4912 229.032 96.9249C230.587 97.5928 232.094 98.3665 233.544 99.2404C233.832 99.4175 234.099 99.6263 234.341 99.863C234.721 100.15 235.019 100.531 235.207 100.968C235.396 101.405 235.467 101.884 235.415 102.357C235.363 102.83 235.189 103.281 234.91 103.667C234.631 104.053 234.256 104.359 233.823 104.557C232.849 105.103 231.773 105.441 230.661 105.55C228.196 105.749 225.714 105.512 223.33 104.851C222.34 104.636 221.379 104.302 220.469 103.857C219.574 103.375 218.643 102.948 217.79 102.402C215.911 101.288 214.278 99.8029 212.991 98.0372C211.39 95.7689 210.266 93.1984 209.689 90.4822C209.457 89.1679 209.634 87.8139 210.197 86.6038C210.76 85.3937 211.682 84.3861 212.837 83.7177C215.611 82.21 218.662 81.2818 221.805 80.9895C225.321 80.6478 228.87 80.908 232.298 81.759C233.146 81.9529 233.98 82.2006 234.796 82.5005C236.195 83.0321 237.643 83.4448 238.993 84.0884C241.511 85.2592 243.63 87.1445 245.086 89.5098C245.615 90.2742 245.927 91.1677 245.988 92.0953C246.05 93.0228 245.859 93.9497 245.436 94.7773C245.124 95.4628 244.636 96.0532 244.022 96.4882C243.407 96.9233 242.688 97.1875 241.938 97.2537C240.488 97.3711 239.028 97.241 237.622 96.8689C235.111 96.2743 232.851 95.0292 230.501 94.0148Z" fill="#E6F6E7"/>
<path d="M187.671 32.5189C189.053 30.7074 190.834 29.2393 192.877 28.2291C194.055 27.651 195.306 27.2373 196.597 26.9998C199.551 26.3491 202.635 26.6373 205.418 27.8239C208.056 28.7829 210.508 30.1947 212.662 31.9959C215.138 34.1021 217.181 36.6697 218.676 39.5557C219.421 41.0237 219.967 42.5842 220.3 44.1962C220.665 45.9194 220.405 47.7161 219.566 49.2648C218.621 51.0587 217.084 52.2054 215.504 53.3167C213.374 54.7418 211.074 55.8953 208.658 56.7503C204.781 58.1622 200.786 59.2228 196.719 59.9191C195.099 60.2192 193.505 60.6409 191.859 60.7845C190.893 60.8479 189.923 60.794 188.97 60.624C188.206 60.4915 187.48 60.1942 186.842 59.7528C186.204 59.3114 185.67 58.7365 185.277 58.0679C184.511 56.9342 184.05 55.6224 183.939 54.2589C183.932 54.1139 183.918 53.9693 183.896 53.8257C183.433 50.8536 183.354 47.8344 183.66 44.8421C183.786 42.4163 184.184 40.0123 184.847 37.6756C185.404 35.7724 186.367 34.0129 187.671 32.5189Z" fill="#FFEDCC"/>
<path d="M206.93 135.217C207.036 135.191 207.133 135.14 207.216 135.07C207.298 135 207.364 134.911 207.406 134.811C208.086 133.658 208.901 132.589 209.833 131.628C210.454 131.002 211.161 130.468 211.932 130.04C212.463 129.708 213.063 129.501 213.687 129.437C214.31 129.373 214.94 129.452 215.528 129.669C216.025 129.855 216.441 130.209 216.703 130.67C217.211 131.514 217.475 132.483 217.465 133.468C217.465 133.965 217.465 134.454 217.465 134.951C217.478 135.663 217.371 136.372 217.15 137.05C216.841 138.397 216.319 139.686 215.604 140.869C215.591 140.898 215.584 140.929 215.584 140.96C215.584 140.991 215.591 141.022 215.604 141.051C215.627 141.093 215.665 141.126 215.71 141.141C215.756 141.157 215.805 141.155 215.849 141.135L218.032 140.554C219.541 140.229 221.09 140.132 222.628 140.267C223.149 140.324 223.663 140.437 224.16 140.603C224.527 140.697 224.87 140.867 225.167 141.102C225.464 141.338 225.708 141.633 225.883 141.969C226.058 142.305 226.16 142.674 226.182 143.053C226.205 143.431 226.147 143.809 226.014 144.164C225.712 145.17 225.169 146.087 224.433 146.836C223.552 147.722 222.536 148.463 221.425 149.033C219.759 149.881 218.044 150.631 216.29 151.278C215.402 151.628 214.548 152.048 213.674 152.418C211.89 153.174 210.092 153.88 208.266 154.517C208.14 154.559 208.021 154.608 207.896 154.643C207.718 154.686 207.556 154.781 207.432 154.915C207.307 155.049 207.225 155.218 207.196 155.398C206.951 156.455 206.685 157.497 206.413 158.546C206.252 159.183 206.056 159.805 205.888 160.442C205.839 160.617 205.748 160.813 205.944 161.016C206.35 160.701 206.762 160.393 207.168 160.064C208.309 159.126 209.548 158.312 210.862 157.637C212.126 157.011 213.481 156.586 214.877 156.378C215.555 156.269 216.24 156.208 216.927 156.196C217.162 156.197 217.397 156.171 217.626 156.119C218.039 155.993 218.48 155.993 218.892 156.119C219.309 156.221 219.74 156.248 220.165 156.196C220.872 156.215 221.576 156.306 222.264 156.469C222.459 156.506 222.649 156.564 222.831 156.644C222.984 156.681 223.127 156.753 223.249 156.855C223.37 156.956 223.466 157.085 223.53 157.229C223.593 157.374 223.623 157.532 223.616 157.69C223.608 157.848 223.565 158.002 223.488 158.141C223.43 158.293 223.35 158.437 223.25 158.567C222.405 159.69 221.422 160.703 220.326 161.582C217.801 163.368 214.926 164.596 211.89 165.185C211.344 165.293 210.789 165.349 210.232 165.353C209.644 165.353 209.05 165.353 208.455 165.353C207.342 165.332 206.232 165.233 205.132 165.059C204.706 165.059 204.636 165.059 204.51 165.465C204.244 166.339 203.999 167.228 203.684 168.088C203.465 168.853 203.033 169.539 202.439 170.068C202.173 170.285 201.971 170.236 201.852 169.9C201.683 169.398 201.671 168.856 201.817 168.347C202.089 167.298 202.362 166.248 202.67 165.22C203.551 162.268 204.405 159.309 205.153 156.322C205.258 155.909 205.356 155.496 205.44 155.084C205.524 154.671 205.44 154.454 205.034 154.314C204.629 154.174 204.167 154.027 203.726 153.901C201.309 153.265 198.982 152.325 196.801 151.103C195.066 150.093 193.541 148.758 192.31 147.172C191.45 146.095 190.689 144.943 190.036 143.73C189.586 142.895 189.243 142.007 189.015 141.086C188.695 139.934 188.807 138.705 189.33 137.63C189.568 137.14 189.934 136.724 190.39 136.426C190.846 136.127 191.374 135.959 191.918 135.937C193.57 135.867 195.201 136.323 196.577 137.238C196.724 137.315 196.857 137.413 197.004 137.476C197.042 137.489 197.083 137.492 197.123 137.485C197.163 137.479 197.201 137.462 197.232 137.437C197.264 137.412 197.29 137.38 197.306 137.342C197.322 137.305 197.329 137.265 197.326 137.224C197.14 135.958 197.098 134.674 197.2 133.398C197.21 132.284 197.344 131.174 197.598 130.089C197.793 129.253 198.217 128.488 198.823 127.879C199.016 127.678 199.247 127.517 199.503 127.407C199.759 127.296 200.034 127.238 200.313 127.235C200.871 127.215 201.428 127.307 201.951 127.505C202.473 127.703 202.951 128.004 203.356 128.389C204.16 129.122 204.833 129.988 205.342 130.95C205.753 131.735 206.117 132.543 206.434 133.37C206.678 133.958 206.629 134.608 206.93 135.217Z" fill="#FFE4E2"/>
<path d="M32.9511 111.493C28.7146 113.054 24.3974 113 20.0336 112.111C19.1543 111.931 18.305 111.626 17.5109 111.207C16.5806 110.754 15.7986 110.045 15.2565 109.163C14.7144 108.282 14.4346 107.264 14.4499 106.229C14.3936 104.974 14.6103 103.722 15.0852 102.559C15.56 101.396 16.2817 100.35 17.2003 99.4929C18.2959 98.4318 19.5321 97.5263 20.8743 96.8019C24.1451 95.0661 27.2961 93.1191 30.4183 91.1273C32.0408 90.0965 33.7441 89.1987 35.5115 88.4428C37.8069 87.4862 40.3382 87.2474 42.7721 87.7576C43.9161 87.9652 45.0261 88.3293 46.0708 88.8397C47.0498 89.294 47.8931 89.9961 48.5173 90.8766C49.1415 91.7571 49.525 92.7853 49.6296 93.8595C49.7453 94.6119 49.7493 95.3773 49.6415 96.131C49.2716 99.277 47.8022 102.191 45.4926 104.359C44.0913 105.618 42.5637 106.728 40.934 107.672C38.411 109.216 35.736 110.496 32.9511 111.493ZM30.7484 105.915C31.6834 105.589 32.5967 105.205 33.483 104.764C35.4628 103.729 37.3747 102.57 39.2069 101.292C40.1388 100.676 41.0304 100.001 41.8762 99.2707C42.438 98.8225 42.8894 98.2513 43.1955 97.6011C43.5017 96.9509 43.6546 96.2391 43.6422 95.5206C43.6508 94.9104 43.447 94.3162 43.0657 93.8397C42.6844 93.3633 42.1494 93.0342 41.5521 92.9088C40.9845 92.7596 40.392 92.7297 39.8122 92.8211C38.1692 93.0577 36.5926 93.6303 35.1809 94.5033C32.4688 96.2393 29.6453 97.7885 26.7866 99.2543C25.2198 100.024 23.7529 100.982 22.4184 102.107C21.7918 102.614 21.284 103.253 20.9308 103.977C20.7587 104.276 20.6605 104.611 20.6442 104.956C20.6279 105.3 20.6939 105.643 20.8369 105.957C20.9799 106.271 21.1957 106.546 21.4663 106.759C21.7369 106.973 22.0546 107.119 22.3929 107.185C23.1265 107.389 23.8924 107.452 24.6495 107.369C26.7383 107.146 28.7899 106.656 30.7545 105.913L30.7484 105.915Z" fill="#E6F6E7"/>
<path d="M130.439 145.831L127.893 171.289H138.395" stroke="black" stroke-width="1.5"/>
<path d="M70.4589 96.1167C67.1775 111.103 78.4784 144.747 111.256 148.756C144.033 152.765 158.413 130.598 162.826 112.392C167.537 92.9525 154.879 79.2662 156.495 63.8751C157.182 57.3281 158.238 50.3305 156.61 43.085C154.783 32.3021 145.457 23.253 133.23 20.6824C117.867 17.4526 105.936 23.5732 100.325 31.8409C95.648 38.7306 95.0795 44.0308 92.9827 51.1691C87.2626 70.6432 76.3069 69.4084 70.4589 96.1167Z" fill="#296107"/>
<path d="M76.3842 98.8057C73.4123 113.373 84.1872 145.59 114.847 148.613C145.506 151.635 159.267 130.738 163.451 112.26C168.149 91.5062 155.178 80.3314 156.59 65.4168C157.191 59.0726 158.21 51.7312 156.642 44.7721C154.867 34.3998 146.017 26.4498 134.573 24.2831C120.194 21.561 109.083 27.7851 103.89 35.9199C99.563 42.6989 99.0652 47.8354 97.1507 54.7876C91.9279 73.7542 81.6808 72.8454 76.3842 98.8057Z" fill="#C2ECA8"/>
<path d="M76.3858 98.8059C73.4138 113.373 84.1888 145.59 114.848 148.613C100.253 143.32 78.3368 132.435 80.8526 99.7752C82.2731 81.3333 98.1495 71.6998 100.828 55.5855C102.087 48.0105 104.016 39.1219 110.466 32.4435C115.626 27.1008 125.508 23.3982 134.574 24.2833C120.196 21.5612 109.084 27.7853 103.892 35.9201C99.5645 42.6991 99.0668 47.8356 97.1523 54.7878C91.9295 73.7544 81.6824 72.8456 76.3858 98.8059Z" fill="#A6D489"/>
<path d="M65.5083 97.2426C61.9016 113.697 74.2433 150.62 110.127 154.99C146.01 159.36 162.519 135.174 167.367 115.185C172.543 93.8399 157.953 78.6661 159.736 61.7687C160.495 54.581 161.658 46.8983 159.881 38.946C157.892 27.1105 147.69 17.1855 134.304 14.3749C117.487 10.8437 104.419 17.5738 98.2671 26.655C93.1405 34.2226 92.5132 40.0415 90.2108 47.8797C83.9298 69.263 71.936 67.9177 65.5083 97.2426Z" stroke="black" stroke-width="1.5"/>
<path d="M117.328 134.381C125.14 136.012 142.362 131.58 142.75 113.324C143.137 95.0689 131.995 88.7394 126.722 87.7212C120.13 86.4485 105.245 93.353 101.874 107.951C98.2163 123.792 109.515 132.749 117.328 134.381Z" fill="#75452F"/>
<path d="M119.369 130.846C125.903 132.211 140.307 128.504 140.631 113.235C140.955 97.9664 131.636 92.6725 127.225 91.8209C121.713 90.7564 109.263 96.5313 106.444 108.741C103.384 121.99 112.834 129.482 119.369 130.846Z" fill="#8B5338"/>
<path d="M123.162 123.02C126.334 123.434 133.274 120.533 133.311 111.839C133.348 103.146 128.798 100.653 126.657 100.412C123.982 100.112 118.003 104.08 116.735 111.174C115.359 118.87 119.99 122.605 123.162 123.02Z" fill="#A75E3D"/>
<path d="M136.34 66.0898C135.286 66.6648 133.18 67.8146 131.042 67.1865C128.905 66.5585 127.636 64.8587 127.001 64.0088" stroke="black" stroke-width="1.5"/>
<path d="M130.409 40.0551C132.202 40.3963 136.892 40.0235 141.31 35.8032C146.833 30.5277 146.277 25.3382 143.429 21.8968C140.582 18.4555 135.413 18.112 131.522 20.9489C127.631 23.7858 126.449 26.2347 127.988 27.8454C129.527 29.4562 133.136 29.0887 137.289 24.6822C141.441 20.2758 141.826 14.3162 140.726 12.1566C139.219 9.19607 137.206 8.62479 135.87 7.99399" stroke="black" stroke-width="1.5"/>
<circle cx="2.5458" cy="2.5458" r="2.5458" transform="matrix(-0.959431 -0.281943 -0.281943 0.959431 145.336 61.436)" fill="black"/>
<circle cx="2.5458" cy="2.5458" r="2.5458" transform="matrix(-0.959431 -0.281943 -0.281943 0.959431 126.404 55.873)" fill="black"/>
<path d="M98.2964 135.012L100.524 171.289H111.025" stroke="black" stroke-width="1.5"/>
<path d="M95.9411 73.7877C98.5225 93.1042 107.859 103.401 116.234 107.824" stroke="black" stroke-width="1.5"/>
<path d="M158.06 87.9193C151.872 99.9275 143.006 107.772 133.219 110.859" stroke="black" stroke-width="1.5"/>
</svg>
