<svg width="287" height="172" viewBox="0 0 287 172" fill="none" xmlns="http://www.w3.org/2000/svg">
<ellipse cx="15.5968" cy="60.8036" rx="3.84745" ry="5.24652" transform="rotate(-50.7528 15.5968 60.8036)" fill="#FFEDCC"/>
<ellipse cx="192.955" cy="6.49884" rx="3.84745" ry="5.24652" transform="rotate(-146.469 192.955 6.49884)" fill="#D2D9FF"/>
<path d="M48.3933 50.7576C44.487 49.1909 41.0305 46.6793 38.3337 43.448C38.1142 43.1953 37.9029 42.9232 37.6715 42.6806C36.2448 41.1409 35.2455 39.2549 34.7728 37.2098C34.4707 36.134 34.4276 35.002 34.647 33.9064C34.8664 32.8107 35.342 31.7826 36.0349 30.906C37.9085 28.4791 40.4604 27.7308 43.3475 27.7859C45.0853 27.8573 46.808 28.1394 48.4778 28.6259C48.7004 28.7066 48.9309 28.7637 49.1654 28.7962C49.8756 28.8241 50.6693 29.1382 51.2607 28.5685C52.0388 27.9787 52.5706 27.1213 52.7532 26.1622C53.0065 23.9899 53.3306 21.8476 53.629 19.6944C53.7531 18.6887 54.0078 17.7034 54.3867 16.7635C54.7495 15.7812 55.4114 14.9376 56.2791 14.3515C57.1469 13.7655 58.1767 13.4665 59.2233 13.4968C60.9287 13.4222 62.6136 13.8925 64.0338 14.8395C66.582 16.5588 68.6693 18.8774 70.1124 21.5916C71.2905 23.6058 72.1088 25.8098 72.5307 28.1048C73.0071 30.78 72.9706 33.5213 72.4229 36.1828C72.0682 38.0831 71.4959 39.9362 70.7172 41.7055C69.0983 45.0005 66.9773 47.8847 63.8191 49.9184C61.0001 51.7529 57.6501 52.5959 54.2985 52.3141C52.2465 52.1914 50.2392 51.6623 48.3933 50.7576Z" fill="#FFE4E2"/>
<path d="M49.8882 147.788C47.9226 148.511 45.8421 148.87 43.748 148.849C42.2726 148.909 40.7949 148.866 39.3253 148.722C37.4651 148.504 35.6326 148.093 33.8575 147.495C32.9224 147.176 32.0179 146.774 31.1289 146.373C30.067 145.868 29.0571 145.261 28.1137 144.559C26.566 143.444 25.1672 142.135 23.9513 140.666C23.7765 140.469 23.6186 140.258 23.4792 140.035C23.0465 139.301 22.5618 138.599 22.0289 137.934C21.2564 136.992 20.6856 135.9 20.3519 134.728C19.9016 133.316 19.7763 131.821 19.9854 130.354C20.0924 129.769 20.361 129.225 20.7609 128.784C21.1737 128.357 21.6928 128.046 22.2648 127.885C22.8369 127.724 23.4416 127.717 24.0171 127.866C25.1809 128.099 26.2751 128.598 27.2141 129.324C28.8107 130.49 30.2992 131.798 31.6619 133.231C32.7958 134.397 33.7357 135.689 34.8408 136.858C35.1443 137.203 35.5049 137.493 35.9069 137.716C35.9718 137.753 36.0448 137.774 36.1196 137.777C36.1945 137.78 36.2689 137.765 36.3365 137.732C36.404 137.7 36.4627 137.652 36.5074 137.592C36.5522 137.532 36.5816 137.461 36.5932 137.387C36.674 137.067 36.6647 136.73 36.5664 136.414C36.3273 135.62 35.9475 134.876 35.4451 134.216C34.8482 133.392 34.2447 132.57 33.5972 131.792C32.8697 130.946 32.2204 130.037 31.6571 129.074C31.0994 128.175 30.7976 127.141 30.7842 126.083C30.7828 125.458 30.9728 124.847 31.3287 124.333C31.5745 123.959 31.9284 123.67 32.343 123.503C32.7576 123.336 33.2133 123.3 33.6491 123.399C34.5568 123.55 35.4241 123.884 36.1979 124.382C38.2362 125.721 40.0818 127.332 41.6831 129.171C42.4583 130.108 43.3154 130.975 44.2441 131.76C44.4614 131.964 44.7121 132.129 44.9854 132.247C45.0315 132.265 45.0811 132.272 45.1304 132.268C45.1796 132.264 45.2274 132.249 45.27 132.224C45.3126 132.199 45.349 132.164 45.3765 132.123C45.404 132.082 45.4218 132.035 45.4287 131.986C45.5242 131.299 45.4202 130.598 45.1291 129.968C44.4009 128.538 43.611 127.144 42.9403 125.687C42.2778 124.398 41.9033 122.98 41.8427 121.532C41.8472 120.506 42.1692 119.507 42.7644 118.671C43.0066 118.315 43.3258 118.017 43.6984 117.8C44.071 117.583 44.4876 117.452 44.9174 117.418C45.6356 117.33 46.3639 117.379 47.0639 117.562C48.452 117.966 49.7649 118.594 50.9508 119.421C51.9078 120.055 52.8156 120.759 53.6666 121.529C54.9865 122.764 56.1341 124.172 57.0783 125.713C57.7462 126.803 58.2885 127.965 58.6946 129.176C59.2225 130.733 59.4556 132.375 59.3819 134.018C59.3439 135.751 59.0885 137.473 58.6216 139.143C58.2387 140.437 57.6742 141.67 56.945 142.805C56.4063 143.628 55.734 144.355 54.9557 144.956C53.49 146.254 51.7615 147.22 49.8882 147.788Z" fill="#D2D9FF"/>
<path d="M270.6 85.7976C268.956 85.098 267.312 84.3565 265.703 83.615C265.081 83.3429 264.41 83.1979 263.731 83.1883C263.621 83.1742 263.51 83.1881 263.407 83.2289C263.305 83.2696 263.214 83.3357 263.144 83.4211C263.074 83.5064 263.027 83.6082 263.008 83.7168C262.988 83.8253 262.996 83.9372 263.031 84.0417C263.137 84.6675 263.435 85.2448 263.885 85.6926C264.53 86.3402 265.271 86.8852 266.081 87.3085C267.088 87.7772 268.089 88.2739 269.131 88.7076C270.686 89.3756 272.194 90.1492 273.643 91.0231C273.931 91.2002 274.199 91.409 274.441 91.6457C274.82 91.9328 275.119 92.3136 275.307 92.7508C275.495 93.1879 275.567 93.6665 275.515 94.1396C275.463 94.6127 275.288 95.0642 275.009 95.4498C274.73 95.8355 274.356 96.142 273.923 96.3396C272.949 96.8854 271.872 97.2236 270.761 97.3329C268.295 97.5318 265.814 97.295 263.43 96.6334C262.44 96.4186 261.479 96.085 260.569 95.64C259.673 95.1573 258.743 94.7306 257.89 94.185C256.01 93.0709 254.377 91.5856 253.091 89.8199C251.489 87.5516 250.366 84.9811 249.789 82.2649C249.556 80.9506 249.734 79.5966 250.297 78.3865C250.86 77.1764 251.782 76.1688 252.937 75.5004C255.71 73.9927 258.762 73.0645 261.905 72.7722C265.421 72.4305 268.969 72.6907 272.398 73.5417C273.245 73.7356 274.079 73.9833 274.895 74.2832C276.294 74.8148 277.742 75.2276 279.093 75.8711C281.611 77.0419 283.73 78.9272 285.185 81.2925C285.715 82.0569 286.026 82.9504 286.088 83.878C286.15 84.8055 285.959 85.7324 285.535 86.56C285.224 87.2455 284.736 87.8359 284.121 88.271C283.507 88.706 282.788 88.9702 282.038 89.0364C280.587 89.1538 279.128 89.0237 277.721 88.6517C275.21 88.0571 272.951 86.8119 270.6 85.7976Z" fill="#E6F6E7"/>
<path d="M226.768 25.3016C228.15 23.4901 229.932 22.022 231.974 21.0119C233.152 20.4337 234.404 20.02 235.695 19.7825C238.649 19.1318 241.733 19.42 244.515 20.6067C247.154 21.5656 249.605 22.9774 251.759 24.7786C254.235 26.8848 256.278 29.4524 257.774 32.3384C258.519 33.8064 259.065 35.3669 259.398 36.9789C259.763 38.7021 259.503 40.4988 258.664 42.0475C257.718 43.8414 256.182 44.9881 254.602 46.0994C252.472 47.5245 250.172 48.678 247.755 49.5331C243.879 50.9449 239.883 52.0055 235.817 52.7018C234.196 53.0019 232.603 53.4236 230.957 53.5672C229.991 53.6306 229.021 53.5767 228.068 53.4067C227.304 53.2742 226.577 52.9769 225.94 52.5355C225.302 52.0941 224.768 51.5192 224.374 50.8506C223.609 49.717 223.148 48.4051 223.037 47.0416C223.03 46.8966 223.015 46.752 222.994 46.6084C222.531 43.6363 222.452 40.6171 222.758 37.6248C222.883 35.199 223.282 32.795 223.945 30.4583C224.501 28.5551 225.465 26.7956 226.768 25.3016Z" fill="#FFEDCC"/>
<path d="M240.03 125.999C240.135 125.973 240.233 125.923 240.316 125.853C240.398 125.782 240.463 125.694 240.506 125.594C241.186 124.44 242 123.372 242.933 122.411C243.554 121.785 244.26 121.25 245.032 120.823C245.563 120.49 246.163 120.284 246.786 120.22C247.41 120.156 248.039 120.235 248.627 120.452C249.124 120.637 249.54 120.991 249.802 121.453C250.311 122.297 250.575 123.265 250.565 124.251C250.565 124.747 250.565 125.237 250.565 125.734C250.577 126.446 250.471 127.155 250.25 127.832C249.94 129.179 249.418 130.469 248.704 131.652C248.691 131.68 248.684 131.711 248.684 131.743C248.684 131.774 248.691 131.805 248.704 131.834C248.727 131.876 248.764 131.909 248.81 131.924C248.855 131.94 248.905 131.937 248.949 131.918L251.131 131.337C252.64 131.011 254.19 130.915 255.727 131.05C256.249 131.107 256.762 131.219 257.259 131.386C257.626 131.48 257.97 131.65 258.267 131.885C258.563 132.12 258.807 132.416 258.982 132.752C259.157 133.088 259.259 133.457 259.282 133.835C259.304 134.213 259.247 134.592 259.113 134.947C258.811 135.953 258.269 136.87 257.532 137.619C256.651 138.504 255.636 139.246 254.524 139.815C252.858 140.664 251.144 141.414 249.39 142.061C248.501 142.411 247.648 142.83 246.773 143.201C244.99 143.957 243.192 144.663 241.366 145.3C241.24 145.342 241.121 145.391 240.995 145.426C240.817 145.469 240.656 145.563 240.531 145.698C240.407 145.832 240.325 146 240.296 146.181C240.051 147.237 239.785 148.28 239.512 149.329C239.351 149.966 239.155 150.588 238.988 151.225C238.939 151.4 238.848 151.596 239.043 151.798C239.449 151.484 239.862 151.176 240.268 150.847C241.409 149.909 242.647 149.095 243.961 148.42C245.226 147.794 246.581 147.369 247.977 147.16C248.655 147.051 249.34 146.991 250.026 146.979C250.262 146.98 250.496 146.954 250.726 146.902C251.138 146.776 251.579 146.776 251.992 146.902C252.408 147.004 252.84 147.03 253.265 146.979C253.972 146.998 254.675 147.089 255.364 147.251C255.558 147.288 255.749 147.347 255.93 147.426C256.084 147.464 256.227 147.536 256.348 147.637C256.47 147.739 256.566 147.867 256.629 148.012C256.693 148.157 256.722 148.315 256.715 148.473C256.708 148.631 256.664 148.785 256.588 148.923C256.529 149.076 256.449 149.22 256.35 149.35C255.504 150.472 254.522 151.485 253.426 152.365C250.901 154.15 248.025 155.378 244.99 155.968C244.443 156.076 243.888 156.132 243.332 156.136C242.744 156.136 242.149 156.136 241.555 156.136C240.442 156.114 239.332 156.016 238.232 155.842C237.805 155.842 237.735 155.842 237.609 156.247C237.344 157.122 237.099 158.01 236.784 158.871C236.565 159.635 236.133 160.322 235.539 160.85C235.273 161.067 235.07 161.018 234.951 160.682C234.783 160.18 234.77 159.639 234.916 159.13C235.189 158.08 235.462 157.031 235.77 156.003C236.651 153.051 237.505 150.092 238.253 147.104C238.358 146.692 238.456 146.279 238.54 145.866C238.624 145.454 238.54 145.237 238.134 145.097C237.728 144.957 237.267 144.81 236.826 144.684C234.409 144.048 232.082 143.107 229.901 141.886C228.165 140.875 226.641 139.541 225.41 137.955C224.55 136.878 223.789 135.726 223.136 134.513C222.686 133.678 222.343 132.789 222.115 131.869C221.794 130.717 221.906 129.488 222.43 128.413C222.667 127.923 223.034 127.506 223.489 127.208C223.945 126.91 224.474 126.741 225.018 126.72C226.669 126.65 228.3 127.106 229.677 128.021C229.824 128.098 229.957 128.196 230.103 128.259C230.142 128.272 230.183 128.275 230.223 128.268C230.263 128.261 230.3 128.245 230.332 128.22C230.364 128.195 230.389 128.162 230.405 128.125C230.422 128.088 230.428 128.048 230.425 128.007C230.24 126.74 230.198 125.457 230.299 124.181C230.309 123.066 230.443 121.957 230.698 120.872C230.893 120.036 231.317 119.27 231.922 118.661C232.115 118.461 232.347 118.3 232.602 118.19C232.858 118.079 233.134 118.021 233.412 118.018C233.971 117.998 234.528 118.09 235.05 118.288C235.573 118.486 236.05 118.787 236.455 119.172C237.26 119.905 237.932 120.771 238.442 121.732C238.852 122.517 239.217 123.325 239.533 124.153C239.778 124.74 239.729 125.391 240.03 125.999Z" fill="#FFE4E2"/>
<path d="M22.0507 104.275C17.8142 105.836 13.497 105.783 9.13317 104.894C8.25387 104.713 7.40458 104.409 6.61055 103.99C5.68018 103.537 4.8982 102.828 4.35611 101.946C3.81402 101.064 3.53425 100.047 3.54954 99.0117C3.49317 97.7568 3.70991 96.5045 4.18476 95.3415C4.65962 94.1785 5.38129 93.1324 6.29992 92.2756C7.39548 91.2145 8.6317 90.309 9.97387 89.5846C13.2447 87.8488 16.3957 85.9018 19.5179 83.9101C21.1404 82.8792 22.8437 81.9814 24.6111 81.2255C26.9065 80.269 29.4378 80.0301 31.8717 80.5403C33.0157 80.748 34.1257 81.1121 35.1704 81.6224C36.1494 82.0767 36.9927 82.7789 37.6169 83.6593C38.2412 84.5398 38.6246 85.568 38.7293 86.6422C38.8449 87.3946 38.8489 88.16 38.7411 88.9137C38.3712 92.0598 36.9018 94.974 34.5922 97.1421C33.1909 98.4006 31.6633 99.5109 30.0336 100.455C27.5106 101.999 24.8356 103.279 22.0507 104.275ZM19.8481 98.6975C20.783 98.3721 21.6963 97.9877 22.5826 97.5466C24.5624 96.5121 26.4743 95.3524 28.3065 94.0745C29.2384 93.4584 30.13 92.7833 30.9758 92.0534C31.5376 91.6052 31.989 91.034 32.2952 90.3838C32.6013 89.7336 32.7542 89.0218 32.7418 88.3033C32.7504 87.6931 32.5466 87.0989 32.1653 86.6225C31.784 86.146 31.249 85.8169 30.6518 85.6916C30.0841 85.5423 29.4916 85.5124 28.9118 85.6039C27.2688 85.8404 25.6923 86.413 24.2805 87.286C21.5684 89.022 18.7449 90.5712 15.8862 92.037C14.3194 92.8065 12.8525 93.7645 11.518 94.8898C10.8914 95.3969 10.3836 96.0353 10.0304 96.7599C9.85836 97.0586 9.76011 97.3941 9.74379 97.7384C9.72747 98.0828 9.79355 98.426 9.93653 98.7397C10.0795 99.0533 10.2953 99.3284 10.5659 99.5419C10.8365 99.7554 11.1542 99.9013 11.4925 99.9674C12.2261 100.172 12.992 100.235 13.7491 100.151C15.8379 99.9284 17.8896 99.4391 19.8542 98.6954L19.8481 98.6975Z" fill="#E6F6E7"/>
<ellipse cx="141.6" cy="163.572" rx="63.5" ry="7.5" fill="#D2D9FF"/>
<path d="M204.736 79.9995C196.287 69.735 186.127 64.0321 176.071 63.0982" stroke="black" stroke-width="1.5"/>
<path d="M162.376 138.87L159.87 163.924H170.205" stroke="black" stroke-width="1.5"/>
<path d="M94.7065 101.699C94.6719 118.277 114.248 151.212 149.67 147.926C185.093 144.64 195.923 117.934 196.414 97.6968C196.938 76.088 179.739 64.5395 177.927 47.9162C177.157 40.8451 176.672 33.2135 173.303 25.9361C168.92 14.9685 157.036 7.55237 143.576 7.64288C126.665 7.75658 115.502 16.9565 111.48 26.9744C108.129 35.3226 108.74 41.0499 108.162 49.0687C106.584 70.9451 94.7681 72.1544 94.7065 101.699Z" stroke="black" stroke-width="1.5"/>
<path d="M99.2337 99.5826C99.2056 114.681 117.096 144.68 149.456 141.694C181.817 138.709 190.94 114.389 191.384 95.9584C191.858 76.2788 176.909 65.7577 175.25 50.618C174.545 44.178 174.1 37.2275 171.021 30.5991C167.015 20.6097 156.157 13.8531 143.86 13.9328C128.411 14.0329 118.214 22.4092 114.542 31.5319C111.483 39.1342 112.042 44.3503 111.515 51.6532C110.078 71.5764 99.2839 72.6753 99.2337 99.5826Z" fill="#296107"/>
<path d="M105.496 100.931C105.677 115.561 122.764 144.298 152.882 140.806C183 137.315 191.873 114.345 192.04 95.7002C192.227 74.7593 177.42 66.7191 175.666 52.0801C174.919 45.8531 174.367 38.5799 171.407 32.2142C167.535 22.609 157.364 16.81 145.905 17.1148C131.508 17.4977 122.121 25.8027 118.825 34.7101C116.078 42.133 116.671 47.1768 116.281 54.2628C115.216 73.594 105.171 74.8585 105.496 100.931Z" fill="#C2ECA8"/>
<path d="M105.495 100.932C105.677 115.562 122.764 144.298 152.882 140.807C137.74 138.763 114.39 132.867 109.993 100.932C107.511 82.899 120.769 70.3204 119.982 54.2634C119.612 46.7154 119.612 37.7641 124.422 29.995C128.269 23.7797 137 18.1564 145.905 17.1154C131.508 17.4983 122.121 25.8033 118.824 34.7108C116.078 42.1336 116.671 47.1775 116.281 54.2634C115.216 73.5946 105.171 74.8592 105.495 100.932Z" fill="#A6D489"/>
<path d="M152.002 126.6C159.857 126.539 175.495 118.682 172.057 101.044C168.62 83.4055 156.583 79.6435 151.299 79.7648C144.694 79.9164 131.819 89.6634 131.624 104.407C131.412 120.405 144.148 126.662 152.002 126.6Z" fill="#75452F"/>
<path d="M153.531 121.582C159.699 121.533 171.98 115.363 169.28 101.512C166.581 87.6604 157.128 84.7061 152.978 84.8013C147.792 84.9204 137.681 92.5748 137.527 104.153C137.361 116.717 147.363 121.63 153.531 121.582Z" fill="#8B5338"/>
<path d="M156.008 113.774C158.886 113.413 164.319 109.206 162.377 101.399C160.434 93.5918 155.873 92.4063 153.94 92.6853C151.523 93.0339 147.177 97.9754 147.675 104.632C148.215 111.854 153.129 114.135 156.008 113.774Z" fill="#A75E3D"/>
<path d="M125.107 128.222L122.915 163.924H112.58" stroke="black" stroke-width="1.5"/>
<path d="M206.6 79.0718L207.1 72.5718C197.267 81.0718 183.6 95.0718 156.6 99.0718C134.697 102.317 98.5346 97.0317 99.0996 93.0718C99.5973 89.5831 99.5996 89.5718 100.095 87.0959L100.1 87.0718C95.099 88.5718 89.5989 100.572 103.1 105.572C120.045 111.847 146.6 111.572 167.1 107.572C183.5 104.372 204.6 88.0718 212.6 80.5718L206.6 79.0718Z" fill="#FFE4E2"/>
<path d="M133.24 103.74C117.837 92.3129 113.419 79.367 113.601 70.048" stroke="black" stroke-width="1.5"/>
<path d="M143.992 55.565C143.992 54.7298 143.428 53.0596 141.174 53.0596C138.919 53.0596 138.355 54.5443 138.355 55.2866" stroke="black" stroke-width="1.5"/>
<path d="M164.037 54.9385C164.037 54.1034 163.473 52.4331 161.219 52.4331C158.964 52.4331 158.4 53.9178 158.4 54.6601" stroke="black" stroke-width="1.5"/>
<path d="M156.209 58.6963C155.374 59.5314 153.704 61.2017 151.511 61.2017C149.319 61.2017 147.649 59.949 146.814 59.3226" stroke="black" stroke-width="1.5"/>
<path d="M150.861 4.80771C149.207 4.10874 144.617 3.49758 139.493 6.64467C133.089 10.5785 132.551 15.6868 134.579 19.5867C136.607 23.4866 141.509 24.8859 145.84 22.961C150.17 21.036 151.814 18.9242 150.666 17.0562C149.519 15.1882 145.97 14.7953 141.063 18.1765C136.157 21.5577 134.554 27.2121 135.165 29.5174C136.004 32.6777 137.822 33.6436 138.977 34.5268" stroke="black" stroke-width="1.5"/>
</svg>
