<svg width="373" height="281" viewBox="0 0 373 281" fill="none" xmlns="http://www.w3.org/2000/svg">
<rect x="162" y="13" width="189" height="167" rx="20" fill="#D2D9FF" fill-opacity="0.5"/>
<rect x="172" y="23" width="169" height="42" rx="20" fill="#E6F6E7"/>
<circle cx="193" cy="44" r="11" fill="#57B757"/>
<path d="M196.91 41.0664L191.532 46.4442L189.088 43.9997" stroke="white" stroke-width="1.5" stroke-linecap="round" stroke-linejoin="round"/>
<rect x="214" y="38" width="75" height="3" rx="1.5" fill="#57B757"/>
<rect x="214" y="47" width="40" height="3" rx="1.5" fill="#57B757"/>
<rect x="172" y="74" width="169" height="42" rx="20" fill="white"/>
<circle cx="193" cy="95" r="10.25" stroke="#EDEDED" stroke-width="1.5"/>
<rect x="214" y="89" width="36" height="3" rx="1.5" fill="#B4B4B4"/>
<rect x="214" y="98" width="56" height="3" rx="1.5" fill="#B4B4B4"/>
<rect x="172" y="125" width="169" height="42" rx="20" fill="white"/>
<circle cx="193" cy="146" r="10.25" stroke="#EDEDED" stroke-width="1.5"/>
<rect x="214" y="140" width="94" height="3" rx="1.5" fill="#B4B4B4"/>
<rect x="214" y="149" width="56" height="3" rx="1.5" fill="#B4B4B4"/>
<ellipse cx="8.86236" cy="131.622" rx="4.65587" ry="6.34891" transform="rotate(-50.7528 8.86236 131.622)" fill="#E6F6E7"/>
<path d="M25.6034 83.9578C20.8763 82.0619 16.6935 79.0226 13.43 75.1123C13.1644 74.8065 12.9087 74.4772 12.6287 74.1837C10.9023 72.3204 9.69304 70.0382 9.12092 67.5633C8.75542 66.2615 8.70326 64.8916 8.96872 63.5658C9.23418 62.24 9.80971 60.9958 10.6482 59.935C12.9155 56.9982 16.0036 56.0926 19.4974 56.1594C21.6003 56.2457 23.685 56.5871 25.7056 57.1759C25.975 57.2735 26.2539 57.3426 26.5377 57.3819C27.3971 57.4156 28.3577 57.7958 29.0733 57.1063C30.0149 56.3926 30.6584 55.3551 30.8794 54.1944C31.1859 51.5657 31.5782 48.9733 31.9392 46.3677C32.0893 45.1506 32.3976 43.9583 32.8561 42.8209C33.2951 41.6322 34.0961 40.6114 35.1462 39.9021C36.1962 39.1929 37.4424 38.8312 38.709 38.8678C40.7727 38.7775 42.8116 39.3466 44.5303 40.4926C47.6139 42.5732 50.1397 45.3789 51.8861 48.6635C53.3117 51.1009 54.302 53.768 54.8125 56.5452C55.3891 59.7825 55.3448 63.0999 54.6821 66.3206C54.2528 68.6201 53.5602 70.8626 52.6179 73.0037C50.6589 76.991 48.0923 80.4813 44.2705 82.9423C40.8591 85.1623 36.8052 86.1823 32.7494 85.8414C30.2662 85.6929 27.8372 85.0526 25.6034 83.9578Z" fill="#FFE4E2"/>
<path d="M38.5372 225.214C38.8826 227.725 38.7689 230.277 38.2016 232.747C37.8903 234.507 37.4577 236.242 36.907 237.942C36.1671 240.085 35.2064 242.144 34.0403 244.088C33.4219 245.111 32.7118 246.076 32.0082 247.023C31.1363 248.148 30.1564 249.184 29.0824 250.118C27.3637 251.658 25.4551 252.973 23.403 254.03C23.1255 254.186 22.8353 254.318 22.5356 254.425C21.5558 254.746 20.6003 255.138 19.6764 255.596C18.3621 256.265 16.9244 256.657 15.4524 256.748C13.667 256.915 11.8671 256.676 10.1872 256.049C9.52284 255.771 8.94952 255.313 8.53202 254.726C8.13343 254.127 7.90094 253.433 7.85829 252.715C7.81565 251.997 7.96438 251.281 8.28929 250.639C8.86581 249.323 9.73883 248.159 10.8401 247.237C12.6325 245.652 14.5636 244.231 16.6101 242.991C18.283 241.952 20.0533 241.176 21.7216 240.172C22.2079 239.903 22.6441 239.551 23.0112 239.134C23.0722 239.067 23.1159 238.986 23.1387 238.898C23.1614 238.81 23.1624 238.718 23.1417 238.63C23.121 238.542 23.0791 238.46 23.0196 238.392C22.9602 238.323 22.885 238.27 22.8006 238.237C22.4424 238.059 22.0419 237.983 21.6432 238.017C20.6428 238.094 19.6645 238.351 18.7548 238.774C17.6258 239.266 16.4976 239.766 15.4106 240.331C14.2227 240.972 12.9792 241.504 11.6953 241.92C10.4882 242.347 9.1876 242.436 7.93364 242.178C7.19411 242.018 6.52132 241.635 6.00562 241.081C5.62806 240.694 5.37762 240.201 5.28772 239.667C5.19782 239.134 5.27274 238.586 5.50248 238.096C5.91564 237.062 6.5356 236.124 7.32435 235.338C9.4344 233.275 11.8169 231.51 14.4055 230.094C15.7141 229.42 16.9602 228.631 18.129 227.736C18.4262 227.532 18.686 227.279 18.8971 226.986C18.93 226.936 18.9512 226.88 18.9592 226.82C18.9671 226.761 18.9615 226.701 18.9429 226.644C18.9243 226.587 18.8931 226.535 18.8516 226.492C18.8101 226.449 18.7595 226.416 18.7034 226.395C17.9154 226.104 17.0604 226.045 16.2401 226.226C14.3613 226.717 12.5086 227.29 10.613 227.706C8.91725 228.155 7.14418 228.231 5.41635 227.927C4.20495 227.656 3.10713 227.017 2.27371 226.097C1.91474 225.718 1.64531 225.264 1.48528 224.767C1.32524 224.271 1.27867 223.745 1.34901 223.228C1.43129 222.356 1.67774 221.508 2.07536 220.728C2.9125 219.191 3.99471 217.802 5.27932 216.614C6.27594 215.647 7.34402 214.756 8.47448 213.95C10.2764 212.709 12.2371 211.717 14.3039 211C15.7647 210.492 17.2784 210.152 18.8159 209.986C20.7931 209.765 22.7943 209.914 24.7167 210.427C26.7559 210.92 28.725 211.668 30.578 212.652C32.0085 213.44 33.3201 214.426 34.4736 215.582C35.3068 216.432 35.9922 217.415 36.5014 218.491C37.656 220.559 38.3504 222.852 38.5372 225.214Z" fill="#D2D9FF"/>
<path d="M224.304 244.939C222.315 244.092 220.326 243.195 218.379 242.297C217.625 241.968 216.814 241.793 215.992 241.781C215.859 241.764 215.725 241.781 215.6 241.83C215.476 241.879 215.367 241.96 215.282 242.063C215.197 242.166 215.14 242.289 215.116 242.421C215.092 242.552 215.102 242.687 215.145 242.814C215.273 243.571 215.634 244.27 216.178 244.812C216.959 245.595 217.855 246.255 218.836 246.767C220.055 247.334 221.265 247.935 222.527 248.46C224.409 249.268 226.233 250.205 227.987 251.262C228.336 251.476 228.659 251.729 228.952 252.016C229.411 252.363 229.773 252.824 230 253.353C230.228 253.882 230.315 254.461 230.252 255.033C230.189 255.606 229.978 256.152 229.64 256.619C229.303 257.086 228.849 257.457 228.325 257.696C227.147 258.356 225.844 258.765 224.499 258.898C221.515 259.138 218.512 258.852 215.628 258.051C214.429 257.791 213.267 257.388 212.165 256.849C211.082 256.265 209.956 255.749 208.923 255.088C206.649 253.74 204.673 251.943 203.116 249.806C201.178 247.061 199.818 243.951 199.12 240.664C198.839 239.073 199.054 237.435 199.735 235.97C200.416 234.506 201.532 233.287 202.93 232.478C206.286 230.653 209.978 229.53 213.782 229.176C218.037 228.763 222.331 229.078 226.48 230.108C227.505 230.342 228.515 230.642 229.502 231.005C231.195 231.648 232.947 232.148 234.581 232.926C237.629 234.343 240.193 236.625 241.954 239.487C242.595 240.412 242.972 241.493 243.047 242.616C243.121 243.738 242.89 244.86 242.378 245.861C242.001 246.691 241.41 247.405 240.666 247.932C239.923 248.458 239.053 248.778 238.145 248.858C236.39 249 234.624 248.843 232.922 248.392C229.883 247.673 227.149 246.166 224.304 244.939Z" fill="#FFEDCC"/>
<path d="M108.606 22.7059C109.623 24.6139 110.608 26.5614 111.559 28.4823C111.939 29.2117 112.46 29.8579 113.093 30.3832C113.185 30.4797 113.301 30.5511 113.428 30.5907C113.556 30.6303 113.691 30.6367 113.822 30.6095C113.953 30.5823 114.075 30.5223 114.176 30.4351C114.277 30.3479 114.354 30.2364 114.4 30.1111C114.777 29.4416 114.934 28.6712 114.851 27.9078C114.735 26.8074 114.452 25.7313 114.01 24.7168C113.418 23.5099 112.853 22.282 112.201 21.0815C111.244 19.2708 110.412 17.3966 109.711 15.4722C109.574 15.0864 109.481 14.6864 109.433 14.2799C109.294 13.721 109.302 13.1355 109.457 12.5807C109.612 12.0259 109.908 11.5208 110.317 11.1149C110.725 10.709 111.233 10.4161 111.788 10.2649C112.344 10.1138 112.93 10.1095 113.488 10.2526C114.82 10.4787 116.091 10.9783 117.22 11.7198C119.694 13.4063 121.851 15.515 123.593 17.9495C124.362 18.9042 125.014 19.9483 125.533 21.0591C126.009 22.1941 126.561 23.303 126.95 24.4653C127.874 26.9427 128.283 29.5822 128.153 32.2229C127.938 35.5762 127.042 38.8507 125.521 41.8471C124.742 43.2616 123.546 44.402 122.096 45.1137C120.646 45.8254 119.012 46.074 117.416 45.8257C113.659 45.138 110.08 43.6936 106.897 41.5803C103.326 39.2304 100.182 36.2888 97.6 32.8821C96.9493 32.0556 96.352 31.1885 95.8115 30.286C94.8979 28.7222 93.8478 27.2332 93.0653 25.6011C91.583 22.5847 91.0202 19.1991 91.4467 15.8654C91.5293 14.7435 91.9145 13.665 92.5614 12.7446C93.2082 11.8242 94.0925 11.0965 95.12 10.6387C95.9344 10.23 96.8426 10.0448 97.752 10.102C98.6613 10.1592 99.5392 10.4568 100.296 10.9644C101.751 11.9557 103.026 13.1874 104.068 14.6065C105.982 17.0748 107.163 19.9645 108.606 22.7059Z" fill="#E6F6E7"/>
<path d="M288.699 191.438C290.625 192.401 292.303 193.795 293.602 195.513C294.347 196.505 294.952 197.594 295.4 198.75C296.526 201.378 296.803 204.292 296.193 207.085C295.769 209.704 294.891 212.229 293.6 214.547C292.082 217.218 290.059 219.568 287.644 221.467C286.412 222.417 285.06 223.2 283.622 223.794C282.087 224.437 280.373 224.513 278.787 224.007C276.954 223.447 275.618 222.223 274.307 220.953C272.608 219.226 271.131 217.295 269.91 215.202C267.915 211.853 266.224 208.331 264.859 204.679C264.294 203.227 263.621 201.822 263.197 200.319C262.968 199.434 262.847 198.524 262.836 197.609C262.824 196.876 262.972 196.149 263.269 195.479C263.566 194.809 264.005 194.211 264.557 193.728C265.474 192.817 266.61 192.158 267.857 191.813C267.99 191.781 268.122 191.743 268.251 191.697C270.929 190.742 273.718 190.135 276.55 189.891C278.824 189.579 281.127 189.524 283.413 189.727C285.278 189.908 287.082 190.491 288.699 191.438Z" fill="#E6F6E7"/>
<path d="M340.775 232.347C340.903 232.315 341.021 232.254 341.121 232.169C341.221 232.084 341.299 231.976 341.351 231.856C342.174 230.46 343.16 229.167 344.288 228.004C345.04 227.247 345.895 226.6 346.828 226.082C347.47 225.68 348.197 225.43 348.951 225.353C349.705 225.275 350.468 225.371 351.179 225.634C351.78 225.858 352.284 226.286 352.601 226.844C353.216 227.866 353.536 229.038 353.524 230.23C353.524 230.831 353.524 231.424 353.524 232.025C353.539 232.887 353.41 233.745 353.143 234.564C352.768 236.195 352.137 237.755 351.272 239.186C351.256 239.221 351.248 239.259 351.248 239.297C351.248 239.335 351.256 239.372 351.272 239.407C351.299 239.458 351.345 239.497 351.4 239.516C351.455 239.535 351.515 239.532 351.568 239.508L354.209 238.806C356.035 238.412 357.91 238.295 359.771 238.458C360.402 238.527 361.023 238.663 361.625 238.865C362.069 238.978 362.485 239.184 362.844 239.469C363.203 239.754 363.498 240.111 363.71 240.518C363.922 240.924 364.045 241.371 364.072 241.829C364.1 242.286 364.03 242.745 363.868 243.174C363.503 244.391 362.846 245.501 361.955 246.407C360.889 247.479 359.66 248.376 358.315 249.065C356.299 250.092 354.224 250.999 352.102 251.783C351.027 252.206 349.994 252.714 348.936 253.163C346.777 254.077 344.601 254.932 342.392 255.702C342.24 255.753 342.096 255.812 341.943 255.855C341.728 255.907 341.533 256.021 341.382 256.184C341.231 256.346 341.132 256.55 341.097 256.769C340.801 258.047 340.479 259.308 340.149 260.578C339.954 261.348 339.717 262.102 339.514 262.872C339.455 263.084 339.345 263.321 339.582 263.566C340.073 263.185 340.572 262.813 341.063 262.415C342.444 261.28 343.943 260.295 345.533 259.478C347.063 258.72 348.703 258.206 350.392 257.954C351.212 257.822 352.041 257.748 352.872 257.734C353.157 257.735 353.441 257.704 353.718 257.641C354.218 257.488 354.751 257.488 355.251 257.641C355.754 257.765 356.276 257.796 356.791 257.734C357.647 257.757 358.498 257.867 359.331 258.064C359.567 258.109 359.797 258.18 360.017 258.276C360.203 258.321 360.376 258.408 360.523 258.531C360.669 258.654 360.786 258.809 360.863 258.984C360.94 259.16 360.975 259.35 360.966 259.542C360.958 259.733 360.905 259.92 360.812 260.087C360.742 260.272 360.645 260.446 360.524 260.603C359.501 261.962 358.312 263.187 356.986 264.252C353.931 266.412 350.451 267.899 346.777 268.612C346.116 268.742 345.444 268.81 344.771 268.815C344.06 268.815 343.34 268.815 342.621 268.815C341.274 268.789 339.93 268.67 338.6 268.459C338.083 268.459 337.999 268.459 337.846 268.95C337.524 270.008 337.228 271.083 336.847 272.125C336.582 273.05 336.06 273.881 335.34 274.52C335.019 274.783 334.773 274.723 334.629 274.317C334.425 273.709 334.411 273.054 334.587 272.438C334.917 271.168 335.247 269.898 335.62 268.654C336.686 265.082 337.719 261.501 338.625 257.886C338.752 257.387 338.87 256.887 338.972 256.388C339.074 255.888 338.972 255.626 338.481 255.457C337.99 255.287 337.431 255.11 336.898 254.957C333.973 254.187 331.157 253.049 328.518 251.571C326.418 250.348 324.573 248.733 323.083 246.814C322.042 245.511 321.121 244.117 320.332 242.649C319.787 241.638 319.372 240.563 319.096 239.449C318.708 238.055 318.843 236.568 319.477 235.267C319.764 234.674 320.208 234.17 320.759 233.809C321.311 233.449 321.95 233.244 322.609 233.219C324.607 233.134 326.581 233.685 328.247 234.793C328.424 234.886 328.585 235.005 328.763 235.081C328.809 235.096 328.859 235.1 328.907 235.092C328.956 235.084 329.001 235.063 329.04 235.033C329.078 235.003 329.109 234.964 329.128 234.919C329.148 234.874 329.156 234.825 329.152 234.776C328.928 233.243 328.877 231.69 329 230.146C329.012 228.797 329.174 227.454 329.483 226.142C329.718 225.13 330.231 224.203 330.964 223.467C331.198 223.224 331.478 223.03 331.787 222.896C332.097 222.762 332.43 222.691 332.767 222.688C333.443 222.664 334.117 222.775 334.749 223.015C335.381 223.255 335.96 223.618 336.449 224.085C337.423 224.971 338.237 226.019 338.854 227.183C339.35 228.133 339.791 229.111 340.174 230.112C340.47 230.823 340.411 231.61 340.775 232.347Z" fill="#FFE4E2"/>
<path d="M357.589 97.3717C361.818 101.525 364.176 106.679 365.569 112.358C365.847 113.503 365.962 114.682 365.911 115.859C365.894 117.218 365.491 118.543 364.749 119.681C364.006 120.819 362.955 121.722 361.718 122.285C360.26 123.055 358.652 123.5 357.005 123.589C355.359 123.678 353.712 123.408 352.18 122.798C350.306 122.093 348.538 121.133 346.925 119.946C343.03 117.037 338.952 114.389 334.837 111.8C332.703 110.453 330.682 108.934 328.793 107.26C326.371 105.072 324.667 102.202 323.908 99.0265C323.513 97.5521 323.322 96.0304 323.342 94.5041C323.332 93.0872 323.693 91.6924 324.388 90.4576C325.083 89.2229 326.088 88.1911 327.305 87.4644C328.133 86.905 329.039 86.471 329.994 86.1763C333.936 84.8508 338.219 84.9605 342.088 86.486C344.368 87.4434 346.543 88.634 348.577 90.0389C351.825 92.1678 354.845 94.6251 357.589 97.3717ZM352.204 103.115C351.293 102.187 350.325 101.319 349.304 100.514C346.966 98.7445 344.517 97.1256 341.972 95.6675C340.718 94.9069 339.417 94.2272 338.076 93.6327C337.229 93.2172 336.298 93.0018 335.354 93.003C334.411 93.0042 333.48 93.222 332.634 93.6397C331.905 93.9717 331.314 94.5469 330.963 95.2667C330.611 95.9865 330.52 96.8062 330.707 97.5854C330.848 98.343 331.145 99.063 331.578 99.6999C332.781 101.517 334.345 103.068 336.173 104.254C339.754 106.499 343.177 108.982 346.52 111.553C348.312 112.981 350.272 114.185 352.356 115.138C353.31 115.597 354.352 115.842 355.41 115.855C355.861 115.891 356.315 115.82 356.733 115.646C357.15 115.472 357.521 115.201 357.813 114.856C358.105 114.51 358.31 114.1 358.412 113.659C358.514 113.218 358.509 112.759 358.397 112.32C358.229 111.335 357.874 110.391 357.35 109.539C355.914 107.184 354.183 105.023 352.198 103.109L352.204 103.115Z" fill="#FFEDCC"/>
<ellipse cx="221.388" cy="200.864" rx="4.65587" ry="6.34891" transform="rotate(-146.469 221.388 200.864)" fill="#D2D9FF"/>
<ellipse cx="119" cy="272" rx="77" ry="9" fill="#D2D9FF"/>
<path d="M146.403 236.158L142.964 270.549H157.15" stroke="black" stroke-width="2"/>
<path d="M52.7886 185.994C52.7411 208.75 79.6119 253.959 128.236 249.448C176.86 244.937 191.726 208.278 192.399 180.5C193.118 150.838 169.51 134.986 167.023 112.167C165.965 102.461 165.3 91.9855 160.676 81.996C154.659 66.9411 138.347 56.7612 119.871 56.8855C96.6571 57.0415 81.3337 69.67 75.8137 83.4212C71.2136 94.8805 72.0524 102.742 71.2585 113.749C69.0925 143.778 52.8732 145.438 52.7886 185.994Z" stroke="black" stroke-width="2"/>
<path d="M59.2613 183.534C59.2227 204.236 83.7521 245.367 128.122 241.274C172.491 237.18 185 203.835 185.608 178.565C186.258 151.582 165.761 137.157 163.488 116.399C162.52 107.569 161.911 98.0392 157.69 88.951C152.196 75.2544 137.309 65.9906 120.449 66.0998C99.2658 66.237 85.2855 77.7218 80.2511 90.23C76.0558 100.653 76.8229 107.805 76.1006 117.818C74.1303 145.135 59.3301 146.642 59.2613 183.534Z" fill="#296107"/>
<path d="M67.8464 185.384C68.0957 205.444 91.5233 244.844 132.818 240.057C174.113 235.269 186.279 203.775 186.508 178.212C186.764 149.5 166.462 138.476 164.057 118.404C163.034 109.866 162.277 99.8941 158.217 91.1661C152.909 77.9964 138.964 70.0454 123.252 70.4633C103.513 70.9882 90.6416 82.3753 86.1222 94.5883C82.356 104.766 83.1694 111.681 82.6343 121.397C81.1745 147.902 67.402 149.636 67.8464 185.384Z" fill="#C2ECA8"/>
<path d="M67.8464 185.384C68.0958 205.443 91.5234 244.844 132.818 240.056C112.058 237.254 80.0422 229.171 74.0139 185.384C70.6099 160.659 88.7888 143.412 87.7097 121.397C87.2024 111.047 87.2024 98.7744 93.7967 88.1221C99.0721 79.6003 111.043 71.8901 123.253 70.4628C103.513 70.9878 90.6417 82.3749 86.1223 94.5879C82.3561 104.765 83.1695 111.681 82.6344 121.397C81.1746 147.902 67.4021 149.635 67.8464 185.384Z" fill="#A6D489"/>
<path d="M131.612 220.579C142.381 220.495 163.823 209.722 159.11 185.538C154.396 161.355 137.892 156.197 130.647 156.363C121.592 156.571 103.939 169.935 103.671 190.15C103.38 212.085 120.843 220.663 131.612 220.579Z" fill="#75452F"/>
<path d="M133.708 213.698C142.165 213.631 159.003 205.171 155.302 186.18C151.6 167.188 138.639 163.137 132.95 163.268C125.839 163.431 111.976 173.926 111.765 189.801C111.537 207.027 125.251 213.764 133.708 213.698Z" fill="#8B5338"/>
<path d="M137.105 202.992C141.052 202.497 148.501 196.73 145.838 186.025C143.175 175.321 136.921 173.695 134.27 174.078C130.956 174.556 124.997 181.331 125.68 190.457C126.421 200.361 133.158 203.488 137.105 202.992Z" fill="#A75E3D"/>
<path d="M123.011 90.6925C124.734 88.9297 127.819 83.3725 126.37 75.2468C124.559 65.0897 118.303 61.8385 112.302 62.4717C106.302 63.105 102.053 68.6659 102.339 75.165C102.624 81.6641 104.497 84.8235 107.46 84.2952C110.422 83.767 112.706 79.4299 110.849 71.4643C108.992 63.4987 102.572 58.6121 99.3202 58.2364C94.8617 57.7214 92.715 59.5597 91.0068 60.5921" stroke="black" stroke-width="2"/>
<path d="M128.033 128.661C130.996 128.132 133.457 128.13 134.737 128.775" stroke="black" stroke-width="2"/>
<circle cx="3.43911" cy="3.43911" r="3.43911" transform="matrix(-0.984473 0.175535 0.175535 0.984473 146.227 111.443)" fill="black"/>
<circle cx="3.43911" cy="3.43911" r="3.43911" transform="matrix(-0.984473 0.175535 0.175535 0.984473 119.988 116.122)" fill="black"/>
<path d="M79.902 145.881L59.6973 167.805L79.902 184.571V192.739" stroke="black" stroke-width="2"/>
<path d="M95.2463 221.542L92.2371 270.549H78.0508" stroke="black" stroke-width="2"/>
<path d="M171.087 148.542C150.258 157.034 144.666 146.786 136.999 140.722L128 139.5" stroke="black" stroke-width="2"/>
</svg>
