<svg width="24" height="24" viewBox="0 0 24 24" fill="none" xmlns="http://www.w3.org/2000/svg">
<path d="M5.47071 3.42004C5.42832 4.12968 5.53242 4.84045 5.77654 5.50813C6.02066 6.17581 6.39958 6.7861 6.88971 7.30104C5.93707 7.57418 5.08418 8.11791 4.4345 8.86628C3.78483 9.61465 3.36631 10.5355 3.22971 11.517C2.90033 13.8726 3.38356 16.27 4.59971 18.314L4.94971 18.904C4.96298 18.9257 4.97733 18.9468 4.99271 18.967L6.40871 20.873C6.70863 21.277 7.09299 21.6107 7.53504 21.851C7.97708 22.0913 8.46619 22.2323 8.9683 22.2643C9.4704 22.2963 9.97345 22.2184 10.4424 22.0362C10.9114 21.854 11.335 21.5717 11.6837 21.209C11.7245 21.1666 11.7734 21.1329 11.8275 21.1099C11.8817 21.0868 11.9399 21.0749 11.9987 21.0749C12.0575 21.0749 12.1158 21.0868 12.1699 21.1099C12.224 21.1329 12.2729 21.1666 12.3137 21.209C12.6625 21.5717 13.0861 21.854 13.555 22.0362C14.024 22.2184 14.527 22.2963 15.0291 22.2643C15.5312 22.2323 16.0203 22.0913 16.4624 21.851C16.9044 21.6107 17.2888 21.277 17.5887 20.873L19.0047 18.966C19.0198 18.9458 19.0338 18.9247 19.0467 18.903L19.3977 18.313C20.6145 16.27 21.0987 13.8733 20.7707 11.518C20.6739 10.8241 20.4357 10.1573 20.0707 9.55913C19.7058 8.96094 19.222 8.44402 18.6493 8.04037C18.0765 7.63672 17.427 7.35493 16.7409 7.21245C16.0549 7.06997 15.3468 7.06983 14.6607 7.21204L12.7597 7.60604H12.7567C12.7867 6.82604 12.9087 5.98604 13.1477 5.26804C13.4377 4.40004 13.8397 3.87804 14.2877 3.69204C14.4714 3.61539 14.6171 3.46892 14.6927 3.28486C14.7684 3.10079 14.7679 2.8942 14.6912 2.71054C14.6146 2.52688 14.4681 2.38118 14.284 2.30551C14.1 2.22984 13.8934 2.23039 13.7097 2.30704C12.6577 2.74604 12.0597 3.78704 11.7247 4.79304L11.6787 4.93504C11.4324 4.45919 11.1144 4.02409 10.7357 3.64504C10.2171 3.12583 9.59409 2.72272 8.90796 2.46241C8.22182 2.20209 7.48822 2.0905 6.75571 2.13504C6.42143 2.15428 6.10583 2.29554 5.86878 2.53204C5.63174 2.76853 5.48974 3.0838 5.46971 3.41804L5.47071 3.42004ZM8.39671 11.235C8.04971 11.304 7.73171 11.548 7.53271 12.013C7.32971 12.487 7.25771 13.19 7.47671 14.067C7.52173 14.2588 7.48948 14.4607 7.38691 14.6289C7.28434 14.7971 7.1197 14.9182 6.92858 14.966C6.73745 15.0138 6.53518 14.9845 6.36549 14.8844C6.1958 14.7843 6.07231 14.6214 6.02171 14.431C5.74171 13.309 5.79471 12.261 6.15371 11.422C6.51671 10.575 7.19871 9.94404 8.10271 9.76404C8.20068 9.74091 8.30231 9.73774 8.40153 9.75472C8.50075 9.7717 8.59554 9.80848 8.68025 9.86287C8.76495 9.91726 8.83784 9.98815 8.89457 10.0713C8.9513 10.1545 8.99071 10.2482 9.01046 10.3469C9.0302 10.4456 9.02987 10.5473 9.00948 10.6458C8.9891 10.7444 8.94908 10.8379 8.89181 10.9207C8.83454 11.0035 8.76119 11.0739 8.67613 11.1277C8.59107 11.1815 8.49604 11.2187 8.39671 11.235Z" fill="#399939"/>
</svg>
