<svg width="240" height="157" viewBox="0 0 240 157" fill="none" xmlns="http://www.w3.org/2000/svg">
<ellipse cx="124" cy="150.563" rx="53" ry="6" fill="#D2D9FF"/>
<path d="M102.657 123.354L105.525 150.564H95.7646" stroke="black" stroke-width="1.5"/>
<path d="M170.023 91.7992C170.055 107.455 151.569 138.558 118.116 135.455C84.6628 132.352 74.4353 107.131 73.972 88.0193C73.4773 67.6123 89.7198 56.7061 91.4306 41.0073C92.1583 34.3295 92.6162 27.1224 95.7973 20.2497C99.9368 9.89203 111.16 2.88837 123.871 2.97384C139.842 3.08122 150.384 11.7695 154.182 21.2302C157.347 29.1141 156.769 34.5229 157.316 42.0958C158.806 62.7554 169.965 63.8975 170.023 91.7992Z" stroke="black" stroke-width="1.5"/>
<path d="M165.646 89.916C165.673 104.132 148.828 132.377 118.359 129.566C87.8894 126.755 79.2998 103.857 78.8817 86.5036C78.4353 67.9741 92.511 58.0679 94.0725 43.813C94.7366 37.7494 95.1552 31.2052 98.054 24.9641C101.827 15.5585 112.05 9.19686 123.628 9.27186C138.175 9.36609 147.775 17.2529 151.232 25.8425C154.113 33.0004 153.586 37.9117 154.082 44.7878C155.435 63.5465 165.599 64.5812 165.646 89.916Z" fill="#296107"/>
<path d="M159.751 91.1863C159.58 104.961 143.492 132.018 115.134 128.731C86.7764 125.443 78.4216 103.816 78.2646 86.2608C78.0883 66.5438 92.0303 58.9735 93.682 45.1901C94.3846 39.327 94.9044 32.4788 97.692 26.4852C101.338 17.4414 110.914 11.9813 121.703 12.2682C135.259 12.6287 144.097 20.4484 147.201 28.8352C149.787 35.8243 149.229 40.5734 149.596 47.2452C150.598 65.4466 160.056 66.6372 159.751 91.1863Z" fill="#C2ECA8"/>
<path d="M159.751 91.1867C159.58 104.962 143.492 132.018 115.134 128.731C129.39 126.806 151.376 121.256 155.516 91.1867C157.853 74.2075 145.37 62.3641 146.111 47.2455C146.459 40.1386 146.459 31.7105 141.931 24.3954C138.308 18.5434 130.087 13.2487 121.703 12.2685C135.258 12.6291 144.097 20.4487 147.201 28.8356C149.787 35.8246 149.228 40.5737 149.596 47.2455C150.598 65.4469 160.056 66.6375 159.751 91.1867Z" fill="#A6D489"/>
<path d="M115.961 115.356C108.566 115.298 93.8414 107.9 97.0781 91.2926C100.315 74.6854 111.648 71.1433 116.623 71.2574C122.842 71.4002 134.965 80.5775 135.148 94.4593C135.348 109.523 123.356 115.413 115.961 115.356Z" fill="#75452F"/>
<path d="M114.522 110.63C108.714 110.585 97.151 104.775 99.6928 91.7332C102.235 78.6913 111.135 75.9097 115.042 75.9993C119.926 76.1114 129.445 83.3185 129.59 94.22C129.747 106.049 120.329 110.676 114.522 110.63Z" fill="#8B5338"/>
<path d="M112.188 103.279C109.478 102.939 104.362 98.9781 106.191 91.6271C108.02 84.276 112.315 83.1599 114.135 83.4225C116.411 83.7508 120.503 88.4034 120.034 94.6707C119.525 101.471 114.899 103.619 112.188 103.279Z" fill="#A75E3D"/>
<path d="M112.031 51.1885C112.82 51.9772 114.397 53.5546 116.468 53.5546C118.538 53.5546 120.115 52.3715 120.904 51.78" stroke="black" stroke-width="1.5"/>
<path d="M117.946 33.1471C116.566 32.1613 113.806 28.7699 113.806 23.0913C113.806 15.9931 117.651 13.0355 121.791 12.7397C125.932 12.444 129.481 15.6973 130.072 20.1337C130.664 24.5701 129.777 26.9362 127.706 26.9362C125.636 26.9362 123.566 24.2744 123.861 18.6549C124.157 13.0355 127.915 8.95056 130.072 8.30333C133.03 7.41606 134.706 8.40192 135.988 8.89485" stroke="black" stroke-width="1.5"/>
<circle cx="108.186" cy="47.0482" r="2.36608" fill="black"/>
<circle cx="125.932" cy="47.0482" r="2.36608" fill="black"/>
<path d="M138.354 116.847L140.424 150.564H150.185" stroke="black" stroke-width="1.5"/>
<path d="M154.917 64.4976C165.358 93.482 145.838 94.3693 134.304 78.3983" stroke="black" stroke-width="1.5"/>
<line x1="130.685" y1="84.5492" x2="138.967" y2="69.1697" stroke="black" stroke-width="1.5"/>
<path d="M121.297 65.4057L94.2217 63.1304L100.459 97.8061L128.147 101.173L121.297 65.4057Z" fill="white"/>
<path d="M89.9396 61.54C76.6304 91.4118 90.5311 93.1863 102.657 78.3983" stroke="black" stroke-width="1.5"/>
<circle cx="126.614" cy="45.8649" r="5.16519" stroke="black" stroke-width="1.5"/>
<path d="M112.696 45.0439C113.469 44.5814 115.014 43.6562 116.958 43.7785C118.902 43.9008 120.335 44.7577 121.052 45.1862" stroke="black" stroke-width="1.5"/>
<path d="M132.233 44.9778C135.487 43.6962 142.354 40.8155 144.064 40.2457C145.838 39.6542 147.613 40.8372 147.909 42.6117" stroke="black" stroke-width="1.5"/>
<circle cx="107.094" cy="45.8649" r="5.16519" stroke="black" stroke-width="1.5"/>
<path d="M101.77 44.0903L97.0381 39.9497" stroke="black" stroke-width="1.5"/>
<ellipse cx="23.4939" cy="6.88982" rx="3.25336" ry="4.4364" transform="rotate(-50.7528 23.4939 6.88982)" fill="#E6F6E7"/>
<ellipse cx="220.162" cy="12.059" rx="3.25336" ry="4.4364" transform="rotate(-146.469 220.162 12.059)" fill="#D2D9FF"/>
<path d="M55.3495 110.538C55.5909 112.293 55.5114 114.076 55.115 115.802C54.8975 117.032 54.5952 118.245 54.2104 119.433C53.6934 120.93 53.0221 122.369 52.2073 123.727C51.7751 124.442 51.2789 125.116 50.7873 125.778C50.1781 126.564 49.4933 127.288 48.7429 127.94C47.5419 129.017 46.2082 129.936 44.7743 130.674C44.5803 130.783 44.3776 130.875 44.1682 130.95C43.4836 131.175 42.8159 131.448 42.1703 131.768C41.2519 132.236 40.2473 132.51 39.2187 132.573C37.9711 132.69 36.7134 132.523 35.5395 132.085C35.0753 131.89 34.6747 131.57 34.383 131.16C34.1044 130.742 33.942 130.257 33.9122 129.755C33.8824 129.253 33.9863 128.753 34.2133 128.304C34.6162 127.385 35.2262 126.572 35.9957 125.927C37.2482 124.82 38.5976 123.826 40.0276 122.96C41.1966 122.235 42.4336 121.692 43.5994 120.991C43.9392 120.802 44.244 120.557 44.5005 120.265C44.5431 120.218 44.5737 120.162 44.5896 120.1C44.6055 120.039 44.6062 119.975 44.5917 119.913C44.5772 119.852 44.5479 119.794 44.5064 119.747C44.4649 119.699 44.4123 119.662 44.3533 119.639C44.103 119.514 43.8232 119.461 43.5446 119.485C42.8456 119.539 42.162 119.718 41.5263 120.013C40.7373 120.357 39.949 120.707 39.1895 121.101C38.3594 121.549 37.4905 121.921 36.5933 122.212C35.7499 122.51 34.8411 122.572 33.9648 122.392C33.4481 122.28 32.978 122.013 32.6176 121.626C32.3538 121.355 32.1788 121.011 32.116 120.638C32.0531 120.265 32.1055 119.882 32.266 119.54C32.5547 118.818 32.9879 118.162 33.5391 117.613C35.0135 116.171 36.6783 114.938 38.4872 113.948C39.4016 113.477 40.2723 112.926 41.089 112.301C41.2967 112.158 41.4782 111.981 41.6257 111.777C41.6487 111.742 41.6635 111.702 41.6691 111.661C41.6746 111.619 41.6707 111.577 41.6577 111.538C41.6447 111.498 41.6229 111.462 41.5939 111.431C41.565 111.401 41.5296 111.378 41.4904 111.363C40.9397 111.16 40.3423 111.119 39.7691 111.246C38.4562 111.589 37.1617 111.989 35.8371 112.279C34.6521 112.593 33.4132 112.646 32.2058 112.434C31.3594 112.245 30.5922 111.798 30.0099 111.156C29.759 110.891 29.5708 110.573 29.4589 110.226C29.3471 109.879 29.3146 109.512 29.3637 109.15C29.4212 108.541 29.5934 107.949 29.8713 107.403C30.4562 106.33 31.2125 105.359 32.1101 104.529C32.8065 103.853 33.5528 103.231 34.3428 102.667C35.6019 101.8 36.972 101.107 38.4161 100.606C39.4369 100.251 40.4946 100.014 41.569 99.8974C42.9506 99.743 44.3489 99.8475 45.6922 100.205C47.1172 100.55 48.4931 101.073 49.7879 101.761C50.7875 102.311 51.704 103 52.51 103.808C53.0922 104.402 53.5711 105.089 53.927 105.84C54.7338 107.286 55.219 108.888 55.3495 110.538Z" fill="#D2D9FF"/>
<path d="M191.3 108.315C191.389 108.293 191.472 108.25 191.542 108.191C191.612 108.131 191.667 108.056 191.703 107.972C192.278 106.997 192.967 106.093 193.755 105.28C194.28 104.751 194.878 104.299 195.53 103.938C195.979 103.657 196.486 103.482 197.013 103.428C197.541 103.373 198.073 103.441 198.57 103.624C198.99 103.781 199.342 104.08 199.564 104.47C199.994 105.184 200.217 106.003 200.209 106.836C200.209 107.256 200.209 107.67 200.209 108.09C200.219 108.692 200.129 109.292 199.942 109.865C199.68 111.004 199.239 112.094 198.635 113.094C198.624 113.119 198.618 113.145 198.618 113.171C198.618 113.198 198.624 113.224 198.635 113.248C198.654 113.284 198.686 113.312 198.725 113.325C198.763 113.338 198.805 113.336 198.842 113.319L200.688 112.828C201.964 112.553 203.274 112.471 204.574 112.586C205.015 112.634 205.449 112.729 205.869 112.87C206.18 112.949 206.47 113.093 206.721 113.292C206.972 113.491 207.178 113.74 207.326 114.025C207.474 114.309 207.561 114.621 207.58 114.941C207.599 115.261 207.55 115.581 207.437 115.88C207.182 116.731 206.723 117.507 206.1 118.14C205.355 118.889 204.497 119.516 203.557 119.997C202.148 120.715 200.698 121.349 199.215 121.896C198.464 122.192 197.742 122.547 197.003 122.86C195.494 123.499 193.974 124.097 192.43 124.635C192.324 124.67 192.223 124.712 192.117 124.741C191.966 124.778 191.83 124.858 191.724 124.972C191.619 125.085 191.55 125.227 191.525 125.38C191.318 126.273 191.093 127.155 190.863 128.042C190.727 128.58 190.561 129.107 190.419 129.645C190.378 129.793 190.301 129.959 190.466 130.13C190.809 129.864 191.158 129.604 191.501 129.326C192.467 128.532 193.514 127.844 194.625 127.273C195.694 126.744 196.84 126.385 198.02 126.208C198.593 126.116 199.172 126.065 199.753 126.055C199.952 126.055 200.151 126.034 200.345 125.99C200.694 125.883 201.066 125.883 201.415 125.99C201.767 126.076 202.132 126.098 202.492 126.055C203.09 126.071 203.684 126.148 204.266 126.285C204.431 126.317 204.592 126.366 204.746 126.433C204.876 126.465 204.997 126.526 205.099 126.612C205.202 126.698 205.283 126.806 205.337 126.929C205.391 127.051 205.415 127.184 205.409 127.318C205.403 127.452 205.366 127.582 205.302 127.699C205.252 127.828 205.184 127.95 205.1 128.06C204.385 129.009 203.555 129.865 202.628 130.609C200.493 132.119 198.061 133.157 195.494 133.656C195.032 133.747 194.563 133.795 194.092 133.798C193.595 133.798 193.093 133.798 192.59 133.798C191.649 133.78 190.71 133.697 189.78 133.549C189.419 133.549 189.36 133.549 189.254 133.892C189.029 134.632 188.822 135.383 188.556 136.11C188.37 136.757 188.005 137.337 187.503 137.784C187.278 137.968 187.106 137.926 187.006 137.642C186.863 137.218 186.853 136.76 186.976 136.329C187.207 135.442 187.438 134.555 187.698 133.685C188.443 131.189 189.165 128.687 189.798 126.161C189.887 125.812 189.969 125.463 190.04 125.114C190.111 124.765 190.04 124.582 189.697 124.463C189.354 124.345 188.964 124.221 188.591 124.114C186.547 123.576 184.579 122.781 182.735 121.748C181.268 120.894 179.979 119.765 178.938 118.424C178.21 117.514 177.567 116.54 177.015 115.514C176.634 114.808 176.344 114.056 176.152 113.278C175.881 112.304 175.975 111.265 176.418 110.356C176.619 109.941 176.928 109.589 177.314 109.337C177.699 109.085 178.146 108.942 178.606 108.924C180.003 108.865 181.382 109.25 182.546 110.024C182.67 110.09 182.782 110.172 182.907 110.226C182.939 110.236 182.974 110.239 183.008 110.233C183.041 110.227 183.073 110.213 183.1 110.192C183.127 110.171 183.148 110.144 183.162 110.112C183.176 110.081 183.182 110.047 183.179 110.013C183.022 108.941 182.987 107.856 183.072 106.777C183.081 105.835 183.194 104.896 183.409 103.979C183.574 103.272 183.933 102.625 184.445 102.11C184.608 101.94 184.804 101.805 185.02 101.711C185.236 101.618 185.469 101.568 185.705 101.566C186.177 101.549 186.648 101.627 187.09 101.794C187.531 101.962 187.935 102.216 188.278 102.542C188.958 103.161 189.527 103.894 189.958 104.707C190.305 105.37 190.613 106.054 190.88 106.753C191.087 107.25 191.046 107.8 191.3 108.315Z" fill="#FFE4E2"/>
<path d="M15.0957 78.5684C11.7925 77.2436 8.86977 75.1199 6.58938 72.3876C6.40377 72.1738 6.2251 71.9438 6.02944 71.7386C4.82308 70.4367 3.9781 68.8419 3.57832 67.1126C3.32292 66.2029 3.28647 65.2457 3.47197 64.3192C3.65746 63.3928 4.05962 62.5234 4.64555 61.7822C6.22987 59.73 8.38768 59.0972 10.829 59.1439C12.2985 59.2042 13.7552 59.4427 15.1671 59.8542C15.3553 59.9224 15.5502 59.9707 15.7486 59.9982C16.3491 60.0217 17.0203 60.2873 17.5204 59.8056C18.1783 59.3069 18.628 58.5819 18.7824 57.7709C18.9966 55.934 19.2706 54.1225 19.5229 52.3018C19.6278 51.4513 19.8432 50.6182 20.1636 49.8234C20.4704 48.9928 21.0301 48.2795 21.7639 47.7839C22.4976 47.2883 23.3684 47.0355 24.2534 47.0612C25.6955 46.9981 27.1202 47.3957 28.3211 48.1965C30.4759 49.6504 32.2408 51.6109 33.4611 53.906C34.4573 55.6092 35.1493 57.4729 35.506 59.4135C35.9089 61.6756 35.8779 63.9937 35.4149 66.2442C35.1149 67.851 34.6309 69.418 33.9725 70.9141C32.6036 73.7003 30.8101 76.1392 28.1396 77.8588C25.7558 79.4101 22.9232 80.1229 20.0891 79.8846C18.3539 79.7809 16.6566 79.3335 15.0957 78.5684Z" fill="#FFE4E2"/>
<path d="M58.1936 23.4292C58.9039 24.7625 59.5921 26.1234 60.2571 27.4656C60.5224 27.9753 60.8867 28.4269 61.3288 28.7939C61.3933 28.8613 61.4739 28.9112 61.563 28.9389C61.6522 28.9665 61.7469 28.9711 61.8382 28.9521C61.9296 28.933 62.0146 28.8911 62.0853 28.8301C62.156 28.7692 62.21 28.6913 62.2423 28.6037C62.5052 28.1359 62.6154 27.5976 62.5572 27.0641C62.4764 26.2953 62.2783 25.5433 61.9698 24.8344C61.5557 23.9911 61.1611 23.1331 60.7055 22.2942C60.0368 21.0289 59.4555 19.7193 58.9657 18.3746C58.8701 18.105 58.8049 17.8256 58.7715 17.5415C58.6741 17.1509 58.6798 16.7418 58.7881 16.3541C58.8963 15.9665 59.1033 15.6135 59.3889 15.3299C59.6744 15.0462 60.0287 14.8416 60.4171 14.736C60.8055 14.6304 61.2146 14.6274 61.6045 14.7274C62.5354 14.8854 63.4235 15.2344 64.2128 15.7526C65.9411 16.931 67.4484 18.4045 68.6658 20.1057C69.2034 20.7728 69.6585 21.5024 70.0212 22.2786C70.3542 23.0716 70.7399 23.8465 71.0118 24.6587C71.657 26.3898 71.9429 28.2342 71.852 30.0794C71.7016 32.4226 71.076 34.7107 70.0133 36.8044C69.4685 37.7928 68.6328 38.5897 67.6197 39.0871C66.6066 39.5844 65.465 39.7581 64.3499 39.5846C61.724 39.104 59.2233 38.0948 56.9995 36.6181C54.5042 34.976 52.3072 32.9205 50.5028 30.54C50.0481 29.9625 49.6307 29.3566 49.253 28.726C48.6146 27.6333 47.8808 26.5928 47.3341 25.4524C46.2983 23.3446 45.905 20.9789 46.2031 18.6493C46.2608 17.8654 46.53 17.1118 46.982 16.4687C47.434 15.8256 48.0518 15.317 48.7699 14.9972C49.3389 14.7116 49.9736 14.5821 50.609 14.6221C51.2444 14.6621 51.8578 14.8701 52.3866 15.2247C53.4032 15.9174 54.2946 16.7781 55.0226 17.7697C56.3596 19.4945 57.1854 21.5137 58.1936 23.4292Z" fill="#E6F6E7"/>
<path d="M196.374 22.3044C198.098 23.1661 199.599 24.414 200.761 25.9509C201.427 26.8381 201.968 27.8126 202.37 28.8471C203.377 31.1983 203.625 33.8054 203.079 36.3044C202.7 38.648 201.915 40.9075 200.759 42.9814C199.4 45.3711 197.59 47.4738 195.43 49.1726C194.328 50.0232 193.118 50.7235 191.831 51.255C190.458 51.8305 188.924 51.8983 187.505 51.4461C185.865 50.9444 184.67 49.8493 183.497 48.7127C181.977 47.1683 180.655 45.4399 179.563 43.5679C177.777 40.5709 176.265 37.4195 175.043 34.1517C174.538 32.853 173.936 31.5959 173.557 30.2513C173.351 29.4589 173.243 28.6446 173.233 27.8261C173.222 27.1703 173.355 26.52 173.62 25.9204C173.886 25.3208 174.279 24.7862 174.773 24.3539C175.593 23.5386 176.61 22.9486 177.725 22.6407C177.845 22.612 177.963 22.5772 178.078 22.5365C180.474 21.6823 182.97 21.1392 185.504 20.9206C187.539 20.6416 189.599 20.5925 191.644 20.7742C193.313 20.9355 194.927 21.4577 196.374 22.3044Z" fill="#D2D9FF"/>
<path d="M223.051 78.6526C219.676 81.0533 215.842 82.0442 211.765 82.3065C210.943 82.3578 210.118 82.2926 209.314 82.1128C208.381 81.9351 207.519 81.4954 206.827 80.8453C206.135 80.1951 205.642 79.3613 205.407 78.4415C205.055 77.3441 204.946 76.1834 205.087 75.0396C205.228 73.8958 205.615 72.7962 206.222 71.8168C206.937 70.614 207.814 69.5152 208.828 68.5511C211.306 66.228 213.627 63.7466 215.912 61.2326C217.101 59.9299 218.393 58.7256 219.776 57.6314C221.578 56.2326 223.761 55.4125 226.039 55.279C227.101 55.1877 228.171 55.2431 229.219 55.4437C230.195 55.6105 231.11 56.0293 231.875 56.6587C232.639 57.288 233.226 58.1061 233.577 59.0319C233.86 59.6702 234.048 60.3468 234.133 61.0399C234.562 63.9141 233.962 66.8473 232.439 69.322C231.501 70.7731 230.416 72.1233 229.2 73.3511C227.338 75.3243 225.277 77.1008 223.051 78.6526ZM219.76 74.2443C220.51 73.7314 221.226 73.1715 221.904 72.5678C223.408 71.176 224.822 69.6896 226.137 68.1178C226.814 67.3483 227.441 66.5362 228.014 65.6867C228.403 65.1548 228.666 64.5406 228.78 63.8914C228.895 63.2422 228.859 62.5753 228.676 61.9421C228.536 61.3999 228.213 60.9229 227.761 60.5928C227.309 60.2626 226.756 60.1 226.197 60.1326C225.659 60.1369 225.127 60.253 224.636 60.4733C223.238 61.0778 221.98 61.9638 220.94 63.0761C218.957 65.2651 216.83 67.3155 214.651 69.3005C213.449 70.3585 212.381 71.5593 211.47 72.8764C211.037 73.476 210.741 74.1632 210.603 74.8897C210.522 75.1955 210.516 75.5161 210.585 75.8249C210.653 76.1336 210.794 76.4216 210.996 76.6649C211.198 76.9082 211.455 77.0998 211.746 77.2237C212.037 77.3477 212.353 77.4004 212.669 77.3776C213.367 77.3824 214.06 77.2535 214.711 76.9979C216.506 76.2983 218.205 75.3718 219.765 74.2409L219.76 74.2443Z" fill="#FFEDCC"/>
</svg>
