<svg width="239" height="155" viewBox="0 0 239 155" fill="none" xmlns="http://www.w3.org/2000/svg">
<ellipse cx="114" cy="137" rx="77" ry="18" fill="#D2D9FF"/>
<path d="M144.845 124.246L172.164 125.748L171.676 116" stroke="black" stroke-width="1.5"/>
<path d="M62.1432 103.236C62.1106 118.892 80.5974 149.995 114.05 146.892C147.503 143.788 157.731 118.567 158.194 99.4559C158.689 79.0489 142.446 68.1427 140.735 52.4439C140.008 45.766 139.55 38.5589 136.369 31.6862C132.229 21.3286 121.006 14.3249 108.295 14.4104C92.3244 14.5177 81.782 23.206 77.9843 32.6667C74.8195 40.5506 75.3966 45.9594 74.8503 53.5323C73.3601 74.192 62.2014 75.334 62.1432 103.236Z" stroke="black" stroke-width="1.5"/>
<path d="M66.5198 101.353C66.4933 115.568 83.338 143.814 113.807 141.003C144.277 138.192 152.866 115.293 153.284 97.9401C153.731 79.4106 139.655 69.5044 138.094 55.2495C137.429 49.1859 137.011 42.6417 134.112 36.4007C130.339 26.995 120.116 20.6334 108.538 20.7084C93.9915 20.8026 84.391 28.6894 80.9338 37.279C78.0529 44.4369 78.5796 49.3482 78.0836 56.2243C76.7305 74.9831 66.5671 76.0177 66.5198 101.353Z" fill="#296107"/>
<path d="M72.4149 102.623C72.5861 116.398 88.6742 143.455 117.032 140.167C145.39 136.88 153.744 115.252 153.901 97.6973C154.078 77.9803 140.136 70.41 138.484 56.6266C137.781 50.7635 137.262 43.9153 134.474 37.9217C130.828 28.8779 121.252 23.4178 110.463 23.7047C96.9074 24.0653 88.0687 31.8849 84.9652 40.2718C82.3789 47.2608 82.9375 52.0099 82.57 58.6817C81.5675 76.8831 72.1097 78.0738 72.4149 102.623Z" fill="#C2ECA8"/>
<path d="M72.4141 102.623C72.5853 116.398 88.6735 143.455 117.031 140.167C102.775 138.243 80.7891 132.692 76.6494 102.623C74.3118 85.644 86.7955 73.8006 86.0545 58.682C85.7062 51.5751 85.7062 43.147 90.2345 35.832C93.8572 29.9799 102.078 24.6852 110.462 23.7051C96.9067 24.0656 88.068 31.8852 84.9644 40.2721C82.3781 47.2611 82.9367 52.0102 82.5692 58.682C81.5668 76.8834 72.109 78.0741 72.4141 102.623Z" fill="#A6D489"/>
<path d="M125.204 124.792C132.599 124.734 147.324 117.336 144.087 100.729C140.85 84.1214 129.517 80.5793 124.542 80.6935C118.323 80.8362 106.201 90.0136 106.017 103.895C105.817 118.959 117.809 124.85 125.204 124.792Z" fill="#75452F"/>
<path d="M126.643 120.066C132.451 120.021 144.014 114.211 141.472 101.169C138.93 88.1274 130.03 85.3457 126.123 85.4354C121.239 85.5475 111.72 92.7545 111.575 103.656C111.418 115.485 120.836 120.112 126.643 120.066Z" fill="#8B5338"/>
<path d="M128.977 112.715C131.687 112.375 136.803 108.414 134.974 101.063C133.145 93.7121 128.85 92.5959 127.03 92.8585C124.754 93.1868 120.662 97.8395 121.131 104.107C121.64 110.907 126.266 113.055 128.977 112.715Z" fill="#A75E3D"/>
<path d="M108.192 53.644C108.361 54.4145 108.177 56.0691 106.097 56.5234C104.016 56.9778 103.197 55.7215 103.047 55.0366" stroke="black" stroke-width="1.5"/>
<path d="M126.81 50.1835C126.978 50.954 126.794 52.6087 124.714 53.063C122.633 53.5173 121.814 52.261 121.665 51.5761" stroke="black" stroke-width="1.5"/>
<path d="M122.273 60.9575C121.612 61.8556 120.558 62.5162 118.511 62.8268C116.464 63.1374 115.821 62.5349 114.953 62.0685" stroke="black" stroke-width="1.5"/>
<path d="M114.795 58.3336C115.25 59.1075 115.912 60.6927 115.395 62.2883C114.706 64.4157 112.59 64.9056 111.741 64.8658" stroke="black" stroke-width="1.5" stroke-linejoin="bevel"/>
<path d="M113.941 42.364C115.158 41.1822 117.378 37.4151 116.526 31.8007C115.461 24.7829 111.216 22.4356 107.078 22.7644C102.94 23.0932 99.919 26.8423 99.9998 31.3172C100.081 35.7921 101.313 37.9983 103.36 37.6877C105.407 37.3771 107.054 34.4347 105.919 28.9233C104.783 23.4118 100.455 19.9369 98.2248 19.6207C95.1676 19.1872 93.6585 20.4134 92.4653 21.093" stroke="black" stroke-width="1.5"/>
<path d="M107.17 136.05L151.222 143.919L153.16 134.353" stroke="black" stroke-width="1.5"/>
<path d="M134.17 62.9528C166.872 62.936 162.843 76.3577 144.403 81.4253" stroke="black" stroke-width="1.5"/>
<path d="M123.5 103.5C102.5 106.5 89.0006 94 86.8241 78.8306" stroke="black" stroke-width="1.5"/>
<ellipse cx="22.4939" cy="5.32635" rx="3.25336" ry="4.4364" transform="rotate(-50.7528 22.4939 5.32635)" fill="#E6F6E7"/>
<ellipse cx="219.162" cy="10.495" rx="3.25336" ry="4.4364" transform="rotate(-146.469 219.162 10.495)" fill="#D2D9FF"/>
<ellipse cx="60.1625" cy="69.495" rx="3.25336" ry="4.4364" transform="rotate(-146.469 60.1625 69.495)" fill="#FFEDCC"/>
<path d="M24.6277 45.9097C26.1076 46.8823 27.3984 48.1157 28.4372 49.5498C29.2199 50.5226 29.9344 51.5484 30.5756 52.6197C31.3628 53.9941 32.0048 55.4466 32.4914 56.9538C32.7453 57.7496 32.9265 58.5669 33.1015 59.3726C33.2923 60.3485 33.3871 61.3406 33.3845 62.3349C33.405 63.9477 33.2193 65.5566 32.8319 67.1223C32.7862 67.3399 32.7223 67.5533 32.6408 67.7602C32.3595 68.4236 32.126 69.1062 31.9422 69.8029C31.6899 70.8021 31.2353 71.7389 30.6064 72.5554C29.8733 73.5715 28.9199 74.4087 27.8176 75.0044C27.3659 75.2261 26.8612 75.3171 26.3604 75.267C25.8621 75.2014 25.3901 75.0047 24.9927 74.697C24.5952 74.3893 24.2866 73.9816 24.0983 73.5156C23.6712 72.6074 23.46 71.6127 23.4811 70.6092C23.4711 68.9372 23.6112 67.2677 23.8998 65.6208C24.1226 64.2631 24.5279 62.9746 24.7669 61.6352C24.8487 61.2555 24.8645 60.8645 24.8136 60.4793C24.8063 60.4164 24.7839 60.3562 24.7481 60.3039C24.7124 60.2516 24.6645 60.2088 24.6086 60.1791C24.5526 60.1495 24.4903 60.1339 24.4269 60.1337C24.3636 60.1335 24.3012 60.1487 24.245 60.178C23.9864 60.2844 23.7622 60.4601 23.597 60.6858C23.1776 61.2476 22.8626 61.8801 22.667 62.5534C22.4069 63.3738 22.1515 64.1975 21.9486 65.0289C21.7397 65.9486 21.4479 66.8476 21.0768 67.7147C20.7462 68.546 20.1951 69.2713 19.4828 69.8125C19.0584 70.1279 18.5477 70.3059 18.0192 70.3227C17.6419 70.3433 17.2672 70.2483 16.9452 70.0504C16.6233 69.8525 16.3694 69.5611 16.2174 69.2151C15.8633 68.5223 15.6544 67.7645 15.6036 66.9882C15.4882 64.9294 15.6552 62.8645 16.1 60.8509C16.3471 59.8526 16.5049 58.8342 16.5716 57.8079C16.6009 57.5577 16.5869 57.3043 16.5302 57.0589C16.519 57.0186 16.4989 56.9813 16.4713 56.9499C16.4437 56.9185 16.4095 56.8937 16.371 56.8773C16.3325 56.861 16.2908 56.8535 16.2491 56.8555C16.2073 56.8575 16.1665 56.8689 16.1298 56.8888C15.6144 57.1697 15.1905 57.5927 14.9086 58.1076C14.3029 59.3217 13.7525 60.5599 13.0997 61.7486C12.5564 62.8474 11.781 63.8151 10.827 64.5849C10.1275 65.0977 9.28631 65.3814 8.41906 65.397C8.05475 65.4118 7.69178 65.3446 7.35688 65.2005C7.02197 65.0564 6.72368 64.8389 6.48397 64.5642C6.06314 64.1201 5.73011 63.6004 5.50247 63.0325C5.079 61.8857 4.84548 60.6774 4.81113 59.4553C4.76046 58.4862 4.78287 57.5147 4.87818 56.549C5.05393 55.0305 5.4334 53.5426 6.00635 52.1254C6.41096 51.1234 6.92791 50.1705 7.54729 49.285C8.3401 48.1429 9.33885 47.1587 10.4924 46.3828C11.6897 45.5367 12.9885 44.8443 14.3583 44.3219C15.4305 43.9313 16.5526 43.6947 17.6912 43.6193C18.5215 43.5716 19.3538 43.6629 20.1539 43.8896C21.7732 44.2331 23.2993 44.9221 24.6277 45.9097Z" fill="#D2D9FF"/>
<path d="M208.3 104.751C208.389 104.729 208.472 104.687 208.542 104.627C208.612 104.568 208.667 104.493 208.703 104.408C209.278 103.433 209.967 102.53 210.755 101.717C211.28 101.188 211.878 100.736 212.53 100.374C212.979 100.093 213.486 99.9186 214.013 99.8643C214.541 99.8099 215.073 99.8771 215.57 100.061C215.99 100.217 216.342 100.517 216.564 100.907C216.994 101.62 217.217 102.439 217.209 103.273C217.209 103.693 217.209 104.107 217.209 104.527C217.219 105.129 217.129 105.729 216.942 106.301C216.68 107.44 216.239 108.53 215.635 109.531C215.624 109.555 215.618 109.581 215.618 109.608C215.618 109.634 215.624 109.661 215.635 109.685C215.654 109.721 215.686 109.748 215.725 109.761C215.763 109.774 215.805 109.772 215.842 109.756L217.688 109.265C218.964 108.989 220.274 108.908 221.574 109.022C222.015 109.07 222.449 109.165 222.869 109.306C223.18 109.385 223.47 109.529 223.721 109.728C223.972 109.927 224.178 110.177 224.326 110.461C224.474 110.745 224.561 111.057 224.58 111.377C224.599 111.697 224.55 112.017 224.437 112.317C224.182 113.168 223.723 113.943 223.1 114.577C222.355 115.325 221.497 115.952 220.557 116.434C219.148 117.151 217.698 117.785 216.215 118.333C215.464 118.629 214.742 118.983 214.003 119.297C212.494 119.936 210.974 120.533 209.43 121.072C209.324 121.107 209.223 121.148 209.117 121.178C208.966 121.214 208.83 121.294 208.724 121.408C208.619 121.522 208.55 121.664 208.525 121.817C208.318 122.71 208.093 123.591 207.863 124.479C207.727 125.017 207.561 125.543 207.419 126.082C207.378 126.23 207.301 126.395 207.466 126.567C207.809 126.301 208.158 126.04 208.501 125.762C209.467 124.969 210.514 124.281 211.625 123.71C212.694 123.18 213.84 122.821 215.02 122.645C215.593 122.553 216.172 122.501 216.753 122.491C216.952 122.492 217.151 122.47 217.345 122.426C217.694 122.32 218.066 122.32 218.415 122.426C218.767 122.513 219.132 122.535 219.492 122.491C220.09 122.507 220.684 122.585 221.266 122.722C221.431 122.753 221.592 122.803 221.746 122.87C221.876 122.901 221.997 122.962 222.099 123.048C222.202 123.134 222.283 123.243 222.337 123.365C222.391 123.488 222.415 123.621 222.409 123.754C222.403 123.888 222.366 124.019 222.302 124.136C222.252 124.265 222.184 124.386 222.1 124.496C221.385 125.446 220.555 126.302 219.628 127.046C217.493 128.556 215.061 129.594 212.494 130.092C212.032 130.184 211.563 130.231 211.092 130.234C210.595 130.234 210.093 130.234 209.59 130.234C208.649 130.216 207.71 130.133 206.78 129.986C206.419 129.986 206.36 129.986 206.254 130.329C206.029 131.068 205.822 131.819 205.556 132.547C205.37 133.193 205.005 133.774 204.503 134.221C204.278 134.404 204.106 134.363 204.006 134.079C203.863 133.654 203.853 133.196 203.976 132.766C204.207 131.879 204.438 130.991 204.698 130.122C205.443 127.626 206.165 125.123 206.798 122.598C206.887 122.249 206.969 121.9 207.04 121.551C207.111 121.202 207.04 121.018 206.697 120.9C206.354 120.782 205.964 120.657 205.591 120.551C203.547 120.013 201.579 119.218 199.735 118.185C198.268 117.33 196.979 116.202 195.938 114.861C195.21 113.95 194.567 112.976 194.015 111.95C193.634 111.244 193.344 110.493 193.152 109.714C192.881 108.74 192.975 107.701 193.418 106.792C193.619 106.378 193.928 106.026 194.314 105.774C194.699 105.522 195.146 105.379 195.606 105.361C197.003 105.302 198.382 105.687 199.546 106.461C199.67 106.526 199.782 106.609 199.907 106.662C199.939 106.673 199.974 106.676 200.008 106.67C200.041 106.664 200.073 106.65 200.1 106.629C200.127 106.608 200.148 106.58 200.162 106.549C200.176 106.518 200.182 106.483 200.179 106.449C200.022 105.378 199.987 104.293 200.072 103.214C200.081 102.271 200.194 101.333 200.409 100.416C200.574 99.7086 200.933 99.0613 201.445 98.5464C201.608 98.3766 201.804 98.241 202.02 98.1476C202.236 98.0542 202.469 98.0048 202.705 98.0022C203.177 97.9854 203.648 98.0631 204.09 98.2307C204.531 98.3983 204.935 98.6525 205.278 98.9783C205.958 99.5976 206.527 100.33 206.958 101.143C207.305 101.807 207.613 102.49 207.88 103.19C208.087 103.687 208.046 104.237 208.3 104.751Z" fill="#FFE4E2"/>
<path d="M16.0957 126.005C12.7925 124.68 9.86977 122.556 7.58938 119.824C7.40377 119.61 7.2251 119.38 7.02944 119.175C5.82308 117.873 4.9781 116.278 4.57832 114.549C4.32292 113.639 4.28647 112.682 4.47197 111.756C4.65746 110.829 5.05962 109.96 5.64555 109.219C7.22987 107.167 9.38768 106.534 11.829 106.58C13.2985 106.641 14.7552 106.879 16.1671 107.291C16.3553 107.359 16.5502 107.407 16.7486 107.435C17.3491 107.458 18.0203 107.724 18.5204 107.242C19.1783 106.743 19.628 106.018 19.7824 105.207C19.9966 103.371 20.2706 101.559 20.5229 99.7383C20.6278 98.8879 20.8432 98.0547 21.1636 97.26C21.4704 96.4294 22.0301 95.716 22.7639 95.2204C23.4976 94.7249 24.3684 94.4721 25.2534 94.4977C26.6955 94.4346 28.1202 94.8322 29.3211 95.633C31.4759 97.0869 33.2408 99.0474 34.4611 101.343C35.4573 103.046 36.1493 104.909 36.506 106.85C36.9089 109.112 36.8779 111.43 36.4149 113.681C36.1149 115.288 35.6309 116.855 34.9725 118.351C33.6036 121.137 31.8101 123.576 29.1396 125.295C26.7558 126.847 23.9232 127.559 21.0891 127.321C19.3539 127.217 17.6566 126.77 16.0957 126.005Z" fill="#FFE4E2"/>
<path d="M57.1936 21.8658C57.9039 23.199 58.5921 24.5599 59.2571 25.9022C59.5224 26.4118 59.8867 26.8634 60.3288 27.2305C60.3933 27.2979 60.4739 27.3477 60.563 27.3754C60.6522 27.4031 60.7469 27.4076 60.8382 27.3886C60.9296 27.3696 61.0146 27.3276 61.0853 27.2667C61.156 27.2057 61.21 27.1278 61.2423 27.0403C61.5052 26.5725 61.6154 26.0342 61.5572 25.5007C61.4764 24.7318 61.2783 23.9798 60.9698 23.2709C60.5557 22.4276 60.1611 21.5696 59.7055 20.7307C59.0368 19.4654 58.4555 18.1559 57.9657 16.8112C57.8701 16.5415 57.8049 16.2621 57.7715 15.978C57.6741 15.5875 57.6798 15.1783 57.7881 14.7907C57.8963 14.403 58.1033 14.0501 58.3889 13.7664C58.6744 13.4828 59.0287 13.2781 59.4171 13.1725C59.8055 13.0669 60.2146 13.0639 60.6045 13.1639C61.5354 13.3219 62.4235 13.671 63.2128 14.1891C64.9411 15.3676 66.4484 16.8411 67.6658 18.5422C68.2034 19.2093 68.6585 19.9389 69.0212 20.7151C69.3542 21.5082 69.7399 22.283 70.0118 23.0952C70.657 24.8264 70.9429 26.6707 70.852 28.5159C70.7016 30.8591 70.076 33.1472 69.0133 35.241C68.4685 36.2294 67.6328 37.0263 66.6197 37.5236C65.6066 38.0209 64.465 38.1946 63.3499 38.0211C60.724 37.5405 58.2233 36.5313 55.9995 35.0546C53.5042 33.4125 51.3072 31.3571 49.5028 28.9766C49.0481 28.399 48.6307 27.7931 48.253 27.1625C47.6146 26.0698 46.8808 25.0293 46.3341 23.8889C45.2983 21.7811 44.905 19.4154 45.2031 17.0859C45.2608 16.3019 45.53 15.5483 45.982 14.9052C46.434 14.2621 47.0518 13.7535 47.7699 13.4337C48.3389 13.1481 48.9736 13.0187 49.609 13.0587C50.2444 13.0986 50.8578 13.3066 51.3866 13.6612C52.4032 14.354 53.2946 15.2146 54.0226 16.2062C55.3596 17.931 56.1854 19.9502 57.1936 21.8658Z" fill="#E6F6E7"/>
<path d="M195.374 20.741C197.098 21.6027 198.599 22.8506 199.761 24.3874C200.427 25.2746 200.968 26.2491 201.37 27.2836C202.377 29.6348 202.625 32.2419 202.079 34.7409C201.7 37.0845 200.915 39.3441 199.759 41.4179C198.4 43.8076 196.59 45.9104 194.43 47.6091C193.328 48.4597 192.118 49.16 190.831 49.6916C189.458 50.2671 187.924 50.3348 186.505 49.8826C184.865 49.3809 183.67 48.2858 182.497 47.1492C180.977 45.6048 179.655 43.8765 178.563 42.0044C176.777 39.0074 175.265 35.856 174.043 32.5882C173.538 31.2895 172.936 30.0325 172.557 28.6879C172.351 27.8955 172.243 27.0811 172.233 26.2626C172.222 25.6068 172.355 24.9565 172.62 24.3569C172.886 23.7573 173.279 23.2227 173.773 22.7904C174.593 21.9751 175.61 21.3851 176.725 21.0772C176.845 21.0485 176.963 21.0138 177.078 20.973C179.474 20.1188 181.97 19.5757 184.504 19.3572C186.539 19.0781 188.599 19.029 190.644 19.2107C192.313 19.372 193.927 19.8942 195.374 20.741Z" fill="#E6F6E7"/>
<path d="M222.051 77.0891C218.676 79.4898 214.842 80.4807 210.765 80.743C209.943 80.7943 209.118 80.7291 208.314 80.5493C207.381 80.3716 206.519 79.932 205.827 79.2818C205.135 78.6316 204.642 77.7979 204.407 76.878C204.055 75.7806 203.946 74.6199 204.087 73.4761C204.228 72.3324 204.615 71.2328 205.222 70.2533C205.937 69.0505 206.814 67.9517 207.828 66.9877C210.306 64.6645 212.627 62.1831 214.912 59.6692C216.101 58.3664 217.393 57.1621 218.776 56.0679C220.578 54.6691 222.761 53.849 225.039 53.7155C226.101 53.6242 227.171 53.6796 228.219 53.8802C229.195 54.047 230.11 54.4658 230.875 55.0952C231.639 55.7246 232.226 56.5426 232.577 57.4684C232.86 58.1067 233.048 58.7834 233.133 59.4765C233.562 62.3506 232.962 65.2839 231.439 67.7585C230.501 69.2096 229.416 70.5598 228.2 71.7876C226.338 73.7608 224.277 75.5373 222.051 77.0891ZM218.76 72.6808C219.51 72.1679 220.226 71.608 220.904 71.0044C222.408 69.6125 223.822 68.1261 225.137 66.5543C225.814 65.7848 226.441 64.9728 227.014 64.1232C227.403 63.5913 227.666 62.9771 227.78 62.3279C227.895 61.6787 227.859 61.0118 227.676 60.3786C227.536 59.8364 227.213 59.3594 226.761 59.0293C226.309 58.6992 225.756 58.5365 225.197 58.5691C224.659 58.5735 224.127 58.6895 223.636 58.9099C222.238 59.5143 220.98 60.4003 219.94 61.5127C217.957 63.7016 215.83 65.752 213.651 67.737C212.449 68.795 211.381 69.9959 210.47 71.3129C210.037 71.9125 209.741 72.5998 209.603 73.3262C209.522 73.632 209.516 73.9526 209.585 74.2614C209.653 74.5701 209.794 74.8581 209.996 75.1014C210.198 75.3447 210.455 75.5363 210.746 75.6603C211.037 75.7842 211.353 75.837 211.669 75.8141C212.367 75.8189 213.06 75.69 213.711 75.4344C215.506 74.7348 217.205 73.8083 218.765 72.6775L218.76 72.6808Z" fill="#FFEDCC"/>
<path d="M129.474 71.0235L120.641 64.0073L135.791 65.3148L129.474 71.0235Z" fill="#81D4FA"/>
<path d="M129.474 71.0235L120.641 64.0073C121.734 63.7716 124.309 62.9873 127.04 60.7973C129.536 58.795 130.574 56.6801 130.781 55.8729L136.104 65.7048L129.474 71.0235Z" stroke="black" stroke-width="1.5" stroke-linejoin="bevel"/>
<path d="M130.562 55.9868C130.562 55.9868 130.562 55.9873 130.562 55.9883L130.562 55.9868ZM130.317 56.0446C130.44 56.0345 130.518 56.0399 130.565 56.0475C130.562 56.0944 130.55 56.1717 130.514 56.2895C130.42 56.5913 130.204 57.0065 129.846 57.5126C129.135 58.5162 127.963 59.7366 126.494 60.9153C125.025 62.094 123.579 62.9727 122.445 63.4491C121.873 63.6894 121.421 63.81 121.106 63.8359C120.983 63.846 120.905 63.8406 120.859 63.833C120.862 63.7861 120.873 63.7088 120.91 63.591C121.003 63.2892 121.219 62.874 121.578 62.3679C122.289 61.3643 123.46 60.1439 124.93 58.9652C126.399 57.7865 127.844 56.9078 128.978 56.4314C129.55 56.1911 130.002 56.0705 130.317 56.0446ZM120.8 63.8171C120.8 63.8171 120.801 63.8174 120.802 63.8179L120.8 63.8171ZM120.862 63.8937C120.862 63.8937 120.862 63.8932 120.861 63.8922L120.862 63.8937ZM130.622 56.0626C130.623 56.0631 130.623 56.0633 130.623 56.0634L130.622 56.0626Z" stroke="black" stroke-width="1.5"/>
</svg>
