<svg width="30" height="33" viewBox="0 0 30 33" fill="none" xmlns="http://www.w3.org/2000/svg">
<circle cx="15" cy="17.0347" r="14.5" stroke="black"/>
<circle cx="15.0004" cy="17.0345" r="12.931" fill="#296107"/>
<circle cx="14.4831" cy="17.552" r="12.4138" fill="#C2ECA8"/>
<path d="M9.03223 19.7515C9.03223 19.379 9.28372 18.6338 10.2897 18.6338C11.2957 18.6338 11.5472 19.2962 11.5472 19.6274" stroke="black"/>
<path d="M17.5869 19.7515C17.5869 19.379 17.8384 18.6338 18.8444 18.6338C19.8504 18.6338 20.1019 19.2962 20.1019 19.6274" stroke="black"/>
<path d="M14.4833 22.2067C13.0351 22.2067 12.2156 21.9481 11.3799 21.6895C11.3799 23.7584 13.242 24.7929 14.4833 24.7929C15.7247 24.7929 17.5868 23.7584 17.5868 21.6895C17.0351 21.9481 15.9316 22.2067 14.4833 22.2067Z" fill="black"/>
<path d="M14.2852 12.9051C13.6332 12.4394 12.3291 10.8373 12.3291 8.15465C12.3291 4.80138 14.1455 3.40418 16.1015 3.26446C18.0576 3.12474 19.7342 4.66167 20.0137 6.75746C20.2931 8.85325 19.874 9.97102 18.8959 9.97102C17.9179 9.97101 16.9399 8.71354 17.0796 6.05887C17.2193 3.40419 18.9945 1.47443 20.0137 1.16867C21.4109 0.749515 22.2026 1.21524 22.8081 1.44811" stroke="black"/>
</svg>
