<?xml version="1.0" standalone="no"?>
<!DOCTYPE svg PUBLIC "-//W3C//DTD SVG 20010904//EN"
 "http://www.w3.org/TR/2001/REC-SVG-20010904/DTD/svg10.dtd">
<svg version="1.0" xmlns="http://www.w3.org/2000/svg"
 width="256.000000pt" height="256.000000pt" viewBox="0 0 256.000000 256.000000"
 preserveAspectRatio="xMidYMid meet">

<g transform="translate(0.000000,256.000000) scale(0.100000,-0.100000)"
fill="#000000" stroke="none">
<path d="M309 2546 c-149 -42 -266 -165 -298 -314 -16 -74 -16 -1830 0 -1904
33 -156 162 -284 317 -317 73 -15 932 -15 1004 0 154 33 272 147 313 304 21
83 21 393 0 439 -29 60 -103 83 -165 51 -53 -27 -60 -56 -60 -242 0 -92 -5
-184 -10 -203 -11 -41 -61 -94 -103 -109 -39 -15 -915 -15 -954 0 -38 14 -83
57 -99 96 -12 27 -14 190 -14 932 0 611 3 909 11 928 14 38 57 83 96 99 41 18
914 21 960 3 42 -15 92 -68 103 -109 5 -19 10 -102 10 -183 0 -164 8 -195 60
-222 62 -32 136 -10 164 49 22 47 23 315 1 401 -41 157 -159 271 -313 304 -78
16 -961 14 -1023 -3z"/>
<path d="M1952 1810 c-41 -25 -66 -80 -56 -124 4 -22 43 -68 132 -158 l126
-127 -548 -3 -548 -3 -29 -32 c-51 -58 -51 -108 0 -166 l29 -32 546 -5 546 -5
-116 -115 c-152 -151 -166 -179 -124 -248 27 -44 77 -67 126 -58 34 7 70 38
275 244 250 250 259 263 244 335 -6 24 -61 86 -233 259 -124 125 -240 234
-258 243 -43 20 -72 19 -112 -5z"/>
</g>
</svg>
