<svg width="239" height="173" viewBox="0 0 239 173" fill="none" xmlns="http://www.w3.org/2000/svg">
<ellipse cx="114" cy="165.5" rx="48" ry="7.5" fill="#D2D9FF"/>
<path d="M91.6594 135.924L94.8986 163.092L85.1395 163.225" stroke="black" stroke-width="1.5"/>
<path d="M166.023 111.236C166.055 126.892 147.569 157.995 114.116 154.892C80.6628 151.788 70.4353 126.567 69.972 107.456C69.4773 87.0489 85.7198 76.1427 87.4306 60.4439C88.1583 53.766 88.6162 46.5589 91.7973 39.6862C95.9368 29.3286 107.16 22.3249 119.871 22.4104C135.842 22.5177 146.384 31.206 150.182 40.6667C153.347 48.5506 152.769 53.9594 153.316 61.5323C154.806 82.192 165.965 83.334 166.023 111.236Z" stroke="black" stroke-width="1.5"/>
<path d="M161.646 109.353C161.673 123.568 144.828 151.814 114.359 149.003C83.8894 146.192 75.2998 123.293 74.8817 105.94C74.4353 87.4106 88.511 77.5044 90.0725 63.2495C90.7366 57.1859 91.1552 50.6417 94.054 44.4007C97.8266 34.995 108.05 28.6334 119.628 28.7084C134.175 28.8026 143.775 36.6894 147.232 45.279C150.113 52.4369 149.586 57.3482 150.082 64.2243C151.435 82.9831 161.599 84.0177 161.646 109.353Z" fill="#296107"/>
<path d="M155.751 110.623C155.58 124.398 139.492 151.455 111.134 148.167C82.7764 144.88 74.4216 123.252 74.2646 105.697C74.0883 85.9803 88.0303 78.41 89.682 64.6266C90.3846 58.7635 90.9044 51.9153 93.692 45.9217C97.3375 36.8779 106.914 31.4178 117.703 31.7047C131.259 32.0653 140.097 39.8849 143.201 48.2718C145.787 55.2608 145.229 60.0099 145.596 66.6817C146.598 84.8831 156.056 86.0738 155.751 110.623Z" fill="#C2ECA8"/>
<path d="M155.75 110.623C155.579 124.398 139.491 151.455 111.133 148.167C125.389 146.243 147.375 140.692 151.515 110.623C153.852 93.644 141.369 81.8006 142.11 66.682C142.458 59.5751 142.458 51.147 137.93 43.832C134.307 37.9799 126.086 32.6852 117.702 31.7051C131.257 32.0656 140.096 39.8852 143.2 48.2721C145.786 55.2611 145.227 60.0102 145.595 66.682C146.597 84.8834 156.055 86.0741 155.75 110.623Z" fill="#A6D489"/>
<path d="M102.962 132.792C95.5668 132.734 80.8424 125.336 84.0791 108.729C87.3158 92.1214 98.6494 88.5793 103.624 88.6935C109.843 88.8362 121.966 98.0136 122.149 111.895C122.349 126.959 110.357 132.85 102.962 132.792Z" fill="#75452F"/>
<path d="M101.523 128.066C95.7152 128.021 84.152 122.211 86.6938 109.169C89.2356 96.1274 98.136 93.3457 102.043 93.4354C106.927 93.5475 116.446 100.755 116.591 111.656C116.748 123.485 107.33 128.112 101.523 128.066Z" fill="#8B5338"/>
<path d="M99.1893 120.715C96.4788 120.375 91.3634 116.414 93.1924 109.063C95.0213 101.712 99.3156 100.596 101.136 100.859C103.412 101.187 107.504 105.839 107.035 112.107C106.526 118.907 101.9 121.055 99.1893 120.715Z" fill="#A75E3D"/>
<path d="M105.889 68.957C106.55 69.8551 107.604 70.5157 109.651 70.8263C111.698 71.1369 112.341 70.5345 113.209 70.068" stroke="black" stroke-width="1.5"/>
<path d="M113.367 66.3331C112.912 67.107 112.25 68.6922 112.767 70.2878C113.456 72.4152 115.573 72.9051 116.421 72.8653" stroke="black" stroke-width="1.5" stroke-linejoin="bevel"/>
<path d="M114.219 50.364C113.002 49.1822 110.782 45.4151 111.634 39.8007C112.699 32.7829 116.944 30.4356 121.082 30.7644C125.22 31.0932 128.241 34.8423 128.16 39.3172C128.08 43.7921 126.847 45.9983 124.8 45.6877C122.754 45.3771 121.106 42.4347 122.242 36.9233C123.377 31.4118 127.705 27.9369 129.935 27.6207C132.993 27.1872 134.502 28.4134 135.695 29.093" stroke="black" stroke-width="1.5"/>
<circle cx="102.484" cy="62.643" r="2.36608" transform="rotate(8.62886 102.484 62.643)" fill="black"/>
<circle cx="120.029" cy="65.3056" r="2.36608" transform="rotate(8.62886 120.029 65.3056)" fill="black"/>
<path d="M130.881 133L130.88 164.617L140.64 164.51" stroke="black" stroke-width="1.5"/>
<path d="M59.0523 59.5514C63.0332 79.1727 79.1989 84.5273 87.3615 80.2405" stroke="black" stroke-width="1.5"/>
<path d="M104.666 111.5C125.666 114.5 139.165 102 141.342 86.8306" stroke="black" stroke-width="1.5"/>
<ellipse cx="23.4939" cy="32.3263" rx="3.25336" ry="4.4364" transform="rotate(-50.7528 23.4939 32.3263)" fill="#E6F6E7"/>
<ellipse cx="206.162" cy="21.495" rx="3.25336" ry="4.4364" transform="rotate(-146.469 206.162 21.495)" fill="#D2D9FF"/>
<ellipse cx="60.1625" cy="97.4955" rx="3.25336" ry="4.4364" transform="rotate(-146.469 60.1625 97.4955)" fill="#FFEDCC"/>
<path d="M24.6277 73.9097C26.1076 74.8823 27.3984 76.1157 28.4372 77.5498C29.2199 78.5226 29.9344 79.5484 30.5756 80.6197C31.3628 81.9941 32.0048 83.4466 32.4914 84.9538C32.7453 85.7496 32.9265 86.5669 33.1015 87.3726C33.2923 88.3485 33.3871 89.3406 33.3845 90.3349C33.405 91.9477 33.2193 93.5566 32.8319 95.1223C32.7862 95.3399 32.7223 95.5533 32.6408 95.7602C32.3595 96.4236 32.126 97.1062 31.9422 97.8029C31.6899 98.8021 31.2353 99.7389 30.6064 100.555C29.8733 101.571 28.9199 102.409 27.8176 103.004C27.3659 103.226 26.8612 103.317 26.3604 103.267C25.8621 103.201 25.3901 103.005 24.9927 102.697C24.5952 102.389 24.2866 101.982 24.0983 101.516C23.6712 100.607 23.46 99.6127 23.4811 98.6092C23.4711 96.9372 23.6112 95.2677 23.8998 93.6208C24.1226 92.2631 24.5279 90.9746 24.7669 89.6352C24.8487 89.2555 24.8645 88.8645 24.8136 88.4793C24.8063 88.4164 24.7839 88.3562 24.7481 88.3039C24.7124 88.2516 24.6645 88.2088 24.6086 88.1791C24.5526 88.1495 24.4903 88.1339 24.4269 88.1337C24.3636 88.1335 24.3012 88.1487 24.245 88.178C23.9864 88.2844 23.7622 88.4601 23.597 88.6858C23.1776 89.2476 22.8626 89.8801 22.667 90.5534C22.4069 91.3738 22.1515 92.1975 21.9486 93.0289C21.7397 93.9486 21.4479 94.8476 21.0768 95.7147C20.7462 96.546 20.1951 97.2713 19.4828 97.8125C19.0584 98.1279 18.5477 98.3059 18.0192 98.3227C17.6419 98.3433 17.2672 98.2483 16.9452 98.0504C16.6233 97.8525 16.3694 97.5611 16.2174 97.2151C15.8633 96.5223 15.6544 95.7645 15.6036 94.9882C15.4882 92.9294 15.6552 90.8645 16.1 88.8509C16.3471 87.8526 16.5049 86.8342 16.5716 85.8079C16.6009 85.5577 16.5869 85.3043 16.5302 85.0589C16.519 85.0186 16.4989 84.9813 16.4713 84.9499C16.4437 84.9185 16.4095 84.8937 16.371 84.8773C16.3325 84.861 16.2908 84.8535 16.2491 84.8555C16.2073 84.8575 16.1665 84.8689 16.1298 84.8888C15.6144 85.1697 15.1905 85.5927 14.9086 86.1076C14.3029 87.3217 13.7525 88.5599 13.0997 89.7486C12.5564 90.8474 11.781 91.8151 10.827 92.5849C10.1275 93.0977 9.28631 93.3814 8.41906 93.397C8.05475 93.4118 7.69178 93.3446 7.35688 93.2005C7.02197 93.0564 6.72368 92.8389 6.48397 92.5642C6.06314 92.1201 5.73011 91.6004 5.50247 91.0325C5.079 89.8857 4.84548 88.6774 4.81113 87.4553C4.76046 86.4862 4.78287 85.5147 4.87818 84.549C5.05393 83.0305 5.4334 81.5426 6.00635 80.1254C6.41096 79.1234 6.92791 78.1705 7.54729 77.285C8.3401 76.1429 9.33885 75.1587 10.4924 74.3828C11.6897 73.5367 12.9885 72.8443 14.3583 72.3219C15.4305 71.9313 16.5526 71.6947 17.6912 71.6193C18.5215 71.5716 19.3538 71.6629 20.1539 71.8896C21.7732 72.2331 23.2993 72.9221 24.6277 73.9097Z" fill="#D2D9FF"/>
<path d="M208.3 132.751C208.389 132.729 208.472 132.687 208.542 132.627C208.612 132.568 208.667 132.493 208.703 132.408C209.278 131.433 209.967 130.53 210.755 129.717C211.28 129.188 211.878 128.736 212.53 128.374C212.979 128.093 213.486 127.919 214.013 127.864C214.541 127.81 215.073 127.877 215.57 128.061C215.99 128.217 216.342 128.517 216.564 128.907C216.994 129.62 217.217 130.439 217.209 131.273C217.209 131.693 217.209 132.107 217.209 132.527C217.219 133.129 217.129 133.729 216.942 134.301C216.68 135.44 216.239 136.53 215.635 137.531C215.624 137.555 215.618 137.581 215.618 137.608C215.618 137.634 215.624 137.661 215.635 137.685C215.654 137.721 215.686 137.748 215.725 137.761C215.763 137.774 215.805 137.772 215.842 137.756L217.688 137.265C218.964 136.989 220.274 136.908 221.574 137.022C222.015 137.07 222.449 137.165 222.869 137.306C223.18 137.385 223.47 137.529 223.721 137.728C223.972 137.927 224.178 138.177 224.326 138.461C224.474 138.745 224.561 139.057 224.58 139.377C224.599 139.697 224.55 140.017 224.437 140.317C224.182 141.168 223.723 141.943 223.1 142.577C222.355 143.325 221.497 143.952 220.557 144.434C219.148 145.151 217.698 145.785 216.215 146.333C215.464 146.629 214.742 146.983 214.003 147.297C212.494 147.936 210.974 148.533 209.43 149.072C209.324 149.107 209.223 149.148 209.117 149.178C208.966 149.214 208.83 149.294 208.724 149.408C208.619 149.522 208.55 149.664 208.525 149.817C208.318 150.71 208.093 151.591 207.863 152.479C207.727 153.017 207.561 153.543 207.419 154.082C207.378 154.23 207.301 154.395 207.466 154.567C207.809 154.301 208.158 154.04 208.501 153.762C209.467 152.969 210.514 152.281 211.625 151.71C212.694 151.18 213.84 150.821 215.02 150.645C215.593 150.553 216.172 150.501 216.753 150.491C216.952 150.492 217.151 150.47 217.345 150.426C217.694 150.32 218.066 150.32 218.415 150.426C218.767 150.513 219.132 150.535 219.492 150.491C220.09 150.507 220.684 150.585 221.266 150.722C221.431 150.753 221.592 150.803 221.746 150.87C221.876 150.901 221.997 150.962 222.099 151.048C222.202 151.134 222.283 151.243 222.337 151.365C222.391 151.488 222.415 151.621 222.409 151.754C222.403 151.888 222.366 152.019 222.302 152.136C222.252 152.265 222.184 152.386 222.1 152.496C221.385 153.446 220.555 154.302 219.628 155.046C217.493 156.556 215.061 157.594 212.494 158.092C212.032 158.184 211.563 158.231 211.092 158.234C210.595 158.234 210.093 158.234 209.59 158.234C208.649 158.216 207.71 158.133 206.78 157.986C206.419 157.986 206.36 157.986 206.254 158.329C206.029 159.068 205.822 159.819 205.556 160.547C205.37 161.193 205.005 161.774 204.503 162.221C204.278 162.404 204.106 162.363 204.006 162.079C203.863 161.654 203.853 161.196 203.976 160.766C204.207 159.879 204.438 158.991 204.698 158.122C205.443 155.626 206.165 153.123 206.798 150.598C206.887 150.249 206.969 149.9 207.04 149.551C207.111 149.202 207.04 149.018 206.697 148.9C206.354 148.782 205.964 148.657 205.591 148.551C203.547 148.013 201.579 147.218 199.735 146.185C198.268 145.33 196.979 144.202 195.938 142.861C195.21 141.95 194.567 140.976 194.015 139.95C193.634 139.244 193.344 138.493 193.152 137.714C192.881 136.74 192.975 135.701 193.418 134.792C193.619 134.378 193.928 134.026 194.314 133.774C194.699 133.522 195.146 133.379 195.606 133.361C197.003 133.302 198.382 133.687 199.546 134.461C199.67 134.526 199.782 134.609 199.907 134.662C199.939 134.673 199.974 134.676 200.008 134.67C200.041 134.664 200.073 134.65 200.1 134.629C200.127 134.608 200.148 134.58 200.162 134.549C200.176 134.518 200.182 134.483 200.179 134.449C200.022 133.378 199.987 132.293 200.072 131.214C200.081 130.271 200.194 129.333 200.409 128.416C200.574 127.709 200.933 127.061 201.445 126.546C201.608 126.377 201.804 126.241 202.02 126.148C202.236 126.054 202.469 126.005 202.705 126.002C203.177 125.985 203.648 126.063 204.09 126.231C204.531 126.398 204.935 126.652 205.278 126.978C205.958 127.598 206.527 128.33 206.958 129.143C207.305 129.807 207.613 130.49 207.88 131.19C208.087 131.687 208.046 132.237 208.3 132.751Z" fill="#FFE4E2"/>
<path d="M16.0957 154.005C12.7925 152.68 9.86977 150.556 7.58938 147.824C7.40377 147.61 7.2251 147.38 7.02944 147.175C5.82308 145.873 4.9781 144.278 4.57832 142.549C4.32292 141.639 4.28647 140.682 4.47197 139.756C4.65746 138.829 5.05962 137.96 5.64555 137.219C7.22987 135.167 9.38768 134.534 11.829 134.58C13.2985 134.641 14.7552 134.879 16.1671 135.291C16.3553 135.359 16.5502 135.407 16.7486 135.435C17.3491 135.458 18.0203 135.724 18.5204 135.242C19.1783 134.743 19.628 134.018 19.7824 133.207C19.9966 131.371 20.2706 129.559 20.5229 127.738C20.6278 126.888 20.8432 126.055 21.1636 125.26C21.4704 124.429 22.0301 123.716 22.7639 123.22C23.4976 122.725 24.3684 122.472 25.2534 122.498C26.6955 122.435 28.1202 122.832 29.3211 123.633C31.4759 125.087 33.2408 127.047 34.4611 129.343C35.4573 131.046 36.1493 132.909 36.506 134.85C36.9089 137.112 36.8779 139.43 36.4149 141.681C36.1149 143.288 35.6309 144.855 34.9725 146.351C33.6036 149.137 31.8101 151.576 29.1396 153.295C26.7558 154.847 23.9232 155.559 21.0891 155.321C19.3539 155.217 17.6566 154.77 16.0957 154.005Z" fill="#FFE4E2"/>
<path d="M67.1936 15.8658C67.9039 17.199 68.5921 18.5599 69.2571 19.9022C69.5224 20.4118 69.8867 20.8634 70.3288 21.2305C70.3933 21.2979 70.4739 21.3477 70.563 21.3754C70.6522 21.4031 70.7469 21.4076 70.8382 21.3886C70.9296 21.3696 71.0146 21.3276 71.0853 21.2667C71.156 21.2057 71.21 21.1278 71.2423 21.0403C71.5052 20.5725 71.6154 20.0342 71.5572 19.5007C71.4764 18.7318 71.2783 17.9798 70.9698 17.2709C70.5557 16.4276 70.1611 15.5696 69.7055 14.7307C69.0368 13.4654 68.4555 12.1559 67.9657 10.8112C67.8701 10.5415 67.8049 10.2621 67.7715 9.97799C67.6741 9.58745 67.6798 9.17833 67.7881 8.79066C67.8963 8.40299 68.1033 8.05006 68.3889 7.76641C68.6744 7.48277 69.0287 7.27812 69.4171 7.1725C69.8055 7.06688 70.2146 7.06391 70.6045 7.16388C71.5354 7.32189 72.4235 7.67095 73.2128 8.1891C74.9411 9.36755 76.4484 10.8411 77.6658 12.5422C78.2034 13.2093 78.6585 13.9389 79.0212 14.7151C79.3542 15.5082 79.7399 16.283 80.0118 17.0952C80.657 18.8264 80.9429 20.6707 80.852 22.5159C80.7016 24.8591 80.076 27.1472 79.0133 29.241C78.4685 30.2294 77.6328 31.0263 76.6197 31.5236C75.6066 32.0209 74.465 32.1946 73.3499 32.0211C70.724 31.5405 68.2233 30.5313 65.9995 29.0546C63.5042 27.4125 61.3072 25.3571 59.5028 22.9766C59.0481 22.399 58.6307 21.7931 58.253 21.1625C57.6146 20.0698 56.8808 19.0293 56.3341 17.8889C55.2983 15.7811 54.905 13.4154 55.2031 11.0859C55.2608 10.3019 55.53 9.54831 55.982 8.9052C56.434 8.26209 57.0518 7.75354 57.7699 7.43368C58.3389 7.14809 58.9736 7.01867 59.609 7.05865C60.2444 7.09863 60.8578 7.30658 61.3866 7.66124C62.4032 8.35397 63.2946 9.21458 64.0226 10.2062C65.3596 11.931 66.1854 13.9502 67.1936 15.8658Z" fill="#E6F6E7"/>
<path d="M201.374 47.741C203.098 48.6027 204.599 49.8506 205.761 51.3874C206.427 52.2746 206.968 53.2491 207.37 54.2836C208.377 56.6348 208.625 59.2419 208.079 61.7409C207.7 64.0845 206.915 66.3441 205.759 68.4179C204.4 70.8076 202.59 72.9104 200.43 74.6091C199.328 75.4597 198.118 76.16 196.831 76.6916C195.458 77.2671 193.924 77.3348 192.505 76.8826C190.865 76.3809 189.67 75.2858 188.497 74.1492C186.977 72.6048 185.655 70.8765 184.563 69.0044C182.777 66.0074 181.265 62.856 180.043 59.5882C179.538 58.2895 178.936 57.0325 178.557 55.6879C178.351 54.8955 178.243 54.0811 178.233 53.2626C178.222 52.6068 178.355 51.9565 178.62 51.3569C178.886 50.7573 179.279 50.2227 179.773 49.7904C180.593 48.9751 181.61 48.3851 182.725 48.0772C182.845 48.0485 182.963 48.0138 183.078 47.973C185.474 47.1188 187.97 46.5757 190.504 46.3572C192.539 46.0781 194.599 46.029 196.644 46.2107C198.313 46.372 199.927 46.8942 201.374 47.741Z" fill="#E6F6E7"/>
<path d="M222.051 105.089C218.676 107.49 214.842 108.481 210.765 108.743C209.943 108.794 209.118 108.729 208.314 108.549C207.381 108.372 206.519 107.932 205.827 107.282C205.135 106.632 204.642 105.798 204.407 104.878C204.055 103.781 203.946 102.62 204.087 101.476C204.228 100.332 204.615 99.2328 205.222 98.2533C205.937 97.0505 206.814 95.9517 207.828 94.9877C210.306 92.6645 212.627 90.1831 214.912 87.6692C216.101 86.3664 217.393 85.1621 218.776 84.0679C220.578 82.6691 222.761 81.849 225.039 81.7155C226.101 81.6242 227.171 81.6796 228.219 81.8802C229.195 82.047 230.11 82.4658 230.875 83.0952C231.639 83.7246 232.226 84.5426 232.577 85.4684C232.86 86.1067 233.048 86.7834 233.133 87.4765C233.562 90.3506 232.962 93.2839 231.439 95.7585C230.501 97.2096 229.416 98.5598 228.2 99.7876C226.338 101.761 224.277 103.537 222.051 105.089ZM218.76 100.681C219.51 100.168 220.226 99.608 220.904 99.0044C222.408 97.6125 223.822 96.1261 225.137 94.5543C225.814 93.7848 226.441 92.9728 227.014 92.1232C227.403 91.5913 227.666 90.9771 227.78 90.3279C227.895 89.6787 227.859 89.0118 227.676 88.3786C227.536 87.8364 227.213 87.3594 226.761 87.0293C226.309 86.6992 225.756 86.5365 225.197 86.5691C224.659 86.5735 224.127 86.6895 223.636 86.9099C222.238 87.5143 220.98 88.4003 219.94 89.5127C217.957 91.7016 215.83 93.752 213.651 95.737C212.449 96.795 211.381 97.9959 210.47 99.3129C210.037 99.9125 209.741 100.6 209.603 101.326C209.522 101.632 209.516 101.953 209.585 102.261C209.653 102.57 209.794 102.858 209.996 103.101C210.198 103.345 210.455 103.536 210.746 103.66C211.037 103.784 211.353 103.837 211.669 103.814C212.367 103.819 213.06 103.69 213.711 103.434C215.506 102.735 217.205 101.808 218.765 100.677L218.76 100.681Z" fill="#FFEDCC"/>
<rect x="47" y="53.5933" width="20" height="10" rx="5" transform="rotate(-10.35 47 53.5933)" fill="#97A6FF"/>
<path d="M47.8983 58.5119C47.4022 55.7954 49.2022 53.1911 51.9186 52.695L56.8373 51.7967L58.6339 61.6339L53.7152 62.5322C50.9988 63.0284 48.3944 61.2284 47.8983 58.5119V58.5119Z" fill="#FFB5AF"/>
<path d="M106.731 115.151L107.5 109.5L96.9996 109.5L98.2159 115.142L106.731 115.151Z" fill="#81D4FA"/>
<path d="M106.73 115.151L108.592 104.025C107.622 104.582 105.184 105.725 101.69 105.926C98.4952 106.111 96.3078 105.235 95.6134 104.775L98.2442 115.641L106.73 115.151Z" stroke="black" stroke-width="1.5" stroke-linejoin="bevel"/>
<path d="M95.854 104.712C95.854 104.712 95.8542 104.712 95.8547 104.713L95.854 104.712ZM96.0744 104.591C95.9763 104.666 95.9221 104.722 95.8927 104.759C95.9261 104.792 95.9864 104.841 96.0925 104.904C96.364 105.066 96.8024 105.23 97.4076 105.366C98.6078 105.635 100.295 105.757 102.176 105.648C104.056 105.54 105.718 105.224 106.879 104.819C107.465 104.614 107.881 104.401 108.133 104.209C108.231 104.134 108.285 104.078 108.314 104.042C108.281 104.009 108.221 103.959 108.114 103.896C107.843 103.734 107.405 103.571 106.799 103.435C105.599 103.166 103.912 103.044 102.031 103.152C100.151 103.261 98.4889 103.576 97.3277 103.982C96.7421 104.186 96.3256 104.399 96.0744 104.591ZM108.347 103.991C108.347 103.991 108.347 103.991 108.347 103.992L108.347 103.991ZM108.353 104.089C108.353 104.088 108.353 104.088 108.352 104.087L108.353 104.089ZM95.8602 104.808C95.8598 104.809 95.8597 104.81 95.8597 104.81L95.8602 104.808Z" stroke="black" stroke-width="1.5"/>
</svg>
