<svg width="359" height="223" viewBox="0 0 359 223" fill="none" xmlns="http://www.w3.org/2000/svg">
<ellipse cx="173.582" cy="182.76" rx="102.34" ry="18.7839" fill="#D2D9FF"/>
<ellipse cx="30.8311" cy="22.3005" rx="4.45926" ry="6.08081" transform="rotate(-50.7528 30.8311 22.3005)" fill="#E6F6E7"/>
<ellipse cx="331.486" cy="29.3849" rx="4.45926" ry="6.08081" transform="rotate(-146.469 331.486 29.3849)" fill="#D2D9FF"/>
<ellipse cx="129.075" cy="38.5323" rx="4.45926" ry="6.08081" transform="rotate(-146.469 129.075 38.5323)" fill="#FFEDCC"/>
<path d="M33.7551 77.9267C35.7835 79.2597 37.5527 80.9503 38.9766 82.916C40.0494 84.2494 41.0288 85.6554 41.9077 87.1239C42.9866 89.0077 43.8666 90.9986 44.5335 93.0645C44.8815 94.1552 45.13 95.2755 45.3698 96.3799C45.6313 97.7174 45.7613 99.0773 45.7577 100.44C45.7858 102.651 45.5313 104.856 45.0003 107.002C44.9377 107.3 44.8501 107.593 44.7384 107.876C44.3528 108.786 44.0327 109.721 43.7807 110.676C43.435 112.046 42.8119 113.33 41.9498 114.449C40.945 115.842 39.6383 116.989 38.1274 117.806C37.5082 118.11 36.8164 118.234 36.1301 118.166C35.447 118.076 34.8001 117.806 34.2553 117.384C33.7106 116.963 33.2876 116.404 33.0295 115.765C32.444 114.52 32.1545 113.157 32.1835 111.781C32.1698 109.49 32.3618 107.201 32.7573 104.944C33.0628 103.083 33.6183 101.317 33.9458 99.4811C34.0579 98.9606 34.0796 98.4246 34.0098 97.8967C33.9999 97.8105 33.9691 97.728 33.9201 97.6563C33.8712 97.5846 33.8055 97.5259 33.7288 97.4853C33.6521 97.4446 33.5667 97.4232 33.4799 97.423C33.3931 97.4227 33.3075 97.4436 33.2305 97.4838C32.8761 97.6296 32.5688 97.8705 32.3423 98.1797C31.7675 98.9497 31.3357 99.8168 31.0676 100.74C30.711 101.864 30.3611 102.993 30.0829 104.133C29.7966 105.393 29.3966 106.626 28.888 107.814C28.4349 108.953 27.6795 109.948 26.7031 110.689C26.1214 111.122 25.4214 111.366 24.697 111.389C24.1798 111.417 23.6663 111.287 23.225 111.015C22.7837 110.744 22.4356 110.345 22.2273 109.871C21.742 108.921 21.4557 107.882 21.386 106.818C21.2279 103.996 21.4568 101.166 22.0664 98.4061C22.4051 97.0377 22.6215 95.6419 22.7129 94.2352C22.753 93.8922 22.7338 93.5449 22.6561 93.2085C22.6408 93.1533 22.6132 93.1022 22.5754 93.0591C22.5376 93.016 22.4906 92.982 22.4379 92.9596C22.3851 92.9372 22.328 92.927 22.2708 92.9297C22.2135 92.9324 22.1576 92.948 22.1072 92.9753C21.4008 93.3604 20.8199 93.9402 20.4335 94.6459C19.6032 96.3101 18.8488 98.0072 17.954 99.6365C17.2094 101.143 16.1465 102.469 14.8389 103.524C13.8801 104.227 12.7272 104.616 11.5385 104.637C11.0391 104.657 10.5416 104.565 10.0826 104.368C9.62353 104.17 9.21467 103.872 8.88611 103.496C8.30929 102.887 7.85282 102.175 7.5408 101.396C6.96036 99.8244 6.6403 98.1682 6.59321 96.4932C6.52375 95.1649 6.55447 93.8332 6.68512 92.5096C6.92601 90.4282 7.44613 88.3888 8.23146 86.4463C8.78603 85.0729 9.4946 83.7668 10.3436 82.553C11.4302 80.9877 12.7992 79.6387 14.3803 78.5751C16.0214 77.4154 17.8016 76.4664 19.6792 75.7503C21.1488 75.2149 22.6868 74.8907 24.2475 74.7873C25.3855 74.7219 26.5264 74.8471 27.6231 75.1577C29.8425 75.6286 31.9342 76.5731 33.7551 77.9267Z" fill="#D2D9FF"/>
<path d="M316.6 158.579C316.723 158.549 316.836 158.491 316.932 158.409C317.027 158.327 317.103 158.225 317.152 158.109C317.94 156.772 318.884 155.534 319.965 154.42C320.685 153.695 321.504 153.075 322.398 152.579C323.013 152.194 323.709 151.955 324.431 151.88C325.154 151.806 325.884 151.898 326.565 152.15C327.141 152.364 327.623 152.775 327.927 153.309C328.516 154.287 328.822 155.41 328.811 156.552C328.811 157.128 328.811 157.695 328.811 158.271C328.825 159.097 328.702 159.919 328.446 160.703C328.087 162.265 327.482 163.759 326.654 165.13C326.639 165.163 326.631 165.199 326.631 165.236C326.631 165.272 326.639 165.308 326.654 165.341C326.68 165.39 326.724 165.428 326.777 165.446C326.829 165.464 326.887 165.461 326.938 165.438L329.467 164.765C331.216 164.388 333.012 164.276 334.794 164.433C335.398 164.499 335.994 164.629 336.57 164.822C336.995 164.931 337.393 165.128 337.737 165.401C338.081 165.673 338.364 166.016 338.567 166.405C338.77 166.795 338.888 167.223 338.914 167.661C338.94 168.099 338.873 168.538 338.718 168.949C338.369 170.115 337.74 171.178 336.886 172.046C335.865 173.073 334.688 173.932 333.4 174.592C331.469 175.575 329.482 176.444 327.449 177.195C326.419 177.6 325.43 178.086 324.416 178.516C322.349 179.392 320.265 180.211 318.149 180.948C318.003 180.997 317.865 181.054 317.719 181.094C317.513 181.144 317.326 181.254 317.182 181.41C317.038 181.566 316.943 181.76 316.909 181.97C316.625 183.194 316.317 184.402 316.001 185.619C315.814 186.356 315.587 187.078 315.392 187.816C315.336 188.018 315.23 188.245 315.457 188.481C315.928 188.116 316.406 187.759 316.876 187.378C318.199 186.291 319.634 185.347 321.157 184.565C322.623 183.839 324.193 183.347 325.811 183.105C326.597 182.979 327.391 182.908 328.186 182.894C328.459 182.895 328.731 182.865 328.997 182.805C329.476 182.659 329.986 182.659 330.465 182.805C330.947 182.924 331.447 182.954 331.94 182.894C332.76 182.916 333.575 183.022 334.373 183.211C334.598 183.253 334.819 183.321 335.029 183.413C335.208 183.456 335.373 183.54 335.514 183.658C335.655 183.776 335.766 183.924 335.84 184.092C335.914 184.26 335.948 184.443 335.939 184.626C335.931 184.809 335.88 184.988 335.792 185.148C335.724 185.326 335.631 185.492 335.516 185.643C334.536 186.944 333.397 188.118 332.127 189.137C329.2 191.207 325.867 192.63 322.349 193.313C321.716 193.438 321.073 193.503 320.427 193.507C319.746 193.507 319.057 193.507 318.368 193.507C317.078 193.483 315.791 193.369 314.517 193.167C314.022 193.167 313.941 193.167 313.795 193.637C313.487 194.651 313.203 195.68 312.839 196.677C312.585 197.564 312.084 198.359 311.395 198.972C311.087 199.223 310.852 199.167 310.714 198.777C310.519 198.195 310.505 197.568 310.674 196.977C310.99 195.761 311.306 194.545 311.663 193.353C312.684 189.932 313.674 186.502 314.541 183.04C314.663 182.562 314.776 182.084 314.874 181.605C314.971 181.127 314.874 180.876 314.403 180.713C313.933 180.551 313.398 180.381 312.887 180.235C310.085 179.497 307.388 178.408 304.86 176.992C302.85 175.821 301.082 174.274 299.655 172.435C298.659 171.188 297.777 169.853 297.02 168.446C296.499 167.479 296.101 166.449 295.837 165.382C295.465 164.047 295.595 162.622 296.201 161.376C296.477 160.808 296.902 160.326 297.43 159.98C297.958 159.635 298.57 159.439 299.201 159.414C301.115 159.333 303.006 159.861 304.601 160.922C304.771 161.012 304.925 161.125 305.096 161.198C305.14 161.213 305.188 161.217 305.234 161.209C305.28 161.201 305.324 161.181 305.361 161.152C305.398 161.123 305.427 161.086 305.446 161.043C305.464 161 305.472 160.953 305.469 160.906C305.254 159.438 305.205 157.95 305.323 156.471C305.334 155.18 305.489 153.894 305.785 152.636C306.011 151.667 306.502 150.78 307.204 150.074C307.428 149.841 307.696 149.656 307.992 149.528C308.289 149.399 308.608 149.332 308.931 149.328C309.578 149.305 310.223 149.412 310.829 149.641C311.435 149.871 311.988 150.219 312.457 150.666C313.39 151.515 314.169 152.519 314.76 153.633C315.236 154.543 315.658 155.48 316.025 156.439C316.309 157.12 316.252 157.874 316.6 158.579Z" fill="#FFE4E2"/>
<path d="M22.0583 187.711C17.5308 185.895 13.5247 182.984 10.399 179.239C10.1446 178.946 9.89971 178.63 9.63152 178.349C7.97801 176.565 6.81982 174.379 6.27185 172.008C5.92179 170.762 5.87184 169.45 6.12609 168.18C6.38034 166.91 6.93156 165.718 7.73468 164.702C9.90624 161.889 12.8639 161.022 16.2102 161.086C18.2243 161.169 20.2209 161.496 22.1562 162.06C22.4142 162.153 22.6813 162.219 22.9532 162.257C23.7763 162.289 24.6963 162.653 25.3817 161.993C26.2835 161.309 26.8999 160.316 27.1115 159.204C27.4051 156.686 27.7808 154.203 28.1266 151.708C28.2704 150.542 28.5656 149.4 29.0047 148.311C29.4252 147.172 30.1924 146.195 31.1981 145.515C32.2038 144.836 33.3974 144.49 34.6105 144.525C36.5871 144.438 38.5399 144.983 40.186 146.081C43.1394 148.074 45.5585 150.761 47.2311 153.907C48.5966 156.241 49.545 158.796 50.034 161.456C50.5862 164.556 50.5438 167.733 49.9091 170.818C49.4979 173.021 48.8346 175.168 47.9321 177.219C46.0557 181.038 43.5975 184.381 39.9371 186.738C36.6698 188.864 32.7871 189.841 28.9026 189.515C26.5242 189.372 24.1978 188.759 22.0583 187.711Z" fill="#FFE4E2"/>
<path d="M78.3922 44.9705C79.3659 46.7979 80.309 48.6632 81.2206 50.503C81.5842 51.2016 82.0836 51.8206 82.6895 52.3237C82.7779 52.4161 82.8884 52.4844 83.0106 52.5223C83.1328 52.5603 83.2626 52.5665 83.3878 52.5404C83.513 52.5143 83.6295 52.4568 83.7264 52.3733C83.8233 52.2898 83.8973 52.183 83.9416 52.063C84.302 51.4218 84.453 50.684 84.3733 49.9527C84.2625 48.8988 83.9909 47.8681 83.5681 46.8965C83.0006 45.7406 82.4597 44.5645 81.8352 43.4147C80.9186 41.6805 80.1218 39.8854 79.4505 38.0423C79.3194 37.6728 79.2301 37.2897 79.1843 36.9003C79.0509 36.365 79.0587 35.8043 79.207 35.2729C79.3554 34.7415 79.6391 34.2578 80.0305 33.869C80.4219 33.4802 80.9076 33.1997 81.4399 33.0549C81.9722 32.9102 82.5331 32.9061 83.0674 33.0431C84.3434 33.2597 85.5606 33.7382 86.6425 34.4484C89.0114 36.0636 91.0775 38.0833 92.7461 40.415C93.483 41.3294 94.1067 42.3294 94.6039 43.3933C95.0603 44.4803 95.589 45.5424 95.9616 46.6557C96.846 49.0285 97.2379 51.5565 97.1133 54.0856C96.9072 57.2974 96.0497 60.4336 94.5931 63.3034C93.8463 64.6582 92.7009 65.7504 91.3123 66.4321C89.9236 67.1138 88.3589 67.3519 86.8304 67.114C83.2313 66.4553 79.8036 65.072 76.7555 63.0479C73.3354 60.7972 70.3239 57.9799 67.8507 54.717C67.2275 53.9254 66.6554 53.0949 66.1377 52.2306C65.2627 50.7328 64.2569 49.3066 63.5075 47.7435C62.0878 44.8545 61.5487 41.6118 61.9573 38.4189C62.0364 37.3443 62.4053 36.3114 63.0248 35.4299C63.6444 34.5484 64.4913 33.8514 65.4755 33.4129C66.2554 33.0215 67.1253 32.8441 67.9962 32.8989C68.8672 32.9537 69.708 33.2387 70.4327 33.7248C71.8262 34.6743 73.048 35.8539 74.0459 37.2132C75.8784 39.5773 77.0103 42.3449 78.3922 44.9705Z" fill="#E6F6E7"/>
<path d="M298.875 43.4291C301.237 44.6102 303.295 46.3206 304.887 48.4272C305.801 49.6432 306.543 50.9789 307.093 52.3968C308.474 55.6195 308.814 59.193 308.065 62.6183C307.545 65.8306 306.469 68.9276 304.885 71.7702C303.023 75.0457 300.542 77.9278 297.58 80.2563C296.07 81.4221 294.412 82.382 292.648 83.1106C290.765 83.8994 288.663 83.9922 286.718 83.3724C284.471 82.6848 282.832 81.1838 281.225 79.6259C279.141 77.509 277.329 75.1401 275.832 72.5741C273.385 68.4663 271.312 64.1467 269.638 59.6677C268.945 57.8876 268.12 56.1646 267.6 54.3216C267.318 53.2355 267.169 52.1193 267.156 50.9974C267.142 50.0985 267.323 49.2071 267.687 48.3853C268.052 47.5634 268.591 46.8308 269.267 46.2381C270.391 45.1207 271.785 44.3119 273.314 43.89C273.477 43.8506 273.639 43.803 273.798 43.7472C277.081 42.5763 280.502 41.8319 283.975 41.5323C286.764 41.1499 289.588 41.0825 292.392 41.3316C294.68 41.5527 296.892 42.2684 298.875 43.4291Z" fill="#E6F6E7"/>
<path d="M335.447 120.663C330.821 123.954 325.565 125.312 319.977 125.672C318.85 125.742 317.719 125.652 316.618 125.406C315.34 125.162 314.157 124.56 313.209 123.669C312.26 122.778 311.585 121.635 311.263 120.374C310.781 118.87 310.631 117.279 310.824 115.711C311.017 114.143 311.548 112.636 312.38 111.294C313.36 109.645 314.561 108.139 315.951 106.818C319.348 103.633 322.53 100.232 325.662 96.7864C327.291 95.0008 329.062 93.35 330.957 91.8502C333.427 89.933 336.42 88.8089 339.542 88.6259C340.998 88.5008 342.465 88.5767 343.901 88.8517C345.239 89.0803 346.493 89.6544 347.541 90.517C348.589 91.3796 349.393 92.5009 349.874 93.7699C350.262 94.6448 350.519 95.5722 350.637 96.5222C351.225 100.462 350.402 104.482 348.314 107.874C347.029 109.863 345.541 111.714 343.875 113.397C341.322 116.101 338.498 118.536 335.447 120.663ZM330.936 114.621C331.963 113.918 332.945 113.15 333.875 112.323C335.936 110.415 337.874 108.378 339.676 106.224C340.604 105.169 341.463 104.056 342.249 102.891C342.783 102.162 343.143 101.32 343.3 100.431C343.457 99.5408 343.408 98.6267 343.156 97.7588C342.965 97.0156 342.522 96.3618 341.903 95.9093C341.283 95.4568 340.525 95.2339 339.759 95.2786C339.021 95.2845 338.292 95.4436 337.619 95.7456C335.703 96.5741 333.979 97.7885 332.554 99.3132C329.835 102.313 326.919 105.124 323.934 107.845C322.286 109.295 320.822 110.941 319.573 112.746C318.98 113.568 318.574 114.51 318.385 115.506C318.274 115.925 318.266 116.364 318.359 116.787C318.453 117.211 318.646 117.605 318.923 117.939C319.2 118.272 319.553 118.535 319.951 118.705C320.35 118.875 320.784 118.947 321.216 118.916C322.174 118.922 323.124 118.746 324.015 118.395C326.476 117.436 328.804 116.166 330.943 114.616L330.936 114.621Z" fill="#FFEDCC"/>
<path d="M107.534 111.771L76.0562 117.379L75.0517 104.293" stroke="black" stroke-width="2"/>
<path d="M180.769 185.273C161.797 194.397 113.342 190.019 97.6963 147.641C82.0501 105.262 106.709 78.2215 129.622 66.5705C154.089 54.1296 176.743 67.5036 196.778 60.4698C205.3 57.4779 214.308 53.8515 224.49 53.7224C239.456 52.7338 254.463 62.2832 261.735 77.7517C270.872 97.1865 266.45 115.016 257.178 125.112C249.451 133.525 242.555 135.963 233.686 141.02C209.491 154.815 214.58 169.013 180.769 185.273Z" stroke="black" stroke-width="2"/>
<path d="M180.715 178.927C163.435 187.233 119.267 183.177 104.955 144.471C90.6425 105.765 113.459 81.8952 134.328 71.2876C156.612 59.9608 176.9 71.4133 195.152 65.017C202.916 62.2962 211.121 58.997 220.402 58.8916C234.04 58.0076 247.73 66.7436 254.377 80.8734C262.728 98.6262 258.72 114.897 250.281 124.102C243.249 131.772 236.967 133.99 228.89 138.595C206.855 151.158 211.511 164.126 180.715 178.927Z" fill="#296107"/>
<path d="M175.739 172.495C158.88 180.304 116.599 176.477 104.095 140.062C91.5915 103.648 113.042 80.8965 134.309 70.4889C158.195 58.7996 175.519 71.3563 193.25 65.3443C200.792 62.7869 209.426 59.4339 218.34 59.3373C231.465 58.5093 243.681 66.9823 249.611 80.276C257.061 96.9782 252.692 112.283 244.294 120.939C237.296 128.153 231.193 130.238 223.29 134.568C201.729 146.38 205.784 158.58 175.739 172.495Z" fill="#C2ECA8"/>
<path d="M175.743 172.494C158.884 180.303 116.603 176.476 104.099 140.061C114.738 156.286 134.286 179.804 173.278 167.342C195.296 160.304 202.44 138.223 221.266 130.326C230.115 126.614 240.369 121.709 246.633 111.943C251.645 104.129 253.302 91.0463 249.615 80.2751C257.066 96.9773 252.696 112.282 244.298 120.939C237.3 128.153 231.197 130.237 223.294 134.567C201.733 146.379 205.788 158.579 175.743 172.494Z" fill="#A6D489"/>
<path d="M120.686 132.948C116.452 123.917 116.884 101.697 138.972 95.9698C161.061 90.2427 171.966 101.97 174.723 108.089C178.168 115.739 174.058 135.828 157.276 144.131C139.065 153.14 124.919 141.978 120.686 132.948Z" fill="#75452F"/>
<path d="M124.395 129.45C120.854 121.897 121.215 103.313 139.689 98.5228C158.164 93.7327 167.285 103.542 169.591 108.66C172.472 115.057 169.034 131.86 154.998 138.804C139.767 146.339 127.935 137.004 124.395 129.45Z" fill="#8B5338"/>
<path d="M132.819 122.582C131.401 118.844 132.932 109.569 143.493 107.021C154.054 104.473 158.397 109.289 159.305 111.823C160.441 114.99 157.336 123.403 149.075 126.987C140.111 130.877 134.236 126.32 132.819 122.582Z" fill="#A75E3D"/>
<path d="M216.235 99.0354C215.381 99.6945 214.117 101.589 215.896 103.896C217.676 106.203 219.64 105.608 220.399 105.022" stroke="black" stroke-width="2"/>
<path d="M201.063 78.0373C200.209 78.6964 198.945 80.5913 200.724 82.898C202.504 85.2047 204.468 84.6097 205.227 84.0238" stroke="black" stroke-width="2"/>
<path d="M227.329 76.9828C228.865 78.7221 233.869 82.0008 241.597 81.2006C251.257 80.2003 254.74 74.5512 254.559 68.8748C254.378 63.1983 249.45 58.827 243.33 58.6471C237.209 58.4673 234.114 60.0082 234.406 62.8256C234.698 65.643 238.612 68.0853 246.217 66.8909C253.823 65.6966 258.852 60.0072 259.429 56.9801C260.22 52.8302 258.642 50.6884 257.79 49.0137" stroke="black" stroke-width="2"/>
<path d="M195.066 94.882C197.105 94.6665 199.267 95.8684 200.422 98.1302C201.821 100.868 201.116 102.91 200.363 104.216" stroke="black" stroke-width="2"/>
<path d="M129.053 160.521L83.6369 161.215L82.6325 148.13" stroke="black" stroke-width="2"/>
<path d="M202.954 135.099C220.529 151.96 237.674 154.744 249.303 152.539" stroke="black" stroke-width="2"/>
<path d="M173.172 71.7085C169.86 55.1547 172.409 40.5811 179.567 29.939" stroke="black" stroke-width="2"/>
</svg>
