<svg width="20" height="20" viewBox="0 0 20 20" fill="none" xmlns="http://www.w3.org/2000/svg">
<path d="M16.1163 12.075L15.283 10.6916C15.108 10.3833 14.9496 9.79996 14.9496 9.45829V7.34996C14.9496 5.39163 13.7996 3.69996 12.1413 2.90829C11.708 2.14163 10.908 1.66663 9.99129 1.66663C9.08296 1.66663 8.26629 2.15829 7.83296 2.93329C6.20796 3.74163 5.08296 5.41663 5.08296 7.34996V9.45829C5.08296 9.79996 4.92463 10.3833 4.74963 10.6833L3.90796 12.075C3.57463 12.6333 3.49963 13.25 3.70796 13.8166C3.90796 14.375 4.38296 14.8083 4.99963 15.0166C6.61629 15.5666 8.31629 15.8333 10.0163 15.8333C11.7163 15.8333 13.4163 15.5666 15.033 15.025C15.6163 14.8333 16.0663 14.3916 16.283 13.8166C16.4996 13.2416 16.4413 12.6083 16.1163 12.075Z" fill="#141414"/>
<path d="M12.3587 16.675C12.0087 17.6416 11.0837 18.3333 10.0004 18.3333C9.34206 18.3333 8.69206 18.0666 8.23372 17.5916C7.96706 17.3416 7.76706 17.0083 7.65039 16.6666C7.75872 16.6833 7.86706 16.6916 7.98372 16.7083C8.17539 16.7333 8.37539 16.7583 8.57539 16.775C9.05039 16.8166 9.53372 16.8416 10.0171 16.8416C10.4921 16.8416 10.9671 16.8166 11.4337 16.775C11.6087 16.7583 11.7837 16.75 11.9504 16.725C12.0837 16.7083 12.2171 16.6916 12.3587 16.675Z" fill="#141414"/>
</svg>
