<svg width="222" height="157" viewBox="0 0 222 157" fill="none" xmlns="http://www.w3.org/2000/svg">
<ellipse cx="113" cy="151" rx="53" ry="6" fill="#D2D9FF"/>
<path d="M131.696 126.49L129.334 150.107H139.076" stroke="black" stroke-width="1.5"/>
<path d="M67.4085 92.0416C67.3759 107.669 85.8284 138.714 119.219 135.617C152.61 132.519 162.819 107.345 163.281 88.2688C163.775 67.8996 147.563 57.0137 145.855 41.344C145.129 34.6785 144.671 27.4848 141.496 20.6248C137.365 10.2864 126.163 3.2957 113.475 3.38101C97.5336 3.4882 87.0108 12.1604 83.2201 21.6035C80.0612 29.4728 80.6372 34.8715 80.092 42.4304C78.6046 63.0518 67.4665 64.1917 67.4085 92.0416Z" stroke="black" stroke-width="1.5"/>
<path d="M71.8538 90.3525C71.8272 104.568 88.672 132.814 119.141 130.003C149.611 127.192 158.2 104.293 158.618 86.9401C159.065 68.4106 144.989 58.5044 143.428 44.2495C142.763 38.1859 142.345 31.6417 139.446 25.4007C135.673 15.995 125.45 9.63339 113.872 9.70839C99.3255 9.80262 89.725 17.6894 86.2678 26.279C83.3868 33.4369 83.9136 38.3482 83.4176 45.2243C82.0645 63.9831 71.901 65.0177 71.8538 90.3525Z" fill="#A6D489"/>
<path d="M75.6711 90.7986C75.8405 104.425 91.755 131.19 119.807 127.938C147.859 124.686 156.123 103.292 156.279 85.9262C156.453 66.4219 142.661 58.9332 141.027 45.2985C140.332 39.4987 139.818 32.7244 137.061 26.7954C133.454 17.8492 123.982 12.448 113.309 12.7318C99.8994 13.0885 91.1561 20.8238 88.086 29.1201C85.5276 36.0338 86.0802 40.7316 85.7167 47.3314C84.725 65.3365 75.3692 66.5143 75.6711 90.7986Z" fill="#C2ECA8"/>
<path d="M116.632 115.792C124.027 115.734 138.751 108.336 135.515 91.7287C132.278 75.1214 120.944 71.5793 115.969 71.6935C109.751 71.8362 97.6282 81.0136 97.4443 94.8954C97.2447 109.959 109.237 115.85 116.632 115.792Z" fill="#75452F"/>
<path d="M117.071 111.066C122.879 111.02 134.442 105.211 131.9 92.1687C129.358 79.1269 120.458 76.3452 116.551 76.4349C111.667 76.547 102.147 83.754 102.003 94.6556C101.846 106.485 111.264 111.111 117.071 111.066Z" fill="#8B5338"/>
<path d="M117.404 103.715C120.115 103.375 125.23 99.4141 123.401 92.0631C121.572 84.7121 117.278 83.5959 115.458 83.8585C113.182 84.1868 109.09 88.8395 109.559 95.1067C110.067 101.907 114.694 104.055 117.404 103.715Z" fill="#A75E3D"/>
<path d="M114.973 27.4461C116.415 26.5581 119.394 23.3682 119.78 17.7133C120.261 10.6446 116.633 7.43833 112.53 6.86272C108.427 6.28711 104.671 9.286 103.781 13.6637C102.891 18.0415 103.614 20.458 105.676 20.5985C107.737 20.739 109.98 18.2288 110.067 12.6127C110.154 6.99664 106.689 2.67363 104.584 1.88264C101.699 0.798289 99.9634 1.66627 98.6536 2.07014" stroke="black" stroke-width="1.5"/>
<path d="M107 43C107 42.3333 106.5 41 104.5 41C102.5 41 102 42.1852 102 42.7778" stroke="black" stroke-width="1.5"/>
<path d="M126 42C126 41.3333 125.5 40 123.5 40C121.5 40 121 41.1852 121 41.7778" stroke="black" stroke-width="1.5"/>
<path d="M119 46C118.2 46.6667 116.6 48 114.5 48C112.4 48 110.8 47 110 46.5" stroke="black" stroke-width="1.5"/>
<path d="M96.5663 116.453L94.4998 150.107H84.7578" stroke="black" stroke-width="1.5"/>
<circle cx="114.5" cy="54.5" r="7.5" fill="#F7C02B"/>
<circle cx="115" cy="54" r="1" fill="#896024"/>
<circle cx="116" cy="59" r="1" fill="#896024"/>
<circle cx="112" cy="58" r="1" fill="#896024"/>
<circle cx="112" cy="51" r="1" fill="#896024"/>
<circle cx="120" cy="54" r="1" fill="#896024"/>
<circle cx="110" cy="55" r="1" fill="#896024"/>
<circle cx="117" cy="50" r="1" fill="#896024"/>
<path d="M146 66.5C142 73 139 74.5 133.5 74.5C128 74.5 121.2 69 119.5 60.5001C119.333 59.6667 118.5 57.9001 116.5 57.5001C114.5 57.1001 113.333 58.0001 113 58.5001" stroke="black" stroke-width="1.5" stroke-linejoin="bevel"/>
<path d="M84.9991 67.5C84.8324 72 86.1113 79.6195 92.9995 87C99.9992 94.5 112.666 95 113.5 95" stroke="black" stroke-width="1.5" stroke-linejoin="bevel"/>
<ellipse cx="5.96022" cy="55.7785" rx="3.52947" ry="4.81292" transform="rotate(-50.7528 5.96022 55.7785)" fill="#FFEDCC"/>
<ellipse cx="159.488" cy="5.96172" rx="3.52947" ry="4.81292" transform="rotate(-146.469 159.488 5.96172)" fill="#D2D9FF"/>
<path d="M35.1279 46.5626C31.5444 45.1254 28.3735 42.8214 25.8996 39.8571C25.6982 39.6253 25.5044 39.3757 25.2921 39.1531C23.9834 37.7407 23.0667 36.0106 22.633 34.1344C22.3559 33.1476 22.3164 32.1091 22.5176 31.1041C22.7188 30.099 23.1551 29.1558 23.7908 28.3517C25.5096 26.1253 27.8505 25.4389 30.4991 25.4894C32.0932 25.5549 33.6735 25.8137 35.2053 26.26C35.4095 26.3341 35.621 26.3864 35.8362 26.4163C36.4876 26.4418 37.2158 26.73 37.7583 26.2073C38.4721 25.6663 38.9599 24.8798 39.1275 23.9999C39.3598 22.0071 39.6571 20.0419 39.9308 18.0667C40.0446 17.144 40.2783 16.2402 40.6259 15.378C40.9587 14.4769 41.5659 13.703 42.362 13.1653C43.158 12.6277 44.1027 12.3535 45.0628 12.3813C46.6273 12.3128 48.1729 12.7442 49.4758 13.613C51.8134 15.1902 53.7281 17.3171 55.052 19.807C56.1327 21.6548 56.8834 23.6766 57.2704 25.782C57.7075 28.236 57.6739 30.7508 57.1715 33.1924C56.8461 34.9356 56.3211 36.6356 55.6068 38.2587C54.1216 41.2813 52.176 43.9272 49.2788 45.7928C46.6927 47.4757 43.6196 48.249 40.545 47.9905C38.6626 47.8779 36.8212 47.3926 35.1279 46.5626Z" fill="#FFE4E2"/>
<path d="M37.4184 144.748C35.6153 145.411 33.7067 145.741 31.7857 145.721C30.4322 145.776 29.0766 145.737 27.7285 145.605C26.022 145.404 24.341 145.027 22.7126 144.479C21.8547 144.187 21.025 143.817 20.2094 143.45C19.2353 142.987 18.3089 142.429 17.4434 141.785C16.0237 140.762 14.7405 139.562 13.6251 138.214C13.4647 138.034 13.3199 137.84 13.192 137.636C12.7951 136.962 12.3504 136.318 11.8615 135.708C11.1529 134.844 10.6293 133.842 10.3231 132.767C9.91004 131.472 9.79511 130.1 9.98694 128.755C10.0851 128.218 10.3315 127.719 10.6983 127.315C11.0771 126.922 11.5532 126.638 12.078 126.49C12.6028 126.342 13.1575 126.335 13.6854 126.472C14.7531 126.686 15.7568 127.143 16.6182 127.809C18.0828 128.879 19.4484 130.079 20.6985 131.393C21.7386 132.464 22.6008 133.649 23.6146 134.721C23.893 135.038 24.2238 135.304 24.5925 135.508C24.6521 135.542 24.7191 135.562 24.7877 135.564C24.8564 135.567 24.9247 135.553 24.9866 135.523C25.0486 135.493 25.1024 135.449 25.1435 135.394C25.1845 135.339 25.2115 135.275 25.2222 135.207C25.2962 134.913 25.2877 134.604 25.1975 134.314C24.9783 133.586 24.6299 132.903 24.169 132.298C23.6214 131.541 23.0678 130.787 22.4738 130.074C21.8064 129.298 21.2108 128.463 20.694 127.58C20.1824 126.756 19.9055 125.807 19.8933 124.836C19.892 124.263 20.0663 123.703 20.3927 123.231C20.6183 122.888 20.9429 122.623 21.3232 122.47C21.7036 122.317 22.1216 122.284 22.5214 122.374C23.354 122.513 24.1497 122.819 24.8595 123.276C26.7294 124.504 28.4224 125.982 29.8914 127.669C30.6026 128.529 31.3888 129.324 32.2408 130.044C32.4401 130.231 32.6701 130.383 32.9208 130.491C32.9631 130.508 33.0086 130.514 33.0538 130.51C33.099 130.507 33.1427 130.493 33.1818 130.47C33.2209 130.447 33.2543 130.415 33.2795 130.378C33.3047 130.34 33.3211 130.297 33.3275 130.252C33.4151 129.621 33.3197 128.979 33.0526 128.401C32.3846 127.089 31.66 125.81 31.0447 124.474C30.437 123.291 30.0934 121.99 30.0378 120.661C30.0419 119.72 30.3373 118.804 30.8834 118.037C31.1056 117.71 31.3983 117.437 31.7402 117.238C32.082 117.039 32.4641 116.919 32.8584 116.887C33.5172 116.807 34.1853 116.852 34.8275 117.02C36.1009 117.39 37.3053 117.966 38.3932 118.725C39.271 119.306 40.1038 119.953 40.8845 120.659C42.0953 121.792 43.148 123.083 44.0142 124.497C44.627 125.497 45.1244 126.563 45.4969 127.674C45.9813 129.103 46.1951 130.609 46.1274 132.115C46.0926 133.706 45.8583 135.285 45.43 136.817C45.0787 138.004 44.5609 139.135 43.8919 140.177C43.3978 140.931 42.781 141.598 42.0671 142.15C40.7225 143.34 39.1369 144.227 37.4184 144.748Z" fill="#D2D9FF"/>
<path d="M207.782 87.8804C206.274 87.2387 204.766 86.5585 203.29 85.8782C202.719 85.6287 202.104 85.4956 201.48 85.4868C201.38 85.4738 201.278 85.4866 201.184 85.524C201.09 85.5614 201.007 85.6221 200.943 85.7004C200.878 85.7787 200.835 85.872 200.817 85.9716C200.799 86.0712 200.806 86.1738 200.839 86.2697C200.935 86.8438 201.209 87.3733 201.622 87.7841C202.214 88.3783 202.893 88.8782 203.637 89.2665C204.561 89.6965 205.478 90.1521 206.435 90.55C207.861 91.1627 209.244 91.8724 210.574 92.6741C210.838 92.8366 211.083 93.0281 211.305 93.2452C211.653 93.5086 211.927 93.8579 212.1 94.259C212.273 94.66 212.338 95.099 212.291 95.533C212.243 95.9671 212.083 96.3812 211.827 96.735C211.571 97.0887 211.228 97.37 210.83 97.5512C209.937 98.0519 208.949 98.3622 207.93 98.4624C205.668 98.6448 203.391 98.4276 201.204 97.8207C200.296 97.6236 199.415 97.3177 198.58 96.9094C197.758 96.4667 196.905 96.0752 196.122 95.5747C194.398 94.5526 192.9 93.1901 191.72 91.5703C190.251 89.4895 189.22 87.1314 188.691 84.6397C188.478 83.434 188.64 82.1919 189.157 81.0819C189.673 79.9718 190.519 79.0475 191.579 78.4343C194.123 77.0512 196.922 76.1997 199.806 75.9315C203.031 75.6181 206.286 75.8568 209.431 76.6374C210.209 76.8153 210.974 77.0425 211.722 77.3177C213.006 77.8054 214.334 78.184 215.573 78.7744C217.883 79.8484 219.827 81.5778 221.162 83.7477C221.647 84.4489 221.934 85.2686 221.99 86.1195C222.047 86.9704 221.871 87.8207 221.483 88.5799C221.197 89.2087 220.749 89.7503 220.186 90.1494C219.622 90.5485 218.962 90.7908 218.274 90.8516C216.944 90.9593 215.605 90.8399 214.315 90.4986C212.011 89.9532 209.938 88.8109 207.782 87.8804Z" fill="#E6F6E7"/>
<path d="M172.16 23.2107C173.428 21.5489 175.062 20.2021 176.936 19.2754C178.016 18.7451 179.165 18.3656 180.349 18.1477C183.059 17.5508 185.887 17.8151 188.44 18.9037C190.861 19.7834 193.11 21.0785 195.085 22.7309C197.357 24.663 199.231 27.0184 200.603 29.6659C201.286 31.0126 201.787 32.4442 202.093 33.9229C202.428 35.5036 202.189 37.1519 201.419 38.5726C200.552 40.2182 199.143 41.2702 197.693 42.2896C195.739 43.597 193.629 44.6551 191.412 45.4395C187.856 46.7347 184.191 47.7076 180.461 48.3464C178.974 48.6217 177.512 49.0085 176.002 49.1402C175.116 49.1984 174.226 49.1489 173.352 48.993C172.651 48.8714 171.985 48.5987 171.4 48.1938C170.814 47.7889 170.324 47.2615 169.964 46.6482C169.261 45.6082 168.839 44.4048 168.737 43.1539C168.73 43.0209 168.717 42.8883 168.697 42.7566C168.273 40.0301 168.2 37.2604 168.481 34.5154C168.596 32.2901 168.961 30.0848 169.57 27.9412C170.08 26.1953 170.964 24.5812 172.16 23.2107Z" fill="#FFEDCC"/>
<path d="M179.738 124.76C179.834 124.736 179.924 124.69 180 124.625C180.075 124.56 180.135 124.479 180.174 124.387C180.798 123.329 181.545 122.349 182.401 121.468C182.97 120.893 183.619 120.403 184.326 120.011C184.813 119.706 185.364 119.517 185.936 119.458C186.507 119.399 187.085 119.472 187.624 119.671C188.08 119.841 188.462 120.165 188.702 120.588C189.169 121.363 189.411 122.251 189.402 123.155C189.402 123.611 189.402 124.06 189.402 124.516C189.413 125.169 189.316 125.82 189.113 126.441C188.829 127.677 188.35 128.859 187.695 129.945C187.683 129.971 187.677 129.999 187.677 130.028C187.677 130.057 187.683 130.085 187.695 130.112C187.715 130.151 187.75 130.18 187.792 130.195C187.834 130.209 187.879 130.207 187.92 130.189L189.922 129.656C191.306 129.357 192.727 129.269 194.138 129.393C194.616 129.445 195.087 129.548 195.543 129.701C195.88 129.787 196.195 129.943 196.467 130.159C196.739 130.375 196.963 130.646 197.124 130.954C197.284 131.262 197.378 131.601 197.399 131.948C197.419 132.295 197.366 132.642 197.244 132.967C196.967 133.89 196.469 134.732 195.793 135.419C194.985 136.231 194.054 136.911 193.034 137.434C191.506 138.212 189.933 138.9 188.324 139.493C187.509 139.814 186.726 140.199 185.924 140.54C184.287 141.233 182.638 141.881 180.963 142.465C180.848 142.503 180.739 142.548 180.623 142.58C180.46 142.62 180.312 142.707 180.198 142.83C180.083 142.953 180.008 143.107 179.981 143.273C179.757 144.242 179.513 145.198 179.263 146.161C179.115 146.745 178.935 147.316 178.781 147.9C178.736 148.06 178.653 148.24 178.833 148.426C179.205 148.137 179.584 147.855 179.956 147.554C181.003 146.693 182.139 145.946 183.344 145.327C184.504 144.752 185.747 144.363 187.028 144.172C187.65 144.072 188.278 144.016 188.908 144.005C189.124 144.006 189.339 143.982 189.549 143.934C189.928 143.819 190.332 143.819 190.711 143.934C191.093 144.028 191.489 144.052 191.879 144.005C192.528 144.022 193.173 144.106 193.804 144.255C193.983 144.289 194.157 144.343 194.324 144.416C194.465 144.45 194.596 144.516 194.707 144.609C194.819 144.702 194.907 144.82 194.965 144.953C195.024 145.086 195.051 145.23 195.044 145.375C195.037 145.52 194.997 145.662 194.927 145.789C194.874 145.929 194.8 146.061 194.709 146.18C193.933 147.21 193.032 148.139 192.027 148.946C189.71 150.584 187.072 151.71 184.287 152.251C183.786 152.35 183.277 152.402 182.766 152.405C182.227 152.405 181.682 152.405 181.136 152.405C180.115 152.386 179.097 152.295 178.088 152.135C177.697 152.135 177.633 152.135 177.517 152.508C177.273 153.31 177.049 154.125 176.76 154.914C176.559 155.615 176.163 156.245 175.618 156.73C175.374 156.929 175.188 156.884 175.079 156.576C174.924 156.115 174.913 155.619 175.047 155.152C175.297 154.189 175.547 153.226 175.829 152.283C176.638 149.575 177.421 146.86 178.108 144.12C178.204 143.742 178.294 143.363 178.371 142.984C178.448 142.606 178.371 142.407 177.998 142.279C177.626 142.15 177.203 142.015 176.798 141.9C174.581 141.316 172.446 140.454 170.445 139.333C168.854 138.406 167.455 137.182 166.326 135.727C165.537 134.739 164.839 133.682 164.24 132.569C163.827 131.803 163.512 130.988 163.303 130.144C163.009 129.087 163.112 127.96 163.592 126.973C163.81 126.524 164.146 126.142 164.564 125.868C164.982 125.595 165.467 125.44 165.966 125.421C167.481 125.356 168.978 125.774 170.24 126.614C170.375 126.685 170.497 126.775 170.632 126.832C170.667 126.844 170.704 126.847 170.741 126.841C170.778 126.834 170.812 126.819 170.841 126.796C170.87 126.773 170.894 126.744 170.909 126.71C170.923 126.675 170.93 126.638 170.927 126.601C170.757 125.439 170.718 124.262 170.811 123.091C170.82 122.069 170.943 121.051 171.177 120.056C171.356 119.289 171.745 118.586 172.3 118.028C172.477 117.844 172.689 117.697 172.924 117.595C173.159 117.494 173.411 117.44 173.667 117.437C174.179 117.419 174.69 117.504 175.169 117.685C175.649 117.867 176.087 118.143 176.458 118.496C177.197 119.168 177.813 119.963 178.281 120.845C178.657 121.565 178.992 122.306 179.282 123.065C179.507 123.604 179.462 124.201 179.738 124.76Z" fill="#FFE4E2"/>
<path d="M30.2283 95.6571C26.3419 97.0892 22.3815 97.0403 18.3784 96.2248C17.5717 96.0589 16.7926 95.7797 16.0642 95.3955C15.2107 94.9796 14.4934 94.3292 13.9961 93.5204C13.4988 92.7116 13.2422 91.7779 13.2562 90.8286C13.2045 89.6773 13.4033 88.5286 13.8389 87.4617C14.2745 86.3948 14.9366 85.4352 15.7793 84.6491C16.7843 83.6757 17.9183 82.8451 19.1496 82.1806C22.1501 80.5882 25.0407 78.8021 27.9048 76.975C29.3932 76.0293 30.9558 75.2057 32.5771 74.5123C34.6828 73.6348 37.0049 73.4157 39.2376 73.8837C40.2871 74.0742 41.3054 74.4082 42.2637 74.8764C43.1618 75.2931 43.9355 75.9373 44.5081 76.7449C45.0807 77.5526 45.4324 78.4959 45.5285 79.4813C45.6346 80.1715 45.6382 80.8737 45.5393 81.565C45.2 84.4511 43.852 87.1246 41.7333 89.1134C40.4479 90.268 39.0464 91.2864 37.5514 92.1526C35.2369 93.5686 32.783 94.743 30.2283 95.6571ZM28.2077 90.5403C29.0654 90.2418 29.9032 89.8891 30.7162 89.4845C32.5324 88.5355 34.2863 87.4716 35.9671 86.2994C36.822 85.7342 37.6399 85.1149 38.4158 84.4453C38.9311 84.0341 39.3452 83.5101 39.6261 82.9137C39.907 82.3172 40.0472 81.6643 40.0359 81.0051C40.0437 80.4453 39.8568 79.9003 39.507 79.4632C39.1572 79.0261 38.6664 78.7242 38.1185 78.6092C37.5978 78.4723 37.0542 78.4449 36.5223 78.5288C35.0152 78.7457 33.5689 79.2711 32.2738 80.0719C29.7859 81.6644 27.1957 83.0856 24.5733 84.4302C23.136 85.1361 21.7903 86.015 20.5661 87.0473C19.9913 87.5125 19.5254 88.0981 19.2014 88.7628C19.0436 89.0369 18.9535 89.3446 18.9385 89.6605C18.9235 89.9764 18.9842 90.2912 19.1153 90.579C19.2465 90.8667 19.4444 91.119 19.6927 91.3149C19.9409 91.5108 20.2323 91.6446 20.5427 91.7052C21.2156 91.893 21.9183 91.9503 22.6128 91.874C24.5289 91.6695 26.4111 91.2206 28.2133 90.5383L28.2077 90.5403Z" fill="#E6F6E7"/>
</svg>
