<svg width="342" height="157" viewBox="0 0 342 157" fill="none" xmlns="http://www.w3.org/2000/svg">
<ellipse cx="227.822" cy="150.955" rx="62.0797" ry="5.50461" fill="#D2D9FF"/>
<rect x="42" width="161" height="119" rx="20" fill="#D2D9FF" fill-opacity="0.5"/>
<circle cx="62.5" cy="35.5" r="6.5" fill="white"/>
<circle cx="82.5" cy="35.5" r="6.5" fill="white"/>
<circle cx="102.5" cy="35.5" r="6.5" fill="white"/>
<circle cx="122.5" cy="35.5" r="6.5" fill="white"/>
<circle cx="142.5" cy="35.5" r="6.5" fill="white"/>
<circle cx="162.5" cy="35.5" r="6.5" fill="white"/>
<circle cx="182.5" cy="35.5" r="6.5" fill="white"/>
<circle cx="62.5" cy="55.5" r="6.5" fill="white"/>
<circle cx="82.5" cy="55.5" r="6.5" fill="white"/>
<circle cx="102.5" cy="55.5" r="6.5" fill="white"/>
<circle cx="122.5" cy="55.5" r="6.5" fill="white"/>
<circle cx="142.5" cy="55.5" r="6.5" fill="#FCA2B0"/>
<circle cx="162.5" cy="55.5" r="6.5" fill="#FCA2B0"/>
<circle cx="182.5" cy="55.5" r="6.5" fill="#FCA2B0"/>
<circle cx="62.5" cy="75.5" r="6.5" fill="#FCA2B0"/>
<circle cx="82.5" cy="75.5" r="6.5" fill="#FCA2B0"/>
<circle cx="102.5" cy="75.5" r="6.5" fill="#FCA2B0"/>
<circle cx="122.5" cy="75.5" r="6.5" fill="white"/>
<circle cx="142.5" cy="75.5" r="6.5" fill="white"/>
<circle cx="162.5" cy="75.5" r="6.5" fill="white"/>
<circle cx="182.5" cy="75.5" r="6.5" fill="white"/>
<circle cx="62.5" cy="95.5" r="6.5" fill="white"/>
<circle cx="82.5" cy="95.5" r="6.5" fill="white"/>
<circle cx="102.5" cy="95.5" r="6.5" fill="white"/>
<circle cx="122.5" cy="95.5" r="6.5" fill="white"/>
<circle cx="142.5" cy="95.5" r="6.5" fill="white"/>
<circle cx="162.5" cy="95.5" r="6.5" fill="white"/>
<circle cx="182.5" cy="95.5" r="6.5" fill="white"/>
<path d="M62.0439 19.1074C63.3916 19.1074 64.334 18.4336 64.334 17.4082V17.4033C64.334 16.6318 63.8848 16.2021 62.791 15.9727L61.9023 15.7822C61.375 15.6699 61.1943 15.4941 61.1943 15.2256V15.2207C61.1943 14.8838 61.502 14.6641 61.9951 14.6641C62.5225 14.6641 62.8301 14.9473 62.8789 15.3232L62.8838 15.3623H64.1973V15.3135C64.1631 14.3955 63.3867 13.6582 61.9951 13.6582C60.6621 13.6582 59.8027 14.3027 59.8027 15.2988V15.3037C59.8027 16.085 60.3154 16.5928 61.3311 16.8076L62.2197 16.9932C62.7324 17.1055 62.9082 17.2666 62.9082 17.5449V17.5498C62.9082 17.8867 62.5811 18.0967 62.0439 18.0967C61.4727 18.0967 61.165 17.8574 61.0723 17.4473L61.0625 17.4033H59.6709L59.6758 17.4473C59.7881 18.4385 60.5938 19.1074 62.0439 19.1074Z" fill="#92A2E7"/>
<path d="M79.6475 19H81.0732V15.8408C81.0732 15.25 81.4395 14.8398 81.9814 14.8398C82.5088 14.8398 82.8262 15.1719 82.8262 15.7334V19H84.1982V15.8164C84.1982 15.2354 84.5547 14.8398 85.0967 14.8398C85.6484 14.8398 85.9512 15.1719 85.9512 15.7773V19H87.377V15.4209C87.377 14.3662 86.6885 13.6582 85.6631 13.6582C84.8965 13.6582 84.2715 14.0781 84.0371 14.7373H84.0078C83.832 14.0488 83.2998 13.6582 82.5674 13.6582C81.8643 13.6582 81.3174 14.0488 81.1025 14.6445H81.0732V13.7656H79.6475V19Z" fill="#92A2E7"/>
<path d="M102.767 19.1074C103.064 19.1074 103.294 19.0781 103.455 19.0537V18.0088C103.367 18.0186 103.274 18.0332 103.147 18.0332C102.718 18.0332 102.498 17.8672 102.498 17.3789V14.8398H103.455V13.7656H102.498V12.4863H101.058V13.7656H100.33V14.8398H101.058V17.5352C101.058 18.6582 101.604 19.1074 102.767 19.1074Z" fill="#92A2E7"/>
<path d="M120.534 19H122.033L122.976 15.2988H123.005L123.952 19H125.471L126.857 13.7656H125.451L124.655 17.6475H124.626L123.693 13.7656H122.326L121.398 17.6475H121.369L120.578 13.7656H119.143L120.534 19Z" fill="#92A2E7"/>
<path d="M143.767 19.1074C144.064 19.1074 144.294 19.0781 144.455 19.0537V18.0088C144.367 18.0186 144.274 18.0332 144.147 18.0332C143.718 18.0332 143.498 17.8672 143.498 17.3789V14.8398H144.455V13.7656H143.498V12.4863H142.058V13.7656H141.33V14.8398H142.058V17.5352C142.058 18.6582 142.604 19.1074 143.767 19.1074Z" fill="#92A2E7"/>
<path d="M162.062 19H163.488V14.8398H164.494V13.7656H163.454V13.3994C163.454 13.0234 163.664 12.8232 164.138 12.8232C164.27 12.8232 164.406 12.8281 164.504 12.8477V11.9053C164.338 11.8711 164.05 11.8467 163.786 11.8467C162.551 11.8467 162.062 12.3203 162.062 13.3457V13.7656H161.35V14.8398H162.062V19Z" fill="#92A2E7"/>
<path d="M183.044 19.1074C184.392 19.1074 185.334 18.4336 185.334 17.4082V17.4033C185.334 16.6318 184.885 16.2021 183.791 15.9727L182.902 15.7822C182.375 15.6699 182.194 15.4941 182.194 15.2256V15.2207C182.194 14.8838 182.502 14.6641 182.995 14.6641C183.522 14.6641 183.83 14.9473 183.879 15.3232L183.884 15.3623H185.197V15.3135C185.163 14.3955 184.387 13.6582 182.995 13.6582C181.662 13.6582 180.803 14.3027 180.803 15.2988V15.3037C180.803 16.085 181.315 16.5928 182.331 16.8076L183.22 16.9932C183.732 17.1055 183.908 17.2666 183.908 17.5449V17.5498C183.908 17.8867 183.581 18.0967 183.044 18.0967C182.473 18.0967 182.165 17.8574 182.072 17.4473L182.062 17.4033H180.671L180.676 17.4473C180.788 18.4385 181.594 19.1074 183.044 19.1074Z" fill="#92A2E7"/>
<ellipse cx="27.3372" cy="10.6813" rx="3.36393" ry="4.58717" transform="rotate(-146.469 27.3372 10.6813)" fill="#FFE4E2"/>
<path d="M132.158 130.951C131.185 134.011 129.467 136.781 127.159 139.014C126.979 139.195 126.784 139.371 126.612 139.561C125.521 140.732 124.142 141.598 122.612 142.072C121.81 142.362 120.952 142.458 120.106 142.353C119.26 142.247 118.451 141.943 117.745 141.464C115.794 140.175 115.082 138.275 114.962 136.075C114.919 134.749 115.038 133.422 115.315 132.125C115.364 131.951 115.394 131.772 115.406 131.592C115.387 131.05 115.582 130.429 115.115 130.011C114.623 129.451 113.941 129.095 113.201 129.01C111.534 128.938 109.886 128.811 108.231 128.705C107.459 128.667 106.695 128.528 105.959 128.292C105.191 128.071 104.512 127.615 104.018 126.987C103.523 126.36 103.238 125.593 103.203 124.795C103.051 123.502 103.314 122.193 103.955 121.06C105.121 119.025 106.768 117.307 108.753 116.057C110.219 115.048 111.85 114.303 113.573 113.853C115.582 113.341 117.67 113.216 119.725 113.483C121.191 113.647 122.633 113.979 124.022 114.472C126.62 115.52 128.933 116.972 130.657 119.262C132.21 121.304 133.039 123.805 133.012 126.371C133.034 127.939 132.743 129.496 132.158 130.951Z" fill="#FFE4E2"/>
<path d="M290.449 22.4084C289.012 21.7968 287.574 21.1485 286.167 20.5001C285.623 20.2623 285.037 20.1354 284.443 20.1271C284.347 20.1147 284.25 20.1269 284.16 20.1625C284.07 20.1982 283.991 20.256 283.93 20.3306C283.869 20.4052 283.828 20.4942 283.81 20.5891C283.793 20.6841 283.8 20.7818 283.831 20.8732C283.923 21.4204 284.184 21.9251 284.577 22.3167C285.142 22.8829 285.789 23.3594 286.498 23.7295C287.378 24.1393 288.253 24.5736 289.164 24.9528C290.524 25.5368 291.842 26.2132 293.109 26.9772C293.361 27.1321 293.595 27.3147 293.807 27.5216C294.139 27.7726 294.4 28.1056 294.564 28.4878C294.729 28.87 294.791 29.2884 294.746 29.7021C294.7 30.1158 294.548 30.5105 294.304 30.8477C294.06 31.1848 293.733 31.4529 293.354 31.6256C292.502 32.1028 291.561 32.3985 290.589 32.4941C288.434 32.6679 286.264 32.4609 284.18 31.8825C283.314 31.6947 282.474 31.403 281.678 31.0139C280.895 30.5919 280.082 30.2188 279.336 29.7418C277.692 28.7677 276.265 27.4691 275.14 25.9252C273.74 23.942 272.757 21.6946 272.253 19.3197C272.05 18.1706 272.205 16.9868 272.697 15.9288C273.189 14.8707 273.995 13.9898 275.005 13.4053C277.43 12.0871 280.098 11.2756 282.846 11.02C285.92 10.7213 289.023 10.9488 292.021 11.6928C292.762 11.8623 293.491 12.0789 294.204 12.3411C295.427 12.8059 296.693 13.1668 297.874 13.7295C300.076 14.7531 301.928 16.4015 303.201 18.4696C303.664 19.1379 303.936 19.9191 303.99 20.7301C304.044 21.5411 303.877 22.3515 303.507 23.0751C303.234 23.6744 302.808 24.1906 302.271 24.571C301.733 24.9514 301.105 25.1823 300.449 25.2402C299.181 25.3429 297.905 25.2291 296.675 24.9038C294.479 24.384 292.504 23.2953 290.449 22.4084Z" fill="#E6F6E7"/>
<path d="M52.9607 132.156C54.2043 133.102 55.4389 134.083 56.6438 135.056C57.1133 135.42 57.6507 135.687 58.2245 135.84C58.3143 135.876 58.4115 135.888 58.5072 135.875C58.6029 135.863 58.6938 135.826 58.7714 135.769C58.849 135.711 58.9107 135.635 58.9508 135.547C58.9908 135.46 59.0079 135.363 59.0004 135.267C59.0452 134.714 58.9159 134.161 58.6307 133.685C58.2225 132.997 57.7113 132.377 57.1151 131.844C56.3617 131.231 55.6202 130.596 54.8296 130.005C53.6546 129.105 52.5425 128.126 51.5012 127.075C51.2948 126.863 51.1128 126.629 50.9586 126.376C50.6984 126.052 50.5269 125.665 50.461 125.254C50.395 124.843 50.4369 124.422 50.5826 124.032C50.7282 123.642 50.9725 123.297 51.2917 123.03C51.6108 122.763 51.9939 122.583 52.4033 122.508C53.346 122.254 54.331 122.198 55.2964 122.344C57.4292 122.704 59.482 123.436 61.3608 124.508C62.1541 124.902 62.8969 125.391 63.5731 125.963C64.2287 126.564 64.9259 127.125 65.5324 127.771C66.8867 129.118 67.9525 130.727 68.6647 132.499C69.5363 134.765 69.9376 137.185 69.8444 139.611C69.7599 140.775 69.3195 141.884 68.5828 142.79C67.8462 143.695 66.849 144.351 65.7265 144.67C63.0523 145.354 60.2671 145.487 57.54 145.061C54.4864 144.597 51.5342 143.616 48.8104 142.16C48.1337 141.814 47.4797 141.425 46.8524 140.996C45.7804 140.246 44.6414 139.586 43.6349 138.751C41.7509 137.219 40.3589 135.167 39.632 132.85C39.3473 132.088 39.2744 131.264 39.421 130.465C39.5675 129.665 39.9281 128.92 40.4643 128.31C40.8753 127.795 41.4155 127.399 42.0297 127.162C42.6438 126.925 43.3099 126.855 43.9598 126.96C45.2142 127.171 46.4235 127.594 47.536 128.211C49.5373 129.253 51.1857 130.793 52.9607 132.156Z" fill="#FFEDCC"/>
<path d="M308.82 114.98C308.912 114.958 308.998 114.914 309.07 114.852C309.142 114.791 309.199 114.713 309.236 114.626C309.831 113.617 310.543 112.683 311.359 111.843C311.902 111.296 312.519 110.828 313.193 110.454C313.658 110.164 314.183 109.983 314.728 109.927C315.273 109.871 315.823 109.94 316.337 110.13C316.772 110.292 317.135 110.602 317.365 111.005C317.809 111.743 318.04 112.59 318.031 113.451C318.031 113.886 318.031 114.314 318.031 114.748C318.042 115.371 317.949 115.991 317.756 116.583C317.485 117.761 317.029 118.888 316.404 119.922C316.393 119.947 316.387 119.974 316.387 120.002C316.387 120.029 316.393 120.056 316.404 120.081C316.424 120.119 316.457 120.147 316.497 120.161C316.537 120.174 316.58 120.172 316.619 120.155L318.527 119.647C319.846 119.362 321.201 119.278 322.545 119.396C323.001 119.446 323.45 119.544 323.885 119.69C324.206 119.772 324.506 119.921 324.765 120.126C325.025 120.332 325.238 120.59 325.391 120.884C325.544 121.178 325.633 121.501 325.653 121.831C325.673 122.162 325.622 122.493 325.505 122.803C325.242 123.683 324.767 124.485 324.123 125.14C323.353 125.914 322.465 126.562 321.493 127.06C320.036 127.802 318.537 128.457 317.004 129.023C316.227 129.329 315.481 129.696 314.716 130.02C313.157 130.681 311.585 131.299 309.989 131.855C309.878 131.892 309.774 131.935 309.664 131.965C309.509 132.003 309.368 132.086 309.259 132.203C309.15 132.321 309.078 132.468 309.053 132.626C308.839 133.549 308.606 134.461 308.368 135.378C308.227 135.935 308.056 136.479 307.909 137.036C307.866 137.188 307.787 137.36 307.958 137.537C308.313 137.262 308.674 136.993 309.028 136.705C310.026 135.885 311.109 135.174 312.258 134.583C313.363 134.036 314.548 133.664 315.768 133.482C316.361 133.387 316.96 133.333 317.56 133.323C317.766 133.324 317.971 133.301 318.172 133.256C318.533 133.146 318.918 133.146 319.279 133.256C319.643 133.345 320.02 133.368 320.392 133.323C321.01 133.34 321.625 133.42 322.227 133.562C322.397 133.594 322.564 133.645 322.723 133.714C322.857 133.747 322.982 133.81 323.088 133.899C323.194 133.988 323.278 134.1 323.334 134.227C323.389 134.353 323.415 134.491 323.409 134.629C323.402 134.767 323.364 134.902 323.297 135.023C323.246 135.157 323.176 135.283 323.089 135.396C322.35 136.378 321.491 137.263 320.533 138.033C318.325 139.593 315.811 140.667 313.157 141.182C312.679 141.277 312.194 141.326 311.707 141.329C311.193 141.329 310.674 141.329 310.154 141.329C309.18 141.311 308.21 141.225 307.248 141.072C306.875 141.072 306.814 141.072 306.704 141.427C306.472 142.192 306.258 142.968 305.982 143.721C305.791 144.389 305.413 144.989 304.894 145.452C304.661 145.641 304.484 145.598 304.38 145.305C304.233 144.866 304.222 144.392 304.349 143.947C304.588 143.029 304.826 142.112 305.096 141.213C305.866 138.632 306.612 136.045 307.267 133.433C307.359 133.072 307.444 132.711 307.518 132.351C307.591 131.99 307.518 131.8 307.163 131.678C306.808 131.555 306.404 131.427 306.019 131.317C303.906 130.76 301.871 129.938 299.964 128.87C298.447 127.987 297.114 126.82 296.037 125.433C295.286 124.492 294.62 123.485 294.05 122.424C293.656 121.694 293.356 120.917 293.157 120.112C292.877 119.105 292.974 118.03 293.432 117.091C293.64 116.662 293.96 116.298 294.359 116.037C294.757 115.777 295.219 115.629 295.695 115.61C297.139 115.549 298.565 115.948 299.768 116.748C299.897 116.815 300.013 116.901 300.141 116.956C300.175 116.967 300.211 116.97 300.246 116.964C300.281 116.958 300.313 116.943 300.341 116.922C300.369 116.9 300.391 116.871 300.405 116.839C300.42 116.807 300.426 116.771 300.423 116.736C300.261 115.628 300.224 114.506 300.313 113.39C300.322 112.416 300.438 111.446 300.661 110.497C300.832 109.766 301.202 109.097 301.732 108.565C301.901 108.389 302.103 108.249 302.326 108.152C302.55 108.056 302.791 108.004 303.034 108.002C303.523 107.984 304.01 108.065 304.466 108.238C304.923 108.411 305.341 108.674 305.695 109.011C306.399 109.651 306.986 110.409 307.432 111.25C307.791 111.936 308.109 112.642 308.386 113.366C308.6 113.88 308.557 114.448 308.82 114.98Z" fill="#FFE4E2"/>
<ellipse cx="22.6807" cy="103.507" rx="3.36393" ry="4.58717" transform="rotate(-50.7528 22.6807 103.507)" fill="#E6E9FD"/>
<ellipse cx="329.681" cy="30.5065" rx="3.36393" ry="4.58717" transform="rotate(-50.7528 329.681 30.5065)" fill="#E6E9FD"/>
<path d="M22.1384 65.2254C20.3128 65.366 18.4768 65.1737 16.72 64.6578C15.4644 64.3572 14.2312 63.9702 13.029 63.4996C11.5158 62.8734 10.0719 62.0915 8.72047 61.1665C8.00944 60.6762 7.34414 60.1224 6.69138 59.574C5.91802 58.8966 5.21287 58.145 4.58605 57.3301C3.54905 56.024 2.68326 54.5906 2.00971 53.0649C1.90938 52.858 1.82666 52.6431 1.76244 52.4223C1.57293 51.7018 1.3321 50.9957 1.04179 50.3096C0.616001 49.3328 0.395261 48.2789 0.393233 47.2133C0.350068 45.9185 0.600232 44.6307 1.12501 43.4462C1.35422 42.979 1.70953 42.5854 2.15078 42.3096C2.59986 42.048 3.11033 41.9103 3.63004 41.9106C4.14975 41.9109 4.66007 42.0491 5.10887 42.3112C6.03272 42.7838 6.83471 43.4638 7.45212 44.2979C8.51797 45.6591 9.45946 47.1133 10.2653 48.6429C10.9418 49.8943 11.4254 51.2046 12.0772 52.4512C12.2505 52.8136 12.4849 53.1434 12.7702 53.4262C12.8159 53.4731 12.8723 53.5081 12.9346 53.5283C12.9969 53.5485 13.0632 53.5532 13.1277 53.542C13.1923 53.5309 13.2531 53.5042 13.305 53.4643C13.357 53.4244 13.3984 53.3725 13.4258 53.313C13.57 53.0624 13.6422 52.7768 13.6346 52.4878C13.6223 51.763 13.4798 51.0463 13.2139 50.372C12.9077 49.5364 12.5955 48.7011 12.2356 47.8928C11.8246 47.0083 11.4946 46.0885 11.2497 45.1445C10.9942 44.2555 10.9862 43.3136 11.2265 42.4204C11.374 41.8939 11.6791 41.4252 12.1008 41.0772C12.3964 40.8217 12.7629 40.6624 13.1514 40.6206C13.54 40.5788 13.932 40.6565 14.2752 40.8434C15.003 41.186 15.6532 41.6737 16.1859 42.2765C17.5826 43.8875 18.7521 45.6821 19.6621 47.6103C20.0915 48.5832 20.6066 49.516 21.2012 50.3976C21.3355 50.6208 21.5073 50.8191 21.7089 50.984C21.7436 51.0099 21.7836 51.0276 21.826 51.0359C21.8684 51.0442 21.9122 51.0428 21.954 51.0318C21.9958 51.0209 22.0346 51.0006 22.0675 50.9726C22.1004 50.9445 22.1266 50.9094 22.144 50.8699C22.3879 50.3141 22.467 49.7 22.3719 49.1005C22.0993 47.7243 21.7662 46.3634 21.5483 44.9782C21.2975 43.7358 21.3196 42.4538 21.613 41.2207C21.8607 40.3588 22.3692 39.5946 23.0687 39.0333C23.3574 38.7908 23.6967 38.6161 24.0618 38.5221C24.4269 38.4282 24.8084 38.4173 25.1783 38.4904C25.8034 38.5874 26.4045 38.8018 26.9499 39.1223C28.0218 39.7925 28.9771 40.633 29.7782 41.6109C30.4327 42.3714 31.0289 43.1803 31.5618 44.0304C32.3786 45.3836 33.0095 46.8406 33.4373 48.3622C33.7402 49.4377 33.9202 50.5441 33.9737 51.6602C34.0477 53.0958 33.8533 54.5325 33.4007 55.8969C32.9566 57.3463 32.3323 58.7342 31.5423 60.028C30.9125 61.0257 30.1443 61.929 29.2607 62.7109C28.6118 63.2751 27.8733 63.7269 27.0755 64.0477C25.5337 64.791 23.8497 65.1928 22.1384 65.2254Z" fill="#E6F6E7"/>
<path d="M308.979 57.9905C310.187 56.4067 311.745 55.1231 313.53 54.2399C314.56 53.7344 315.655 53.3727 316.783 53.165C319.366 52.5961 322.062 52.8481 324.495 53.8856C326.802 54.724 328.946 55.9584 330.829 57.5332C332.994 59.3747 334.78 61.6197 336.088 64.143C336.739 65.4265 337.216 66.7909 337.508 68.2003C337.827 69.7069 337.599 71.2779 336.866 72.6319C336.039 74.2004 334.696 75.203 333.314 76.1746C331.452 77.4206 329.441 78.4292 327.328 79.1767C323.939 80.4112 320.445 81.3384 316.89 81.9473C315.473 82.2097 314.08 82.5784 312.641 82.7039C311.796 82.7593 310.948 82.7122 310.115 82.5635C309.447 82.4477 308.812 82.1878 308.254 81.8019C307.696 81.4159 307.229 80.9133 306.885 80.3287C306.216 79.3375 305.813 78.1905 305.716 76.9984C305.71 76.8716 305.697 76.7452 305.678 76.6197C305.274 74.0211 305.204 71.3813 305.472 68.765C305.582 66.6441 305.93 64.5422 306.51 62.4992C306.997 60.8352 307.839 59.2968 308.979 57.9905Z" fill="#FFEDCC"/>
<path d="M247.596 120.215L250.383 150.037H259.58" stroke="black" stroke-width="1.5"/>
<path d="M276.195 95.843C276.22 109.279 260.299 135.976 231.5 133.319C202.702 130.663 197.634 108.334 197.239 91.9327C196.817 74.4191 207.07 65.741 208.546 52.2677C209.173 46.5365 209.569 40.3511 212.309 34.4522C215.875 25.5623 225.538 19.5494 236.481 19.6203C250.23 19.7094 259.304 27.1638 262.572 35.2824C265.295 42.0479 264.797 46.6899 265.265 53.189C266.544 70.9193 276.151 71.8972 276.195 95.843Z" fill="#296107"/>
<path d="M269.233 96.7985C269.325 110.055 254.884 136.313 228.5 133.543C202.116 130.774 193.947 109.375 193.501 93.191C193.024 75.9097 205.782 66.7439 207.064 53.4585C207.609 47.8072 207.94 41.7066 210.418 35.9008C213.637 27.1482 222.455 21.2655 232.475 21.3917C245.066 21.5503 253.413 28.9517 256.447 36.9784C258.975 43.6673 258.543 48.2447 259.006 54.6592C260.268 72.1587 269.069 73.173 269.233 96.7985Z" fill="#C2ECA8"/>
<path d="M269.234 96.7985C269.326 110.055 254.885 136.313 228.501 133.543C200.495 114.641 208.419 93.5983 213.873 76.4582C217.775 64.1951 232.267 48.8662 219.168 25.1761C238.83 12.1159 252.402 25.3582 257.351 36.8818C260.173 43.4522 258.544 48.2447 259.007 54.6592C260.269 72.1588 269.07 73.173 269.234 96.7985Z" fill="#296107"/>
<path d="M280.226 97.7261C280.256 112.48 262.835 141.789 231.311 138.865C199.787 135.941 190.149 112.174 189.713 94.1642C189.247 74.9338 204.553 64.6564 206.165 49.8627C206.851 43.5699 207.282 36.7783 210.28 30.3019C214.181 20.5414 224.756 13.9416 236.735 14.0221C251.785 14.1233 261.719 22.3107 265.298 31.2259C268.28 38.6552 267.736 43.7521 268.251 50.8884C269.655 70.3569 280.171 71.4331 280.226 97.7261Z" stroke="black" stroke-width="1.5"/>
<mask id="mask0_323_11123" style="mask-type:alpha" maskUnits="userSpaceOnUse" x="197" y="19" width="80" height="115">
<path d="M276.196 95.8429C276.221 109.279 261.471 134.543 231.491 133.829C201.511 133.115 196.323 109.058 197.24 91.9326C198.177 74.439 207.071 65.741 208.546 52.2676C209.174 46.5365 209.57 40.351 212.31 34.4522C215.875 25.5622 225.538 19.5494 236.481 19.6203C250.23 19.7093 259.305 27.1637 262.572 35.2823C265.295 42.0478 264.797 46.6899 265.266 53.189C266.545 70.9192 276.151 71.8972 276.196 95.8429Z" fill="#296107"/>
</mask>
<g mask="url(#mask0_323_11123)">
<path d="M269.234 96.798C269.326 110.055 254.885 136.312 228.501 133.543C200.495 114.641 208.419 93.5978 213.873 76.4577C217.775 64.1946 232.267 48.8657 219.168 25.1756C238.83 12.1154 252.402 25.3577 257.351 36.8813C260.173 43.4517 258.544 48.2442 259.007 54.6588C260.269 72.1583 269.07 73.1725 269.234 96.798Z" fill="#296107"/>
<path d="M257.791 129.242C230.39 143.431 210.288 131.688 203.662 124.043C218.341 123.329 239.748 124.043 255.344 108.752C272.568 91.8662 270.125 68.8947 268.494 60.7397L275.834 64.1037C281.236 79.9039 285.191 115.052 257.791 129.242Z" fill="black" fill-opacity="0.15"/>
</g>
<path d="M209.972 119.379L214.988 150.037H205.791" stroke="black" stroke-width="1.5"/>
<path d="M212.086 55.5183C211.247 55.9184 209.57 56.7187 207.658 56.3345C207.285 56.2597 206.941 56.1332 206.625 55.9714" stroke="black" stroke-width="1.5"/>
<path d="M220.32 34.1987C218.743 33.9384 214.999 32.2171 212.639 27.4143C209.689 21.4108 211.712 17.3116 215.092 15.3409C218.471 13.3702 222.824 14.647 225.168 18.1534C227.512 21.6598 227.745 24.0297 225.994 24.89C224.243 25.7503 221.385 24.3592 219.301 19.4836C217.216 14.6079 218.696 9.59143 220.252 8.14753C222.385 6.16811 224.212 6.30549 225.501 6.18984" stroke="black" stroke-width="1.5"/>
<circle cx="212.516" cy="48.3461" r="1.88745" transform="rotate(24.9676 212.516 48.3461)" fill="black"/>
<path d="M207.275 66.5408L179.839 57.188L174.564 52.4844" stroke="black" stroke-width="1.5"/>
</svg>
