<svg width="48" height="70" viewBox="0 0 48 70" fill="none" xmlns="http://www.w3.org/2000/svg">
<path d="M44.6156 44.0085C44.6277 50.5198 36.9122 63.4572 22.9563 62.1697C9.00029 60.8822 5.03107 50.3938 4.83958 42.4455C4.63511 33.9583 11.1171 29.421 11.8323 22.8917C12.1365 20.1144 12.3283 17.1169 13.656 14.2583C15.384 9.9502 20.0666 7.03635 25.3697 7.0707C32.0326 7.11386 36.4299 10.7263 38.0134 14.6606C39.333 17.9392 39.0918 20.1887 39.3189 23.3382C39.9387 31.9304 44.5939 32.4043 44.6156 44.0085Z" fill="#C69999"/>
<path d="M41.9122 44.5903C41.8338 50.8997 34.4649 63.2927 21.4761 61.7869C8.48727 60.2811 4.66049 50.375 4.58858 42.3343C4.50781 33.3032 10.8937 29.8357 11.6503 23.5224C11.9721 20.837 12.2102 17.7003 13.487 14.955C15.1568 10.8126 19.543 8.3117 24.4848 8.44313C30.6938 8.60826 34.7422 12.1899 36.1637 16.0314C37.3484 19.2326 37.0925 21.4078 37.2608 24.4638C37.72 32.8006 42.052 33.346 41.9122 44.5903Z" fill="#F5EAEA"/>
<path d="M46.565 44.9212C46.5799 52.0708 38.1377 66.2744 22.861 64.8573C7.58432 63.4401 2.91379 51.9225 2.70222 43.1951C2.4763 33.876 9.89366 28.8955 10.6749 21.7265C11.0072 18.6769 11.2163 15.3857 12.669 12.2472C14.5594 7.51726 19.6844 4.31895 25.4892 4.35798C32.7824 4.40702 37.5967 8.37464 39.331 12.695C40.7763 16.2953 40.5127 18.7652 40.7622 22.2235C41.4427 31.658 46.5385 32.1795 46.565 44.9212Z" stroke="black"/>
<path d="M21.7319 55.6602C18.3447 55.6337 11.6004 52.2452 13.083 44.6385C14.5655 37.0318 19.7567 35.4094 22.0354 35.4617C24.8838 35.5271 30.4362 39.7306 30.5205 46.089C30.6119 52.9885 25.1192 55.6867 21.7319 55.6602Z" fill="#75452F"/>
<path d="M21.2006 54.0107C18.3676 53.9885 12.7267 51.1544 13.9667 44.7923C15.2067 38.4302 19.5485 37.0732 21.4544 37.117C23.8368 37.1716 28.4807 40.6874 28.5512 46.0055C28.6277 51.7761 24.0336 54.0329 21.2006 54.0107Z" fill="#8B5338"/>
<path d="M19.9609 26.3752C20.3211 26.7354 21.0414 27.4557 21.9869 27.4557C22.9323 27.4557 23.6526 26.9155 24.0128 26.6454" stroke="black"/>
<path d="M22.6565 18.1367C22.0262 17.6865 20.7656 16.1378 20.7656 13.5446C20.7656 10.3031 22.5214 8.95246 24.4123 8.8174C26.3032 8.68234 27.9239 10.168 28.1941 12.194C28.4642 14.2199 28.059 15.3004 27.1136 15.3004C26.1681 15.3004 25.2227 14.0848 25.3577 11.5187C25.4928 8.95247 27.2088 7.08703 28.1941 6.79147C29.5447 6.38628 30.31 6.83649 30.8953 7.06159" stroke="black"/>
<circle cx="17.9321" cy="24.485" r="1.0805" fill="black"/>
<circle cx="26.3071" cy="24.485" r="1.0805" fill="black"/>
<path d="M21.7259 56.0717C18.3106 56.0449 11.5105 52.6284 13.0053 44.9587C14.5001 37.2891 19.7342 35.6532 22.0318 35.706C24.9038 35.7719 30.5022 40.0102 30.5872 46.4212C30.6794 53.3778 25.1412 56.0984 21.7259 56.0717Z" fill="#75452F"/>
<path d="M21.0597 53.8894C18.3776 53.8684 13.0374 51.1854 14.2113 45.1623C15.3852 39.1392 19.4957 37.8546 21.3 37.896C23.5554 37.9478 27.9519 41.2762 28.0186 46.3108C28.091 51.7739 23.7418 53.9104 21.0597 53.8894Z" fill="#8B5338"/>
<path d="M19.9797 50.4944C18.728 50.3374 16.3655 48.5082 17.2102 45.1133C18.0549 41.7184 20.0381 41.203 20.8789 41.3243C21.9298 41.4759 23.8197 43.6246 23.6031 46.519C23.3682 49.6597 21.2315 50.6514 19.9797 50.4944Z" fill="#A75E3D"/>
</svg>
