<svg width="30" height="33" viewBox="0 0 30 33" fill="none" xmlns="http://www.w3.org/2000/svg">
<circle cx="15" cy="17.0347" r="14.5" stroke="black"/>
<circle cx="15.0004" cy="17.0345" r="12.931" fill="#296107"/>
<circle cx="14.4831" cy="17.5515" r="12.4138" fill="#C2ECA8"/>
<path d="M9.03223 17.599C9.03223 17.9716 9.28372 18.7168 10.2897 18.7168C11.2957 18.7168 11.5472 18.0544 11.5472 17.7232" stroke="black"/>
<path d="M17.5869 17.599C17.5869 17.9716 17.8384 18.7168 18.8444 18.7168C19.8504 18.7168 20.1019 18.0544 20.1019 17.7232" stroke="black"/>
<path d="M14.2852 12.9051C13.6332 12.4394 12.3291 10.8373 12.3291 8.15465C12.3291 4.80138 14.1455 3.40418 16.1015 3.26446C18.0576 3.12474 19.7342 4.66167 20.0137 6.75746C20.2931 8.85325 19.874 9.97102 18.8959 9.97102C17.9179 9.97101 16.9399 8.71354 17.0796 6.05887C17.2193 3.40419 18.9945 1.47443 20.0137 1.16867C21.4109 0.749515 22.2026 1.21524 22.8081 1.44811" stroke="black"/>
<path d="M16.5605 23.1958C16.188 22.8232 15.4428 22.078 14.4648 22.078C13.4867 22.078 12.7415 22.6369 12.369 22.9164" stroke="black"/>
</svg>
