<svg width="48" height="64" viewBox="0 0 48 64" fill="none" xmlns="http://www.w3.org/2000/svg">
<path d="M44.6126 41.0087C44.6248 47.52 36.9093 60.4574 22.9533 59.1699C8.99736 57.8824 5.02814 47.394 4.83665 39.4457C4.63218 30.9586 11.1142 26.4212 11.8294 19.892C12.1336 17.1146 12.3253 14.1172 13.6531 11.2585C15.381 6.95045 20.0637 4.0366 25.3668 4.07095C32.0296 4.11411 36.427 7.72654 38.0105 11.6608C39.3301 14.9394 39.0888 17.189 39.316 20.3385C39.9358 28.9306 44.591 29.4045 44.6126 41.0087Z" fill="#296107"/>
<path d="M41.9122 41.5906C41.8338 47.9 34.4649 60.2929 21.4761 58.7871C8.48727 57.2813 4.66049 47.3753 4.58858 39.3345C4.50781 30.3034 10.8937 26.836 11.6503 20.5227C11.9721 17.8372 12.2102 14.7005 13.487 11.9552C15.1568 7.81284 19.543 5.31194 24.4848 5.44337C30.6938 5.6085 34.7422 9.19017 36.1637 13.0316C37.3484 16.2329 37.0925 18.4081 37.2608 21.464C37.72 29.8009 42.052 30.3462 41.9122 41.5906Z" fill="#C2ECA8"/>
<path d="M46.565 41.9214C46.5799 49.071 38.1377 63.2747 22.861 61.8575C7.58432 60.4404 2.91379 48.9228 2.70222 40.1953C2.4763 30.8762 9.89366 25.8958 10.6749 18.7267C11.0072 15.6772 11.2163 12.386 12.669 9.24747C14.5594 4.51751 19.6844 1.3192 25.4892 1.35823C32.7824 1.40727 37.5967 5.37489 39.331 9.69522C40.7763 13.2955 40.5127 15.7655 40.7622 19.2238C41.4427 28.6583 46.5385 29.1798 46.565 41.9214Z" stroke="black"/>
<path d="M21.729 52.6604C18.3418 52.6339 11.5975 49.2454 13.08 41.6387C14.5625 34.0321 19.7537 32.4097 22.0325 32.462C24.8809 32.5273 30.4333 36.7309 30.5176 43.0892C30.609 49.9887 25.1163 52.6869 21.729 52.6604Z" fill="#75452F"/>
<path d="M21.2016 51.0104C18.3685 50.9883 12.7277 48.1542 13.9677 41.7921C15.2076 35.4299 19.5495 34.073 21.4554 34.1167C23.8377 34.1714 28.4817 37.6872 28.5522 43.0052C28.6287 48.7759 24.0346 51.0326 21.2016 51.0104Z" fill="#8B5338"/>
<path d="M19.9561 23.375C20.3162 23.7352 21.0366 24.4555 21.982 24.4555C22.9274 24.4555 23.6478 23.9152 24.0079 23.6451" stroke="black"/>
<path d="M22.6575 15.1362C22.0272 14.686 20.7666 13.1373 20.7666 10.5441C20.7666 7.3026 22.5224 5.95197 24.4133 5.81691C26.3042 5.68185 27.9249 7.16754 28.195 9.19347C28.4652 11.2194 28.06 12.2999 27.1145 12.2999C26.1691 12.2999 25.2237 11.0844 25.3587 8.51817C25.4938 5.95198 27.2098 4.08654 28.195 3.79098C29.5457 3.38579 30.311 3.836 30.8963 4.0611" stroke="black"/>
<circle cx="17.9301" cy="21.4848" r="1.0805" fill="black"/>
<circle cx="26.3041" cy="21.4848" r="1.0805" fill="black"/>
<path d="M21.7259 53.0719C18.3106 53.0452 11.5105 49.6286 13.0053 41.959C14.5001 34.2893 19.7342 32.6535 22.0318 32.7062C24.9038 32.7721 30.5022 37.0105 30.5872 43.4214C30.6794 50.3781 25.1412 53.0986 21.7259 53.0719Z" fill="#75452F"/>
<path d="M21.0607 50.8891C18.3786 50.8682 13.0384 48.1851 14.2123 42.1621C15.3862 36.139 19.4966 34.8544 21.3009 34.8958C23.5563 34.9475 27.9528 38.2759 28.0195 43.3106C28.0919 48.7736 23.7427 50.9101 21.0607 50.8891Z" fill="#8B5338"/>
<path d="M19.9827 47.4946C18.7309 47.3376 16.3685 45.5085 17.2131 42.1136C18.0578 38.7187 20.041 38.2032 20.8818 38.3245C21.9327 38.4761 23.8226 40.6248 23.6061 43.5192C23.3711 46.6599 21.2344 47.6516 19.9827 47.4946Z" fill="#A75E3D"/>
</svg>
