<svg width="290" height="240" viewBox="0 0 290 240" fill="none" xmlns="http://www.w3.org/2000/svg">
<ellipse cx="142.575" cy="231.465" rx="106.731" ry="7.71549" fill="#D2D9FF"/>
<ellipse cx="7.96225" cy="72.2122" rx="4.71502" ry="6.42957" transform="rotate(-50.7528 7.96225 72.2122)" fill="#E6F6E7"/>
<ellipse cx="196.777" cy="7.96409" rx="4.71502" ry="6.42957" transform="rotate(-146.469 196.777 7.96409)" fill="#D2D9FF"/>
<path d="M44.0087 62.2033C39.2215 60.2833 34.9856 57.2054 31.6807 53.2455C31.4117 52.9357 31.1528 52.6023 30.8692 52.305C29.1208 50.4181 27.8962 48.1068 27.3168 45.6005C26.9467 44.2822 26.8939 42.8949 27.1627 41.5522C27.4315 40.2095 28.0144 38.9496 28.8636 37.8753C31.1597 34.9012 34.2869 33.9841 37.8252 34.0517C39.9548 34.1392 42.0659 34.4848 44.1122 35.0811C44.385 35.18 44.6675 35.25 44.9549 35.2898C45.8252 35.3239 46.798 35.7089 47.5227 35.0107C48.4763 34.2879 49.128 33.2372 49.3518 32.0618C49.6622 29.3997 50.0594 26.7743 50.425 24.1356C50.5771 22.9031 50.8892 21.6956 51.3536 20.5438C51.7982 19.34 52.6093 18.3062 53.6727 17.5879C54.7361 16.8697 55.9982 16.5033 57.2809 16.5405C59.3708 16.449 61.4356 17.0253 63.1761 18.1859C66.2989 20.293 68.8568 23.1343 70.6253 26.4606C72.0691 28.929 73.0719 31.63 73.5889 34.4425C74.1728 37.7208 74.128 41.0804 73.4569 44.342C73.0221 46.6708 72.3207 48.9418 71.3665 51.1101C69.3825 55.148 66.7833 58.6827 62.913 61.1749C59.4582 63.4231 55.3529 64.4561 51.2455 64.1108C48.7308 63.9604 46.2709 63.312 44.0087 62.2033Z" fill="#FFE4E2"/>
<path d="M46.5844 134.88C46.9342 137.422 46.8191 140.007 46.2446 142.508C45.9293 144.29 45.4912 146.048 44.9335 147.77C44.1843 149.939 43.2113 152.025 42.0305 153.994C41.4041 155.029 40.685 156.007 39.9725 156.966C39.0896 158.105 38.0972 159.154 37.0096 160.1C35.269 161.66 33.3361 162.992 31.258 164.062C30.9769 164.22 30.6831 164.353 30.3796 164.462C29.3873 164.787 28.4197 165.184 27.484 165.647C26.153 166.325 24.6971 166.722 23.2063 166.814C21.3983 166.983 19.5755 166.741 17.8742 166.106C17.2015 165.825 16.6209 165.361 16.1981 164.766C15.7944 164.16 15.559 163.457 15.5158 162.73C15.4726 162.003 15.6232 161.277 15.9522 160.628C16.5361 159.295 17.4202 158.116 18.5354 157.182C20.3506 155.577 22.3062 154.138 24.3788 152.882C26.073 151.831 27.8657 151.044 29.5552 150.028C30.0477 149.755 30.4895 149.399 30.8612 148.976C30.923 148.909 30.9673 148.827 30.9903 148.738C31.0133 148.649 31.0144 148.556 30.9934 148.466C30.9724 148.377 30.9299 148.294 30.8697 148.225C30.8096 148.156 30.7334 148.102 30.6479 148.069C30.2851 147.888 29.8796 147.811 29.4758 147.846C28.4628 147.924 27.472 148.183 26.5508 148.612C25.4073 149.11 24.2649 149.617 23.1641 150.188C21.9611 150.837 20.7017 151.376 19.4015 151.798C18.1791 152.23 16.862 152.32 15.5921 152.059C14.8431 151.897 14.1618 151.509 13.6396 150.948C13.2572 150.556 13.0036 150.057 12.9125 149.517C12.8215 148.977 12.8974 148.422 13.13 147.926C13.5484 146.879 14.1763 145.928 14.975 145.132C17.1119 143.043 19.5247 141.256 22.1462 139.821C23.4714 139.139 24.7333 138.34 25.917 137.434C26.2179 137.228 26.4811 136.971 26.6949 136.675C26.7282 136.624 26.7496 136.567 26.7577 136.507C26.7657 136.446 26.7601 136.385 26.7412 136.328C26.7224 136.27 26.6908 136.218 26.6488 136.174C26.6068 136.13 26.5555 136.097 26.4987 136.075C25.7006 135.781 24.8347 135.722 24.004 135.905C22.1014 136.402 20.2252 136.982 18.3055 137.403C16.5882 137.858 14.7926 137.935 13.0428 137.628C11.816 137.353 10.7043 136.706 9.86024 135.774C9.49671 135.391 9.22386 134.93 9.06179 134.428C8.89972 133.925 8.85256 133.392 8.92379 132.868C9.00712 131.985 9.2567 131.126 9.65936 130.336C10.5071 128.781 11.6031 127.373 12.904 126.171C13.9133 125.191 14.995 124.289 16.1398 123.472C17.9646 122.216 19.9502 121.211 22.0432 120.485C23.5226 119.971 25.0555 119.626 26.6126 119.458C28.615 119.234 30.6415 119.386 32.5884 119.904C34.6535 120.404 36.6476 121.161 38.5241 122.158C39.9728 122.956 41.3011 123.955 42.4692 125.126C43.313 125.986 44.0071 126.982 44.5228 128.071C45.692 130.166 46.3953 132.488 46.5844 134.88Z" fill="#D2D9FF"/>
<path d="M270.647 114.728C268.633 113.871 266.618 112.962 264.646 112.053C263.883 111.72 263.062 111.542 262.229 111.53C262.095 111.513 261.958 111.53 261.833 111.58C261.707 111.63 261.596 111.711 261.51 111.816C261.425 111.92 261.367 112.045 261.343 112.178C261.318 112.311 261.328 112.448 261.372 112.576C261.501 113.343 261.866 114.051 262.418 114.599C263.208 115.393 264.116 116.061 265.109 116.58C266.344 117.154 267.57 117.763 268.847 118.294C270.753 119.113 272.6 120.061 274.377 121.132C274.73 121.349 275.058 121.605 275.354 121.895C275.819 122.247 276.185 122.713 276.416 123.249C276.646 123.785 276.734 124.371 276.67 124.951C276.606 125.531 276.393 126.084 276.051 126.557C275.709 127.029 275.25 127.405 274.719 127.647C273.526 128.316 272.206 128.731 270.845 128.864C267.823 129.108 264.782 128.818 261.86 128.007C260.647 127.744 259.47 127.335 258.354 126.79C257.257 126.198 256.117 125.675 255.071 125.007C252.768 123.641 250.767 121.821 249.19 119.657C247.227 116.878 245.85 113.727 245.143 110.399C244.858 108.788 245.076 107.129 245.766 105.646C246.456 104.163 247.585 102.928 249.001 102.109C252.4 100.261 256.139 99.1237 259.991 98.7655C264.3 98.3468 268.649 98.6657 272.851 99.7085C273.889 99.9462 274.911 100.25 275.911 100.617C277.626 101.269 279.4 101.775 281.055 102.563C284.141 103.998 286.738 106.308 288.522 109.207C289.17 110.144 289.552 111.239 289.628 112.376C289.703 113.512 289.469 114.648 288.95 115.662C288.568 116.502 287.97 117.226 287.217 117.759C286.464 118.292 285.583 118.616 284.664 118.697C282.887 118.841 281.098 118.682 279.374 118.226C276.297 117.497 273.528 115.971 270.647 114.728Z" fill="#E6F6E7"/>
<path d="M213.708 31.0069C215.402 28.7869 217.585 26.9878 220.088 25.7498C221.532 25.0413 223.066 24.5344 224.647 24.2432C228.268 23.4459 232.047 23.799 235.457 25.2532C238.691 26.4284 241.695 28.1586 244.334 30.3659C247.369 32.947 249.872 36.0936 251.706 39.6304C252.618 41.4295 253.287 43.3419 253.696 45.3174C254.143 47.4291 253.824 49.631 252.796 51.5289C251.637 53.7273 249.754 55.1326 247.818 56.4944C245.208 58.2409 242.389 59.6545 239.428 60.7023C234.677 62.4326 229.781 63.7323 224.797 64.5857C222.811 64.9534 220.859 65.4702 218.841 65.6461C217.658 65.7238 216.469 65.6578 215.301 65.4494C214.364 65.2871 213.474 64.9228 212.693 64.3818C211.911 63.8409 211.256 63.1363 210.774 62.317C209.836 60.9277 209.271 59.3201 209.135 57.6491C209.127 57.4714 209.109 57.2942 209.082 57.1183C208.515 53.476 208.418 49.7759 208.793 46.1089C208.947 43.1361 209.435 40.19 210.248 37.3264C210.93 34.9941 212.111 32.8378 213.708 31.0069Z" fill="#FFEDCC"/>
<path d="M237.192 166.667C237.321 166.635 237.441 166.573 237.542 166.487C237.643 166.4 237.723 166.292 237.775 166.169C238.608 164.756 239.607 163.446 240.75 162.269C241.511 161.502 242.377 160.847 243.322 160.323C243.972 159.915 244.708 159.662 245.472 159.584C246.236 159.505 247.008 159.602 247.728 159.868C248.337 160.095 248.847 160.529 249.168 161.094C249.791 162.129 250.115 163.316 250.103 164.523C250.103 165.132 250.103 165.732 250.103 166.341C250.118 167.214 249.988 168.083 249.717 168.913C249.337 170.563 248.698 172.143 247.822 173.593C247.806 173.628 247.798 173.666 247.798 173.705C247.798 173.743 247.806 173.781 247.822 173.816C247.85 173.868 247.896 173.908 247.952 173.927C248.008 173.946 248.069 173.943 248.122 173.919L250.797 173.208C252.646 172.809 254.545 172.69 256.429 172.856C257.068 172.926 257.697 173.064 258.307 173.268C258.757 173.382 259.177 173.591 259.541 173.879C259.905 174.168 260.204 174.53 260.418 174.942C260.633 175.353 260.758 175.806 260.785 176.269C260.813 176.733 260.742 177.197 260.578 177.631C260.209 178.864 259.544 179.988 258.641 180.906C257.561 181.991 256.317 182.9 254.955 183.598C252.913 184.638 250.812 185.556 248.662 186.35C247.574 186.778 246.528 187.293 245.456 187.747C243.27 188.673 241.067 189.539 238.829 190.319C238.675 190.37 238.529 190.43 238.375 190.473C238.157 190.526 237.959 190.642 237.807 190.807C237.654 190.971 237.554 191.177 237.518 191.399C237.218 192.694 236.892 193.971 236.558 195.257C236.36 196.037 236.12 196.8 235.915 197.58C235.855 197.794 235.743 198.034 235.983 198.283C236.48 197.897 236.986 197.52 237.483 197.117C238.882 195.967 240.4 194.97 242.01 194.142C243.56 193.375 245.22 192.854 246.931 192.599C247.762 192.465 248.601 192.391 249.442 192.376C249.731 192.377 250.018 192.346 250.3 192.282C250.805 192.128 251.346 192.128 251.851 192.282C252.362 192.408 252.89 192.44 253.412 192.376C254.278 192.4 255.14 192.512 255.983 192.711C256.222 192.756 256.455 192.828 256.678 192.925C256.866 192.971 257.042 193.059 257.19 193.184C257.339 193.308 257.457 193.465 257.535 193.643C257.613 193.82 257.649 194.014 257.64 194.207C257.631 194.401 257.578 194.59 257.484 194.76C257.412 194.947 257.314 195.123 257.192 195.283C256.156 196.658 254.952 197.899 253.609 198.977C250.515 201.165 246.99 202.67 243.27 203.392C242.601 203.525 241.921 203.594 241.238 203.598C240.518 203.598 239.79 203.598 239.061 203.598C237.697 203.572 236.336 203.452 234.989 203.238C234.466 203.238 234.38 203.238 234.226 203.735C233.9 204.807 233.6 205.896 233.214 206.95C232.946 207.887 232.417 208.728 231.688 209.376C231.363 209.642 231.114 209.582 230.968 209.17C230.762 208.555 230.747 207.891 230.925 207.267C231.26 205.981 231.594 204.695 231.971 203.435C233.051 199.817 234.097 196.191 235.015 192.531C235.143 192.025 235.263 191.519 235.366 191.013C235.469 190.507 235.366 190.242 234.869 190.07C234.372 189.899 233.806 189.719 233.266 189.564C230.303 188.784 227.451 187.632 224.779 186.135C222.652 184.897 220.784 183.261 219.275 181.317C218.221 179.998 217.289 178.587 216.489 177.1C215.937 176.076 215.517 174.988 215.237 173.859C214.844 172.448 214.982 170.941 215.623 169.624C215.914 169.024 216.363 168.513 216.922 168.148C217.48 167.783 218.128 167.576 218.795 167.55C220.819 167.464 222.818 168.022 224.504 169.144C224.684 169.238 224.847 169.358 225.027 169.436C225.074 169.451 225.125 169.455 225.173 169.447C225.222 169.438 225.268 169.418 225.307 169.387C225.347 169.357 225.377 169.317 225.397 169.272C225.417 169.226 225.426 169.176 225.422 169.127C225.195 167.575 225.143 166.002 225.267 164.438C225.28 163.072 225.444 161.712 225.756 160.383C225.995 159.358 226.514 158.42 227.256 157.674C227.493 157.428 227.776 157.231 228.09 157.096C228.403 156.96 228.741 156.889 229.082 156.885C229.767 156.861 230.449 156.973 231.089 157.216C231.73 157.459 232.315 157.827 232.811 158.3C233.798 159.197 234.621 160.259 235.246 161.437C235.749 162.399 236.195 163.39 236.583 164.403C236.883 165.124 236.823 165.921 237.192 166.667Z" fill="#FFE4E2"/>
<path d="M97.1418 192.887L73.5667 201.888L83.854 230.178H69.709" stroke="black" stroke-width="2"/>
<path d="M198.138 146.831C198.176 167.495 173.69 208.554 129.399 204.468C85.1082 200.382 71.5744 167.095 70.9667 141.87C70.3177 114.935 91.8263 100.535 94.096 79.8141C95.0615 70.9998 95.67 61.487 99.8838 52.4148C105.368 38.7425 120.229 29.495 137.059 29.604C158.204 29.741 172.16 41.2055 177.185 53.6915C181.373 64.0966 180.607 71.2358 181.328 81.2311C183.295 108.499 198.069 110.003 198.138 146.831Z" fill="#296107"/>
<path d="M187.43 148.3C187.571 168.689 165.361 209.072 124.784 204.812C84.2065 200.553 71.6427 167.643 70.9565 142.752C70.2237 116.174 89.8445 102.078 91.8163 81.6456C92.655 72.9542 93.1633 63.5718 96.975 54.6428C101.926 41.1817 115.487 32.1344 130.898 32.3285C150.261 32.5724 163.099 43.9553 167.765 56.3C171.653 66.5873 170.988 73.627 171.7 83.4923C173.641 110.406 187.177 111.966 187.43 148.3Z" fill="#C2ECA8"/>
<path d="M187.433 148.301C187.574 168.689 165.364 209.072 124.787 204.813C146.01 202.814 175.905 183.886 179.016 151.738C181.793 123.027 166.059 103.302 165.299 86.5849C164.871 77.1549 164.871 69.4394 161.013 56.3002C156.536 41.0513 145.582 37.2915 130.901 32.3287C150.264 32.5726 163.102 43.9554 167.768 56.3002C171.656 66.5875 170.991 73.6272 171.703 83.4924C173.644 110.406 187.18 111.966 187.433 148.301Z" fill="#A6D489"/>
<path d="M204.335 149.728C204.382 172.418 177.59 217.495 129.107 212.998C80.6245 208.5 65.802 171.948 65.1305 144.25C64.4136 114.674 87.9535 98.8683 90.4329 76.1164C91.4875 66.4384 92.1512 55.9932 96.7614 46.0328C102.761 31.0217 119.026 20.8714 137.448 20.9953C160.594 21.1509 175.873 33.7427 181.377 47.4538C185.963 58.8798 185.127 66.7186 185.919 77.6939C188.078 107.635 204.251 109.291 204.335 149.728Z" stroke="black" stroke-width="2"/>
<path d="M120.771 182.953C110.021 182.868 88.6174 172.115 93.3224 147.974C98.0273 123.833 114.502 118.684 121.734 118.85C130.774 119.058 148.395 132.398 148.663 152.577C148.953 174.474 131.521 183.037 120.771 182.953Z" fill="#75452F"/>
<path d="M116.434 177.869C107.392 177.798 89.3896 168.753 93.3469 148.448C97.3043 128.143 111.161 123.812 117.244 123.952C124.848 124.126 139.669 135.347 139.894 152.32C140.138 170.737 125.476 177.939 116.434 177.869Z" fill="#8B5338"/>
<path d="M111.796 167.275C107.814 167.184 99.831 162.345 101.452 151.749C103.073 141.153 109.15 138.971 111.83 139.08C115.18 139.217 121.775 145.174 121.975 154.053C122.193 163.687 115.779 167.366 111.796 167.275Z" fill="#A75E3D"/>
<path d="M135.293 86.5849C135.293 85.4418 136.065 83.1558 139.151 83.1558C142.237 83.1558 143.008 85.1878 143.008 86.2039" stroke="black" stroke-width="2"/>
<path d="M107.863 85.7274C107.863 84.5844 108.635 82.2983 111.721 82.2983C114.807 82.2983 115.579 84.3304 115.579 85.3464" stroke="black" stroke-width="2"/>
<path d="M118.578 90.8711C119.721 92.0141 122.007 94.3002 125.008 94.3002C128.008 94.3002 130.294 92.5856 131.437 91.7284" stroke="black" stroke-width="2"/>
<path d="M127.153 64.7242C125.153 63.2954 121.152 58.3804 121.152 50.1505C121.152 39.8632 126.725 35.5768 132.726 35.1482C138.727 34.7196 143.87 39.4346 144.727 45.8641C145.585 52.2937 144.299 55.7228 141.298 55.7228C138.298 55.7228 135.297 51.8651 135.726 43.721C136.155 35.5768 141.601 29.6566 144.727 28.7186C149.014 27.4327 151.443 28.8615 153.3 29.5759" stroke="black" stroke-width="2"/>
<path d="M162.297 188.601L215.877 229.75H197.445" stroke="black" stroke-width="2"/>
<path d="M165.094 98.0526C195.7 93.5183 219.504 82.7496 227.439 75.9482" stroke="black" stroke-width="2" stroke-linejoin="bevel"/>
<path d="M85.1781 100.32C45.1218 115.772 95.3648 119.094 123.719 107.121" stroke="black" stroke-width="2" stroke-linejoin="bevel"/>
</svg>
