<svg width="30" height="33" viewBox="0 0 30 33" fill="none" xmlns="http://www.w3.org/2000/svg">
<circle cx="15" cy="17.0347" r="14.5" stroke="black"/>
<circle cx="15.0004" cy="17.0345" r="12.931" fill="#296107"/>
<circle cx="14.4831" cy="17.5515" r="12.4138" fill="#C2ECA8"/>
<path d="M14.2842 12.9051C13.6322 12.4394 12.3281 10.8373 12.3281 8.15465C12.3281 4.80138 14.1445 3.40418 16.1006 3.26446C18.0566 3.12474 19.7333 4.66167 20.0127 6.75746C20.2922 8.85325 19.873 9.97102 18.895 9.97102C17.9169 9.97101 16.9389 8.71354 17.0786 6.05887C17.2183 3.40419 18.9935 1.47443 20.0127 1.16867C21.4099 0.749515 22.2017 1.21524 22.8071 1.44811" stroke="black"/>
<circle cx="10.345" cy="19.6209" r="1.03448" fill="black"/>
<circle cx="18.6204" cy="19.6209" r="1.03448" fill="black"/>
<path d="M16.5596 23.1958C16.187 22.8232 15.4418 22.078 14.4638 22.078C13.4857 22.078 12.7406 22.6369 12.368 22.9164" stroke="black"/>
</svg>
