<svg width="311" height="158" viewBox="0 0 311 158" fill="none" xmlns="http://www.w3.org/2000/svg">
<ellipse cx="80.5775" cy="10.2956" rx="4.48718" ry="6.11888" transform="rotate(-50.7528 80.5775 10.2956)" fill="#FFEDCC"/>
<ellipse cx="264.12" cy="8.52863" rx="4.48718" ry="6.11888" transform="rotate(-146.469 264.12 8.52863)" fill="#D2D9FF"/>
<path d="M20.8207 56.9885C16.2648 55.1613 12.2336 52.2321 9.08837 48.4635C8.83238 48.1687 8.58595 47.8514 8.31607 47.5685C6.65221 45.7727 5.48677 43.5732 4.93538 41.188C4.58312 39.9333 4.53286 38.6131 4.7887 37.3353C5.04454 36.0575 5.59921 34.8584 6.40736 33.8361C8.59252 31.0057 11.5687 30.1329 14.9359 30.1972C16.9626 30.2805 18.9717 30.6094 20.9192 31.1769C21.1788 31.271 21.4476 31.3376 21.7212 31.3755C22.5494 31.408 23.4752 31.7743 24.1649 31.1099C25.0724 30.422 25.6926 29.4221 25.9055 28.3035C26.2009 25.77 26.579 23.2715 26.9269 20.7603C27.0716 19.5873 27.3687 18.4382 27.8106 17.342C28.2337 16.1965 29.0057 15.2126 30.0177 14.529C31.0297 13.8455 32.2307 13.4969 33.4515 13.5322C35.4404 13.4452 37.4054 13.9936 39.0618 15.0981C42.0337 17.1034 44.468 19.8074 46.1511 22.9729C47.5251 25.3221 48.4795 27.8925 48.9715 30.5691C49.5272 33.6891 49.4845 36.8863 48.8458 39.9903C48.4321 42.2065 47.7646 44.3678 46.8564 46.4313C44.9683 50.2741 42.4947 53.638 38.8114 56.0097C35.5236 58.1493 31.6167 59.1324 27.7078 58.8038C25.3145 58.6607 22.9735 58.0436 20.8207 56.9885Z" fill="#FFE4E2"/>
<path d="M72.1404 109.54C72.4733 111.96 72.3637 114.419 71.817 116.8C71.5169 118.496 71.1 120.169 70.5693 121.807C69.8562 123.872 68.9303 125.857 67.8065 127.73C67.2104 128.716 66.5261 129.646 65.848 130.559C65.0077 131.643 64.0633 132.642 63.0282 133.541C61.3718 135.026 59.5323 136.293 57.5545 137.312C57.2871 137.462 57.0074 137.589 56.7186 137.693C55.7743 138.002 54.8534 138.379 53.963 138.821C52.6963 139.466 51.3107 139.844 49.892 139.931C48.1714 140.092 46.4366 139.862 44.8176 139.258C44.1773 138.99 43.6247 138.548 43.2224 137.982C42.8382 137.405 42.6142 136.737 42.5731 136.045C42.532 135.353 42.6753 134.662 42.9884 134.043C43.5441 132.776 44.3855 131.654 45.4468 130.765C47.1743 129.237 49.0354 127.867 51.0078 126.672C52.6201 125.672 54.3262 124.923 55.9341 123.956C56.4027 123.696 56.8232 123.358 57.177 122.955C57.2357 122.891 57.2779 122.813 57.2998 122.728C57.3217 122.644 57.3227 122.555 57.3027 122.47C57.2827 122.385 57.2424 122.306 57.1851 122.24C57.1278 122.174 57.0553 122.123 56.974 122.091C56.6287 121.919 56.2427 121.846 55.8585 121.879C54.8944 121.954 53.9515 122.2 53.0748 122.608C51.9866 123.083 50.8994 123.565 49.8518 124.109C48.7069 124.727 47.5084 125.239 46.271 125.641C45.1077 126.052 43.8542 126.138 42.6457 125.889C41.9329 125.735 41.2845 125.366 40.7875 124.832C40.4236 124.459 40.1823 123.983 40.0956 123.469C40.009 122.956 40.0812 122.427 40.3026 121.955C40.7008 120.959 41.2983 120.054 42.0585 119.297C44.0921 117.309 46.3882 115.608 48.8831 114.243C50.1442 113.593 51.3452 112.833 52.4716 111.971C52.7581 111.774 53.0085 111.53 53.2119 111.248C53.2436 111.2 53.2641 111.145 53.2717 111.088C53.2794 111.031 53.274 110.973 53.2561 110.918C53.2381 110.863 53.208 110.813 53.1681 110.772C53.1281 110.73 53.0793 110.698 53.0252 110.678C52.2657 110.398 51.4417 110.341 50.6512 110.516C48.8404 110.988 47.0549 111.541 45.2279 111.941C43.5936 112.374 41.8848 112.447 40.2196 112.155C39.0521 111.894 37.994 111.278 37.1908 110.391C36.8449 110.026 36.5852 109.588 36.4309 109.11C36.2767 108.631 36.2318 108.124 36.2996 107.625C36.3789 106.785 36.6164 105.968 36.9996 105.216C37.8065 103.735 38.8495 102.396 40.0875 101.252C41.048 100.319 42.0774 99.461 43.1669 98.6836C44.9035 97.488 46.7932 96.5318 48.7851 95.8407C50.193 95.3516 51.6518 95.0237 53.1337 94.8633C55.0393 94.6503 56.9679 94.7944 58.8206 95.2882C60.786 95.7639 62.6838 96.4845 64.4696 97.4331C65.8483 98.1921 67.1123 99.1429 68.224 100.257C69.027 101.076 69.6876 102.023 70.1784 103.06C71.2911 105.054 71.9604 107.264 72.1404 109.54Z" fill="#D2D9FF"/>
<path d="M292.388 86.3103C290.47 85.4945 288.553 84.6297 286.677 83.7649C285.951 83.4476 285.168 83.2784 284.376 83.2672C284.248 83.2507 284.119 83.267 283.999 83.3145C283.879 83.362 283.774 83.4392 283.692 83.5387C283.611 83.6383 283.556 83.7569 283.533 83.8835C283.509 84.0102 283.519 84.1406 283.56 84.2625C283.683 84.9924 284.031 85.6656 284.555 86.1879C285.308 86.9432 286.172 87.5788 287.117 88.0726C288.292 88.6192 289.459 89.1984 290.674 89.7043C292.488 90.4832 294.246 91.3855 295.937 92.4047C296.273 92.6113 296.585 92.8548 296.867 93.1308C297.309 93.4657 297.658 93.9098 297.877 94.4197C298.097 94.9295 298.18 95.4877 298.119 96.0395C298.059 96.5912 297.855 97.1178 297.53 97.5675C297.205 98.0173 296.768 98.3748 296.263 98.6052C295.127 99.2418 293.871 99.6363 292.575 99.7637C289.699 99.9956 286.805 99.7195 284.025 98.9478C282.87 98.6973 281.75 98.3083 280.688 97.7893C279.644 97.2264 278.559 96.7287 277.564 96.0924C275.372 94.793 273.467 93.0608 271.967 91.0015C270.099 88.356 268.789 85.3581 268.116 82.1903C267.845 80.6575 268.052 79.0783 268.708 77.667C269.365 76.2557 270.44 75.0806 271.787 74.301C275.022 72.5426 278.581 71.4601 282.247 71.1192C286.347 70.7207 290.486 71.0242 294.484 72.0166C295.473 72.2428 296.445 72.5316 297.397 72.8814C299.029 73.5015 300.717 73.9828 302.292 74.7334C305.229 76.0988 307.7 78.2976 309.398 81.0562C310.015 81.9477 310.379 82.9898 310.451 84.0716C310.523 85.1533 310.3 86.2344 309.806 87.1996C309.443 87.999 308.873 88.6876 308.157 89.195C307.44 89.7024 306.602 90.0105 305.727 90.0877C304.036 90.2246 302.333 90.0729 300.693 89.639C297.764 88.9455 295.129 87.4933 292.388 86.3103Z" fill="#FFEDCC"/>
<path d="M75.714 57.8326C76.6938 59.6714 77.6428 61.5484 78.5602 63.3998C78.926 64.1027 79.4285 64.7255 80.0382 65.2318C80.1272 65.3248 80.2384 65.3935 80.3613 65.4317C80.4842 65.4699 80.6149 65.4761 80.7409 65.4499C80.8669 65.4236 80.9841 65.3658 81.0816 65.2817C81.1791 65.1977 81.2536 65.0902 81.2981 64.9695C81.6608 64.3243 81.8127 63.5818 81.7326 62.846C81.6211 61.7855 81.3478 60.7484 80.9223 59.7706C80.3512 58.6075 79.807 57.4241 79.1786 56.2671C78.2562 54.5219 77.4545 52.7157 76.7789 50.861C76.647 50.4892 76.5572 50.1037 76.5111 49.7119C76.3768 49.1732 76.3847 48.6089 76.5339 48.0743C76.6832 47.5396 76.9687 47.0528 77.3626 46.6616C77.7564 46.2703 78.2451 45.9881 78.7808 45.8424C79.3165 45.6967 79.8808 45.6926 80.4185 45.8305C81.7024 46.0485 82.9273 46.5299 84.0159 47.2446C86.3997 48.8699 88.4787 50.9023 90.1578 53.2485C90.8993 54.1686 91.5269 55.1749 92.0272 56.2455C92.4865 57.3393 93.0184 58.408 93.3935 59.5283C94.2834 61.9159 94.6777 64.4598 94.5523 67.0048C94.3449 70.2366 93.4821 73.3925 92.0163 76.2803C91.2649 77.6435 90.1123 78.7426 88.715 79.4286C87.3176 80.1145 85.7431 80.3541 84.205 80.1147C80.5834 79.4519 77.1342 78.0599 74.0671 76.0232C70.6255 73.7584 67.5952 70.9234 65.1065 67.6401C64.4794 66.8435 63.9037 66.0078 63.3828 65.1381C62.5023 63.6309 61.4902 62.1958 60.7361 60.6229C59.3075 57.7158 58.7651 54.4529 59.1762 51.2399C59.2558 50.1587 59.627 49.1192 60.2504 48.2322C60.8738 47.3452 61.7261 46.6438 62.7164 46.2026C63.5012 45.8087 64.3766 45.6302 65.253 45.6854C66.1294 45.7405 66.9754 46.0273 67.7047 46.5165C69.1069 47.472 70.3364 48.6589 71.3405 50.0267C73.1845 52.4056 74.3234 55.1905 75.714 57.8326Z" fill="#E6F6E7"/>
<path d="M246.103 115.986C246.226 115.956 246.34 115.897 246.436 115.815C246.532 115.733 246.608 115.63 246.658 115.513C247.451 114.168 248.401 112.922 249.489 111.801C250.213 111.071 251.037 110.448 251.936 109.949C252.556 109.561 253.256 109.321 253.983 109.246C254.71 109.171 255.444 109.263 256.13 109.517C256.709 109.733 257.195 110.146 257.5 110.683C258.093 111.668 258.401 112.797 258.39 113.947C258.39 114.526 258.39 115.097 258.39 115.676C258.404 116.507 258.28 117.334 258.022 118.124C257.661 119.695 257.053 121.198 256.219 122.578C256.204 122.612 256.196 122.648 256.196 122.684C256.196 122.721 256.204 122.757 256.219 122.79C256.246 122.84 256.29 122.878 256.343 122.896C256.396 122.914 256.454 122.911 256.505 122.888L259.05 122.211C260.81 121.832 262.617 121.719 264.411 121.877C265.018 121.943 265.617 122.074 266.197 122.268C266.625 122.378 267.026 122.576 267.372 122.85C267.718 123.125 268.003 123.469 268.207 123.861C268.411 124.253 268.53 124.684 268.556 125.125C268.582 125.566 268.515 126.008 268.359 126.421C268.007 127.594 267.374 128.664 266.515 129.538C265.488 130.57 264.304 131.435 263.007 132.099C261.064 133.089 259.065 133.963 257.019 134.718C255.983 135.126 254.988 135.616 253.968 136.048C251.887 136.929 249.791 137.753 247.661 138.496C247.514 138.545 247.376 138.602 247.229 138.642C247.021 138.693 246.833 138.803 246.688 138.96C246.543 139.117 246.447 139.313 246.413 139.524C246.127 140.755 245.817 141.971 245.499 143.195C245.312 143.937 245.083 144.663 244.887 145.406C244.83 145.61 244.724 145.838 244.953 146.075C245.426 145.708 245.907 145.349 246.38 144.965C247.711 143.871 249.155 142.922 250.688 142.134C252.163 141.404 253.743 140.909 255.371 140.666C256.162 140.538 256.961 140.468 257.761 140.454C258.036 140.455 258.31 140.425 258.577 140.364C259.059 140.217 259.573 140.217 260.054 140.364C260.539 140.483 261.042 140.514 261.539 140.454C262.363 140.476 263.183 140.582 263.986 140.772C264.214 140.815 264.435 140.883 264.647 140.976C264.826 141.019 264.993 141.104 265.135 141.222C265.276 141.341 265.388 141.49 265.463 141.659C265.537 141.828 265.571 142.012 265.563 142.196C265.554 142.38 265.503 142.56 265.414 142.722C265.346 142.9 265.253 143.068 265.137 143.219C264.15 144.528 263.005 145.71 261.726 146.736C258.782 148.818 255.428 150.25 251.887 150.937C251.25 151.063 250.603 151.129 249.954 151.133C249.268 151.133 248.575 151.133 247.881 151.133C246.583 151.108 245.288 150.994 244.006 150.79C243.508 150.79 243.427 150.79 243.28 151.264C242.97 152.283 242.684 153.32 242.317 154.323C242.062 155.215 241.558 156.015 240.865 156.632C240.555 156.885 240.319 156.828 240.18 156.436C239.983 155.85 239.969 155.219 240.139 154.625C240.457 153.401 240.775 152.177 241.134 150.978C242.162 147.535 243.158 144.084 244.031 140.6C244.153 140.119 244.267 139.638 244.365 139.156C244.463 138.675 244.365 138.422 243.892 138.259C243.419 138.096 242.88 137.924 242.366 137.778C239.547 137.035 236.833 135.939 234.289 134.514C232.266 133.336 230.488 131.779 229.052 129.929C228.049 128.674 227.161 127.33 226.4 125.915C225.875 124.941 225.475 123.905 225.209 122.831C224.835 121.488 224.966 120.055 225.576 118.801C225.853 118.229 226.281 117.744 226.812 117.396C227.344 117.048 227.96 116.852 228.595 116.827C230.521 116.745 232.423 117.276 234.028 118.344C234.2 118.434 234.355 118.548 234.526 118.621C234.571 118.636 234.619 118.64 234.665 118.632C234.712 118.624 234.755 118.605 234.793 118.576C234.83 118.546 234.859 118.509 234.878 118.465C234.897 118.422 234.905 118.375 234.901 118.328C234.685 116.85 234.636 115.353 234.754 113.865C234.766 112.565 234.922 111.271 235.219 110.006C235.447 109.031 235.941 108.138 236.647 107.428C236.872 107.194 237.142 107.007 237.441 106.878C237.739 106.749 238.06 106.681 238.385 106.677C239.036 106.654 239.686 106.761 240.295 106.993C240.905 107.224 241.462 107.574 241.934 108.024C242.873 108.878 243.657 109.888 244.251 111.01C244.73 111.925 245.155 112.868 245.524 113.832C245.809 114.518 245.752 115.276 246.103 115.986Z" fill="#FFE4E2"/>
<path d="M251.72 47.4225C253.318 52.9072 252.87 58.3516 251.364 63.7814C251.059 64.8753 250.6 65.9205 250.001 66.8859C249.347 68.0203 248.383 68.9449 247.223 69.5516C246.062 70.1582 244.753 70.4218 243.448 70.3114C241.859 70.2721 240.298 69.8884 238.872 69.1867C237.446 68.485 236.189 67.4821 235.188 66.2472C233.945 64.771 232.911 63.131 232.115 61.3732C230.212 57.0921 228.031 52.9435 225.792 48.8275C224.634 46.6888 223.65 44.4599 222.852 42.1626C221.846 39.1812 221.768 35.9652 222.626 32.9381C222.989 31.5124 223.546 30.1434 224.282 28.8697C224.942 27.674 225.902 26.6713 227.068 25.9609C228.234 25.2505 229.566 24.857 230.931 24.8194C231.891 24.7396 232.857 24.8019 233.799 25.0043C237.738 25.748 241.287 27.8591 243.82 30.9651C245.285 32.8445 246.552 34.8704 247.6 37.0105C249.327 40.3308 250.707 43.8198 251.72 47.4225ZM244.486 49.7119C244.157 48.5032 243.752 47.3165 243.274 46.1591C242.142 43.5691 240.847 41.054 239.395 38.6289C238.699 37.3984 237.926 36.2137 237.079 35.0819C236.562 34.3334 235.881 33.7134 235.088 33.2697C234.294 32.826 233.409 32.5705 232.501 32.5228C231.731 32.4583 230.963 32.6633 230.329 33.1026C229.694 33.542 229.231 34.1884 229.02 34.9311C228.782 35.6345 228.692 36.3797 228.757 37.1196C228.911 39.2141 229.495 41.2545 230.472 43.1132C232.425 46.6891 234.132 50.3892 235.73 54.1265C236.564 56.1718 237.644 58.1076 238.947 59.891C239.532 60.7265 240.293 61.4237 241.176 61.9332C241.538 62.1766 241.953 62.3301 242.386 62.381C242.819 62.4319 243.258 62.3787 243.667 62.2259C244.075 62.073 244.442 61.8249 244.735 61.5021C245.028 61.1793 245.24 60.7912 245.353 60.3699C245.676 59.4621 245.823 58.5008 245.784 57.5379C245.687 54.8818 245.25 52.2491 244.484 49.704L244.486 49.7119Z" fill="#E6F6E7"/>
<ellipse cx="150" cy="150.949" rx="59" ry="7" fill="#D2D9FF"/>
<path d="M205.109 34.9193C194.498 41.243 187.837 49.777 185.571 58.8837" stroke="black" stroke-width="1.5"/>
<path d="M169.308 128.038L166.98 151.317H176.583" stroke="black" stroke-width="1.5"/>
<path d="M106.434 93.4996C106.401 108.904 124.59 139.506 157.504 136.452C190.418 133.399 200.481 108.584 200.937 89.7807C201.424 69.7024 185.443 58.972 183.76 43.5261C183.044 36.9559 182.593 29.8648 179.463 23.1029C175.39 12.9121 164.348 6.02127 151.842 6.10536C136.128 6.21101 125.756 14.7593 122.019 24.0676C118.906 31.8245 119.473 37.1461 118.936 44.597C117.47 64.9238 106.491 66.0475 106.434 93.4996Z" stroke="black" stroke-width="1.5"/>
<path d="M110.639 91.5331C110.613 105.562 127.236 133.436 157.305 130.662C187.373 127.888 195.85 105.29 196.262 88.1656C196.703 69.8799 182.812 60.1041 181.271 46.0367C180.616 40.0529 180.203 33.5948 177.342 27.4358C173.619 18.1539 163.53 11.876 152.105 11.95C137.75 12.043 128.275 19.8261 124.864 28.3026C122.021 35.3664 122.54 40.213 122.051 46.9987C120.716 65.5106 110.686 66.5317 110.639 91.5331Z" fill="#296107"/>
<path d="M116.458 92.7866C116.627 106.38 132.504 133.081 160.489 129.837C188.473 126.593 196.718 105.25 196.873 87.9258C197.047 68.4682 183.288 60.9975 181.658 47.3954C180.965 41.6095 180.452 34.8514 177.701 28.9366C174.104 20.0118 164.653 14.6236 154.006 14.9067C140.629 15.2625 131.906 22.9793 128.844 31.2558C126.291 38.1529 126.843 42.8395 126.48 49.4235C125.491 67.3854 116.157 68.5604 116.458 92.7866Z" fill="#C2ECA8"/>
<path d="M116.457 92.7871C116.626 106.381 132.503 133.082 160.487 129.837C146.418 127.938 124.722 122.46 120.637 92.7871C118.33 76.0314 130.649 64.3438 129.918 49.4241C129.574 42.4107 129.574 34.0935 134.043 26.8747C137.618 21.0996 145.731 15.8746 154.005 14.9073C140.627 15.2631 131.905 22.9799 128.842 31.2564C126.29 38.1535 126.841 42.8401 126.479 49.4241C125.489 67.386 116.156 68.561 116.457 92.7871Z" fill="#A6D489"/>
<path d="M159.67 116.637C166.968 116.58 181.498 109.28 178.304 92.8908C175.11 76.502 163.925 73.0065 159.016 73.1192C152.879 73.26 140.916 82.3167 140.735 96.0159C140.538 110.881 152.372 116.694 159.67 116.637Z" fill="#75452F"/>
<path d="M161.09 111.974C166.822 111.929 178.233 106.196 175.724 93.3255C173.216 80.4553 164.433 77.7102 160.577 77.7987C155.758 77.9093 146.363 85.0216 146.221 95.7797C146.066 107.453 155.359 112.019 161.09 111.974Z" fill="#8B5338"/>
<path d="M163.393 104.719C166.067 104.384 171.116 100.475 169.311 93.2211C167.506 85.9668 163.268 84.8653 161.471 85.1244C159.226 85.4484 155.187 90.0398 155.65 96.2247C156.152 102.936 160.718 105.055 163.393 104.719Z" fill="#A75E3D"/>
<path d="M134.68 118.144L132.643 151.317H123.04" stroke="black" stroke-width="1.5"/>
<path d="M98.2932 36.0833C114.166 44.185 120.206 55.3684 121.472 63.9359" stroke="black" stroke-width="1.5"/>
<path d="M152.229 50.6331C152.229 49.8571 151.705 48.3052 149.61 48.3052C147.514 48.3052 146.991 49.6847 146.991 50.3745" stroke="black" stroke-width="1.5"/>
<path d="M170.853 50.0511C170.853 49.2751 170.329 47.7231 168.234 47.7231C166.138 47.7231 165.615 49.1027 165.615 49.7924" stroke="black" stroke-width="1.5"/>
<path d="M163.578 53.543C162.802 54.319 161.25 55.8709 159.213 55.8709C157.176 55.8709 155.624 54.7069 154.848 54.125" stroke="black" stroke-width="1.5"/>
<path d="M158.611 3.47131C157.074 2.82185 152.809 2.25398 148.049 5.17815C142.098 8.83337 141.598 13.5798 143.482 17.2035C145.367 20.8272 149.922 22.1274 153.946 20.3388C157.97 18.5502 159.496 16.5879 158.43 14.8522C157.364 13.1165 154.066 12.7515 149.508 15.8932C144.949 19.0348 143.459 24.2888 144.027 26.4308C144.807 29.3673 146.496 30.2647 147.569 31.0853" stroke="black" stroke-width="1.5"/>
</svg>
