<svg width="49" height="62" viewBox="0 0 49 62" fill="none" xmlns="http://www.w3.org/2000/svg">
<path d="M17.5387 51.9463L18.4795 61.3545H14.5986" stroke="black"/>
<path d="M10.3986 27.6298C7.90676 31.9557 4.49811 34.6985 0.83168 35.6686" stroke="black"/>
<path d="M42.3859 35.8202C42.9927 41.4573 37.4964 53.3663 25.294 53.5294C13.0916 53.6924 8.6942 44.9739 7.80059 38.109C6.8464 30.7786 12.0437 26.2562 12.0652 20.537C12.0743 18.1042 11.9658 15.4911 12.8538 12.8943C13.9555 9.00566 17.7435 6.05376 22.3386 5.59792C28.1119 5.0252 32.2504 7.75057 33.9818 11.0123C35.4247 13.7304 35.4217 15.7004 35.9068 18.4068C37.2302 25.79 41.3046 25.7741 42.3859 35.8202Z" fill="#296107"/>
<path d="M40.1007 36.5712C40.6105 42.0417 35.3645 53.4476 23.9796 53.333C12.5946 53.2185 8.37395 44.9912 7.57542 38.0353C6.67854 30.2226 11.8906 26.6354 11.9676 21.0994C12.0004 18.7446 11.9194 16.0067 12.7736 13.5126C13.8401 9.77282 17.4092 7.20565 21.7003 6.86695C27.0918 6.4414 30.9254 9.17209 32.508 12.3683C33.8269 15.0317 33.8045 16.9387 34.2301 19.5694C35.3911 26.7463 39.1921 26.8219 40.1007 36.5712Z" fill="#C2ECA8"/>
<path d="M40.1008 36.571C40.6107 42.0415 35.3647 53.4474 23.9797 53.3329C29.5534 51.9716 38.0403 48.848 38.4211 36.7486C38.6361 29.9164 33.1881 25.7427 32.848 19.7154C32.6881 16.8821 32.3346 13.5394 30.2318 10.8281C28.5495 8.65902 25.067 6.90385 21.7005 6.86676C27.092 6.44121 30.9255 9.17189 32.5082 12.3681C33.8271 15.0315 33.8047 16.9385 34.2303 19.5692C35.3912 26.7461 39.1923 26.8217 40.1008 36.571Z" fill="#A6D489"/>
<path d="M44.1593 36.432C44.8269 42.6215 38.8173 55.6935 25.4593 55.8652C12.1014 56.0369 7.00256 46.4915 6.02021 38.9537C4.97127 30.9049 10.9379 25.9132 10.958 19.6339C10.9665 16.9629 10.8462 14.0938 11.8167 11.2432C13.0205 6.9744 17.1654 3.73569 22.1954 3.23796C28.5151 2.6126 33.0471 5.60735 34.9445 9.18955C36.5256 12.1747 36.5235 14.3376 37.0562 17.3093C38.5094 25.4164 42.9696 25.4014 44.1593 36.432Z" stroke="black"/>
<path d="M22.5241 48.0056C19.5887 48.2928 13.4385 45.9763 14.0257 39.2539C14.6129 32.5315 18.9594 30.6513 20.9374 30.4879C23.4098 30.2837 28.6026 33.4151 29.2577 38.9131C29.9687 44.8791 25.4596 47.7184 22.5241 48.0056Z" fill="#75452F"/>
<path d="M21.9171 46.6253C19.4619 46.8656 14.318 44.928 14.8091 39.3055C15.3003 33.6829 18.9356 32.1104 20.59 31.9737C22.6579 31.8029 27.001 34.422 27.549 39.0205C28.1436 44.0103 24.3723 46.3851 21.9171 46.6253Z" fill="#8B5338"/>
<path d="M20.8348 43.5991C19.6529 43.6247 17.2191 42.2813 17.553 39.0859C17.8868 35.8906 19.6583 35.1564 20.4542 35.1536C21.4492 35.1501 23.487 36.847 23.6695 39.5037C23.8675 42.3864 22.0168 43.5736 20.8348 43.5991Z" fill="#A75E3D"/>
<path d="M18.8672 22.8057C19.212 23.0846 19.9017 23.6423 20.7204 23.5558C21.5391 23.4692 22.1133 22.9354 22.4005 22.6685" stroke="black"/>
<path d="M20.4518 15.4248C19.8648 15.0926 18.6315 13.867 18.394 11.6216C18.0972 8.81472 19.4939 7.48444 21.1189 7.19435C22.7438 6.90425 24.2833 8.04232 24.7027 9.77184C25.1221 11.5014 24.8702 12.4741 24.0515 12.5607C23.2329 12.6472 22.3029 11.6812 22.1849 9.44681C22.0668 7.21237 23.3819 5.43994 24.208 5.0938C25.3404 4.61928 26.0443 4.93903 26.5717 5.08036" stroke="black"/>
<circle cx="16.9398" cy="21.3542" r="0.940826" transform="rotate(-6.03641 16.9398 21.3542)" fill="black"/>
<circle cx="24.1908" cy="20.5876" r="0.940826" transform="rotate(-6.03641 24.1908 20.5876)" fill="black"/>
<path d="M31.6582 47.9482L32.4814 61.355H36.3623" stroke="black"/>
<path d="M36.1354 27.0602C40.0978 33.0744 44.8593 35.0015 48.3571 35.1278" stroke="black"/>
</svg>
