<svg width="122" height="164" viewBox="0 0 122 164" fill="none" xmlns="http://www.w3.org/2000/svg">
<path d="M113.736 79.0005C105.287 68.736 95.1275 63.033 85.0711 62.0991" stroke="black" stroke-width="2.5"/>
<path d="M71.3756 137.87L68.8702 162.924H79.2051" stroke="black" stroke-width="2.5"/>
<path d="M3.70652 100.699C3.67195 117.277 23.2475 150.212 58.6705 146.926C94.0935 143.64 104.923 116.934 105.414 96.6968C105.938 75.088 88.7387 63.5395 86.9272 46.9162C86.1566 39.8451 85.6717 32.2135 82.3033 24.9361C77.92 13.9685 66.0363 6.55237 52.5764 6.64288C35.6651 6.75658 24.5019 15.9565 20.4805 25.9744C17.1293 34.3226 17.7404 40.0499 17.162 48.0687C15.584 69.9451 3.76813 71.1544 3.70652 100.699Z" stroke="black" stroke-width="2.5"/>
<path d="M8.23372 98.5836C8.20556 113.682 26.0959 143.681 58.4564 140.695C90.817 137.71 99.9398 113.39 100.384 94.9594C100.858 75.2797 85.9086 64.7586 84.2502 49.6189C83.5448 43.1789 83.1002 36.2285 80.0215 29.6001C76.0148 19.6106 65.1568 12.8541 52.8602 12.9338C37.4106 13.0338 27.2142 21.4102 23.5425 30.5329C20.4827 38.1352 21.0421 43.3513 20.5154 50.6542C19.0783 70.5773 8.28393 71.6763 8.23372 98.5836Z" fill="#296107"/>
<path d="M14.4955 99.9324C14.6774 114.562 31.7641 143.299 61.882 139.807C91.9999 136.315 100.873 113.346 101.04 94.7011C101.227 73.7603 86.4199 65.7201 84.6657 51.0811C83.9195 44.8541 83.3674 37.5808 80.4067 31.2152C76.5349 21.61 66.3644 15.811 54.9055 16.1157C40.5084 16.4986 31.121 24.8037 27.8248 33.7111C25.078 41.134 25.6713 46.1778 25.281 53.2638C24.2163 72.5949 14.1714 73.8595 14.4955 99.9324Z" fill="#C2ECA8"/>
<path d="M14.4951 99.9326C14.6769 114.563 31.7637 143.299 61.8816 139.807C46.7401 137.763 23.3899 131.868 18.9932 99.9326C16.5106 81.8995 29.7691 69.3209 28.9821 53.2639C28.6122 45.7159 28.6122 36.7646 33.4216 28.9955C37.2692 22.7802 46.0002 17.1569 54.905 16.1159C40.5079 16.4988 31.1206 24.8038 27.8244 33.7113C25.0775 41.1341 25.6708 46.178 25.2805 53.2639C24.2158 72.5951 14.171 73.8597 14.4951 99.9326Z" fill="#A6D489"/>
<path d="M61.0024 125.601C68.8566 125.54 84.4949 117.683 81.0573 100.045C77.6197 82.4064 65.5825 78.6445 60.2988 78.7658C53.694 78.9173 40.8192 88.6643 40.6238 103.408C40.4118 119.406 53.1481 125.663 61.0024 125.601Z" fill="#75452F"/>
<path d="M62.5309 120.583C68.6988 120.534 80.9798 114.364 78.2802 100.513C75.5806 86.6614 66.1277 83.7071 61.9783 83.8023C56.7915 83.9213 46.6808 91.5758 46.5274 103.154C46.3609 115.718 56.3629 120.631 62.5309 120.583Z" fill="#8B5338"/>
<path d="M65.0076 112.775C67.8863 112.413 73.3192 108.207 71.3767 100.4C69.4342 92.5923 64.8734 91.4068 62.9398 91.6858C60.5229 92.0344 56.1768 96.9759 56.6748 103.632C57.2151 110.855 62.1288 113.136 65.0076 112.775Z" fill="#A75E3D"/>
<path d="M34.1072 127.223L31.9149 162.925H21.5801" stroke="black" stroke-width="2.5"/>
<path d="M115.6 78.0723L116.1 71.5723C106.267 80.0723 92.6 94.0723 65.6 98.0723C43.6975 101.317 7.53465 96.0322 8.09961 92.0723C8.59735 88.5836 8.5996 88.5723 9.09478 86.0964L9.09961 86.0723C4.09897 87.5723 -1.40112 99.5723 12.1 104.572C29.0446 110.848 55.5999 110.572 76.0999 106.572C92.4999 103.372 113.6 87.0723 121.6 79.5723L115.6 78.0723Z" fill="#FFE4E2"/>
<path d="M42.2403 102.74C26.837 91.3134 22.419 78.3675 22.6015 69.0485" stroke="black" stroke-width="2.5"/>
<path d="M52.9922 54.565C52.9922 53.7298 52.4285 52.0596 50.1736 52.0596C47.9187 52.0596 47.355 53.5443 47.355 54.2866" stroke="black" stroke-width="2.5"/>
<path d="M73.0371 53.939C73.0371 53.1039 72.4734 51.4336 70.2185 51.4336C67.9636 51.4336 67.3999 52.9183 67.3999 53.6606" stroke="black" stroke-width="2.5"/>
<path d="M65.209 57.6973C64.3738 58.5324 62.7036 60.2027 60.5113 60.2027C58.3191 60.2027 56.6488 58.95 55.8137 58.3236" stroke="black" stroke-width="2.5"/>
<path d="M59.8611 3.80869C58.2067 3.10972 53.6169 2.49856 48.4932 5.64565C42.0886 9.57951 41.5508 14.6878 43.5787 18.5877C45.6066 22.4876 50.509 23.8869 54.8397 21.962C59.1704 20.037 60.8135 17.9251 59.6662 16.0571C58.5188 14.1891 54.9697 13.7963 50.0633 17.1775C45.1569 20.5586 43.5537 26.2131 44.1654 28.5184C45.0039 31.6787 46.8223 32.6445 47.9773 33.5277" stroke="black" stroke-width="2.5"/>
</svg>
