<svg width="143" height="188" viewBox="0 0 143 188" fill="none" xmlns="http://www.w3.org/2000/svg">
<ellipse cx="78" cy="172.289" rx="52" ry="15" fill="#5A73D8"/>
<path d="M104.81 162.95C105.895 162.95 107.111 163.179 107.48 164.284L111.977 176.639C112.346 177.745 111.749 178.94 110.643 179.309L104.692 179.5C103.257 179.5 102.391 179.272 102.022 178.166L97.98 165.591C97.611 164.485 98.2082 163.29 99.3139 162.921L104.81 162.95Z" fill="white"/>
<path d="M103.069 167.156L102.899 166.622L101.894 166.943L101.722 166.404L102.727 166.083L102.297 164.734L102.756 164.588L105.376 165.307L105.528 165.783L103.435 166.451L103.606 166.985L103.069 167.156ZM104.408 165.547L103.016 165.138L103.263 165.912L104.408 165.547Z" fill="#5A73D8"/>
<path d="M103.96 167.17C104.272 167.07 104.555 167.011 104.806 166.993C105.062 166.974 105.282 166.99 105.469 167.041C105.657 167.096 105.812 167.182 105.933 167.301C106.057 167.418 106.147 167.564 106.203 167.739C106.322 168.113 106.261 168.45 106.02 168.749C105.782 169.048 105.343 169.299 104.704 169.503C104.387 169.603 104.102 169.663 103.847 169.683C103.595 169.701 103.373 169.683 103.182 169.63C102.995 169.578 102.839 169.492 102.714 169.372C102.593 169.254 102.504 169.107 102.448 168.932C102.328 168.555 102.396 168.216 102.653 167.915C102.912 167.613 103.348 167.365 103.96 167.17ZM104.522 168.933C104.577 168.915 104.628 168.897 104.675 168.879C104.727 168.863 104.776 168.845 104.823 168.827L103.326 168.103C103.042 168.294 102.939 168.512 103.017 168.755C103.078 168.945 103.229 169.059 103.472 169.096C103.715 169.133 104.065 169.078 104.522 168.933ZM104.141 167.739C104.09 167.756 104.04 167.772 103.992 167.787C103.948 167.804 103.903 167.822 103.856 167.84L105.352 168.56C105.619 168.377 105.713 168.162 105.635 167.916C105.574 167.726 105.421 167.613 105.174 167.577C104.933 167.543 104.588 167.597 104.141 167.739Z" fill="#5A73D8"/>
<path d="M103.599 171.114C103.719 171.075 103.824 171.078 103.913 171.121C104.006 171.164 104.07 171.238 104.104 171.345C104.14 171.458 104.132 171.558 104.081 171.647C104.033 171.734 103.949 171.797 103.829 171.835C103.708 171.873 103.602 171.871 103.509 171.829C103.416 171.787 103.351 171.709 103.315 171.596C103.281 171.49 103.29 171.392 103.341 171.304C103.393 171.215 103.478 171.152 103.599 171.114Z" fill="#5A73D8"/>
<path d="M104.541 175.245L103.908 173.26L104.408 173.1C104.454 173.125 104.513 173.155 104.585 173.191C104.66 173.226 104.745 173.264 104.838 173.307C104.932 173.352 105.033 173.398 105.143 173.445C105.252 173.492 105.365 173.536 105.481 173.577C105.643 173.637 105.79 173.686 105.92 173.727C106.051 173.77 106.171 173.8 106.279 173.818C106.391 173.838 106.496 173.846 106.593 173.841C106.693 173.835 106.791 173.817 106.888 173.786C106.956 173.764 107.019 173.729 107.076 173.682C107.133 173.634 107.177 173.579 107.21 173.516C107.247 173.452 107.268 173.382 107.274 173.305C107.284 173.23 107.276 173.152 107.25 173.072C107.216 172.965 107.166 172.873 107.1 172.796C107.035 172.722 106.942 172.652 106.823 172.585L107.223 172.203C107.366 172.294 107.496 172.405 107.613 172.534C107.734 172.666 107.827 172.831 107.89 173.03C107.931 173.157 107.949 173.286 107.945 173.415C107.941 173.546 107.913 173.67 107.859 173.785C107.809 173.903 107.732 174.007 107.629 174.099C107.526 174.191 107.395 174.262 107.237 174.312C107.127 174.347 107.021 174.371 106.919 174.384C106.822 174.399 106.719 174.404 106.612 174.399C106.508 174.396 106.398 174.382 106.28 174.357C106.164 174.336 106.034 174.305 105.893 174.265C105.785 174.234 105.673 174.198 105.557 174.156C105.446 174.116 105.338 174.076 105.234 174.034C105.13 173.992 105.031 173.948 104.937 173.903C104.844 173.861 104.765 173.82 104.7 173.782L105.109 175.065L104.541 175.245Z" fill="#5A73D8"/>
<path d="M106.514 175.179C106.826 175.079 107.109 175.02 107.36 175.002C107.616 174.983 107.837 174.999 108.023 175.05C108.211 175.105 108.366 175.191 108.487 175.31C108.611 175.427 108.701 175.573 108.757 175.748C108.876 176.122 108.815 176.459 108.574 176.758C108.336 177.057 107.897 177.308 107.258 177.512C106.942 177.612 106.656 177.673 106.401 177.692C106.149 177.71 105.928 177.692 105.736 177.639C105.549 177.587 105.393 177.501 105.268 177.381C105.147 177.263 105.058 177.116 105.003 176.941C104.882 176.564 104.95 176.225 105.207 175.924C105.466 175.622 105.902 175.374 106.514 175.179ZM107.076 176.942C107.131 176.924 107.182 176.906 107.229 176.888C107.281 176.872 107.33 176.854 107.377 176.836L105.88 176.112C105.596 176.303 105.493 176.521 105.571 176.764C105.632 176.954 105.783 177.068 106.026 177.105C106.269 177.142 106.619 177.088 107.076 176.942ZM106.695 175.749C106.644 175.765 106.594 175.781 106.546 175.796C106.502 175.813 106.457 175.831 106.41 175.849L107.906 176.569C108.173 176.386 108.267 176.171 108.189 175.925C108.128 175.735 107.975 175.622 107.728 175.586C107.487 175.552 107.142 175.606 106.695 175.749Z" fill="#5A73D8"/>
<path d="M79.4389 145.831L76.8931 171.289H87.3945" stroke="black" stroke-width="2.5"/>
<path d="M19.4589 96.1157C16.1775 111.102 27.4784 144.746 60.2559 148.755C93.0334 152.764 107.413 130.597 111.826 112.391C116.537 92.9515 103.879 79.2653 105.495 63.8741C106.182 57.3271 107.238 50.3295 105.61 43.084C103.783 32.3011 94.4573 23.2521 82.2296 20.6814C66.8666 17.4516 54.9364 23.5722 49.3246 31.8399C44.648 38.7296 44.0795 44.0298 41.9827 51.1681C36.2626 70.6422 25.3069 69.4074 19.4589 96.1157Z" fill="#296107"/>
<path d="M25.3842 98.8057C22.4123 113.373 33.1872 145.59 63.8468 148.613C94.5065 151.635 108.267 130.738 112.451 112.26C117.149 91.5062 104.178 80.3314 105.59 65.4168C106.191 59.0726 107.21 51.7312 105.642 44.7721C103.867 34.3998 95.0174 26.4498 83.5729 24.2831C69.194 21.561 58.0827 27.7851 52.8901 35.9199C48.563 42.6989 48.0652 47.8354 46.1507 54.7876C40.9279 73.7542 30.6808 72.8454 25.3842 98.8057Z" fill="#C2ECA8"/>
<path d="M25.3858 98.8054C22.4138 113.372 33.1888 145.59 63.8484 148.612C49.2533 143.32 27.3368 132.434 29.8526 99.7747C31.2731 81.3328 47.1495 71.6993 49.828 55.585C51.0871 48.0101 53.016 39.1214 59.466 32.443C64.6259 27.1003 74.5076 23.3977 83.5745 24.2829C69.1956 21.5607 58.0843 27.7848 52.8917 35.9196C48.5645 42.6987 48.0668 47.8351 46.1523 54.7873C40.9295 73.7539 30.6824 72.8451 25.3858 98.8054Z" fill="#A6D489"/>
<path d="M14.5083 97.2421C10.9016 113.697 23.2433 150.62 59.1265 154.99C95.0098 159.36 111.519 135.174 116.367 115.184C121.543 93.8395 106.953 78.6656 108.736 61.7682C109.495 54.5805 110.658 46.8978 108.881 38.9455C106.892 27.11 96.6895 17.185 83.3042 14.3744C66.4867 10.8432 53.4191 17.5733 47.2671 26.6545C42.1405 34.2221 41.5132 40.041 39.2108 47.8792C32.9298 69.2625 20.936 67.9172 14.5083 97.2421Z" stroke="black" stroke-width="2.5"/>
<path d="M66.3279 134.38C74.1404 136.012 91.3624 131.579 91.7496 113.324C92.1368 95.0684 80.9946 88.7389 75.7216 87.7207C69.1304 86.448 54.2453 93.3525 50.8743 107.951C47.2163 123.791 58.5154 132.749 66.3279 134.38Z" fill="#75452F"/>
<path d="M68.3687 130.846C74.903 132.21 89.3073 128.503 89.6311 113.235C89.955 97.9659 80.6357 92.672 76.2255 91.8204C70.7127 90.756 58.263 96.5308 55.4435 108.741C52.3841 121.989 61.8344 129.481 68.3687 130.846Z" fill="#8B5338"/>
<path d="M72.1623 123.019C75.3344 123.434 82.2744 120.532 82.3112 111.839C82.348 103.145 77.7975 100.652 75.6571 100.412C72.9815 100.111 67.0034 104.08 65.7352 111.173C64.359 118.87 68.9902 122.605 72.1623 123.019Z" fill="#A75E3D"/>
<path d="M85.3398 66.0898C84.2864 66.6648 82.1796 67.8146 80.0424 67.1865C77.9051 66.5585 76.6357 64.8587 76.001 64.0088" stroke="black" stroke-width="2.5"/>
<path d="M79.4093 40.0546C81.2021 40.3958 85.8923 40.023 90.3104 35.8027C95.8331 30.5273 95.2767 25.3377 92.4295 21.8964C89.5822 18.455 84.4133 18.1116 80.522 20.9485C76.6308 23.7854 75.4493 26.2342 76.9879 27.845C78.5266 29.4557 82.1363 29.0882 86.2886 24.6818C90.4409 20.2753 90.8263 14.3157 89.7265 12.1561C88.2187 9.19558 86.2061 8.62431 84.8701 7.99351" stroke="black" stroke-width="2.5"/>
<circle cx="2.5458" cy="2.5458" r="2.5458" transform="matrix(-0.959431 -0.281943 -0.281943 0.959431 94.3359 61.4355)" fill="black"/>
<circle cx="2.5458" cy="2.5458" r="2.5458" transform="matrix(-0.959431 -0.281943 -0.281943 0.959431 75.4043 55.873)" fill="black"/>
<path d="M47.2964 135.012L49.524 171.289H60.0254" stroke="black" stroke-width="2.5"/>
<path d="M44.9411 73.7872C47.5225 93.1037 56.8588 103.401 65.2338 107.823" stroke="black" stroke-width="2.5"/>
<path d="M107.06 87.9193C100.872 99.9275 92.006 107.772 82.2186 110.859" stroke="black" stroke-width="2.5"/>
</svg>
