<svg width="49" height="64" viewBox="0 0 49 64" fill="none" xmlns="http://www.w3.org/2000/svg">
<path d="M46.0645 14.6346C41.6172 17.285 38.8256 20.8617 37.876 24.6784" stroke="black"/>
<path d="M31.0594 53.6621L30.0837 63.4188H34.1084" stroke="black"/>
<path d="M4.70835 39.1862C4.69489 45.6422 12.3181 58.4678 26.1127 57.1882C39.9073 55.9085 44.1248 45.5083 44.3158 37.6276C44.5198 29.2126 37.822 24.7153 37.1166 18.2417C36.8165 15.4881 36.6277 12.5161 35.3159 9.68213C33.609 5.41105 28.9812 2.52303 23.7395 2.55827C17.1538 2.60255 12.8066 6.18525 11.2406 10.0865C9.93553 13.3374 10.1735 15.5678 9.94825 18.6906C9.33376 27.2098 4.73234 27.6807 4.70835 39.1862Z" stroke="black"/>
<path d="M6.47154 38.3624C6.46057 44.242 13.4275 55.9243 26.0295 54.7617C38.6316 53.5991 42.1842 44.1282 42.3571 36.951C42.5418 29.2873 36.7201 25.1901 36.0743 19.2943C35.7996 16.7864 35.6265 14.0797 34.4275 11.4984C32.8672 7.60829 28.6388 4.97713 23.8502 5.00815C17.8338 5.04713 13.863 8.3091 12.4332 11.8617C11.2416 14.8222 11.4595 16.8535 11.2543 19.6975C10.6947 27.456 6.49109 27.884 6.47154 38.3624Z" fill="#296107"/>
<path d="M8.90983 38.8877C8.98064 44.585 15.6347 55.7757 27.3633 54.4159C39.092 53.0562 42.5475 44.1112 42.6125 36.8505C42.6854 28.6956 36.919 25.5645 36.2359 19.8638C35.9453 17.4388 35.7303 14.6064 34.5773 12.1275C33.0695 8.38695 29.1089 6.12868 24.6465 6.24736C19.0399 6.39647 15.3842 9.63066 14.1006 13.0994C13.0309 15.9901 13.2619 17.9543 13.11 20.7137C12.6953 28.2418 8.78362 28.7343 8.90983 38.8877Z" fill="#C2ECA8"/>
<path d="M8.90977 38.8885C8.98059 44.5858 15.6346 55.7764 27.3633 54.4167C21.4668 53.6207 12.3737 51.3249 10.6615 38.8885C9.69466 31.8659 14.8579 26.9675 14.5514 20.7145C14.4073 17.7751 14.4073 14.2893 16.2803 11.2638C17.7786 8.84337 21.1787 6.65349 24.6464 6.24811C19.0398 6.39722 15.3842 9.63141 14.1005 13.1002C13.0309 15.9908 13.2619 17.9551 13.1099 20.7145C12.6953 28.2426 8.78357 28.735 8.90977 38.8885Z" fill="#A6D489"/>
<path d="M27.0203 48.8845C30.0789 48.8606 36.1689 45.8008 34.8302 38.9321C33.4915 32.0634 28.8039 30.5984 26.7463 30.6456C24.1742 30.7046 19.1604 34.5004 19.0844 40.2419C19.0018 46.472 23.9616 48.9085 27.0203 48.8845Z" fill="#75452F"/>
<path d="M27.6159 46.9298C30.0178 46.911 34.8003 44.5081 33.749 39.114C32.6978 33.72 29.0166 32.5695 27.4007 32.6066C25.3808 32.6529 21.4434 35.6338 21.3837 40.1426C21.3189 45.0352 25.2139 46.9486 27.6159 46.9298Z" fill="#8B5338"/>
<path d="M28.5811 43.8888C29.7021 43.7482 31.8178 42.1101 31.0614 39.0697C30.3049 36.0293 28.5288 35.5677 27.7758 35.6763C26.8346 35.8121 25.1421 37.7364 25.3361 40.3286C25.5465 43.1413 27.46 44.0294 28.5811 43.8888Z" fill="#A75E3D"/>
<path d="M16.5463 49.5156L15.6926 63.419H11.668" stroke="black"/>
<path d="M1.29671 15.1231C7.94908 18.5186 10.4804 23.2057 11.0111 26.7964" stroke="black"/>
<path d="M23.9014 21.2208C23.9014 20.8956 23.6818 20.2451 22.8037 20.2451C21.9256 20.2451 21.7061 20.8233 21.7061 21.1124" stroke="black"/>
<path d="M31.707 20.9767C31.707 20.6514 31.4875 20.001 30.6094 20.001C29.7313 20.001 29.5118 20.5792 29.5118 20.8682" stroke="black"/>
<path d="M28.6582 22.4404C28.333 22.7657 27.6825 23.4161 26.8288 23.4161C25.9751 23.4161 25.3247 22.9283 24.9994 22.6843" stroke="black"/>
<path d="M26.5766 1.45451C25.9323 1.18231 24.1449 0.94431 22.1496 2.16987C19.6555 3.70181 19.4461 5.6911 20.2358 7.20983C21.0256 8.72856 22.9347 9.27347 24.6211 8.52385C26.3076 7.77423 26.9475 6.95181 26.5007 6.22437C26.0539 5.49692 24.6718 5.34395 22.7611 6.66066C20.8504 7.97737 20.2261 10.1793 20.4643 11.0771C20.7908 12.3078 21.4989 12.6839 21.9488 13.0279" stroke="black"/>
</svg>
